G04 EAGLE Gerber RS-274X export*
G75*
%MOMM*%
%FSLAX34Y34*%
%LPD*%
%INSoldermask Bottom*%
%IPPOS*%
%AMOC8*
5,1,8,0,0,1.08239X$1,22.5*%
G01*
%ADD10C,1.152400*%
%ADD11C,0.264381*%
%ADD12C,2.032000*%
%ADD13C,0.802400*%
%ADD14C,0.255816*%
%ADD15C,0.852400*%
%ADD16C,1.270000*%
%ADD17C,1.652400*%


D10*
X25400Y10211D03*
X482600Y264211D03*
D11*
X70540Y28151D02*
X70540Y4271D01*
X56660Y4271D01*
X56660Y28151D01*
X70540Y28151D01*
X70540Y6783D02*
X56660Y6783D01*
X56660Y9295D02*
X70540Y9295D01*
X70540Y11807D02*
X56660Y11807D01*
X56660Y14319D02*
X70540Y14319D01*
X70540Y16831D02*
X56660Y16831D01*
X56660Y19343D02*
X70540Y19343D01*
X70540Y21855D02*
X56660Y21855D01*
X56660Y24367D02*
X70540Y24367D01*
X70540Y26879D02*
X56660Y26879D01*
X95940Y28151D02*
X95940Y4271D01*
X82060Y4271D01*
X82060Y28151D01*
X95940Y28151D01*
X95940Y6783D02*
X82060Y6783D01*
X82060Y9295D02*
X95940Y9295D01*
X95940Y11807D02*
X82060Y11807D01*
X82060Y14319D02*
X95940Y14319D01*
X95940Y16831D02*
X82060Y16831D01*
X82060Y19343D02*
X95940Y19343D01*
X95940Y21855D02*
X82060Y21855D01*
X82060Y24367D02*
X95940Y24367D01*
X95940Y26879D02*
X82060Y26879D01*
X121340Y28151D02*
X121340Y4271D01*
X107460Y4271D01*
X107460Y28151D01*
X121340Y28151D01*
X121340Y6783D02*
X107460Y6783D01*
X107460Y9295D02*
X121340Y9295D01*
X121340Y11807D02*
X107460Y11807D01*
X107460Y14319D02*
X121340Y14319D01*
X121340Y16831D02*
X107460Y16831D01*
X107460Y19343D02*
X121340Y19343D01*
X121340Y21855D02*
X107460Y21855D01*
X107460Y24367D02*
X121340Y24367D01*
X121340Y26879D02*
X107460Y26879D01*
X146740Y28151D02*
X146740Y4271D01*
X132860Y4271D01*
X132860Y28151D01*
X146740Y28151D01*
X146740Y6783D02*
X132860Y6783D01*
X132860Y9295D02*
X146740Y9295D01*
X146740Y11807D02*
X132860Y11807D01*
X132860Y14319D02*
X146740Y14319D01*
X146740Y16831D02*
X132860Y16831D01*
X132860Y19343D02*
X146740Y19343D01*
X146740Y21855D02*
X132860Y21855D01*
X132860Y24367D02*
X146740Y24367D01*
X146740Y26879D02*
X132860Y26879D01*
X172140Y28151D02*
X172140Y4271D01*
X158260Y4271D01*
X158260Y28151D01*
X172140Y28151D01*
X172140Y6783D02*
X158260Y6783D01*
X158260Y9295D02*
X172140Y9295D01*
X172140Y11807D02*
X158260Y11807D01*
X158260Y14319D02*
X172140Y14319D01*
X172140Y16831D02*
X158260Y16831D01*
X158260Y19343D02*
X172140Y19343D01*
X172140Y21855D02*
X158260Y21855D01*
X158260Y24367D02*
X172140Y24367D01*
X172140Y26879D02*
X158260Y26879D01*
X197540Y28151D02*
X197540Y4271D01*
X183660Y4271D01*
X183660Y28151D01*
X197540Y28151D01*
X197540Y6783D02*
X183660Y6783D01*
X183660Y9295D02*
X197540Y9295D01*
X197540Y11807D02*
X183660Y11807D01*
X183660Y14319D02*
X197540Y14319D01*
X197540Y16831D02*
X183660Y16831D01*
X183660Y19343D02*
X197540Y19343D01*
X197540Y21855D02*
X183660Y21855D01*
X183660Y24367D02*
X197540Y24367D01*
X197540Y26879D02*
X183660Y26879D01*
X222940Y28151D02*
X222940Y4271D01*
X209060Y4271D01*
X209060Y28151D01*
X222940Y28151D01*
X222940Y6783D02*
X209060Y6783D01*
X209060Y9295D02*
X222940Y9295D01*
X222940Y11807D02*
X209060Y11807D01*
X209060Y14319D02*
X222940Y14319D01*
X222940Y16831D02*
X209060Y16831D01*
X209060Y19343D02*
X222940Y19343D01*
X222940Y21855D02*
X209060Y21855D01*
X209060Y24367D02*
X222940Y24367D01*
X222940Y26879D02*
X209060Y26879D01*
X248340Y28151D02*
X248340Y4271D01*
X234460Y4271D01*
X234460Y28151D01*
X248340Y28151D01*
X248340Y6783D02*
X234460Y6783D01*
X234460Y9295D02*
X248340Y9295D01*
X248340Y11807D02*
X234460Y11807D01*
X234460Y14319D02*
X248340Y14319D01*
X248340Y16831D02*
X234460Y16831D01*
X234460Y19343D02*
X248340Y19343D01*
X248340Y21855D02*
X234460Y21855D01*
X234460Y24367D02*
X248340Y24367D01*
X248340Y26879D02*
X234460Y26879D01*
X273740Y28151D02*
X273740Y4271D01*
X259860Y4271D01*
X259860Y28151D01*
X273740Y28151D01*
X273740Y6783D02*
X259860Y6783D01*
X259860Y9295D02*
X273740Y9295D01*
X273740Y11807D02*
X259860Y11807D01*
X259860Y14319D02*
X273740Y14319D01*
X273740Y16831D02*
X259860Y16831D01*
X259860Y19343D02*
X273740Y19343D01*
X273740Y21855D02*
X259860Y21855D01*
X259860Y24367D02*
X273740Y24367D01*
X273740Y26879D02*
X259860Y26879D01*
X56660Y246271D02*
X56660Y270151D01*
X70540Y270151D01*
X70540Y246271D01*
X56660Y246271D01*
X56660Y248783D02*
X70540Y248783D01*
X70540Y251295D02*
X56660Y251295D01*
X56660Y253807D02*
X70540Y253807D01*
X70540Y256319D02*
X56660Y256319D01*
X56660Y258831D02*
X70540Y258831D01*
X70540Y261343D02*
X56660Y261343D01*
X56660Y263855D02*
X70540Y263855D01*
X70540Y266367D02*
X56660Y266367D01*
X56660Y268879D02*
X70540Y268879D01*
X82060Y270151D02*
X82060Y246271D01*
X82060Y270151D02*
X95940Y270151D01*
X95940Y246271D01*
X82060Y246271D01*
X82060Y248783D02*
X95940Y248783D01*
X95940Y251295D02*
X82060Y251295D01*
X82060Y253807D02*
X95940Y253807D01*
X95940Y256319D02*
X82060Y256319D01*
X82060Y258831D02*
X95940Y258831D01*
X95940Y261343D02*
X82060Y261343D01*
X82060Y263855D02*
X95940Y263855D01*
X95940Y266367D02*
X82060Y266367D01*
X82060Y268879D02*
X95940Y268879D01*
X107460Y270151D02*
X107460Y246271D01*
X107460Y270151D02*
X121340Y270151D01*
X121340Y246271D01*
X107460Y246271D01*
X107460Y248783D02*
X121340Y248783D01*
X121340Y251295D02*
X107460Y251295D01*
X107460Y253807D02*
X121340Y253807D01*
X121340Y256319D02*
X107460Y256319D01*
X107460Y258831D02*
X121340Y258831D01*
X121340Y261343D02*
X107460Y261343D01*
X107460Y263855D02*
X121340Y263855D01*
X121340Y266367D02*
X107460Y266367D01*
X107460Y268879D02*
X121340Y268879D01*
X132860Y270151D02*
X132860Y246271D01*
X132860Y270151D02*
X146740Y270151D01*
X146740Y246271D01*
X132860Y246271D01*
X132860Y248783D02*
X146740Y248783D01*
X146740Y251295D02*
X132860Y251295D01*
X132860Y253807D02*
X146740Y253807D01*
X146740Y256319D02*
X132860Y256319D01*
X132860Y258831D02*
X146740Y258831D01*
X146740Y261343D02*
X132860Y261343D01*
X132860Y263855D02*
X146740Y263855D01*
X146740Y266367D02*
X132860Y266367D01*
X132860Y268879D02*
X146740Y268879D01*
X158260Y270151D02*
X158260Y246271D01*
X158260Y270151D02*
X172140Y270151D01*
X172140Y246271D01*
X158260Y246271D01*
X158260Y248783D02*
X172140Y248783D01*
X172140Y251295D02*
X158260Y251295D01*
X158260Y253807D02*
X172140Y253807D01*
X172140Y256319D02*
X158260Y256319D01*
X158260Y258831D02*
X172140Y258831D01*
X172140Y261343D02*
X158260Y261343D01*
X158260Y263855D02*
X172140Y263855D01*
X172140Y266367D02*
X158260Y266367D01*
X158260Y268879D02*
X172140Y268879D01*
X183660Y270151D02*
X183660Y246271D01*
X183660Y270151D02*
X197540Y270151D01*
X197540Y246271D01*
X183660Y246271D01*
X183660Y248783D02*
X197540Y248783D01*
X197540Y251295D02*
X183660Y251295D01*
X183660Y253807D02*
X197540Y253807D01*
X197540Y256319D02*
X183660Y256319D01*
X183660Y258831D02*
X197540Y258831D01*
X197540Y261343D02*
X183660Y261343D01*
X183660Y263855D02*
X197540Y263855D01*
X197540Y266367D02*
X183660Y266367D01*
X183660Y268879D02*
X197540Y268879D01*
X209060Y270151D02*
X209060Y246271D01*
X209060Y270151D02*
X222940Y270151D01*
X222940Y246271D01*
X209060Y246271D01*
X209060Y248783D02*
X222940Y248783D01*
X222940Y251295D02*
X209060Y251295D01*
X209060Y253807D02*
X222940Y253807D01*
X222940Y256319D02*
X209060Y256319D01*
X209060Y258831D02*
X222940Y258831D01*
X222940Y261343D02*
X209060Y261343D01*
X209060Y263855D02*
X222940Y263855D01*
X222940Y266367D02*
X209060Y266367D01*
X209060Y268879D02*
X222940Y268879D01*
X234460Y270151D02*
X234460Y246271D01*
X234460Y270151D02*
X248340Y270151D01*
X248340Y246271D01*
X234460Y246271D01*
X234460Y248783D02*
X248340Y248783D01*
X248340Y251295D02*
X234460Y251295D01*
X234460Y253807D02*
X248340Y253807D01*
X248340Y256319D02*
X234460Y256319D01*
X234460Y258831D02*
X248340Y258831D01*
X248340Y261343D02*
X234460Y261343D01*
X234460Y263855D02*
X248340Y263855D01*
X248340Y266367D02*
X234460Y266367D01*
X234460Y268879D02*
X248340Y268879D01*
X259860Y270151D02*
X259860Y246271D01*
X259860Y270151D02*
X273740Y270151D01*
X273740Y246271D01*
X259860Y246271D01*
X259860Y248783D02*
X273740Y248783D01*
X273740Y251295D02*
X259860Y251295D01*
X259860Y253807D02*
X273740Y253807D01*
X273740Y256319D02*
X259860Y256319D01*
X259860Y258831D02*
X273740Y258831D01*
X273740Y261343D02*
X259860Y261343D01*
X259860Y263855D02*
X273740Y263855D01*
X273740Y266367D02*
X259860Y266367D01*
X259860Y268879D02*
X273740Y268879D01*
X412660Y214151D02*
X436540Y214151D01*
X436540Y200271D01*
X412660Y200271D01*
X412660Y214151D01*
X412660Y202783D02*
X436540Y202783D01*
X436540Y205295D02*
X412660Y205295D01*
X412660Y207807D02*
X436540Y207807D01*
X436540Y210319D02*
X412660Y210319D01*
X412660Y212831D02*
X436540Y212831D01*
X436540Y188751D02*
X412660Y188751D01*
X436540Y188751D02*
X436540Y174871D01*
X412660Y174871D01*
X412660Y188751D01*
X412660Y177383D02*
X436540Y177383D01*
X436540Y179895D02*
X412660Y179895D01*
X412660Y182407D02*
X436540Y182407D01*
X436540Y184919D02*
X412660Y184919D01*
X412660Y187431D02*
X436540Y187431D01*
X436540Y99551D02*
X412660Y99551D01*
X436540Y99551D02*
X436540Y85671D01*
X412660Y85671D01*
X412660Y99551D01*
X412660Y88183D02*
X436540Y88183D01*
X436540Y90695D02*
X412660Y90695D01*
X412660Y93207D02*
X436540Y93207D01*
X436540Y95719D02*
X412660Y95719D01*
X412660Y98231D02*
X436540Y98231D01*
X436540Y74151D02*
X412660Y74151D01*
X436540Y74151D02*
X436540Y60271D01*
X412660Y60271D01*
X412660Y74151D01*
X412660Y62783D02*
X436540Y62783D01*
X436540Y65295D02*
X412660Y65295D01*
X412660Y67807D02*
X436540Y67807D01*
X436540Y70319D02*
X412660Y70319D01*
X412660Y72831D02*
X436540Y72831D01*
D12*
X127000Y226111D03*
X152400Y226111D03*
D13*
X61750Y216911D03*
X61750Y159111D03*
D14*
X442017Y214658D02*
X442017Y219624D01*
X446983Y219624D01*
X446983Y214658D01*
X442017Y214658D01*
X442017Y217088D02*
X446983Y217088D01*
X446983Y219518D02*
X442017Y219518D01*
X442017Y209624D02*
X442017Y204658D01*
X442017Y209624D02*
X446983Y209624D01*
X446983Y204658D01*
X442017Y204658D01*
X442017Y207088D02*
X446983Y207088D01*
X446983Y209518D02*
X442017Y209518D01*
D10*
X241300Y41961D03*
X254000Y41961D03*
X266700Y41961D03*
X279400Y41961D03*
X228600Y41961D03*
X241300Y54661D03*
X254000Y54661D03*
X266700Y54661D03*
X279400Y54661D03*
X228600Y54661D03*
D11*
X493150Y174721D02*
X493150Y188601D01*
X493150Y174721D02*
X454270Y174721D01*
X454270Y188601D01*
X493150Y188601D01*
X493150Y177233D02*
X454270Y177233D01*
X454270Y179745D02*
X493150Y179745D01*
X493150Y182257D02*
X454270Y182257D01*
X454270Y184769D02*
X493150Y184769D01*
X493150Y187281D02*
X454270Y187281D01*
X493150Y200121D02*
X493150Y214001D01*
X493150Y200121D02*
X454270Y200121D01*
X454270Y214001D01*
X493150Y214001D01*
X493150Y202633D02*
X454270Y202633D01*
X454270Y205145D02*
X493150Y205145D01*
X493150Y207657D02*
X454270Y207657D01*
X454270Y210169D02*
X493150Y210169D01*
X493150Y212681D02*
X454270Y212681D01*
X493150Y225521D02*
X493150Y239401D01*
X493150Y225521D02*
X454270Y225521D01*
X454270Y239401D01*
X493150Y239401D01*
X493150Y228033D02*
X454270Y228033D01*
X454270Y230545D02*
X493150Y230545D01*
X493150Y233057D02*
X454270Y233057D01*
X454270Y235569D02*
X493150Y235569D01*
X493150Y238081D02*
X454270Y238081D01*
D15*
X473600Y124511D03*
X491600Y124511D03*
D12*
X330200Y35611D03*
X304800Y35611D03*
D10*
X538480Y10211D03*
X995680Y264211D03*
D11*
X583620Y28151D02*
X583620Y4271D01*
X569740Y4271D01*
X569740Y28151D01*
X583620Y28151D01*
X583620Y6783D02*
X569740Y6783D01*
X569740Y9295D02*
X583620Y9295D01*
X583620Y11807D02*
X569740Y11807D01*
X569740Y14319D02*
X583620Y14319D01*
X583620Y16831D02*
X569740Y16831D01*
X569740Y19343D02*
X583620Y19343D01*
X583620Y21855D02*
X569740Y21855D01*
X569740Y24367D02*
X583620Y24367D01*
X583620Y26879D02*
X569740Y26879D01*
X609020Y28151D02*
X609020Y4271D01*
X595140Y4271D01*
X595140Y28151D01*
X609020Y28151D01*
X609020Y6783D02*
X595140Y6783D01*
X595140Y9295D02*
X609020Y9295D01*
X609020Y11807D02*
X595140Y11807D01*
X595140Y14319D02*
X609020Y14319D01*
X609020Y16831D02*
X595140Y16831D01*
X595140Y19343D02*
X609020Y19343D01*
X609020Y21855D02*
X595140Y21855D01*
X595140Y24367D02*
X609020Y24367D01*
X609020Y26879D02*
X595140Y26879D01*
X634420Y28151D02*
X634420Y4271D01*
X620540Y4271D01*
X620540Y28151D01*
X634420Y28151D01*
X634420Y6783D02*
X620540Y6783D01*
X620540Y9295D02*
X634420Y9295D01*
X634420Y11807D02*
X620540Y11807D01*
X620540Y14319D02*
X634420Y14319D01*
X634420Y16831D02*
X620540Y16831D01*
X620540Y19343D02*
X634420Y19343D01*
X634420Y21855D02*
X620540Y21855D01*
X620540Y24367D02*
X634420Y24367D01*
X634420Y26879D02*
X620540Y26879D01*
X659820Y28151D02*
X659820Y4271D01*
X645940Y4271D01*
X645940Y28151D01*
X659820Y28151D01*
X659820Y6783D02*
X645940Y6783D01*
X645940Y9295D02*
X659820Y9295D01*
X659820Y11807D02*
X645940Y11807D01*
X645940Y14319D02*
X659820Y14319D01*
X659820Y16831D02*
X645940Y16831D01*
X645940Y19343D02*
X659820Y19343D01*
X659820Y21855D02*
X645940Y21855D01*
X645940Y24367D02*
X659820Y24367D01*
X659820Y26879D02*
X645940Y26879D01*
X685220Y28151D02*
X685220Y4271D01*
X671340Y4271D01*
X671340Y28151D01*
X685220Y28151D01*
X685220Y6783D02*
X671340Y6783D01*
X671340Y9295D02*
X685220Y9295D01*
X685220Y11807D02*
X671340Y11807D01*
X671340Y14319D02*
X685220Y14319D01*
X685220Y16831D02*
X671340Y16831D01*
X671340Y19343D02*
X685220Y19343D01*
X685220Y21855D02*
X671340Y21855D01*
X671340Y24367D02*
X685220Y24367D01*
X685220Y26879D02*
X671340Y26879D01*
X710620Y28151D02*
X710620Y4271D01*
X696740Y4271D01*
X696740Y28151D01*
X710620Y28151D01*
X710620Y6783D02*
X696740Y6783D01*
X696740Y9295D02*
X710620Y9295D01*
X710620Y11807D02*
X696740Y11807D01*
X696740Y14319D02*
X710620Y14319D01*
X710620Y16831D02*
X696740Y16831D01*
X696740Y19343D02*
X710620Y19343D01*
X710620Y21855D02*
X696740Y21855D01*
X696740Y24367D02*
X710620Y24367D01*
X710620Y26879D02*
X696740Y26879D01*
X736020Y28151D02*
X736020Y4271D01*
X722140Y4271D01*
X722140Y28151D01*
X736020Y28151D01*
X736020Y6783D02*
X722140Y6783D01*
X722140Y9295D02*
X736020Y9295D01*
X736020Y11807D02*
X722140Y11807D01*
X722140Y14319D02*
X736020Y14319D01*
X736020Y16831D02*
X722140Y16831D01*
X722140Y19343D02*
X736020Y19343D01*
X736020Y21855D02*
X722140Y21855D01*
X722140Y24367D02*
X736020Y24367D01*
X736020Y26879D02*
X722140Y26879D01*
X761420Y28151D02*
X761420Y4271D01*
X747540Y4271D01*
X747540Y28151D01*
X761420Y28151D01*
X761420Y6783D02*
X747540Y6783D01*
X747540Y9295D02*
X761420Y9295D01*
X761420Y11807D02*
X747540Y11807D01*
X747540Y14319D02*
X761420Y14319D01*
X761420Y16831D02*
X747540Y16831D01*
X747540Y19343D02*
X761420Y19343D01*
X761420Y21855D02*
X747540Y21855D01*
X747540Y24367D02*
X761420Y24367D01*
X761420Y26879D02*
X747540Y26879D01*
X786820Y28151D02*
X786820Y4271D01*
X772940Y4271D01*
X772940Y28151D01*
X786820Y28151D01*
X786820Y6783D02*
X772940Y6783D01*
X772940Y9295D02*
X786820Y9295D01*
X786820Y11807D02*
X772940Y11807D01*
X772940Y14319D02*
X786820Y14319D01*
X786820Y16831D02*
X772940Y16831D01*
X772940Y19343D02*
X786820Y19343D01*
X786820Y21855D02*
X772940Y21855D01*
X772940Y24367D02*
X786820Y24367D01*
X786820Y26879D02*
X772940Y26879D01*
X569740Y246271D02*
X569740Y270151D01*
X583620Y270151D01*
X583620Y246271D01*
X569740Y246271D01*
X569740Y248783D02*
X583620Y248783D01*
X583620Y251295D02*
X569740Y251295D01*
X569740Y253807D02*
X583620Y253807D01*
X583620Y256319D02*
X569740Y256319D01*
X569740Y258831D02*
X583620Y258831D01*
X583620Y261343D02*
X569740Y261343D01*
X569740Y263855D02*
X583620Y263855D01*
X583620Y266367D02*
X569740Y266367D01*
X569740Y268879D02*
X583620Y268879D01*
X595140Y270151D02*
X595140Y246271D01*
X595140Y270151D02*
X609020Y270151D01*
X609020Y246271D01*
X595140Y246271D01*
X595140Y248783D02*
X609020Y248783D01*
X609020Y251295D02*
X595140Y251295D01*
X595140Y253807D02*
X609020Y253807D01*
X609020Y256319D02*
X595140Y256319D01*
X595140Y258831D02*
X609020Y258831D01*
X609020Y261343D02*
X595140Y261343D01*
X595140Y263855D02*
X609020Y263855D01*
X609020Y266367D02*
X595140Y266367D01*
X595140Y268879D02*
X609020Y268879D01*
X620540Y270151D02*
X620540Y246271D01*
X620540Y270151D02*
X634420Y270151D01*
X634420Y246271D01*
X620540Y246271D01*
X620540Y248783D02*
X634420Y248783D01*
X634420Y251295D02*
X620540Y251295D01*
X620540Y253807D02*
X634420Y253807D01*
X634420Y256319D02*
X620540Y256319D01*
X620540Y258831D02*
X634420Y258831D01*
X634420Y261343D02*
X620540Y261343D01*
X620540Y263855D02*
X634420Y263855D01*
X634420Y266367D02*
X620540Y266367D01*
X620540Y268879D02*
X634420Y268879D01*
X645940Y270151D02*
X645940Y246271D01*
X645940Y270151D02*
X659820Y270151D01*
X659820Y246271D01*
X645940Y246271D01*
X645940Y248783D02*
X659820Y248783D01*
X659820Y251295D02*
X645940Y251295D01*
X645940Y253807D02*
X659820Y253807D01*
X659820Y256319D02*
X645940Y256319D01*
X645940Y258831D02*
X659820Y258831D01*
X659820Y261343D02*
X645940Y261343D01*
X645940Y263855D02*
X659820Y263855D01*
X659820Y266367D02*
X645940Y266367D01*
X645940Y268879D02*
X659820Y268879D01*
X671340Y270151D02*
X671340Y246271D01*
X671340Y270151D02*
X685220Y270151D01*
X685220Y246271D01*
X671340Y246271D01*
X671340Y248783D02*
X685220Y248783D01*
X685220Y251295D02*
X671340Y251295D01*
X671340Y253807D02*
X685220Y253807D01*
X685220Y256319D02*
X671340Y256319D01*
X671340Y258831D02*
X685220Y258831D01*
X685220Y261343D02*
X671340Y261343D01*
X671340Y263855D02*
X685220Y263855D01*
X685220Y266367D02*
X671340Y266367D01*
X671340Y268879D02*
X685220Y268879D01*
X696740Y270151D02*
X696740Y246271D01*
X696740Y270151D02*
X710620Y270151D01*
X710620Y246271D01*
X696740Y246271D01*
X696740Y248783D02*
X710620Y248783D01*
X710620Y251295D02*
X696740Y251295D01*
X696740Y253807D02*
X710620Y253807D01*
X710620Y256319D02*
X696740Y256319D01*
X696740Y258831D02*
X710620Y258831D01*
X710620Y261343D02*
X696740Y261343D01*
X696740Y263855D02*
X710620Y263855D01*
X710620Y266367D02*
X696740Y266367D01*
X696740Y268879D02*
X710620Y268879D01*
X722140Y270151D02*
X722140Y246271D01*
X722140Y270151D02*
X736020Y270151D01*
X736020Y246271D01*
X722140Y246271D01*
X722140Y248783D02*
X736020Y248783D01*
X736020Y251295D02*
X722140Y251295D01*
X722140Y253807D02*
X736020Y253807D01*
X736020Y256319D02*
X722140Y256319D01*
X722140Y258831D02*
X736020Y258831D01*
X736020Y261343D02*
X722140Y261343D01*
X722140Y263855D02*
X736020Y263855D01*
X736020Y266367D02*
X722140Y266367D01*
X722140Y268879D02*
X736020Y268879D01*
X747540Y270151D02*
X747540Y246271D01*
X747540Y270151D02*
X761420Y270151D01*
X761420Y246271D01*
X747540Y246271D01*
X747540Y248783D02*
X761420Y248783D01*
X761420Y251295D02*
X747540Y251295D01*
X747540Y253807D02*
X761420Y253807D01*
X761420Y256319D02*
X747540Y256319D01*
X747540Y258831D02*
X761420Y258831D01*
X761420Y261343D02*
X747540Y261343D01*
X747540Y263855D02*
X761420Y263855D01*
X761420Y266367D02*
X747540Y266367D01*
X747540Y268879D02*
X761420Y268879D01*
X772940Y270151D02*
X772940Y246271D01*
X772940Y270151D02*
X786820Y270151D01*
X786820Y246271D01*
X772940Y246271D01*
X772940Y248783D02*
X786820Y248783D01*
X786820Y251295D02*
X772940Y251295D01*
X772940Y253807D02*
X786820Y253807D01*
X786820Y256319D02*
X772940Y256319D01*
X772940Y258831D02*
X786820Y258831D01*
X786820Y261343D02*
X772940Y261343D01*
X772940Y263855D02*
X786820Y263855D01*
X786820Y266367D02*
X772940Y266367D01*
X772940Y268879D02*
X786820Y268879D01*
X925740Y214151D02*
X949620Y214151D01*
X949620Y200271D01*
X925740Y200271D01*
X925740Y214151D01*
X925740Y202783D02*
X949620Y202783D01*
X949620Y205295D02*
X925740Y205295D01*
X925740Y207807D02*
X949620Y207807D01*
X949620Y210319D02*
X925740Y210319D01*
X925740Y212831D02*
X949620Y212831D01*
X949620Y188751D02*
X925740Y188751D01*
X949620Y188751D02*
X949620Y174871D01*
X925740Y174871D01*
X925740Y188751D01*
X925740Y177383D02*
X949620Y177383D01*
X949620Y179895D02*
X925740Y179895D01*
X925740Y182407D02*
X949620Y182407D01*
X949620Y184919D02*
X925740Y184919D01*
X925740Y187431D02*
X949620Y187431D01*
X949620Y99551D02*
X925740Y99551D01*
X949620Y99551D02*
X949620Y85671D01*
X925740Y85671D01*
X925740Y99551D01*
X925740Y88183D02*
X949620Y88183D01*
X949620Y90695D02*
X925740Y90695D01*
X925740Y93207D02*
X949620Y93207D01*
X949620Y95719D02*
X925740Y95719D01*
X925740Y98231D02*
X949620Y98231D01*
X949620Y74151D02*
X925740Y74151D01*
X949620Y74151D02*
X949620Y60271D01*
X925740Y60271D01*
X925740Y74151D01*
X925740Y62783D02*
X949620Y62783D01*
X949620Y65295D02*
X925740Y65295D01*
X925740Y67807D02*
X949620Y67807D01*
X949620Y70319D02*
X925740Y70319D01*
X925740Y72831D02*
X949620Y72831D01*
D12*
X640080Y226111D03*
X665480Y226111D03*
D13*
X574830Y216911D03*
X574830Y159111D03*
D14*
X955097Y214658D02*
X955097Y219624D01*
X960063Y219624D01*
X960063Y214658D01*
X955097Y214658D01*
X955097Y217088D02*
X960063Y217088D01*
X960063Y219518D02*
X955097Y219518D01*
X955097Y209624D02*
X955097Y204658D01*
X955097Y209624D02*
X960063Y209624D01*
X960063Y204658D01*
X955097Y204658D01*
X955097Y207088D02*
X960063Y207088D01*
X960063Y209518D02*
X955097Y209518D01*
D10*
X754380Y41961D03*
X767080Y41961D03*
X779780Y41961D03*
X792480Y41961D03*
X741680Y41961D03*
X754380Y54661D03*
X767080Y54661D03*
X779780Y54661D03*
X792480Y54661D03*
X741680Y54661D03*
D11*
X1006230Y174721D02*
X1006230Y188601D01*
X1006230Y174721D02*
X967350Y174721D01*
X967350Y188601D01*
X1006230Y188601D01*
X1006230Y177233D02*
X967350Y177233D01*
X967350Y179745D02*
X1006230Y179745D01*
X1006230Y182257D02*
X967350Y182257D01*
X967350Y184769D02*
X1006230Y184769D01*
X1006230Y187281D02*
X967350Y187281D01*
X1006230Y200121D02*
X1006230Y214001D01*
X1006230Y200121D02*
X967350Y200121D01*
X967350Y214001D01*
X1006230Y214001D01*
X1006230Y202633D02*
X967350Y202633D01*
X967350Y205145D02*
X1006230Y205145D01*
X1006230Y207657D02*
X967350Y207657D01*
X967350Y210169D02*
X1006230Y210169D01*
X1006230Y212681D02*
X967350Y212681D01*
X1006230Y225521D02*
X1006230Y239401D01*
X1006230Y225521D02*
X967350Y225521D01*
X967350Y239401D01*
X1006230Y239401D01*
X1006230Y228033D02*
X967350Y228033D01*
X967350Y230545D02*
X1006230Y230545D01*
X1006230Y233057D02*
X967350Y233057D01*
X967350Y235569D02*
X1006230Y235569D01*
X1006230Y238081D02*
X967350Y238081D01*
D15*
X986680Y124511D03*
X1004680Y124511D03*
D12*
X843280Y35611D03*
X817880Y35611D03*
D10*
X25400Y289687D03*
X482600Y543687D03*
D11*
X70540Y307627D02*
X70540Y283747D01*
X56660Y283747D01*
X56660Y307627D01*
X70540Y307627D01*
X70540Y286259D02*
X56660Y286259D01*
X56660Y288771D02*
X70540Y288771D01*
X70540Y291283D02*
X56660Y291283D01*
X56660Y293795D02*
X70540Y293795D01*
X70540Y296307D02*
X56660Y296307D01*
X56660Y298819D02*
X70540Y298819D01*
X70540Y301331D02*
X56660Y301331D01*
X56660Y303843D02*
X70540Y303843D01*
X70540Y306355D02*
X56660Y306355D01*
X95940Y307627D02*
X95940Y283747D01*
X82060Y283747D01*
X82060Y307627D01*
X95940Y307627D01*
X95940Y286259D02*
X82060Y286259D01*
X82060Y288771D02*
X95940Y288771D01*
X95940Y291283D02*
X82060Y291283D01*
X82060Y293795D02*
X95940Y293795D01*
X95940Y296307D02*
X82060Y296307D01*
X82060Y298819D02*
X95940Y298819D01*
X95940Y301331D02*
X82060Y301331D01*
X82060Y303843D02*
X95940Y303843D01*
X95940Y306355D02*
X82060Y306355D01*
X121340Y307627D02*
X121340Y283747D01*
X107460Y283747D01*
X107460Y307627D01*
X121340Y307627D01*
X121340Y286259D02*
X107460Y286259D01*
X107460Y288771D02*
X121340Y288771D01*
X121340Y291283D02*
X107460Y291283D01*
X107460Y293795D02*
X121340Y293795D01*
X121340Y296307D02*
X107460Y296307D01*
X107460Y298819D02*
X121340Y298819D01*
X121340Y301331D02*
X107460Y301331D01*
X107460Y303843D02*
X121340Y303843D01*
X121340Y306355D02*
X107460Y306355D01*
X146740Y307627D02*
X146740Y283747D01*
X132860Y283747D01*
X132860Y307627D01*
X146740Y307627D01*
X146740Y286259D02*
X132860Y286259D01*
X132860Y288771D02*
X146740Y288771D01*
X146740Y291283D02*
X132860Y291283D01*
X132860Y293795D02*
X146740Y293795D01*
X146740Y296307D02*
X132860Y296307D01*
X132860Y298819D02*
X146740Y298819D01*
X146740Y301331D02*
X132860Y301331D01*
X132860Y303843D02*
X146740Y303843D01*
X146740Y306355D02*
X132860Y306355D01*
X172140Y307627D02*
X172140Y283747D01*
X158260Y283747D01*
X158260Y307627D01*
X172140Y307627D01*
X172140Y286259D02*
X158260Y286259D01*
X158260Y288771D02*
X172140Y288771D01*
X172140Y291283D02*
X158260Y291283D01*
X158260Y293795D02*
X172140Y293795D01*
X172140Y296307D02*
X158260Y296307D01*
X158260Y298819D02*
X172140Y298819D01*
X172140Y301331D02*
X158260Y301331D01*
X158260Y303843D02*
X172140Y303843D01*
X172140Y306355D02*
X158260Y306355D01*
X197540Y307627D02*
X197540Y283747D01*
X183660Y283747D01*
X183660Y307627D01*
X197540Y307627D01*
X197540Y286259D02*
X183660Y286259D01*
X183660Y288771D02*
X197540Y288771D01*
X197540Y291283D02*
X183660Y291283D01*
X183660Y293795D02*
X197540Y293795D01*
X197540Y296307D02*
X183660Y296307D01*
X183660Y298819D02*
X197540Y298819D01*
X197540Y301331D02*
X183660Y301331D01*
X183660Y303843D02*
X197540Y303843D01*
X197540Y306355D02*
X183660Y306355D01*
X222940Y307627D02*
X222940Y283747D01*
X209060Y283747D01*
X209060Y307627D01*
X222940Y307627D01*
X222940Y286259D02*
X209060Y286259D01*
X209060Y288771D02*
X222940Y288771D01*
X222940Y291283D02*
X209060Y291283D01*
X209060Y293795D02*
X222940Y293795D01*
X222940Y296307D02*
X209060Y296307D01*
X209060Y298819D02*
X222940Y298819D01*
X222940Y301331D02*
X209060Y301331D01*
X209060Y303843D02*
X222940Y303843D01*
X222940Y306355D02*
X209060Y306355D01*
X248340Y307627D02*
X248340Y283747D01*
X234460Y283747D01*
X234460Y307627D01*
X248340Y307627D01*
X248340Y286259D02*
X234460Y286259D01*
X234460Y288771D02*
X248340Y288771D01*
X248340Y291283D02*
X234460Y291283D01*
X234460Y293795D02*
X248340Y293795D01*
X248340Y296307D02*
X234460Y296307D01*
X234460Y298819D02*
X248340Y298819D01*
X248340Y301331D02*
X234460Y301331D01*
X234460Y303843D02*
X248340Y303843D01*
X248340Y306355D02*
X234460Y306355D01*
X273740Y307627D02*
X273740Y283747D01*
X259860Y283747D01*
X259860Y307627D01*
X273740Y307627D01*
X273740Y286259D02*
X259860Y286259D01*
X259860Y288771D02*
X273740Y288771D01*
X273740Y291283D02*
X259860Y291283D01*
X259860Y293795D02*
X273740Y293795D01*
X273740Y296307D02*
X259860Y296307D01*
X259860Y298819D02*
X273740Y298819D01*
X273740Y301331D02*
X259860Y301331D01*
X259860Y303843D02*
X273740Y303843D01*
X273740Y306355D02*
X259860Y306355D01*
X56660Y525747D02*
X56660Y549627D01*
X70540Y549627D01*
X70540Y525747D01*
X56660Y525747D01*
X56660Y528259D02*
X70540Y528259D01*
X70540Y530771D02*
X56660Y530771D01*
X56660Y533283D02*
X70540Y533283D01*
X70540Y535795D02*
X56660Y535795D01*
X56660Y538307D02*
X70540Y538307D01*
X70540Y540819D02*
X56660Y540819D01*
X56660Y543331D02*
X70540Y543331D01*
X70540Y545843D02*
X56660Y545843D01*
X56660Y548355D02*
X70540Y548355D01*
X82060Y549627D02*
X82060Y525747D01*
X82060Y549627D02*
X95940Y549627D01*
X95940Y525747D01*
X82060Y525747D01*
X82060Y528259D02*
X95940Y528259D01*
X95940Y530771D02*
X82060Y530771D01*
X82060Y533283D02*
X95940Y533283D01*
X95940Y535795D02*
X82060Y535795D01*
X82060Y538307D02*
X95940Y538307D01*
X95940Y540819D02*
X82060Y540819D01*
X82060Y543331D02*
X95940Y543331D01*
X95940Y545843D02*
X82060Y545843D01*
X82060Y548355D02*
X95940Y548355D01*
X107460Y549627D02*
X107460Y525747D01*
X107460Y549627D02*
X121340Y549627D01*
X121340Y525747D01*
X107460Y525747D01*
X107460Y528259D02*
X121340Y528259D01*
X121340Y530771D02*
X107460Y530771D01*
X107460Y533283D02*
X121340Y533283D01*
X121340Y535795D02*
X107460Y535795D01*
X107460Y538307D02*
X121340Y538307D01*
X121340Y540819D02*
X107460Y540819D01*
X107460Y543331D02*
X121340Y543331D01*
X121340Y545843D02*
X107460Y545843D01*
X107460Y548355D02*
X121340Y548355D01*
X132860Y549627D02*
X132860Y525747D01*
X132860Y549627D02*
X146740Y549627D01*
X146740Y525747D01*
X132860Y525747D01*
X132860Y528259D02*
X146740Y528259D01*
X146740Y530771D02*
X132860Y530771D01*
X132860Y533283D02*
X146740Y533283D01*
X146740Y535795D02*
X132860Y535795D01*
X132860Y538307D02*
X146740Y538307D01*
X146740Y540819D02*
X132860Y540819D01*
X132860Y543331D02*
X146740Y543331D01*
X146740Y545843D02*
X132860Y545843D01*
X132860Y548355D02*
X146740Y548355D01*
X158260Y549627D02*
X158260Y525747D01*
X158260Y549627D02*
X172140Y549627D01*
X172140Y525747D01*
X158260Y525747D01*
X158260Y528259D02*
X172140Y528259D01*
X172140Y530771D02*
X158260Y530771D01*
X158260Y533283D02*
X172140Y533283D01*
X172140Y535795D02*
X158260Y535795D01*
X158260Y538307D02*
X172140Y538307D01*
X172140Y540819D02*
X158260Y540819D01*
X158260Y543331D02*
X172140Y543331D01*
X172140Y545843D02*
X158260Y545843D01*
X158260Y548355D02*
X172140Y548355D01*
X183660Y549627D02*
X183660Y525747D01*
X183660Y549627D02*
X197540Y549627D01*
X197540Y525747D01*
X183660Y525747D01*
X183660Y528259D02*
X197540Y528259D01*
X197540Y530771D02*
X183660Y530771D01*
X183660Y533283D02*
X197540Y533283D01*
X197540Y535795D02*
X183660Y535795D01*
X183660Y538307D02*
X197540Y538307D01*
X197540Y540819D02*
X183660Y540819D01*
X183660Y543331D02*
X197540Y543331D01*
X197540Y545843D02*
X183660Y545843D01*
X183660Y548355D02*
X197540Y548355D01*
X209060Y549627D02*
X209060Y525747D01*
X209060Y549627D02*
X222940Y549627D01*
X222940Y525747D01*
X209060Y525747D01*
X209060Y528259D02*
X222940Y528259D01*
X222940Y530771D02*
X209060Y530771D01*
X209060Y533283D02*
X222940Y533283D01*
X222940Y535795D02*
X209060Y535795D01*
X209060Y538307D02*
X222940Y538307D01*
X222940Y540819D02*
X209060Y540819D01*
X209060Y543331D02*
X222940Y543331D01*
X222940Y545843D02*
X209060Y545843D01*
X209060Y548355D02*
X222940Y548355D01*
X234460Y549627D02*
X234460Y525747D01*
X234460Y549627D02*
X248340Y549627D01*
X248340Y525747D01*
X234460Y525747D01*
X234460Y528259D02*
X248340Y528259D01*
X248340Y530771D02*
X234460Y530771D01*
X234460Y533283D02*
X248340Y533283D01*
X248340Y535795D02*
X234460Y535795D01*
X234460Y538307D02*
X248340Y538307D01*
X248340Y540819D02*
X234460Y540819D01*
X234460Y543331D02*
X248340Y543331D01*
X248340Y545843D02*
X234460Y545843D01*
X234460Y548355D02*
X248340Y548355D01*
X259860Y549627D02*
X259860Y525747D01*
X259860Y549627D02*
X273740Y549627D01*
X273740Y525747D01*
X259860Y525747D01*
X259860Y528259D02*
X273740Y528259D01*
X273740Y530771D02*
X259860Y530771D01*
X259860Y533283D02*
X273740Y533283D01*
X273740Y535795D02*
X259860Y535795D01*
X259860Y538307D02*
X273740Y538307D01*
X273740Y540819D02*
X259860Y540819D01*
X259860Y543331D02*
X273740Y543331D01*
X273740Y545843D02*
X259860Y545843D01*
X259860Y548355D02*
X273740Y548355D01*
X412660Y493627D02*
X436540Y493627D01*
X436540Y479747D01*
X412660Y479747D01*
X412660Y493627D01*
X412660Y482259D02*
X436540Y482259D01*
X436540Y484771D02*
X412660Y484771D01*
X412660Y487283D02*
X436540Y487283D01*
X436540Y489795D02*
X412660Y489795D01*
X412660Y492307D02*
X436540Y492307D01*
X436540Y468227D02*
X412660Y468227D01*
X436540Y468227D02*
X436540Y454347D01*
X412660Y454347D01*
X412660Y468227D01*
X412660Y456859D02*
X436540Y456859D01*
X436540Y459371D02*
X412660Y459371D01*
X412660Y461883D02*
X436540Y461883D01*
X436540Y464395D02*
X412660Y464395D01*
X412660Y466907D02*
X436540Y466907D01*
X436540Y379027D02*
X412660Y379027D01*
X436540Y379027D02*
X436540Y365147D01*
X412660Y365147D01*
X412660Y379027D01*
X412660Y367659D02*
X436540Y367659D01*
X436540Y370171D02*
X412660Y370171D01*
X412660Y372683D02*
X436540Y372683D01*
X436540Y375195D02*
X412660Y375195D01*
X412660Y377707D02*
X436540Y377707D01*
X436540Y353627D02*
X412660Y353627D01*
X436540Y353627D02*
X436540Y339747D01*
X412660Y339747D01*
X412660Y353627D01*
X412660Y342259D02*
X436540Y342259D01*
X436540Y344771D02*
X412660Y344771D01*
X412660Y347283D02*
X436540Y347283D01*
X436540Y349795D02*
X412660Y349795D01*
X412660Y352307D02*
X436540Y352307D01*
D12*
X127000Y505587D03*
X152400Y505587D03*
D13*
X61750Y496387D03*
X61750Y438587D03*
D14*
X442017Y494134D02*
X442017Y499100D01*
X446983Y499100D01*
X446983Y494134D01*
X442017Y494134D01*
X442017Y496564D02*
X446983Y496564D01*
X446983Y498994D02*
X442017Y498994D01*
X442017Y489100D02*
X442017Y484134D01*
X442017Y489100D02*
X446983Y489100D01*
X446983Y484134D01*
X442017Y484134D01*
X442017Y486564D02*
X446983Y486564D01*
X446983Y488994D02*
X442017Y488994D01*
D10*
X241300Y321437D03*
X254000Y321437D03*
X266700Y321437D03*
X279400Y321437D03*
X228600Y321437D03*
X241300Y334137D03*
X254000Y334137D03*
X266700Y334137D03*
X279400Y334137D03*
X228600Y334137D03*
D11*
X493150Y454197D02*
X493150Y468077D01*
X493150Y454197D02*
X454270Y454197D01*
X454270Y468077D01*
X493150Y468077D01*
X493150Y456709D02*
X454270Y456709D01*
X454270Y459221D02*
X493150Y459221D01*
X493150Y461733D02*
X454270Y461733D01*
X454270Y464245D02*
X493150Y464245D01*
X493150Y466757D02*
X454270Y466757D01*
X493150Y479597D02*
X493150Y493477D01*
X493150Y479597D02*
X454270Y479597D01*
X454270Y493477D01*
X493150Y493477D01*
X493150Y482109D02*
X454270Y482109D01*
X454270Y484621D02*
X493150Y484621D01*
X493150Y487133D02*
X454270Y487133D01*
X454270Y489645D02*
X493150Y489645D01*
X493150Y492157D02*
X454270Y492157D01*
X493150Y504997D02*
X493150Y518877D01*
X493150Y504997D02*
X454270Y504997D01*
X454270Y518877D01*
X493150Y518877D01*
X493150Y507509D02*
X454270Y507509D01*
X454270Y510021D02*
X493150Y510021D01*
X493150Y512533D02*
X454270Y512533D01*
X454270Y515045D02*
X493150Y515045D01*
X493150Y517557D02*
X454270Y517557D01*
D15*
X473600Y403987D03*
X491600Y403987D03*
D12*
X330200Y315087D03*
X304800Y315087D03*
D10*
X538480Y289687D03*
X995680Y543687D03*
D11*
X583620Y307627D02*
X583620Y283747D01*
X569740Y283747D01*
X569740Y307627D01*
X583620Y307627D01*
X583620Y286259D02*
X569740Y286259D01*
X569740Y288771D02*
X583620Y288771D01*
X583620Y291283D02*
X569740Y291283D01*
X569740Y293795D02*
X583620Y293795D01*
X583620Y296307D02*
X569740Y296307D01*
X569740Y298819D02*
X583620Y298819D01*
X583620Y301331D02*
X569740Y301331D01*
X569740Y303843D02*
X583620Y303843D01*
X583620Y306355D02*
X569740Y306355D01*
X609020Y307627D02*
X609020Y283747D01*
X595140Y283747D01*
X595140Y307627D01*
X609020Y307627D01*
X609020Y286259D02*
X595140Y286259D01*
X595140Y288771D02*
X609020Y288771D01*
X609020Y291283D02*
X595140Y291283D01*
X595140Y293795D02*
X609020Y293795D01*
X609020Y296307D02*
X595140Y296307D01*
X595140Y298819D02*
X609020Y298819D01*
X609020Y301331D02*
X595140Y301331D01*
X595140Y303843D02*
X609020Y303843D01*
X609020Y306355D02*
X595140Y306355D01*
X634420Y307627D02*
X634420Y283747D01*
X620540Y283747D01*
X620540Y307627D01*
X634420Y307627D01*
X634420Y286259D02*
X620540Y286259D01*
X620540Y288771D02*
X634420Y288771D01*
X634420Y291283D02*
X620540Y291283D01*
X620540Y293795D02*
X634420Y293795D01*
X634420Y296307D02*
X620540Y296307D01*
X620540Y298819D02*
X634420Y298819D01*
X634420Y301331D02*
X620540Y301331D01*
X620540Y303843D02*
X634420Y303843D01*
X634420Y306355D02*
X620540Y306355D01*
X659820Y307627D02*
X659820Y283747D01*
X645940Y283747D01*
X645940Y307627D01*
X659820Y307627D01*
X659820Y286259D02*
X645940Y286259D01*
X645940Y288771D02*
X659820Y288771D01*
X659820Y291283D02*
X645940Y291283D01*
X645940Y293795D02*
X659820Y293795D01*
X659820Y296307D02*
X645940Y296307D01*
X645940Y298819D02*
X659820Y298819D01*
X659820Y301331D02*
X645940Y301331D01*
X645940Y303843D02*
X659820Y303843D01*
X659820Y306355D02*
X645940Y306355D01*
X685220Y307627D02*
X685220Y283747D01*
X671340Y283747D01*
X671340Y307627D01*
X685220Y307627D01*
X685220Y286259D02*
X671340Y286259D01*
X671340Y288771D02*
X685220Y288771D01*
X685220Y291283D02*
X671340Y291283D01*
X671340Y293795D02*
X685220Y293795D01*
X685220Y296307D02*
X671340Y296307D01*
X671340Y298819D02*
X685220Y298819D01*
X685220Y301331D02*
X671340Y301331D01*
X671340Y303843D02*
X685220Y303843D01*
X685220Y306355D02*
X671340Y306355D01*
X710620Y307627D02*
X710620Y283747D01*
X696740Y283747D01*
X696740Y307627D01*
X710620Y307627D01*
X710620Y286259D02*
X696740Y286259D01*
X696740Y288771D02*
X710620Y288771D01*
X710620Y291283D02*
X696740Y291283D01*
X696740Y293795D02*
X710620Y293795D01*
X710620Y296307D02*
X696740Y296307D01*
X696740Y298819D02*
X710620Y298819D01*
X710620Y301331D02*
X696740Y301331D01*
X696740Y303843D02*
X710620Y303843D01*
X710620Y306355D02*
X696740Y306355D01*
X736020Y307627D02*
X736020Y283747D01*
X722140Y283747D01*
X722140Y307627D01*
X736020Y307627D01*
X736020Y286259D02*
X722140Y286259D01*
X722140Y288771D02*
X736020Y288771D01*
X736020Y291283D02*
X722140Y291283D01*
X722140Y293795D02*
X736020Y293795D01*
X736020Y296307D02*
X722140Y296307D01*
X722140Y298819D02*
X736020Y298819D01*
X736020Y301331D02*
X722140Y301331D01*
X722140Y303843D02*
X736020Y303843D01*
X736020Y306355D02*
X722140Y306355D01*
X761420Y307627D02*
X761420Y283747D01*
X747540Y283747D01*
X747540Y307627D01*
X761420Y307627D01*
X761420Y286259D02*
X747540Y286259D01*
X747540Y288771D02*
X761420Y288771D01*
X761420Y291283D02*
X747540Y291283D01*
X747540Y293795D02*
X761420Y293795D01*
X761420Y296307D02*
X747540Y296307D01*
X747540Y298819D02*
X761420Y298819D01*
X761420Y301331D02*
X747540Y301331D01*
X747540Y303843D02*
X761420Y303843D01*
X761420Y306355D02*
X747540Y306355D01*
X786820Y307627D02*
X786820Y283747D01*
X772940Y283747D01*
X772940Y307627D01*
X786820Y307627D01*
X786820Y286259D02*
X772940Y286259D01*
X772940Y288771D02*
X786820Y288771D01*
X786820Y291283D02*
X772940Y291283D01*
X772940Y293795D02*
X786820Y293795D01*
X786820Y296307D02*
X772940Y296307D01*
X772940Y298819D02*
X786820Y298819D01*
X786820Y301331D02*
X772940Y301331D01*
X772940Y303843D02*
X786820Y303843D01*
X786820Y306355D02*
X772940Y306355D01*
X569740Y525747D02*
X569740Y549627D01*
X583620Y549627D01*
X583620Y525747D01*
X569740Y525747D01*
X569740Y528259D02*
X583620Y528259D01*
X583620Y530771D02*
X569740Y530771D01*
X569740Y533283D02*
X583620Y533283D01*
X583620Y535795D02*
X569740Y535795D01*
X569740Y538307D02*
X583620Y538307D01*
X583620Y540819D02*
X569740Y540819D01*
X569740Y543331D02*
X583620Y543331D01*
X583620Y545843D02*
X569740Y545843D01*
X569740Y548355D02*
X583620Y548355D01*
X595140Y549627D02*
X595140Y525747D01*
X595140Y549627D02*
X609020Y549627D01*
X609020Y525747D01*
X595140Y525747D01*
X595140Y528259D02*
X609020Y528259D01*
X609020Y530771D02*
X595140Y530771D01*
X595140Y533283D02*
X609020Y533283D01*
X609020Y535795D02*
X595140Y535795D01*
X595140Y538307D02*
X609020Y538307D01*
X609020Y540819D02*
X595140Y540819D01*
X595140Y543331D02*
X609020Y543331D01*
X609020Y545843D02*
X595140Y545843D01*
X595140Y548355D02*
X609020Y548355D01*
X620540Y549627D02*
X620540Y525747D01*
X620540Y549627D02*
X634420Y549627D01*
X634420Y525747D01*
X620540Y525747D01*
X620540Y528259D02*
X634420Y528259D01*
X634420Y530771D02*
X620540Y530771D01*
X620540Y533283D02*
X634420Y533283D01*
X634420Y535795D02*
X620540Y535795D01*
X620540Y538307D02*
X634420Y538307D01*
X634420Y540819D02*
X620540Y540819D01*
X620540Y543331D02*
X634420Y543331D01*
X634420Y545843D02*
X620540Y545843D01*
X620540Y548355D02*
X634420Y548355D01*
X645940Y549627D02*
X645940Y525747D01*
X645940Y549627D02*
X659820Y549627D01*
X659820Y525747D01*
X645940Y525747D01*
X645940Y528259D02*
X659820Y528259D01*
X659820Y530771D02*
X645940Y530771D01*
X645940Y533283D02*
X659820Y533283D01*
X659820Y535795D02*
X645940Y535795D01*
X645940Y538307D02*
X659820Y538307D01*
X659820Y540819D02*
X645940Y540819D01*
X645940Y543331D02*
X659820Y543331D01*
X659820Y545843D02*
X645940Y545843D01*
X645940Y548355D02*
X659820Y548355D01*
X671340Y549627D02*
X671340Y525747D01*
X671340Y549627D02*
X685220Y549627D01*
X685220Y525747D01*
X671340Y525747D01*
X671340Y528259D02*
X685220Y528259D01*
X685220Y530771D02*
X671340Y530771D01*
X671340Y533283D02*
X685220Y533283D01*
X685220Y535795D02*
X671340Y535795D01*
X671340Y538307D02*
X685220Y538307D01*
X685220Y540819D02*
X671340Y540819D01*
X671340Y543331D02*
X685220Y543331D01*
X685220Y545843D02*
X671340Y545843D01*
X671340Y548355D02*
X685220Y548355D01*
X696740Y549627D02*
X696740Y525747D01*
X696740Y549627D02*
X710620Y549627D01*
X710620Y525747D01*
X696740Y525747D01*
X696740Y528259D02*
X710620Y528259D01*
X710620Y530771D02*
X696740Y530771D01*
X696740Y533283D02*
X710620Y533283D01*
X710620Y535795D02*
X696740Y535795D01*
X696740Y538307D02*
X710620Y538307D01*
X710620Y540819D02*
X696740Y540819D01*
X696740Y543331D02*
X710620Y543331D01*
X710620Y545843D02*
X696740Y545843D01*
X696740Y548355D02*
X710620Y548355D01*
X722140Y549627D02*
X722140Y525747D01*
X722140Y549627D02*
X736020Y549627D01*
X736020Y525747D01*
X722140Y525747D01*
X722140Y528259D02*
X736020Y528259D01*
X736020Y530771D02*
X722140Y530771D01*
X722140Y533283D02*
X736020Y533283D01*
X736020Y535795D02*
X722140Y535795D01*
X722140Y538307D02*
X736020Y538307D01*
X736020Y540819D02*
X722140Y540819D01*
X722140Y543331D02*
X736020Y543331D01*
X736020Y545843D02*
X722140Y545843D01*
X722140Y548355D02*
X736020Y548355D01*
X747540Y549627D02*
X747540Y525747D01*
X747540Y549627D02*
X761420Y549627D01*
X761420Y525747D01*
X747540Y525747D01*
X747540Y528259D02*
X761420Y528259D01*
X761420Y530771D02*
X747540Y530771D01*
X747540Y533283D02*
X761420Y533283D01*
X761420Y535795D02*
X747540Y535795D01*
X747540Y538307D02*
X761420Y538307D01*
X761420Y540819D02*
X747540Y540819D01*
X747540Y543331D02*
X761420Y543331D01*
X761420Y545843D02*
X747540Y545843D01*
X747540Y548355D02*
X761420Y548355D01*
X772940Y549627D02*
X772940Y525747D01*
X772940Y549627D02*
X786820Y549627D01*
X786820Y525747D01*
X772940Y525747D01*
X772940Y528259D02*
X786820Y528259D01*
X786820Y530771D02*
X772940Y530771D01*
X772940Y533283D02*
X786820Y533283D01*
X786820Y535795D02*
X772940Y535795D01*
X772940Y538307D02*
X786820Y538307D01*
X786820Y540819D02*
X772940Y540819D01*
X772940Y543331D02*
X786820Y543331D01*
X786820Y545843D02*
X772940Y545843D01*
X772940Y548355D02*
X786820Y548355D01*
X925740Y493627D02*
X949620Y493627D01*
X949620Y479747D01*
X925740Y479747D01*
X925740Y493627D01*
X925740Y482259D02*
X949620Y482259D01*
X949620Y484771D02*
X925740Y484771D01*
X925740Y487283D02*
X949620Y487283D01*
X949620Y489795D02*
X925740Y489795D01*
X925740Y492307D02*
X949620Y492307D01*
X949620Y468227D02*
X925740Y468227D01*
X949620Y468227D02*
X949620Y454347D01*
X925740Y454347D01*
X925740Y468227D01*
X925740Y456859D02*
X949620Y456859D01*
X949620Y459371D02*
X925740Y459371D01*
X925740Y461883D02*
X949620Y461883D01*
X949620Y464395D02*
X925740Y464395D01*
X925740Y466907D02*
X949620Y466907D01*
X949620Y379027D02*
X925740Y379027D01*
X949620Y379027D02*
X949620Y365147D01*
X925740Y365147D01*
X925740Y379027D01*
X925740Y367659D02*
X949620Y367659D01*
X949620Y370171D02*
X925740Y370171D01*
X925740Y372683D02*
X949620Y372683D01*
X949620Y375195D02*
X925740Y375195D01*
X925740Y377707D02*
X949620Y377707D01*
X949620Y353627D02*
X925740Y353627D01*
X949620Y353627D02*
X949620Y339747D01*
X925740Y339747D01*
X925740Y353627D01*
X925740Y342259D02*
X949620Y342259D01*
X949620Y344771D02*
X925740Y344771D01*
X925740Y347283D02*
X949620Y347283D01*
X949620Y349795D02*
X925740Y349795D01*
X925740Y352307D02*
X949620Y352307D01*
D12*
X640080Y505587D03*
X665480Y505587D03*
D13*
X574830Y496387D03*
X574830Y438587D03*
D14*
X955097Y494134D02*
X955097Y499100D01*
X960063Y499100D01*
X960063Y494134D01*
X955097Y494134D01*
X955097Y496564D02*
X960063Y496564D01*
X960063Y498994D02*
X955097Y498994D01*
X955097Y489100D02*
X955097Y484134D01*
X955097Y489100D02*
X960063Y489100D01*
X960063Y484134D01*
X955097Y484134D01*
X955097Y486564D02*
X960063Y486564D01*
X960063Y488994D02*
X955097Y488994D01*
D10*
X754380Y321437D03*
X767080Y321437D03*
X779780Y321437D03*
X792480Y321437D03*
X741680Y321437D03*
X754380Y334137D03*
X767080Y334137D03*
X779780Y334137D03*
X792480Y334137D03*
X741680Y334137D03*
D11*
X1006230Y454197D02*
X1006230Y468077D01*
X1006230Y454197D02*
X967350Y454197D01*
X967350Y468077D01*
X1006230Y468077D01*
X1006230Y456709D02*
X967350Y456709D01*
X967350Y459221D02*
X1006230Y459221D01*
X1006230Y461733D02*
X967350Y461733D01*
X967350Y464245D02*
X1006230Y464245D01*
X1006230Y466757D02*
X967350Y466757D01*
X1006230Y479597D02*
X1006230Y493477D01*
X1006230Y479597D02*
X967350Y479597D01*
X967350Y493477D01*
X1006230Y493477D01*
X1006230Y482109D02*
X967350Y482109D01*
X967350Y484621D02*
X1006230Y484621D01*
X1006230Y487133D02*
X967350Y487133D01*
X967350Y489645D02*
X1006230Y489645D01*
X1006230Y492157D02*
X967350Y492157D01*
X1006230Y504997D02*
X1006230Y518877D01*
X1006230Y504997D02*
X967350Y504997D01*
X967350Y518877D01*
X1006230Y518877D01*
X1006230Y507509D02*
X967350Y507509D01*
X967350Y510021D02*
X1006230Y510021D01*
X1006230Y512533D02*
X967350Y512533D01*
X967350Y515045D02*
X1006230Y515045D01*
X1006230Y517557D02*
X967350Y517557D01*
D15*
X986680Y403987D03*
X1004680Y403987D03*
D12*
X843280Y315087D03*
X817880Y315087D03*
D10*
X25400Y569163D03*
X482600Y823163D03*
D11*
X70540Y587103D02*
X70540Y563223D01*
X56660Y563223D01*
X56660Y587103D01*
X70540Y587103D01*
X70540Y565735D02*
X56660Y565735D01*
X56660Y568247D02*
X70540Y568247D01*
X70540Y570759D02*
X56660Y570759D01*
X56660Y573271D02*
X70540Y573271D01*
X70540Y575783D02*
X56660Y575783D01*
X56660Y578295D02*
X70540Y578295D01*
X70540Y580807D02*
X56660Y580807D01*
X56660Y583319D02*
X70540Y583319D01*
X70540Y585831D02*
X56660Y585831D01*
X95940Y587103D02*
X95940Y563223D01*
X82060Y563223D01*
X82060Y587103D01*
X95940Y587103D01*
X95940Y565735D02*
X82060Y565735D01*
X82060Y568247D02*
X95940Y568247D01*
X95940Y570759D02*
X82060Y570759D01*
X82060Y573271D02*
X95940Y573271D01*
X95940Y575783D02*
X82060Y575783D01*
X82060Y578295D02*
X95940Y578295D01*
X95940Y580807D02*
X82060Y580807D01*
X82060Y583319D02*
X95940Y583319D01*
X95940Y585831D02*
X82060Y585831D01*
X121340Y587103D02*
X121340Y563223D01*
X107460Y563223D01*
X107460Y587103D01*
X121340Y587103D01*
X121340Y565735D02*
X107460Y565735D01*
X107460Y568247D02*
X121340Y568247D01*
X121340Y570759D02*
X107460Y570759D01*
X107460Y573271D02*
X121340Y573271D01*
X121340Y575783D02*
X107460Y575783D01*
X107460Y578295D02*
X121340Y578295D01*
X121340Y580807D02*
X107460Y580807D01*
X107460Y583319D02*
X121340Y583319D01*
X121340Y585831D02*
X107460Y585831D01*
X146740Y587103D02*
X146740Y563223D01*
X132860Y563223D01*
X132860Y587103D01*
X146740Y587103D01*
X146740Y565735D02*
X132860Y565735D01*
X132860Y568247D02*
X146740Y568247D01*
X146740Y570759D02*
X132860Y570759D01*
X132860Y573271D02*
X146740Y573271D01*
X146740Y575783D02*
X132860Y575783D01*
X132860Y578295D02*
X146740Y578295D01*
X146740Y580807D02*
X132860Y580807D01*
X132860Y583319D02*
X146740Y583319D01*
X146740Y585831D02*
X132860Y585831D01*
X172140Y587103D02*
X172140Y563223D01*
X158260Y563223D01*
X158260Y587103D01*
X172140Y587103D01*
X172140Y565735D02*
X158260Y565735D01*
X158260Y568247D02*
X172140Y568247D01*
X172140Y570759D02*
X158260Y570759D01*
X158260Y573271D02*
X172140Y573271D01*
X172140Y575783D02*
X158260Y575783D01*
X158260Y578295D02*
X172140Y578295D01*
X172140Y580807D02*
X158260Y580807D01*
X158260Y583319D02*
X172140Y583319D01*
X172140Y585831D02*
X158260Y585831D01*
X197540Y587103D02*
X197540Y563223D01*
X183660Y563223D01*
X183660Y587103D01*
X197540Y587103D01*
X197540Y565735D02*
X183660Y565735D01*
X183660Y568247D02*
X197540Y568247D01*
X197540Y570759D02*
X183660Y570759D01*
X183660Y573271D02*
X197540Y573271D01*
X197540Y575783D02*
X183660Y575783D01*
X183660Y578295D02*
X197540Y578295D01*
X197540Y580807D02*
X183660Y580807D01*
X183660Y583319D02*
X197540Y583319D01*
X197540Y585831D02*
X183660Y585831D01*
X222940Y587103D02*
X222940Y563223D01*
X209060Y563223D01*
X209060Y587103D01*
X222940Y587103D01*
X222940Y565735D02*
X209060Y565735D01*
X209060Y568247D02*
X222940Y568247D01*
X222940Y570759D02*
X209060Y570759D01*
X209060Y573271D02*
X222940Y573271D01*
X222940Y575783D02*
X209060Y575783D01*
X209060Y578295D02*
X222940Y578295D01*
X222940Y580807D02*
X209060Y580807D01*
X209060Y583319D02*
X222940Y583319D01*
X222940Y585831D02*
X209060Y585831D01*
X248340Y587103D02*
X248340Y563223D01*
X234460Y563223D01*
X234460Y587103D01*
X248340Y587103D01*
X248340Y565735D02*
X234460Y565735D01*
X234460Y568247D02*
X248340Y568247D01*
X248340Y570759D02*
X234460Y570759D01*
X234460Y573271D02*
X248340Y573271D01*
X248340Y575783D02*
X234460Y575783D01*
X234460Y578295D02*
X248340Y578295D01*
X248340Y580807D02*
X234460Y580807D01*
X234460Y583319D02*
X248340Y583319D01*
X248340Y585831D02*
X234460Y585831D01*
X273740Y587103D02*
X273740Y563223D01*
X259860Y563223D01*
X259860Y587103D01*
X273740Y587103D01*
X273740Y565735D02*
X259860Y565735D01*
X259860Y568247D02*
X273740Y568247D01*
X273740Y570759D02*
X259860Y570759D01*
X259860Y573271D02*
X273740Y573271D01*
X273740Y575783D02*
X259860Y575783D01*
X259860Y578295D02*
X273740Y578295D01*
X273740Y580807D02*
X259860Y580807D01*
X259860Y583319D02*
X273740Y583319D01*
X273740Y585831D02*
X259860Y585831D01*
X56660Y805223D02*
X56660Y829103D01*
X70540Y829103D01*
X70540Y805223D01*
X56660Y805223D01*
X56660Y807735D02*
X70540Y807735D01*
X70540Y810247D02*
X56660Y810247D01*
X56660Y812759D02*
X70540Y812759D01*
X70540Y815271D02*
X56660Y815271D01*
X56660Y817783D02*
X70540Y817783D01*
X70540Y820295D02*
X56660Y820295D01*
X56660Y822807D02*
X70540Y822807D01*
X70540Y825319D02*
X56660Y825319D01*
X56660Y827831D02*
X70540Y827831D01*
X82060Y829103D02*
X82060Y805223D01*
X82060Y829103D02*
X95940Y829103D01*
X95940Y805223D01*
X82060Y805223D01*
X82060Y807735D02*
X95940Y807735D01*
X95940Y810247D02*
X82060Y810247D01*
X82060Y812759D02*
X95940Y812759D01*
X95940Y815271D02*
X82060Y815271D01*
X82060Y817783D02*
X95940Y817783D01*
X95940Y820295D02*
X82060Y820295D01*
X82060Y822807D02*
X95940Y822807D01*
X95940Y825319D02*
X82060Y825319D01*
X82060Y827831D02*
X95940Y827831D01*
X107460Y829103D02*
X107460Y805223D01*
X107460Y829103D02*
X121340Y829103D01*
X121340Y805223D01*
X107460Y805223D01*
X107460Y807735D02*
X121340Y807735D01*
X121340Y810247D02*
X107460Y810247D01*
X107460Y812759D02*
X121340Y812759D01*
X121340Y815271D02*
X107460Y815271D01*
X107460Y817783D02*
X121340Y817783D01*
X121340Y820295D02*
X107460Y820295D01*
X107460Y822807D02*
X121340Y822807D01*
X121340Y825319D02*
X107460Y825319D01*
X107460Y827831D02*
X121340Y827831D01*
X132860Y829103D02*
X132860Y805223D01*
X132860Y829103D02*
X146740Y829103D01*
X146740Y805223D01*
X132860Y805223D01*
X132860Y807735D02*
X146740Y807735D01*
X146740Y810247D02*
X132860Y810247D01*
X132860Y812759D02*
X146740Y812759D01*
X146740Y815271D02*
X132860Y815271D01*
X132860Y817783D02*
X146740Y817783D01*
X146740Y820295D02*
X132860Y820295D01*
X132860Y822807D02*
X146740Y822807D01*
X146740Y825319D02*
X132860Y825319D01*
X132860Y827831D02*
X146740Y827831D01*
X158260Y829103D02*
X158260Y805223D01*
X158260Y829103D02*
X172140Y829103D01*
X172140Y805223D01*
X158260Y805223D01*
X158260Y807735D02*
X172140Y807735D01*
X172140Y810247D02*
X158260Y810247D01*
X158260Y812759D02*
X172140Y812759D01*
X172140Y815271D02*
X158260Y815271D01*
X158260Y817783D02*
X172140Y817783D01*
X172140Y820295D02*
X158260Y820295D01*
X158260Y822807D02*
X172140Y822807D01*
X172140Y825319D02*
X158260Y825319D01*
X158260Y827831D02*
X172140Y827831D01*
X183660Y829103D02*
X183660Y805223D01*
X183660Y829103D02*
X197540Y829103D01*
X197540Y805223D01*
X183660Y805223D01*
X183660Y807735D02*
X197540Y807735D01*
X197540Y810247D02*
X183660Y810247D01*
X183660Y812759D02*
X197540Y812759D01*
X197540Y815271D02*
X183660Y815271D01*
X183660Y817783D02*
X197540Y817783D01*
X197540Y820295D02*
X183660Y820295D01*
X183660Y822807D02*
X197540Y822807D01*
X197540Y825319D02*
X183660Y825319D01*
X183660Y827831D02*
X197540Y827831D01*
X209060Y829103D02*
X209060Y805223D01*
X209060Y829103D02*
X222940Y829103D01*
X222940Y805223D01*
X209060Y805223D01*
X209060Y807735D02*
X222940Y807735D01*
X222940Y810247D02*
X209060Y810247D01*
X209060Y812759D02*
X222940Y812759D01*
X222940Y815271D02*
X209060Y815271D01*
X209060Y817783D02*
X222940Y817783D01*
X222940Y820295D02*
X209060Y820295D01*
X209060Y822807D02*
X222940Y822807D01*
X222940Y825319D02*
X209060Y825319D01*
X209060Y827831D02*
X222940Y827831D01*
X234460Y829103D02*
X234460Y805223D01*
X234460Y829103D02*
X248340Y829103D01*
X248340Y805223D01*
X234460Y805223D01*
X234460Y807735D02*
X248340Y807735D01*
X248340Y810247D02*
X234460Y810247D01*
X234460Y812759D02*
X248340Y812759D01*
X248340Y815271D02*
X234460Y815271D01*
X234460Y817783D02*
X248340Y817783D01*
X248340Y820295D02*
X234460Y820295D01*
X234460Y822807D02*
X248340Y822807D01*
X248340Y825319D02*
X234460Y825319D01*
X234460Y827831D02*
X248340Y827831D01*
X259860Y829103D02*
X259860Y805223D01*
X259860Y829103D02*
X273740Y829103D01*
X273740Y805223D01*
X259860Y805223D01*
X259860Y807735D02*
X273740Y807735D01*
X273740Y810247D02*
X259860Y810247D01*
X259860Y812759D02*
X273740Y812759D01*
X273740Y815271D02*
X259860Y815271D01*
X259860Y817783D02*
X273740Y817783D01*
X273740Y820295D02*
X259860Y820295D01*
X259860Y822807D02*
X273740Y822807D01*
X273740Y825319D02*
X259860Y825319D01*
X259860Y827831D02*
X273740Y827831D01*
X412660Y773103D02*
X436540Y773103D01*
X436540Y759223D01*
X412660Y759223D01*
X412660Y773103D01*
X412660Y761735D02*
X436540Y761735D01*
X436540Y764247D02*
X412660Y764247D01*
X412660Y766759D02*
X436540Y766759D01*
X436540Y769271D02*
X412660Y769271D01*
X412660Y771783D02*
X436540Y771783D01*
X436540Y747703D02*
X412660Y747703D01*
X436540Y747703D02*
X436540Y733823D01*
X412660Y733823D01*
X412660Y747703D01*
X412660Y736335D02*
X436540Y736335D01*
X436540Y738847D02*
X412660Y738847D01*
X412660Y741359D02*
X436540Y741359D01*
X436540Y743871D02*
X412660Y743871D01*
X412660Y746383D02*
X436540Y746383D01*
X436540Y658503D02*
X412660Y658503D01*
X436540Y658503D02*
X436540Y644623D01*
X412660Y644623D01*
X412660Y658503D01*
X412660Y647135D02*
X436540Y647135D01*
X436540Y649647D02*
X412660Y649647D01*
X412660Y652159D02*
X436540Y652159D01*
X436540Y654671D02*
X412660Y654671D01*
X412660Y657183D02*
X436540Y657183D01*
X436540Y633103D02*
X412660Y633103D01*
X436540Y633103D02*
X436540Y619223D01*
X412660Y619223D01*
X412660Y633103D01*
X412660Y621735D02*
X436540Y621735D01*
X436540Y624247D02*
X412660Y624247D01*
X412660Y626759D02*
X436540Y626759D01*
X436540Y629271D02*
X412660Y629271D01*
X412660Y631783D02*
X436540Y631783D01*
D12*
X127000Y785063D03*
X152400Y785063D03*
D13*
X61750Y775863D03*
X61750Y718063D03*
D14*
X442017Y773610D02*
X442017Y778576D01*
X446983Y778576D01*
X446983Y773610D01*
X442017Y773610D01*
X442017Y776040D02*
X446983Y776040D01*
X446983Y778470D02*
X442017Y778470D01*
X442017Y768576D02*
X442017Y763610D01*
X442017Y768576D02*
X446983Y768576D01*
X446983Y763610D01*
X442017Y763610D01*
X442017Y766040D02*
X446983Y766040D01*
X446983Y768470D02*
X442017Y768470D01*
D10*
X241300Y600913D03*
X254000Y600913D03*
X266700Y600913D03*
X279400Y600913D03*
X228600Y600913D03*
X241300Y613613D03*
X254000Y613613D03*
X266700Y613613D03*
X279400Y613613D03*
X228600Y613613D03*
D11*
X493150Y733673D02*
X493150Y747553D01*
X493150Y733673D02*
X454270Y733673D01*
X454270Y747553D01*
X493150Y747553D01*
X493150Y736185D02*
X454270Y736185D01*
X454270Y738697D02*
X493150Y738697D01*
X493150Y741209D02*
X454270Y741209D01*
X454270Y743721D02*
X493150Y743721D01*
X493150Y746233D02*
X454270Y746233D01*
X493150Y759073D02*
X493150Y772953D01*
X493150Y759073D02*
X454270Y759073D01*
X454270Y772953D01*
X493150Y772953D01*
X493150Y761585D02*
X454270Y761585D01*
X454270Y764097D02*
X493150Y764097D01*
X493150Y766609D02*
X454270Y766609D01*
X454270Y769121D02*
X493150Y769121D01*
X493150Y771633D02*
X454270Y771633D01*
X493150Y784473D02*
X493150Y798353D01*
X493150Y784473D02*
X454270Y784473D01*
X454270Y798353D01*
X493150Y798353D01*
X493150Y786985D02*
X454270Y786985D01*
X454270Y789497D02*
X493150Y789497D01*
X493150Y792009D02*
X454270Y792009D01*
X454270Y794521D02*
X493150Y794521D01*
X493150Y797033D02*
X454270Y797033D01*
D15*
X473600Y683463D03*
X491600Y683463D03*
D12*
X330200Y594563D03*
X304800Y594563D03*
D10*
X538480Y569163D03*
X995680Y823163D03*
D11*
X583620Y587103D02*
X583620Y563223D01*
X569740Y563223D01*
X569740Y587103D01*
X583620Y587103D01*
X583620Y565735D02*
X569740Y565735D01*
X569740Y568247D02*
X583620Y568247D01*
X583620Y570759D02*
X569740Y570759D01*
X569740Y573271D02*
X583620Y573271D01*
X583620Y575783D02*
X569740Y575783D01*
X569740Y578295D02*
X583620Y578295D01*
X583620Y580807D02*
X569740Y580807D01*
X569740Y583319D02*
X583620Y583319D01*
X583620Y585831D02*
X569740Y585831D01*
X609020Y587103D02*
X609020Y563223D01*
X595140Y563223D01*
X595140Y587103D01*
X609020Y587103D01*
X609020Y565735D02*
X595140Y565735D01*
X595140Y568247D02*
X609020Y568247D01*
X609020Y570759D02*
X595140Y570759D01*
X595140Y573271D02*
X609020Y573271D01*
X609020Y575783D02*
X595140Y575783D01*
X595140Y578295D02*
X609020Y578295D01*
X609020Y580807D02*
X595140Y580807D01*
X595140Y583319D02*
X609020Y583319D01*
X609020Y585831D02*
X595140Y585831D01*
X634420Y587103D02*
X634420Y563223D01*
X620540Y563223D01*
X620540Y587103D01*
X634420Y587103D01*
X634420Y565735D02*
X620540Y565735D01*
X620540Y568247D02*
X634420Y568247D01*
X634420Y570759D02*
X620540Y570759D01*
X620540Y573271D02*
X634420Y573271D01*
X634420Y575783D02*
X620540Y575783D01*
X620540Y578295D02*
X634420Y578295D01*
X634420Y580807D02*
X620540Y580807D01*
X620540Y583319D02*
X634420Y583319D01*
X634420Y585831D02*
X620540Y585831D01*
X659820Y587103D02*
X659820Y563223D01*
X645940Y563223D01*
X645940Y587103D01*
X659820Y587103D01*
X659820Y565735D02*
X645940Y565735D01*
X645940Y568247D02*
X659820Y568247D01*
X659820Y570759D02*
X645940Y570759D01*
X645940Y573271D02*
X659820Y573271D01*
X659820Y575783D02*
X645940Y575783D01*
X645940Y578295D02*
X659820Y578295D01*
X659820Y580807D02*
X645940Y580807D01*
X645940Y583319D02*
X659820Y583319D01*
X659820Y585831D02*
X645940Y585831D01*
X685220Y587103D02*
X685220Y563223D01*
X671340Y563223D01*
X671340Y587103D01*
X685220Y587103D01*
X685220Y565735D02*
X671340Y565735D01*
X671340Y568247D02*
X685220Y568247D01*
X685220Y570759D02*
X671340Y570759D01*
X671340Y573271D02*
X685220Y573271D01*
X685220Y575783D02*
X671340Y575783D01*
X671340Y578295D02*
X685220Y578295D01*
X685220Y580807D02*
X671340Y580807D01*
X671340Y583319D02*
X685220Y583319D01*
X685220Y585831D02*
X671340Y585831D01*
X710620Y587103D02*
X710620Y563223D01*
X696740Y563223D01*
X696740Y587103D01*
X710620Y587103D01*
X710620Y565735D02*
X696740Y565735D01*
X696740Y568247D02*
X710620Y568247D01*
X710620Y570759D02*
X696740Y570759D01*
X696740Y573271D02*
X710620Y573271D01*
X710620Y575783D02*
X696740Y575783D01*
X696740Y578295D02*
X710620Y578295D01*
X710620Y580807D02*
X696740Y580807D01*
X696740Y583319D02*
X710620Y583319D01*
X710620Y585831D02*
X696740Y585831D01*
X736020Y587103D02*
X736020Y563223D01*
X722140Y563223D01*
X722140Y587103D01*
X736020Y587103D01*
X736020Y565735D02*
X722140Y565735D01*
X722140Y568247D02*
X736020Y568247D01*
X736020Y570759D02*
X722140Y570759D01*
X722140Y573271D02*
X736020Y573271D01*
X736020Y575783D02*
X722140Y575783D01*
X722140Y578295D02*
X736020Y578295D01*
X736020Y580807D02*
X722140Y580807D01*
X722140Y583319D02*
X736020Y583319D01*
X736020Y585831D02*
X722140Y585831D01*
X761420Y587103D02*
X761420Y563223D01*
X747540Y563223D01*
X747540Y587103D01*
X761420Y587103D01*
X761420Y565735D02*
X747540Y565735D01*
X747540Y568247D02*
X761420Y568247D01*
X761420Y570759D02*
X747540Y570759D01*
X747540Y573271D02*
X761420Y573271D01*
X761420Y575783D02*
X747540Y575783D01*
X747540Y578295D02*
X761420Y578295D01*
X761420Y580807D02*
X747540Y580807D01*
X747540Y583319D02*
X761420Y583319D01*
X761420Y585831D02*
X747540Y585831D01*
X786820Y587103D02*
X786820Y563223D01*
X772940Y563223D01*
X772940Y587103D01*
X786820Y587103D01*
X786820Y565735D02*
X772940Y565735D01*
X772940Y568247D02*
X786820Y568247D01*
X786820Y570759D02*
X772940Y570759D01*
X772940Y573271D02*
X786820Y573271D01*
X786820Y575783D02*
X772940Y575783D01*
X772940Y578295D02*
X786820Y578295D01*
X786820Y580807D02*
X772940Y580807D01*
X772940Y583319D02*
X786820Y583319D01*
X786820Y585831D02*
X772940Y585831D01*
X569740Y805223D02*
X569740Y829103D01*
X583620Y829103D01*
X583620Y805223D01*
X569740Y805223D01*
X569740Y807735D02*
X583620Y807735D01*
X583620Y810247D02*
X569740Y810247D01*
X569740Y812759D02*
X583620Y812759D01*
X583620Y815271D02*
X569740Y815271D01*
X569740Y817783D02*
X583620Y817783D01*
X583620Y820295D02*
X569740Y820295D01*
X569740Y822807D02*
X583620Y822807D01*
X583620Y825319D02*
X569740Y825319D01*
X569740Y827831D02*
X583620Y827831D01*
X595140Y829103D02*
X595140Y805223D01*
X595140Y829103D02*
X609020Y829103D01*
X609020Y805223D01*
X595140Y805223D01*
X595140Y807735D02*
X609020Y807735D01*
X609020Y810247D02*
X595140Y810247D01*
X595140Y812759D02*
X609020Y812759D01*
X609020Y815271D02*
X595140Y815271D01*
X595140Y817783D02*
X609020Y817783D01*
X609020Y820295D02*
X595140Y820295D01*
X595140Y822807D02*
X609020Y822807D01*
X609020Y825319D02*
X595140Y825319D01*
X595140Y827831D02*
X609020Y827831D01*
X620540Y829103D02*
X620540Y805223D01*
X620540Y829103D02*
X634420Y829103D01*
X634420Y805223D01*
X620540Y805223D01*
X620540Y807735D02*
X634420Y807735D01*
X634420Y810247D02*
X620540Y810247D01*
X620540Y812759D02*
X634420Y812759D01*
X634420Y815271D02*
X620540Y815271D01*
X620540Y817783D02*
X634420Y817783D01*
X634420Y820295D02*
X620540Y820295D01*
X620540Y822807D02*
X634420Y822807D01*
X634420Y825319D02*
X620540Y825319D01*
X620540Y827831D02*
X634420Y827831D01*
X645940Y829103D02*
X645940Y805223D01*
X645940Y829103D02*
X659820Y829103D01*
X659820Y805223D01*
X645940Y805223D01*
X645940Y807735D02*
X659820Y807735D01*
X659820Y810247D02*
X645940Y810247D01*
X645940Y812759D02*
X659820Y812759D01*
X659820Y815271D02*
X645940Y815271D01*
X645940Y817783D02*
X659820Y817783D01*
X659820Y820295D02*
X645940Y820295D01*
X645940Y822807D02*
X659820Y822807D01*
X659820Y825319D02*
X645940Y825319D01*
X645940Y827831D02*
X659820Y827831D01*
X671340Y829103D02*
X671340Y805223D01*
X671340Y829103D02*
X685220Y829103D01*
X685220Y805223D01*
X671340Y805223D01*
X671340Y807735D02*
X685220Y807735D01*
X685220Y810247D02*
X671340Y810247D01*
X671340Y812759D02*
X685220Y812759D01*
X685220Y815271D02*
X671340Y815271D01*
X671340Y817783D02*
X685220Y817783D01*
X685220Y820295D02*
X671340Y820295D01*
X671340Y822807D02*
X685220Y822807D01*
X685220Y825319D02*
X671340Y825319D01*
X671340Y827831D02*
X685220Y827831D01*
X696740Y829103D02*
X696740Y805223D01*
X696740Y829103D02*
X710620Y829103D01*
X710620Y805223D01*
X696740Y805223D01*
X696740Y807735D02*
X710620Y807735D01*
X710620Y810247D02*
X696740Y810247D01*
X696740Y812759D02*
X710620Y812759D01*
X710620Y815271D02*
X696740Y815271D01*
X696740Y817783D02*
X710620Y817783D01*
X710620Y820295D02*
X696740Y820295D01*
X696740Y822807D02*
X710620Y822807D01*
X710620Y825319D02*
X696740Y825319D01*
X696740Y827831D02*
X710620Y827831D01*
X722140Y829103D02*
X722140Y805223D01*
X722140Y829103D02*
X736020Y829103D01*
X736020Y805223D01*
X722140Y805223D01*
X722140Y807735D02*
X736020Y807735D01*
X736020Y810247D02*
X722140Y810247D01*
X722140Y812759D02*
X736020Y812759D01*
X736020Y815271D02*
X722140Y815271D01*
X722140Y817783D02*
X736020Y817783D01*
X736020Y820295D02*
X722140Y820295D01*
X722140Y822807D02*
X736020Y822807D01*
X736020Y825319D02*
X722140Y825319D01*
X722140Y827831D02*
X736020Y827831D01*
X747540Y829103D02*
X747540Y805223D01*
X747540Y829103D02*
X761420Y829103D01*
X761420Y805223D01*
X747540Y805223D01*
X747540Y807735D02*
X761420Y807735D01*
X761420Y810247D02*
X747540Y810247D01*
X747540Y812759D02*
X761420Y812759D01*
X761420Y815271D02*
X747540Y815271D01*
X747540Y817783D02*
X761420Y817783D01*
X761420Y820295D02*
X747540Y820295D01*
X747540Y822807D02*
X761420Y822807D01*
X761420Y825319D02*
X747540Y825319D01*
X747540Y827831D02*
X761420Y827831D01*
X772940Y829103D02*
X772940Y805223D01*
X772940Y829103D02*
X786820Y829103D01*
X786820Y805223D01*
X772940Y805223D01*
X772940Y807735D02*
X786820Y807735D01*
X786820Y810247D02*
X772940Y810247D01*
X772940Y812759D02*
X786820Y812759D01*
X786820Y815271D02*
X772940Y815271D01*
X772940Y817783D02*
X786820Y817783D01*
X786820Y820295D02*
X772940Y820295D01*
X772940Y822807D02*
X786820Y822807D01*
X786820Y825319D02*
X772940Y825319D01*
X772940Y827831D02*
X786820Y827831D01*
X925740Y773103D02*
X949620Y773103D01*
X949620Y759223D01*
X925740Y759223D01*
X925740Y773103D01*
X925740Y761735D02*
X949620Y761735D01*
X949620Y764247D02*
X925740Y764247D01*
X925740Y766759D02*
X949620Y766759D01*
X949620Y769271D02*
X925740Y769271D01*
X925740Y771783D02*
X949620Y771783D01*
X949620Y747703D02*
X925740Y747703D01*
X949620Y747703D02*
X949620Y733823D01*
X925740Y733823D01*
X925740Y747703D01*
X925740Y736335D02*
X949620Y736335D01*
X949620Y738847D02*
X925740Y738847D01*
X925740Y741359D02*
X949620Y741359D01*
X949620Y743871D02*
X925740Y743871D01*
X925740Y746383D02*
X949620Y746383D01*
X949620Y658503D02*
X925740Y658503D01*
X949620Y658503D02*
X949620Y644623D01*
X925740Y644623D01*
X925740Y658503D01*
X925740Y647135D02*
X949620Y647135D01*
X949620Y649647D02*
X925740Y649647D01*
X925740Y652159D02*
X949620Y652159D01*
X949620Y654671D02*
X925740Y654671D01*
X925740Y657183D02*
X949620Y657183D01*
X949620Y633103D02*
X925740Y633103D01*
X949620Y633103D02*
X949620Y619223D01*
X925740Y619223D01*
X925740Y633103D01*
X925740Y621735D02*
X949620Y621735D01*
X949620Y624247D02*
X925740Y624247D01*
X925740Y626759D02*
X949620Y626759D01*
X949620Y629271D02*
X925740Y629271D01*
X925740Y631783D02*
X949620Y631783D01*
D12*
X640080Y785063D03*
X665480Y785063D03*
D13*
X574830Y775863D03*
X574830Y718063D03*
D14*
X955097Y773610D02*
X955097Y778576D01*
X960063Y778576D01*
X960063Y773610D01*
X955097Y773610D01*
X955097Y776040D02*
X960063Y776040D01*
X960063Y778470D02*
X955097Y778470D01*
X955097Y768576D02*
X955097Y763610D01*
X955097Y768576D02*
X960063Y768576D01*
X960063Y763610D01*
X955097Y763610D01*
X955097Y766040D02*
X960063Y766040D01*
X960063Y768470D02*
X955097Y768470D01*
D10*
X754380Y600913D03*
X767080Y600913D03*
X779780Y600913D03*
X792480Y600913D03*
X741680Y600913D03*
X754380Y613613D03*
X767080Y613613D03*
X779780Y613613D03*
X792480Y613613D03*
X741680Y613613D03*
D11*
X1006230Y733673D02*
X1006230Y747553D01*
X1006230Y733673D02*
X967350Y733673D01*
X967350Y747553D01*
X1006230Y747553D01*
X1006230Y736185D02*
X967350Y736185D01*
X967350Y738697D02*
X1006230Y738697D01*
X1006230Y741209D02*
X967350Y741209D01*
X967350Y743721D02*
X1006230Y743721D01*
X1006230Y746233D02*
X967350Y746233D01*
X1006230Y759073D02*
X1006230Y772953D01*
X1006230Y759073D02*
X967350Y759073D01*
X967350Y772953D01*
X1006230Y772953D01*
X1006230Y761585D02*
X967350Y761585D01*
X967350Y764097D02*
X1006230Y764097D01*
X1006230Y766609D02*
X967350Y766609D01*
X967350Y769121D02*
X1006230Y769121D01*
X1006230Y771633D02*
X967350Y771633D01*
X1006230Y784473D02*
X1006230Y798353D01*
X1006230Y784473D02*
X967350Y784473D01*
X967350Y798353D01*
X1006230Y798353D01*
X1006230Y786985D02*
X967350Y786985D01*
X967350Y789497D02*
X1006230Y789497D01*
X1006230Y792009D02*
X967350Y792009D01*
X967350Y794521D02*
X1006230Y794521D01*
X1006230Y797033D02*
X967350Y797033D01*
D15*
X986680Y683463D03*
X1004680Y683463D03*
D12*
X843280Y594563D03*
X817880Y594563D03*
D10*
X25400Y848639D03*
X482600Y1102639D03*
D11*
X70540Y866579D02*
X70540Y842699D01*
X56660Y842699D01*
X56660Y866579D01*
X70540Y866579D01*
X70540Y845211D02*
X56660Y845211D01*
X56660Y847723D02*
X70540Y847723D01*
X70540Y850235D02*
X56660Y850235D01*
X56660Y852747D02*
X70540Y852747D01*
X70540Y855259D02*
X56660Y855259D01*
X56660Y857771D02*
X70540Y857771D01*
X70540Y860283D02*
X56660Y860283D01*
X56660Y862795D02*
X70540Y862795D01*
X70540Y865307D02*
X56660Y865307D01*
X95940Y866579D02*
X95940Y842699D01*
X82060Y842699D01*
X82060Y866579D01*
X95940Y866579D01*
X95940Y845211D02*
X82060Y845211D01*
X82060Y847723D02*
X95940Y847723D01*
X95940Y850235D02*
X82060Y850235D01*
X82060Y852747D02*
X95940Y852747D01*
X95940Y855259D02*
X82060Y855259D01*
X82060Y857771D02*
X95940Y857771D01*
X95940Y860283D02*
X82060Y860283D01*
X82060Y862795D02*
X95940Y862795D01*
X95940Y865307D02*
X82060Y865307D01*
X121340Y866579D02*
X121340Y842699D01*
X107460Y842699D01*
X107460Y866579D01*
X121340Y866579D01*
X121340Y845211D02*
X107460Y845211D01*
X107460Y847723D02*
X121340Y847723D01*
X121340Y850235D02*
X107460Y850235D01*
X107460Y852747D02*
X121340Y852747D01*
X121340Y855259D02*
X107460Y855259D01*
X107460Y857771D02*
X121340Y857771D01*
X121340Y860283D02*
X107460Y860283D01*
X107460Y862795D02*
X121340Y862795D01*
X121340Y865307D02*
X107460Y865307D01*
X146740Y866579D02*
X146740Y842699D01*
X132860Y842699D01*
X132860Y866579D01*
X146740Y866579D01*
X146740Y845211D02*
X132860Y845211D01*
X132860Y847723D02*
X146740Y847723D01*
X146740Y850235D02*
X132860Y850235D01*
X132860Y852747D02*
X146740Y852747D01*
X146740Y855259D02*
X132860Y855259D01*
X132860Y857771D02*
X146740Y857771D01*
X146740Y860283D02*
X132860Y860283D01*
X132860Y862795D02*
X146740Y862795D01*
X146740Y865307D02*
X132860Y865307D01*
X172140Y866579D02*
X172140Y842699D01*
X158260Y842699D01*
X158260Y866579D01*
X172140Y866579D01*
X172140Y845211D02*
X158260Y845211D01*
X158260Y847723D02*
X172140Y847723D01*
X172140Y850235D02*
X158260Y850235D01*
X158260Y852747D02*
X172140Y852747D01*
X172140Y855259D02*
X158260Y855259D01*
X158260Y857771D02*
X172140Y857771D01*
X172140Y860283D02*
X158260Y860283D01*
X158260Y862795D02*
X172140Y862795D01*
X172140Y865307D02*
X158260Y865307D01*
X197540Y866579D02*
X197540Y842699D01*
X183660Y842699D01*
X183660Y866579D01*
X197540Y866579D01*
X197540Y845211D02*
X183660Y845211D01*
X183660Y847723D02*
X197540Y847723D01*
X197540Y850235D02*
X183660Y850235D01*
X183660Y852747D02*
X197540Y852747D01*
X197540Y855259D02*
X183660Y855259D01*
X183660Y857771D02*
X197540Y857771D01*
X197540Y860283D02*
X183660Y860283D01*
X183660Y862795D02*
X197540Y862795D01*
X197540Y865307D02*
X183660Y865307D01*
X222940Y866579D02*
X222940Y842699D01*
X209060Y842699D01*
X209060Y866579D01*
X222940Y866579D01*
X222940Y845211D02*
X209060Y845211D01*
X209060Y847723D02*
X222940Y847723D01*
X222940Y850235D02*
X209060Y850235D01*
X209060Y852747D02*
X222940Y852747D01*
X222940Y855259D02*
X209060Y855259D01*
X209060Y857771D02*
X222940Y857771D01*
X222940Y860283D02*
X209060Y860283D01*
X209060Y862795D02*
X222940Y862795D01*
X222940Y865307D02*
X209060Y865307D01*
X248340Y866579D02*
X248340Y842699D01*
X234460Y842699D01*
X234460Y866579D01*
X248340Y866579D01*
X248340Y845211D02*
X234460Y845211D01*
X234460Y847723D02*
X248340Y847723D01*
X248340Y850235D02*
X234460Y850235D01*
X234460Y852747D02*
X248340Y852747D01*
X248340Y855259D02*
X234460Y855259D01*
X234460Y857771D02*
X248340Y857771D01*
X248340Y860283D02*
X234460Y860283D01*
X234460Y862795D02*
X248340Y862795D01*
X248340Y865307D02*
X234460Y865307D01*
X273740Y866579D02*
X273740Y842699D01*
X259860Y842699D01*
X259860Y866579D01*
X273740Y866579D01*
X273740Y845211D02*
X259860Y845211D01*
X259860Y847723D02*
X273740Y847723D01*
X273740Y850235D02*
X259860Y850235D01*
X259860Y852747D02*
X273740Y852747D01*
X273740Y855259D02*
X259860Y855259D01*
X259860Y857771D02*
X273740Y857771D01*
X273740Y860283D02*
X259860Y860283D01*
X259860Y862795D02*
X273740Y862795D01*
X273740Y865307D02*
X259860Y865307D01*
X56660Y1084699D02*
X56660Y1108579D01*
X70540Y1108579D01*
X70540Y1084699D01*
X56660Y1084699D01*
X56660Y1087211D02*
X70540Y1087211D01*
X70540Y1089723D02*
X56660Y1089723D01*
X56660Y1092235D02*
X70540Y1092235D01*
X70540Y1094747D02*
X56660Y1094747D01*
X56660Y1097259D02*
X70540Y1097259D01*
X70540Y1099771D02*
X56660Y1099771D01*
X56660Y1102283D02*
X70540Y1102283D01*
X70540Y1104795D02*
X56660Y1104795D01*
X56660Y1107307D02*
X70540Y1107307D01*
X82060Y1108579D02*
X82060Y1084699D01*
X82060Y1108579D02*
X95940Y1108579D01*
X95940Y1084699D01*
X82060Y1084699D01*
X82060Y1087211D02*
X95940Y1087211D01*
X95940Y1089723D02*
X82060Y1089723D01*
X82060Y1092235D02*
X95940Y1092235D01*
X95940Y1094747D02*
X82060Y1094747D01*
X82060Y1097259D02*
X95940Y1097259D01*
X95940Y1099771D02*
X82060Y1099771D01*
X82060Y1102283D02*
X95940Y1102283D01*
X95940Y1104795D02*
X82060Y1104795D01*
X82060Y1107307D02*
X95940Y1107307D01*
X107460Y1108579D02*
X107460Y1084699D01*
X107460Y1108579D02*
X121340Y1108579D01*
X121340Y1084699D01*
X107460Y1084699D01*
X107460Y1087211D02*
X121340Y1087211D01*
X121340Y1089723D02*
X107460Y1089723D01*
X107460Y1092235D02*
X121340Y1092235D01*
X121340Y1094747D02*
X107460Y1094747D01*
X107460Y1097259D02*
X121340Y1097259D01*
X121340Y1099771D02*
X107460Y1099771D01*
X107460Y1102283D02*
X121340Y1102283D01*
X121340Y1104795D02*
X107460Y1104795D01*
X107460Y1107307D02*
X121340Y1107307D01*
X132860Y1108579D02*
X132860Y1084699D01*
X132860Y1108579D02*
X146740Y1108579D01*
X146740Y1084699D01*
X132860Y1084699D01*
X132860Y1087211D02*
X146740Y1087211D01*
X146740Y1089723D02*
X132860Y1089723D01*
X132860Y1092235D02*
X146740Y1092235D01*
X146740Y1094747D02*
X132860Y1094747D01*
X132860Y1097259D02*
X146740Y1097259D01*
X146740Y1099771D02*
X132860Y1099771D01*
X132860Y1102283D02*
X146740Y1102283D01*
X146740Y1104795D02*
X132860Y1104795D01*
X132860Y1107307D02*
X146740Y1107307D01*
X158260Y1108579D02*
X158260Y1084699D01*
X158260Y1108579D02*
X172140Y1108579D01*
X172140Y1084699D01*
X158260Y1084699D01*
X158260Y1087211D02*
X172140Y1087211D01*
X172140Y1089723D02*
X158260Y1089723D01*
X158260Y1092235D02*
X172140Y1092235D01*
X172140Y1094747D02*
X158260Y1094747D01*
X158260Y1097259D02*
X172140Y1097259D01*
X172140Y1099771D02*
X158260Y1099771D01*
X158260Y1102283D02*
X172140Y1102283D01*
X172140Y1104795D02*
X158260Y1104795D01*
X158260Y1107307D02*
X172140Y1107307D01*
X183660Y1108579D02*
X183660Y1084699D01*
X183660Y1108579D02*
X197540Y1108579D01*
X197540Y1084699D01*
X183660Y1084699D01*
X183660Y1087211D02*
X197540Y1087211D01*
X197540Y1089723D02*
X183660Y1089723D01*
X183660Y1092235D02*
X197540Y1092235D01*
X197540Y1094747D02*
X183660Y1094747D01*
X183660Y1097259D02*
X197540Y1097259D01*
X197540Y1099771D02*
X183660Y1099771D01*
X183660Y1102283D02*
X197540Y1102283D01*
X197540Y1104795D02*
X183660Y1104795D01*
X183660Y1107307D02*
X197540Y1107307D01*
X209060Y1108579D02*
X209060Y1084699D01*
X209060Y1108579D02*
X222940Y1108579D01*
X222940Y1084699D01*
X209060Y1084699D01*
X209060Y1087211D02*
X222940Y1087211D01*
X222940Y1089723D02*
X209060Y1089723D01*
X209060Y1092235D02*
X222940Y1092235D01*
X222940Y1094747D02*
X209060Y1094747D01*
X209060Y1097259D02*
X222940Y1097259D01*
X222940Y1099771D02*
X209060Y1099771D01*
X209060Y1102283D02*
X222940Y1102283D01*
X222940Y1104795D02*
X209060Y1104795D01*
X209060Y1107307D02*
X222940Y1107307D01*
X234460Y1108579D02*
X234460Y1084699D01*
X234460Y1108579D02*
X248340Y1108579D01*
X248340Y1084699D01*
X234460Y1084699D01*
X234460Y1087211D02*
X248340Y1087211D01*
X248340Y1089723D02*
X234460Y1089723D01*
X234460Y1092235D02*
X248340Y1092235D01*
X248340Y1094747D02*
X234460Y1094747D01*
X234460Y1097259D02*
X248340Y1097259D01*
X248340Y1099771D02*
X234460Y1099771D01*
X234460Y1102283D02*
X248340Y1102283D01*
X248340Y1104795D02*
X234460Y1104795D01*
X234460Y1107307D02*
X248340Y1107307D01*
X259860Y1108579D02*
X259860Y1084699D01*
X259860Y1108579D02*
X273740Y1108579D01*
X273740Y1084699D01*
X259860Y1084699D01*
X259860Y1087211D02*
X273740Y1087211D01*
X273740Y1089723D02*
X259860Y1089723D01*
X259860Y1092235D02*
X273740Y1092235D01*
X273740Y1094747D02*
X259860Y1094747D01*
X259860Y1097259D02*
X273740Y1097259D01*
X273740Y1099771D02*
X259860Y1099771D01*
X259860Y1102283D02*
X273740Y1102283D01*
X273740Y1104795D02*
X259860Y1104795D01*
X259860Y1107307D02*
X273740Y1107307D01*
X412660Y1052579D02*
X436540Y1052579D01*
X436540Y1038699D01*
X412660Y1038699D01*
X412660Y1052579D01*
X412660Y1041211D02*
X436540Y1041211D01*
X436540Y1043723D02*
X412660Y1043723D01*
X412660Y1046235D02*
X436540Y1046235D01*
X436540Y1048747D02*
X412660Y1048747D01*
X412660Y1051259D02*
X436540Y1051259D01*
X436540Y1027179D02*
X412660Y1027179D01*
X436540Y1027179D02*
X436540Y1013299D01*
X412660Y1013299D01*
X412660Y1027179D01*
X412660Y1015811D02*
X436540Y1015811D01*
X436540Y1018323D02*
X412660Y1018323D01*
X412660Y1020835D02*
X436540Y1020835D01*
X436540Y1023347D02*
X412660Y1023347D01*
X412660Y1025859D02*
X436540Y1025859D01*
X436540Y937979D02*
X412660Y937979D01*
X436540Y937979D02*
X436540Y924099D01*
X412660Y924099D01*
X412660Y937979D01*
X412660Y926611D02*
X436540Y926611D01*
X436540Y929123D02*
X412660Y929123D01*
X412660Y931635D02*
X436540Y931635D01*
X436540Y934147D02*
X412660Y934147D01*
X412660Y936659D02*
X436540Y936659D01*
X436540Y912579D02*
X412660Y912579D01*
X436540Y912579D02*
X436540Y898699D01*
X412660Y898699D01*
X412660Y912579D01*
X412660Y901211D02*
X436540Y901211D01*
X436540Y903723D02*
X412660Y903723D01*
X412660Y906235D02*
X436540Y906235D01*
X436540Y908747D02*
X412660Y908747D01*
X412660Y911259D02*
X436540Y911259D01*
D12*
X127000Y1064539D03*
X152400Y1064539D03*
D13*
X61750Y1055339D03*
X61750Y997539D03*
D14*
X442017Y1053086D02*
X442017Y1058052D01*
X446983Y1058052D01*
X446983Y1053086D01*
X442017Y1053086D01*
X442017Y1055516D02*
X446983Y1055516D01*
X446983Y1057946D02*
X442017Y1057946D01*
X442017Y1048052D02*
X442017Y1043086D01*
X442017Y1048052D02*
X446983Y1048052D01*
X446983Y1043086D01*
X442017Y1043086D01*
X442017Y1045516D02*
X446983Y1045516D01*
X446983Y1047946D02*
X442017Y1047946D01*
D10*
X241300Y880389D03*
X254000Y880389D03*
X266700Y880389D03*
X279400Y880389D03*
X228600Y880389D03*
X241300Y893089D03*
X254000Y893089D03*
X266700Y893089D03*
X279400Y893089D03*
X228600Y893089D03*
D11*
X493150Y1013149D02*
X493150Y1027029D01*
X493150Y1013149D02*
X454270Y1013149D01*
X454270Y1027029D01*
X493150Y1027029D01*
X493150Y1015661D02*
X454270Y1015661D01*
X454270Y1018173D02*
X493150Y1018173D01*
X493150Y1020685D02*
X454270Y1020685D01*
X454270Y1023197D02*
X493150Y1023197D01*
X493150Y1025709D02*
X454270Y1025709D01*
X493150Y1038549D02*
X493150Y1052429D01*
X493150Y1038549D02*
X454270Y1038549D01*
X454270Y1052429D01*
X493150Y1052429D01*
X493150Y1041061D02*
X454270Y1041061D01*
X454270Y1043573D02*
X493150Y1043573D01*
X493150Y1046085D02*
X454270Y1046085D01*
X454270Y1048597D02*
X493150Y1048597D01*
X493150Y1051109D02*
X454270Y1051109D01*
X493150Y1063949D02*
X493150Y1077829D01*
X493150Y1063949D02*
X454270Y1063949D01*
X454270Y1077829D01*
X493150Y1077829D01*
X493150Y1066461D02*
X454270Y1066461D01*
X454270Y1068973D02*
X493150Y1068973D01*
X493150Y1071485D02*
X454270Y1071485D01*
X454270Y1073997D02*
X493150Y1073997D01*
X493150Y1076509D02*
X454270Y1076509D01*
D15*
X473600Y962939D03*
X491600Y962939D03*
D12*
X330200Y874039D03*
X304800Y874039D03*
D10*
X538480Y848639D03*
X995680Y1102639D03*
D11*
X583620Y866579D02*
X583620Y842699D01*
X569740Y842699D01*
X569740Y866579D01*
X583620Y866579D01*
X583620Y845211D02*
X569740Y845211D01*
X569740Y847723D02*
X583620Y847723D01*
X583620Y850235D02*
X569740Y850235D01*
X569740Y852747D02*
X583620Y852747D01*
X583620Y855259D02*
X569740Y855259D01*
X569740Y857771D02*
X583620Y857771D01*
X583620Y860283D02*
X569740Y860283D01*
X569740Y862795D02*
X583620Y862795D01*
X583620Y865307D02*
X569740Y865307D01*
X609020Y866579D02*
X609020Y842699D01*
X595140Y842699D01*
X595140Y866579D01*
X609020Y866579D01*
X609020Y845211D02*
X595140Y845211D01*
X595140Y847723D02*
X609020Y847723D01*
X609020Y850235D02*
X595140Y850235D01*
X595140Y852747D02*
X609020Y852747D01*
X609020Y855259D02*
X595140Y855259D01*
X595140Y857771D02*
X609020Y857771D01*
X609020Y860283D02*
X595140Y860283D01*
X595140Y862795D02*
X609020Y862795D01*
X609020Y865307D02*
X595140Y865307D01*
X634420Y866579D02*
X634420Y842699D01*
X620540Y842699D01*
X620540Y866579D01*
X634420Y866579D01*
X634420Y845211D02*
X620540Y845211D01*
X620540Y847723D02*
X634420Y847723D01*
X634420Y850235D02*
X620540Y850235D01*
X620540Y852747D02*
X634420Y852747D01*
X634420Y855259D02*
X620540Y855259D01*
X620540Y857771D02*
X634420Y857771D01*
X634420Y860283D02*
X620540Y860283D01*
X620540Y862795D02*
X634420Y862795D01*
X634420Y865307D02*
X620540Y865307D01*
X659820Y866579D02*
X659820Y842699D01*
X645940Y842699D01*
X645940Y866579D01*
X659820Y866579D01*
X659820Y845211D02*
X645940Y845211D01*
X645940Y847723D02*
X659820Y847723D01*
X659820Y850235D02*
X645940Y850235D01*
X645940Y852747D02*
X659820Y852747D01*
X659820Y855259D02*
X645940Y855259D01*
X645940Y857771D02*
X659820Y857771D01*
X659820Y860283D02*
X645940Y860283D01*
X645940Y862795D02*
X659820Y862795D01*
X659820Y865307D02*
X645940Y865307D01*
X685220Y866579D02*
X685220Y842699D01*
X671340Y842699D01*
X671340Y866579D01*
X685220Y866579D01*
X685220Y845211D02*
X671340Y845211D01*
X671340Y847723D02*
X685220Y847723D01*
X685220Y850235D02*
X671340Y850235D01*
X671340Y852747D02*
X685220Y852747D01*
X685220Y855259D02*
X671340Y855259D01*
X671340Y857771D02*
X685220Y857771D01*
X685220Y860283D02*
X671340Y860283D01*
X671340Y862795D02*
X685220Y862795D01*
X685220Y865307D02*
X671340Y865307D01*
X710620Y866579D02*
X710620Y842699D01*
X696740Y842699D01*
X696740Y866579D01*
X710620Y866579D01*
X710620Y845211D02*
X696740Y845211D01*
X696740Y847723D02*
X710620Y847723D01*
X710620Y850235D02*
X696740Y850235D01*
X696740Y852747D02*
X710620Y852747D01*
X710620Y855259D02*
X696740Y855259D01*
X696740Y857771D02*
X710620Y857771D01*
X710620Y860283D02*
X696740Y860283D01*
X696740Y862795D02*
X710620Y862795D01*
X710620Y865307D02*
X696740Y865307D01*
X736020Y866579D02*
X736020Y842699D01*
X722140Y842699D01*
X722140Y866579D01*
X736020Y866579D01*
X736020Y845211D02*
X722140Y845211D01*
X722140Y847723D02*
X736020Y847723D01*
X736020Y850235D02*
X722140Y850235D01*
X722140Y852747D02*
X736020Y852747D01*
X736020Y855259D02*
X722140Y855259D01*
X722140Y857771D02*
X736020Y857771D01*
X736020Y860283D02*
X722140Y860283D01*
X722140Y862795D02*
X736020Y862795D01*
X736020Y865307D02*
X722140Y865307D01*
X761420Y866579D02*
X761420Y842699D01*
X747540Y842699D01*
X747540Y866579D01*
X761420Y866579D01*
X761420Y845211D02*
X747540Y845211D01*
X747540Y847723D02*
X761420Y847723D01*
X761420Y850235D02*
X747540Y850235D01*
X747540Y852747D02*
X761420Y852747D01*
X761420Y855259D02*
X747540Y855259D01*
X747540Y857771D02*
X761420Y857771D01*
X761420Y860283D02*
X747540Y860283D01*
X747540Y862795D02*
X761420Y862795D01*
X761420Y865307D02*
X747540Y865307D01*
X786820Y866579D02*
X786820Y842699D01*
X772940Y842699D01*
X772940Y866579D01*
X786820Y866579D01*
X786820Y845211D02*
X772940Y845211D01*
X772940Y847723D02*
X786820Y847723D01*
X786820Y850235D02*
X772940Y850235D01*
X772940Y852747D02*
X786820Y852747D01*
X786820Y855259D02*
X772940Y855259D01*
X772940Y857771D02*
X786820Y857771D01*
X786820Y860283D02*
X772940Y860283D01*
X772940Y862795D02*
X786820Y862795D01*
X786820Y865307D02*
X772940Y865307D01*
X569740Y1084699D02*
X569740Y1108579D01*
X583620Y1108579D01*
X583620Y1084699D01*
X569740Y1084699D01*
X569740Y1087211D02*
X583620Y1087211D01*
X583620Y1089723D02*
X569740Y1089723D01*
X569740Y1092235D02*
X583620Y1092235D01*
X583620Y1094747D02*
X569740Y1094747D01*
X569740Y1097259D02*
X583620Y1097259D01*
X583620Y1099771D02*
X569740Y1099771D01*
X569740Y1102283D02*
X583620Y1102283D01*
X583620Y1104795D02*
X569740Y1104795D01*
X569740Y1107307D02*
X583620Y1107307D01*
X595140Y1108579D02*
X595140Y1084699D01*
X595140Y1108579D02*
X609020Y1108579D01*
X609020Y1084699D01*
X595140Y1084699D01*
X595140Y1087211D02*
X609020Y1087211D01*
X609020Y1089723D02*
X595140Y1089723D01*
X595140Y1092235D02*
X609020Y1092235D01*
X609020Y1094747D02*
X595140Y1094747D01*
X595140Y1097259D02*
X609020Y1097259D01*
X609020Y1099771D02*
X595140Y1099771D01*
X595140Y1102283D02*
X609020Y1102283D01*
X609020Y1104795D02*
X595140Y1104795D01*
X595140Y1107307D02*
X609020Y1107307D01*
X620540Y1108579D02*
X620540Y1084699D01*
X620540Y1108579D02*
X634420Y1108579D01*
X634420Y1084699D01*
X620540Y1084699D01*
X620540Y1087211D02*
X634420Y1087211D01*
X634420Y1089723D02*
X620540Y1089723D01*
X620540Y1092235D02*
X634420Y1092235D01*
X634420Y1094747D02*
X620540Y1094747D01*
X620540Y1097259D02*
X634420Y1097259D01*
X634420Y1099771D02*
X620540Y1099771D01*
X620540Y1102283D02*
X634420Y1102283D01*
X634420Y1104795D02*
X620540Y1104795D01*
X620540Y1107307D02*
X634420Y1107307D01*
X645940Y1108579D02*
X645940Y1084699D01*
X645940Y1108579D02*
X659820Y1108579D01*
X659820Y1084699D01*
X645940Y1084699D01*
X645940Y1087211D02*
X659820Y1087211D01*
X659820Y1089723D02*
X645940Y1089723D01*
X645940Y1092235D02*
X659820Y1092235D01*
X659820Y1094747D02*
X645940Y1094747D01*
X645940Y1097259D02*
X659820Y1097259D01*
X659820Y1099771D02*
X645940Y1099771D01*
X645940Y1102283D02*
X659820Y1102283D01*
X659820Y1104795D02*
X645940Y1104795D01*
X645940Y1107307D02*
X659820Y1107307D01*
X671340Y1108579D02*
X671340Y1084699D01*
X671340Y1108579D02*
X685220Y1108579D01*
X685220Y1084699D01*
X671340Y1084699D01*
X671340Y1087211D02*
X685220Y1087211D01*
X685220Y1089723D02*
X671340Y1089723D01*
X671340Y1092235D02*
X685220Y1092235D01*
X685220Y1094747D02*
X671340Y1094747D01*
X671340Y1097259D02*
X685220Y1097259D01*
X685220Y1099771D02*
X671340Y1099771D01*
X671340Y1102283D02*
X685220Y1102283D01*
X685220Y1104795D02*
X671340Y1104795D01*
X671340Y1107307D02*
X685220Y1107307D01*
X696740Y1108579D02*
X696740Y1084699D01*
X696740Y1108579D02*
X710620Y1108579D01*
X710620Y1084699D01*
X696740Y1084699D01*
X696740Y1087211D02*
X710620Y1087211D01*
X710620Y1089723D02*
X696740Y1089723D01*
X696740Y1092235D02*
X710620Y1092235D01*
X710620Y1094747D02*
X696740Y1094747D01*
X696740Y1097259D02*
X710620Y1097259D01*
X710620Y1099771D02*
X696740Y1099771D01*
X696740Y1102283D02*
X710620Y1102283D01*
X710620Y1104795D02*
X696740Y1104795D01*
X696740Y1107307D02*
X710620Y1107307D01*
X722140Y1108579D02*
X722140Y1084699D01*
X722140Y1108579D02*
X736020Y1108579D01*
X736020Y1084699D01*
X722140Y1084699D01*
X722140Y1087211D02*
X736020Y1087211D01*
X736020Y1089723D02*
X722140Y1089723D01*
X722140Y1092235D02*
X736020Y1092235D01*
X736020Y1094747D02*
X722140Y1094747D01*
X722140Y1097259D02*
X736020Y1097259D01*
X736020Y1099771D02*
X722140Y1099771D01*
X722140Y1102283D02*
X736020Y1102283D01*
X736020Y1104795D02*
X722140Y1104795D01*
X722140Y1107307D02*
X736020Y1107307D01*
X747540Y1108579D02*
X747540Y1084699D01*
X747540Y1108579D02*
X761420Y1108579D01*
X761420Y1084699D01*
X747540Y1084699D01*
X747540Y1087211D02*
X761420Y1087211D01*
X761420Y1089723D02*
X747540Y1089723D01*
X747540Y1092235D02*
X761420Y1092235D01*
X761420Y1094747D02*
X747540Y1094747D01*
X747540Y1097259D02*
X761420Y1097259D01*
X761420Y1099771D02*
X747540Y1099771D01*
X747540Y1102283D02*
X761420Y1102283D01*
X761420Y1104795D02*
X747540Y1104795D01*
X747540Y1107307D02*
X761420Y1107307D01*
X772940Y1108579D02*
X772940Y1084699D01*
X772940Y1108579D02*
X786820Y1108579D01*
X786820Y1084699D01*
X772940Y1084699D01*
X772940Y1087211D02*
X786820Y1087211D01*
X786820Y1089723D02*
X772940Y1089723D01*
X772940Y1092235D02*
X786820Y1092235D01*
X786820Y1094747D02*
X772940Y1094747D01*
X772940Y1097259D02*
X786820Y1097259D01*
X786820Y1099771D02*
X772940Y1099771D01*
X772940Y1102283D02*
X786820Y1102283D01*
X786820Y1104795D02*
X772940Y1104795D01*
X772940Y1107307D02*
X786820Y1107307D01*
X925740Y1052579D02*
X949620Y1052579D01*
X949620Y1038699D01*
X925740Y1038699D01*
X925740Y1052579D01*
X925740Y1041211D02*
X949620Y1041211D01*
X949620Y1043723D02*
X925740Y1043723D01*
X925740Y1046235D02*
X949620Y1046235D01*
X949620Y1048747D02*
X925740Y1048747D01*
X925740Y1051259D02*
X949620Y1051259D01*
X949620Y1027179D02*
X925740Y1027179D01*
X949620Y1027179D02*
X949620Y1013299D01*
X925740Y1013299D01*
X925740Y1027179D01*
X925740Y1015811D02*
X949620Y1015811D01*
X949620Y1018323D02*
X925740Y1018323D01*
X925740Y1020835D02*
X949620Y1020835D01*
X949620Y1023347D02*
X925740Y1023347D01*
X925740Y1025859D02*
X949620Y1025859D01*
X949620Y937979D02*
X925740Y937979D01*
X949620Y937979D02*
X949620Y924099D01*
X925740Y924099D01*
X925740Y937979D01*
X925740Y926611D02*
X949620Y926611D01*
X949620Y929123D02*
X925740Y929123D01*
X925740Y931635D02*
X949620Y931635D01*
X949620Y934147D02*
X925740Y934147D01*
X925740Y936659D02*
X949620Y936659D01*
X949620Y912579D02*
X925740Y912579D01*
X949620Y912579D02*
X949620Y898699D01*
X925740Y898699D01*
X925740Y912579D01*
X925740Y901211D02*
X949620Y901211D01*
X949620Y903723D02*
X925740Y903723D01*
X925740Y906235D02*
X949620Y906235D01*
X949620Y908747D02*
X925740Y908747D01*
X925740Y911259D02*
X949620Y911259D01*
D12*
X640080Y1064539D03*
X665480Y1064539D03*
D13*
X574830Y1055339D03*
X574830Y997539D03*
D14*
X955097Y1053086D02*
X955097Y1058052D01*
X960063Y1058052D01*
X960063Y1053086D01*
X955097Y1053086D01*
X955097Y1055516D02*
X960063Y1055516D01*
X960063Y1057946D02*
X955097Y1057946D01*
X955097Y1048052D02*
X955097Y1043086D01*
X955097Y1048052D02*
X960063Y1048052D01*
X960063Y1043086D01*
X955097Y1043086D01*
X955097Y1045516D02*
X960063Y1045516D01*
X960063Y1047946D02*
X955097Y1047946D01*
D10*
X754380Y880389D03*
X767080Y880389D03*
X779780Y880389D03*
X792480Y880389D03*
X741680Y880389D03*
X754380Y893089D03*
X767080Y893089D03*
X779780Y893089D03*
X792480Y893089D03*
X741680Y893089D03*
D11*
X1006230Y1013149D02*
X1006230Y1027029D01*
X1006230Y1013149D02*
X967350Y1013149D01*
X967350Y1027029D01*
X1006230Y1027029D01*
X1006230Y1015661D02*
X967350Y1015661D01*
X967350Y1018173D02*
X1006230Y1018173D01*
X1006230Y1020685D02*
X967350Y1020685D01*
X967350Y1023197D02*
X1006230Y1023197D01*
X1006230Y1025709D02*
X967350Y1025709D01*
X1006230Y1038549D02*
X1006230Y1052429D01*
X1006230Y1038549D02*
X967350Y1038549D01*
X967350Y1052429D01*
X1006230Y1052429D01*
X1006230Y1041061D02*
X967350Y1041061D01*
X967350Y1043573D02*
X1006230Y1043573D01*
X1006230Y1046085D02*
X967350Y1046085D01*
X967350Y1048597D02*
X1006230Y1048597D01*
X1006230Y1051109D02*
X967350Y1051109D01*
X1006230Y1063949D02*
X1006230Y1077829D01*
X1006230Y1063949D02*
X967350Y1063949D01*
X967350Y1077829D01*
X1006230Y1077829D01*
X1006230Y1066461D02*
X967350Y1066461D01*
X967350Y1068973D02*
X1006230Y1068973D01*
X1006230Y1071485D02*
X967350Y1071485D01*
X967350Y1073997D02*
X1006230Y1073997D01*
X1006230Y1076509D02*
X967350Y1076509D01*
D15*
X986680Y962939D03*
X1004680Y962939D03*
D12*
X843280Y874039D03*
X817880Y874039D03*
D10*
X25400Y1128141D03*
X482600Y1382141D03*
D11*
X70540Y1146081D02*
X70540Y1122201D01*
X56660Y1122201D01*
X56660Y1146081D01*
X70540Y1146081D01*
X70540Y1124713D02*
X56660Y1124713D01*
X56660Y1127225D02*
X70540Y1127225D01*
X70540Y1129737D02*
X56660Y1129737D01*
X56660Y1132249D02*
X70540Y1132249D01*
X70540Y1134761D02*
X56660Y1134761D01*
X56660Y1137273D02*
X70540Y1137273D01*
X70540Y1139785D02*
X56660Y1139785D01*
X56660Y1142297D02*
X70540Y1142297D01*
X70540Y1144809D02*
X56660Y1144809D01*
X95940Y1146081D02*
X95940Y1122201D01*
X82060Y1122201D01*
X82060Y1146081D01*
X95940Y1146081D01*
X95940Y1124713D02*
X82060Y1124713D01*
X82060Y1127225D02*
X95940Y1127225D01*
X95940Y1129737D02*
X82060Y1129737D01*
X82060Y1132249D02*
X95940Y1132249D01*
X95940Y1134761D02*
X82060Y1134761D01*
X82060Y1137273D02*
X95940Y1137273D01*
X95940Y1139785D02*
X82060Y1139785D01*
X82060Y1142297D02*
X95940Y1142297D01*
X95940Y1144809D02*
X82060Y1144809D01*
X121340Y1146081D02*
X121340Y1122201D01*
X107460Y1122201D01*
X107460Y1146081D01*
X121340Y1146081D01*
X121340Y1124713D02*
X107460Y1124713D01*
X107460Y1127225D02*
X121340Y1127225D01*
X121340Y1129737D02*
X107460Y1129737D01*
X107460Y1132249D02*
X121340Y1132249D01*
X121340Y1134761D02*
X107460Y1134761D01*
X107460Y1137273D02*
X121340Y1137273D01*
X121340Y1139785D02*
X107460Y1139785D01*
X107460Y1142297D02*
X121340Y1142297D01*
X121340Y1144809D02*
X107460Y1144809D01*
X146740Y1146081D02*
X146740Y1122201D01*
X132860Y1122201D01*
X132860Y1146081D01*
X146740Y1146081D01*
X146740Y1124713D02*
X132860Y1124713D01*
X132860Y1127225D02*
X146740Y1127225D01*
X146740Y1129737D02*
X132860Y1129737D01*
X132860Y1132249D02*
X146740Y1132249D01*
X146740Y1134761D02*
X132860Y1134761D01*
X132860Y1137273D02*
X146740Y1137273D01*
X146740Y1139785D02*
X132860Y1139785D01*
X132860Y1142297D02*
X146740Y1142297D01*
X146740Y1144809D02*
X132860Y1144809D01*
X172140Y1146081D02*
X172140Y1122201D01*
X158260Y1122201D01*
X158260Y1146081D01*
X172140Y1146081D01*
X172140Y1124713D02*
X158260Y1124713D01*
X158260Y1127225D02*
X172140Y1127225D01*
X172140Y1129737D02*
X158260Y1129737D01*
X158260Y1132249D02*
X172140Y1132249D01*
X172140Y1134761D02*
X158260Y1134761D01*
X158260Y1137273D02*
X172140Y1137273D01*
X172140Y1139785D02*
X158260Y1139785D01*
X158260Y1142297D02*
X172140Y1142297D01*
X172140Y1144809D02*
X158260Y1144809D01*
X197540Y1146081D02*
X197540Y1122201D01*
X183660Y1122201D01*
X183660Y1146081D01*
X197540Y1146081D01*
X197540Y1124713D02*
X183660Y1124713D01*
X183660Y1127225D02*
X197540Y1127225D01*
X197540Y1129737D02*
X183660Y1129737D01*
X183660Y1132249D02*
X197540Y1132249D01*
X197540Y1134761D02*
X183660Y1134761D01*
X183660Y1137273D02*
X197540Y1137273D01*
X197540Y1139785D02*
X183660Y1139785D01*
X183660Y1142297D02*
X197540Y1142297D01*
X197540Y1144809D02*
X183660Y1144809D01*
X222940Y1146081D02*
X222940Y1122201D01*
X209060Y1122201D01*
X209060Y1146081D01*
X222940Y1146081D01*
X222940Y1124713D02*
X209060Y1124713D01*
X209060Y1127225D02*
X222940Y1127225D01*
X222940Y1129737D02*
X209060Y1129737D01*
X209060Y1132249D02*
X222940Y1132249D01*
X222940Y1134761D02*
X209060Y1134761D01*
X209060Y1137273D02*
X222940Y1137273D01*
X222940Y1139785D02*
X209060Y1139785D01*
X209060Y1142297D02*
X222940Y1142297D01*
X222940Y1144809D02*
X209060Y1144809D01*
X248340Y1146081D02*
X248340Y1122201D01*
X234460Y1122201D01*
X234460Y1146081D01*
X248340Y1146081D01*
X248340Y1124713D02*
X234460Y1124713D01*
X234460Y1127225D02*
X248340Y1127225D01*
X248340Y1129737D02*
X234460Y1129737D01*
X234460Y1132249D02*
X248340Y1132249D01*
X248340Y1134761D02*
X234460Y1134761D01*
X234460Y1137273D02*
X248340Y1137273D01*
X248340Y1139785D02*
X234460Y1139785D01*
X234460Y1142297D02*
X248340Y1142297D01*
X248340Y1144809D02*
X234460Y1144809D01*
X273740Y1146081D02*
X273740Y1122201D01*
X259860Y1122201D01*
X259860Y1146081D01*
X273740Y1146081D01*
X273740Y1124713D02*
X259860Y1124713D01*
X259860Y1127225D02*
X273740Y1127225D01*
X273740Y1129737D02*
X259860Y1129737D01*
X259860Y1132249D02*
X273740Y1132249D01*
X273740Y1134761D02*
X259860Y1134761D01*
X259860Y1137273D02*
X273740Y1137273D01*
X273740Y1139785D02*
X259860Y1139785D01*
X259860Y1142297D02*
X273740Y1142297D01*
X273740Y1144809D02*
X259860Y1144809D01*
X56660Y1364201D02*
X56660Y1388081D01*
X70540Y1388081D01*
X70540Y1364201D01*
X56660Y1364201D01*
X56660Y1366713D02*
X70540Y1366713D01*
X70540Y1369225D02*
X56660Y1369225D01*
X56660Y1371737D02*
X70540Y1371737D01*
X70540Y1374249D02*
X56660Y1374249D01*
X56660Y1376761D02*
X70540Y1376761D01*
X70540Y1379273D02*
X56660Y1379273D01*
X56660Y1381785D02*
X70540Y1381785D01*
X70540Y1384297D02*
X56660Y1384297D01*
X56660Y1386809D02*
X70540Y1386809D01*
X82060Y1388081D02*
X82060Y1364201D01*
X82060Y1388081D02*
X95940Y1388081D01*
X95940Y1364201D01*
X82060Y1364201D01*
X82060Y1366713D02*
X95940Y1366713D01*
X95940Y1369225D02*
X82060Y1369225D01*
X82060Y1371737D02*
X95940Y1371737D01*
X95940Y1374249D02*
X82060Y1374249D01*
X82060Y1376761D02*
X95940Y1376761D01*
X95940Y1379273D02*
X82060Y1379273D01*
X82060Y1381785D02*
X95940Y1381785D01*
X95940Y1384297D02*
X82060Y1384297D01*
X82060Y1386809D02*
X95940Y1386809D01*
X107460Y1388081D02*
X107460Y1364201D01*
X107460Y1388081D02*
X121340Y1388081D01*
X121340Y1364201D01*
X107460Y1364201D01*
X107460Y1366713D02*
X121340Y1366713D01*
X121340Y1369225D02*
X107460Y1369225D01*
X107460Y1371737D02*
X121340Y1371737D01*
X121340Y1374249D02*
X107460Y1374249D01*
X107460Y1376761D02*
X121340Y1376761D01*
X121340Y1379273D02*
X107460Y1379273D01*
X107460Y1381785D02*
X121340Y1381785D01*
X121340Y1384297D02*
X107460Y1384297D01*
X107460Y1386809D02*
X121340Y1386809D01*
X132860Y1388081D02*
X132860Y1364201D01*
X132860Y1388081D02*
X146740Y1388081D01*
X146740Y1364201D01*
X132860Y1364201D01*
X132860Y1366713D02*
X146740Y1366713D01*
X146740Y1369225D02*
X132860Y1369225D01*
X132860Y1371737D02*
X146740Y1371737D01*
X146740Y1374249D02*
X132860Y1374249D01*
X132860Y1376761D02*
X146740Y1376761D01*
X146740Y1379273D02*
X132860Y1379273D01*
X132860Y1381785D02*
X146740Y1381785D01*
X146740Y1384297D02*
X132860Y1384297D01*
X132860Y1386809D02*
X146740Y1386809D01*
X158260Y1388081D02*
X158260Y1364201D01*
X158260Y1388081D02*
X172140Y1388081D01*
X172140Y1364201D01*
X158260Y1364201D01*
X158260Y1366713D02*
X172140Y1366713D01*
X172140Y1369225D02*
X158260Y1369225D01*
X158260Y1371737D02*
X172140Y1371737D01*
X172140Y1374249D02*
X158260Y1374249D01*
X158260Y1376761D02*
X172140Y1376761D01*
X172140Y1379273D02*
X158260Y1379273D01*
X158260Y1381785D02*
X172140Y1381785D01*
X172140Y1384297D02*
X158260Y1384297D01*
X158260Y1386809D02*
X172140Y1386809D01*
X183660Y1388081D02*
X183660Y1364201D01*
X183660Y1388081D02*
X197540Y1388081D01*
X197540Y1364201D01*
X183660Y1364201D01*
X183660Y1366713D02*
X197540Y1366713D01*
X197540Y1369225D02*
X183660Y1369225D01*
X183660Y1371737D02*
X197540Y1371737D01*
X197540Y1374249D02*
X183660Y1374249D01*
X183660Y1376761D02*
X197540Y1376761D01*
X197540Y1379273D02*
X183660Y1379273D01*
X183660Y1381785D02*
X197540Y1381785D01*
X197540Y1384297D02*
X183660Y1384297D01*
X183660Y1386809D02*
X197540Y1386809D01*
X209060Y1388081D02*
X209060Y1364201D01*
X209060Y1388081D02*
X222940Y1388081D01*
X222940Y1364201D01*
X209060Y1364201D01*
X209060Y1366713D02*
X222940Y1366713D01*
X222940Y1369225D02*
X209060Y1369225D01*
X209060Y1371737D02*
X222940Y1371737D01*
X222940Y1374249D02*
X209060Y1374249D01*
X209060Y1376761D02*
X222940Y1376761D01*
X222940Y1379273D02*
X209060Y1379273D01*
X209060Y1381785D02*
X222940Y1381785D01*
X222940Y1384297D02*
X209060Y1384297D01*
X209060Y1386809D02*
X222940Y1386809D01*
X234460Y1388081D02*
X234460Y1364201D01*
X234460Y1388081D02*
X248340Y1388081D01*
X248340Y1364201D01*
X234460Y1364201D01*
X234460Y1366713D02*
X248340Y1366713D01*
X248340Y1369225D02*
X234460Y1369225D01*
X234460Y1371737D02*
X248340Y1371737D01*
X248340Y1374249D02*
X234460Y1374249D01*
X234460Y1376761D02*
X248340Y1376761D01*
X248340Y1379273D02*
X234460Y1379273D01*
X234460Y1381785D02*
X248340Y1381785D01*
X248340Y1384297D02*
X234460Y1384297D01*
X234460Y1386809D02*
X248340Y1386809D01*
X259860Y1388081D02*
X259860Y1364201D01*
X259860Y1388081D02*
X273740Y1388081D01*
X273740Y1364201D01*
X259860Y1364201D01*
X259860Y1366713D02*
X273740Y1366713D01*
X273740Y1369225D02*
X259860Y1369225D01*
X259860Y1371737D02*
X273740Y1371737D01*
X273740Y1374249D02*
X259860Y1374249D01*
X259860Y1376761D02*
X273740Y1376761D01*
X273740Y1379273D02*
X259860Y1379273D01*
X259860Y1381785D02*
X273740Y1381785D01*
X273740Y1384297D02*
X259860Y1384297D01*
X259860Y1386809D02*
X273740Y1386809D01*
X412660Y1332081D02*
X436540Y1332081D01*
X436540Y1318201D01*
X412660Y1318201D01*
X412660Y1332081D01*
X412660Y1320713D02*
X436540Y1320713D01*
X436540Y1323225D02*
X412660Y1323225D01*
X412660Y1325737D02*
X436540Y1325737D01*
X436540Y1328249D02*
X412660Y1328249D01*
X412660Y1330761D02*
X436540Y1330761D01*
X436540Y1306681D02*
X412660Y1306681D01*
X436540Y1306681D02*
X436540Y1292801D01*
X412660Y1292801D01*
X412660Y1306681D01*
X412660Y1295313D02*
X436540Y1295313D01*
X436540Y1297825D02*
X412660Y1297825D01*
X412660Y1300337D02*
X436540Y1300337D01*
X436540Y1302849D02*
X412660Y1302849D01*
X412660Y1305361D02*
X436540Y1305361D01*
X436540Y1217481D02*
X412660Y1217481D01*
X436540Y1217481D02*
X436540Y1203601D01*
X412660Y1203601D01*
X412660Y1217481D01*
X412660Y1206113D02*
X436540Y1206113D01*
X436540Y1208625D02*
X412660Y1208625D01*
X412660Y1211137D02*
X436540Y1211137D01*
X436540Y1213649D02*
X412660Y1213649D01*
X412660Y1216161D02*
X436540Y1216161D01*
X436540Y1192081D02*
X412660Y1192081D01*
X436540Y1192081D02*
X436540Y1178201D01*
X412660Y1178201D01*
X412660Y1192081D01*
X412660Y1180713D02*
X436540Y1180713D01*
X436540Y1183225D02*
X412660Y1183225D01*
X412660Y1185737D02*
X436540Y1185737D01*
X436540Y1188249D02*
X412660Y1188249D01*
X412660Y1190761D02*
X436540Y1190761D01*
D12*
X127000Y1344041D03*
X152400Y1344041D03*
D13*
X61750Y1334841D03*
X61750Y1277041D03*
D14*
X442017Y1332588D02*
X442017Y1337554D01*
X446983Y1337554D01*
X446983Y1332588D01*
X442017Y1332588D01*
X442017Y1335018D02*
X446983Y1335018D01*
X446983Y1337448D02*
X442017Y1337448D01*
X442017Y1327554D02*
X442017Y1322588D01*
X442017Y1327554D02*
X446983Y1327554D01*
X446983Y1322588D01*
X442017Y1322588D01*
X442017Y1325018D02*
X446983Y1325018D01*
X446983Y1327448D02*
X442017Y1327448D01*
D10*
X241300Y1159891D03*
X254000Y1159891D03*
X266700Y1159891D03*
X279400Y1159891D03*
X228600Y1159891D03*
X241300Y1172591D03*
X254000Y1172591D03*
X266700Y1172591D03*
X279400Y1172591D03*
X228600Y1172591D03*
D11*
X493150Y1292651D02*
X493150Y1306531D01*
X493150Y1292651D02*
X454270Y1292651D01*
X454270Y1306531D01*
X493150Y1306531D01*
X493150Y1295163D02*
X454270Y1295163D01*
X454270Y1297675D02*
X493150Y1297675D01*
X493150Y1300187D02*
X454270Y1300187D01*
X454270Y1302699D02*
X493150Y1302699D01*
X493150Y1305211D02*
X454270Y1305211D01*
X493150Y1318051D02*
X493150Y1331931D01*
X493150Y1318051D02*
X454270Y1318051D01*
X454270Y1331931D01*
X493150Y1331931D01*
X493150Y1320563D02*
X454270Y1320563D01*
X454270Y1323075D02*
X493150Y1323075D01*
X493150Y1325587D02*
X454270Y1325587D01*
X454270Y1328099D02*
X493150Y1328099D01*
X493150Y1330611D02*
X454270Y1330611D01*
X493150Y1343451D02*
X493150Y1357331D01*
X493150Y1343451D02*
X454270Y1343451D01*
X454270Y1357331D01*
X493150Y1357331D01*
X493150Y1345963D02*
X454270Y1345963D01*
X454270Y1348475D02*
X493150Y1348475D01*
X493150Y1350987D02*
X454270Y1350987D01*
X454270Y1353499D02*
X493150Y1353499D01*
X493150Y1356011D02*
X454270Y1356011D01*
D15*
X473600Y1242441D03*
X491600Y1242441D03*
D12*
X330200Y1153541D03*
X304800Y1153541D03*
D10*
X538480Y1128141D03*
X995680Y1382141D03*
D11*
X583620Y1146081D02*
X583620Y1122201D01*
X569740Y1122201D01*
X569740Y1146081D01*
X583620Y1146081D01*
X583620Y1124713D02*
X569740Y1124713D01*
X569740Y1127225D02*
X583620Y1127225D01*
X583620Y1129737D02*
X569740Y1129737D01*
X569740Y1132249D02*
X583620Y1132249D01*
X583620Y1134761D02*
X569740Y1134761D01*
X569740Y1137273D02*
X583620Y1137273D01*
X583620Y1139785D02*
X569740Y1139785D01*
X569740Y1142297D02*
X583620Y1142297D01*
X583620Y1144809D02*
X569740Y1144809D01*
X609020Y1146081D02*
X609020Y1122201D01*
X595140Y1122201D01*
X595140Y1146081D01*
X609020Y1146081D01*
X609020Y1124713D02*
X595140Y1124713D01*
X595140Y1127225D02*
X609020Y1127225D01*
X609020Y1129737D02*
X595140Y1129737D01*
X595140Y1132249D02*
X609020Y1132249D01*
X609020Y1134761D02*
X595140Y1134761D01*
X595140Y1137273D02*
X609020Y1137273D01*
X609020Y1139785D02*
X595140Y1139785D01*
X595140Y1142297D02*
X609020Y1142297D01*
X609020Y1144809D02*
X595140Y1144809D01*
X634420Y1146081D02*
X634420Y1122201D01*
X620540Y1122201D01*
X620540Y1146081D01*
X634420Y1146081D01*
X634420Y1124713D02*
X620540Y1124713D01*
X620540Y1127225D02*
X634420Y1127225D01*
X634420Y1129737D02*
X620540Y1129737D01*
X620540Y1132249D02*
X634420Y1132249D01*
X634420Y1134761D02*
X620540Y1134761D01*
X620540Y1137273D02*
X634420Y1137273D01*
X634420Y1139785D02*
X620540Y1139785D01*
X620540Y1142297D02*
X634420Y1142297D01*
X634420Y1144809D02*
X620540Y1144809D01*
X659820Y1146081D02*
X659820Y1122201D01*
X645940Y1122201D01*
X645940Y1146081D01*
X659820Y1146081D01*
X659820Y1124713D02*
X645940Y1124713D01*
X645940Y1127225D02*
X659820Y1127225D01*
X659820Y1129737D02*
X645940Y1129737D01*
X645940Y1132249D02*
X659820Y1132249D01*
X659820Y1134761D02*
X645940Y1134761D01*
X645940Y1137273D02*
X659820Y1137273D01*
X659820Y1139785D02*
X645940Y1139785D01*
X645940Y1142297D02*
X659820Y1142297D01*
X659820Y1144809D02*
X645940Y1144809D01*
X685220Y1146081D02*
X685220Y1122201D01*
X671340Y1122201D01*
X671340Y1146081D01*
X685220Y1146081D01*
X685220Y1124713D02*
X671340Y1124713D01*
X671340Y1127225D02*
X685220Y1127225D01*
X685220Y1129737D02*
X671340Y1129737D01*
X671340Y1132249D02*
X685220Y1132249D01*
X685220Y1134761D02*
X671340Y1134761D01*
X671340Y1137273D02*
X685220Y1137273D01*
X685220Y1139785D02*
X671340Y1139785D01*
X671340Y1142297D02*
X685220Y1142297D01*
X685220Y1144809D02*
X671340Y1144809D01*
X710620Y1146081D02*
X710620Y1122201D01*
X696740Y1122201D01*
X696740Y1146081D01*
X710620Y1146081D01*
X710620Y1124713D02*
X696740Y1124713D01*
X696740Y1127225D02*
X710620Y1127225D01*
X710620Y1129737D02*
X696740Y1129737D01*
X696740Y1132249D02*
X710620Y1132249D01*
X710620Y1134761D02*
X696740Y1134761D01*
X696740Y1137273D02*
X710620Y1137273D01*
X710620Y1139785D02*
X696740Y1139785D01*
X696740Y1142297D02*
X710620Y1142297D01*
X710620Y1144809D02*
X696740Y1144809D01*
X736020Y1146081D02*
X736020Y1122201D01*
X722140Y1122201D01*
X722140Y1146081D01*
X736020Y1146081D01*
X736020Y1124713D02*
X722140Y1124713D01*
X722140Y1127225D02*
X736020Y1127225D01*
X736020Y1129737D02*
X722140Y1129737D01*
X722140Y1132249D02*
X736020Y1132249D01*
X736020Y1134761D02*
X722140Y1134761D01*
X722140Y1137273D02*
X736020Y1137273D01*
X736020Y1139785D02*
X722140Y1139785D01*
X722140Y1142297D02*
X736020Y1142297D01*
X736020Y1144809D02*
X722140Y1144809D01*
X761420Y1146081D02*
X761420Y1122201D01*
X747540Y1122201D01*
X747540Y1146081D01*
X761420Y1146081D01*
X761420Y1124713D02*
X747540Y1124713D01*
X747540Y1127225D02*
X761420Y1127225D01*
X761420Y1129737D02*
X747540Y1129737D01*
X747540Y1132249D02*
X761420Y1132249D01*
X761420Y1134761D02*
X747540Y1134761D01*
X747540Y1137273D02*
X761420Y1137273D01*
X761420Y1139785D02*
X747540Y1139785D01*
X747540Y1142297D02*
X761420Y1142297D01*
X761420Y1144809D02*
X747540Y1144809D01*
X786820Y1146081D02*
X786820Y1122201D01*
X772940Y1122201D01*
X772940Y1146081D01*
X786820Y1146081D01*
X786820Y1124713D02*
X772940Y1124713D01*
X772940Y1127225D02*
X786820Y1127225D01*
X786820Y1129737D02*
X772940Y1129737D01*
X772940Y1132249D02*
X786820Y1132249D01*
X786820Y1134761D02*
X772940Y1134761D01*
X772940Y1137273D02*
X786820Y1137273D01*
X786820Y1139785D02*
X772940Y1139785D01*
X772940Y1142297D02*
X786820Y1142297D01*
X786820Y1144809D02*
X772940Y1144809D01*
X569740Y1364201D02*
X569740Y1388081D01*
X583620Y1388081D01*
X583620Y1364201D01*
X569740Y1364201D01*
X569740Y1366713D02*
X583620Y1366713D01*
X583620Y1369225D02*
X569740Y1369225D01*
X569740Y1371737D02*
X583620Y1371737D01*
X583620Y1374249D02*
X569740Y1374249D01*
X569740Y1376761D02*
X583620Y1376761D01*
X583620Y1379273D02*
X569740Y1379273D01*
X569740Y1381785D02*
X583620Y1381785D01*
X583620Y1384297D02*
X569740Y1384297D01*
X569740Y1386809D02*
X583620Y1386809D01*
X595140Y1388081D02*
X595140Y1364201D01*
X595140Y1388081D02*
X609020Y1388081D01*
X609020Y1364201D01*
X595140Y1364201D01*
X595140Y1366713D02*
X609020Y1366713D01*
X609020Y1369225D02*
X595140Y1369225D01*
X595140Y1371737D02*
X609020Y1371737D01*
X609020Y1374249D02*
X595140Y1374249D01*
X595140Y1376761D02*
X609020Y1376761D01*
X609020Y1379273D02*
X595140Y1379273D01*
X595140Y1381785D02*
X609020Y1381785D01*
X609020Y1384297D02*
X595140Y1384297D01*
X595140Y1386809D02*
X609020Y1386809D01*
X620540Y1388081D02*
X620540Y1364201D01*
X620540Y1388081D02*
X634420Y1388081D01*
X634420Y1364201D01*
X620540Y1364201D01*
X620540Y1366713D02*
X634420Y1366713D01*
X634420Y1369225D02*
X620540Y1369225D01*
X620540Y1371737D02*
X634420Y1371737D01*
X634420Y1374249D02*
X620540Y1374249D01*
X620540Y1376761D02*
X634420Y1376761D01*
X634420Y1379273D02*
X620540Y1379273D01*
X620540Y1381785D02*
X634420Y1381785D01*
X634420Y1384297D02*
X620540Y1384297D01*
X620540Y1386809D02*
X634420Y1386809D01*
X645940Y1388081D02*
X645940Y1364201D01*
X645940Y1388081D02*
X659820Y1388081D01*
X659820Y1364201D01*
X645940Y1364201D01*
X645940Y1366713D02*
X659820Y1366713D01*
X659820Y1369225D02*
X645940Y1369225D01*
X645940Y1371737D02*
X659820Y1371737D01*
X659820Y1374249D02*
X645940Y1374249D01*
X645940Y1376761D02*
X659820Y1376761D01*
X659820Y1379273D02*
X645940Y1379273D01*
X645940Y1381785D02*
X659820Y1381785D01*
X659820Y1384297D02*
X645940Y1384297D01*
X645940Y1386809D02*
X659820Y1386809D01*
X671340Y1388081D02*
X671340Y1364201D01*
X671340Y1388081D02*
X685220Y1388081D01*
X685220Y1364201D01*
X671340Y1364201D01*
X671340Y1366713D02*
X685220Y1366713D01*
X685220Y1369225D02*
X671340Y1369225D01*
X671340Y1371737D02*
X685220Y1371737D01*
X685220Y1374249D02*
X671340Y1374249D01*
X671340Y1376761D02*
X685220Y1376761D01*
X685220Y1379273D02*
X671340Y1379273D01*
X671340Y1381785D02*
X685220Y1381785D01*
X685220Y1384297D02*
X671340Y1384297D01*
X671340Y1386809D02*
X685220Y1386809D01*
X696740Y1388081D02*
X696740Y1364201D01*
X696740Y1388081D02*
X710620Y1388081D01*
X710620Y1364201D01*
X696740Y1364201D01*
X696740Y1366713D02*
X710620Y1366713D01*
X710620Y1369225D02*
X696740Y1369225D01*
X696740Y1371737D02*
X710620Y1371737D01*
X710620Y1374249D02*
X696740Y1374249D01*
X696740Y1376761D02*
X710620Y1376761D01*
X710620Y1379273D02*
X696740Y1379273D01*
X696740Y1381785D02*
X710620Y1381785D01*
X710620Y1384297D02*
X696740Y1384297D01*
X696740Y1386809D02*
X710620Y1386809D01*
X722140Y1388081D02*
X722140Y1364201D01*
X722140Y1388081D02*
X736020Y1388081D01*
X736020Y1364201D01*
X722140Y1364201D01*
X722140Y1366713D02*
X736020Y1366713D01*
X736020Y1369225D02*
X722140Y1369225D01*
X722140Y1371737D02*
X736020Y1371737D01*
X736020Y1374249D02*
X722140Y1374249D01*
X722140Y1376761D02*
X736020Y1376761D01*
X736020Y1379273D02*
X722140Y1379273D01*
X722140Y1381785D02*
X736020Y1381785D01*
X736020Y1384297D02*
X722140Y1384297D01*
X722140Y1386809D02*
X736020Y1386809D01*
X747540Y1388081D02*
X747540Y1364201D01*
X747540Y1388081D02*
X761420Y1388081D01*
X761420Y1364201D01*
X747540Y1364201D01*
X747540Y1366713D02*
X761420Y1366713D01*
X761420Y1369225D02*
X747540Y1369225D01*
X747540Y1371737D02*
X761420Y1371737D01*
X761420Y1374249D02*
X747540Y1374249D01*
X747540Y1376761D02*
X761420Y1376761D01*
X761420Y1379273D02*
X747540Y1379273D01*
X747540Y1381785D02*
X761420Y1381785D01*
X761420Y1384297D02*
X747540Y1384297D01*
X747540Y1386809D02*
X761420Y1386809D01*
X772940Y1388081D02*
X772940Y1364201D01*
X772940Y1388081D02*
X786820Y1388081D01*
X786820Y1364201D01*
X772940Y1364201D01*
X772940Y1366713D02*
X786820Y1366713D01*
X786820Y1369225D02*
X772940Y1369225D01*
X772940Y1371737D02*
X786820Y1371737D01*
X786820Y1374249D02*
X772940Y1374249D01*
X772940Y1376761D02*
X786820Y1376761D01*
X786820Y1379273D02*
X772940Y1379273D01*
X772940Y1381785D02*
X786820Y1381785D01*
X786820Y1384297D02*
X772940Y1384297D01*
X772940Y1386809D02*
X786820Y1386809D01*
X925740Y1332081D02*
X949620Y1332081D01*
X949620Y1318201D01*
X925740Y1318201D01*
X925740Y1332081D01*
X925740Y1320713D02*
X949620Y1320713D01*
X949620Y1323225D02*
X925740Y1323225D01*
X925740Y1325737D02*
X949620Y1325737D01*
X949620Y1328249D02*
X925740Y1328249D01*
X925740Y1330761D02*
X949620Y1330761D01*
X949620Y1306681D02*
X925740Y1306681D01*
X949620Y1306681D02*
X949620Y1292801D01*
X925740Y1292801D01*
X925740Y1306681D01*
X925740Y1295313D02*
X949620Y1295313D01*
X949620Y1297825D02*
X925740Y1297825D01*
X925740Y1300337D02*
X949620Y1300337D01*
X949620Y1302849D02*
X925740Y1302849D01*
X925740Y1305361D02*
X949620Y1305361D01*
X949620Y1217481D02*
X925740Y1217481D01*
X949620Y1217481D02*
X949620Y1203601D01*
X925740Y1203601D01*
X925740Y1217481D01*
X925740Y1206113D02*
X949620Y1206113D01*
X949620Y1208625D02*
X925740Y1208625D01*
X925740Y1211137D02*
X949620Y1211137D01*
X949620Y1213649D02*
X925740Y1213649D01*
X925740Y1216161D02*
X949620Y1216161D01*
X949620Y1192081D02*
X925740Y1192081D01*
X949620Y1192081D02*
X949620Y1178201D01*
X925740Y1178201D01*
X925740Y1192081D01*
X925740Y1180713D02*
X949620Y1180713D01*
X949620Y1183225D02*
X925740Y1183225D01*
X925740Y1185737D02*
X949620Y1185737D01*
X949620Y1188249D02*
X925740Y1188249D01*
X925740Y1190761D02*
X949620Y1190761D01*
D12*
X640080Y1344041D03*
X665480Y1344041D03*
D13*
X574830Y1334841D03*
X574830Y1277041D03*
D14*
X955097Y1332588D02*
X955097Y1337554D01*
X960063Y1337554D01*
X960063Y1332588D01*
X955097Y1332588D01*
X955097Y1335018D02*
X960063Y1335018D01*
X960063Y1337448D02*
X955097Y1337448D01*
X955097Y1327554D02*
X955097Y1322588D01*
X955097Y1327554D02*
X960063Y1327554D01*
X960063Y1322588D01*
X955097Y1322588D01*
X955097Y1325018D02*
X960063Y1325018D01*
X960063Y1327448D02*
X955097Y1327448D01*
D10*
X754380Y1159891D03*
X767080Y1159891D03*
X779780Y1159891D03*
X792480Y1159891D03*
X741680Y1159891D03*
X754380Y1172591D03*
X767080Y1172591D03*
X779780Y1172591D03*
X792480Y1172591D03*
X741680Y1172591D03*
D11*
X1006230Y1292651D02*
X1006230Y1306531D01*
X1006230Y1292651D02*
X967350Y1292651D01*
X967350Y1306531D01*
X1006230Y1306531D01*
X1006230Y1295163D02*
X967350Y1295163D01*
X967350Y1297675D02*
X1006230Y1297675D01*
X1006230Y1300187D02*
X967350Y1300187D01*
X967350Y1302699D02*
X1006230Y1302699D01*
X1006230Y1305211D02*
X967350Y1305211D01*
X1006230Y1318051D02*
X1006230Y1331931D01*
X1006230Y1318051D02*
X967350Y1318051D01*
X967350Y1331931D01*
X1006230Y1331931D01*
X1006230Y1320563D02*
X967350Y1320563D01*
X967350Y1323075D02*
X1006230Y1323075D01*
X1006230Y1325587D02*
X967350Y1325587D01*
X967350Y1328099D02*
X1006230Y1328099D01*
X1006230Y1330611D02*
X967350Y1330611D01*
X1006230Y1343451D02*
X1006230Y1357331D01*
X1006230Y1343451D02*
X967350Y1343451D01*
X967350Y1357331D01*
X1006230Y1357331D01*
X1006230Y1345963D02*
X967350Y1345963D01*
X967350Y1348475D02*
X1006230Y1348475D01*
X1006230Y1350987D02*
X967350Y1350987D01*
X967350Y1353499D02*
X1006230Y1353499D01*
X1006230Y1356011D02*
X967350Y1356011D01*
D15*
X986680Y1242441D03*
X1004680Y1242441D03*
D12*
X843280Y1153541D03*
X817880Y1153541D03*
D10*
X-26238Y1365656D03*
X1047318Y1365656D03*
D16*
X-35293Y63500D02*
X-35290Y63722D01*
X-35282Y63944D01*
X-35268Y64166D01*
X-35249Y64388D01*
X-35225Y64608D01*
X-35195Y64829D01*
X-35160Y65048D01*
X-35119Y65267D01*
X-35073Y65484D01*
X-35022Y65700D01*
X-34965Y65915D01*
X-34903Y66129D01*
X-34836Y66340D01*
X-34764Y66551D01*
X-34686Y66759D01*
X-34604Y66965D01*
X-34516Y67169D01*
X-34424Y67372D01*
X-34326Y67571D01*
X-34224Y67768D01*
X-34117Y67963D01*
X-34005Y68155D01*
X-33888Y68344D01*
X-33767Y68531D01*
X-33641Y68714D01*
X-33511Y68894D01*
X-33376Y69071D01*
X-33238Y69244D01*
X-33095Y69414D01*
X-32947Y69581D01*
X-32796Y69744D01*
X-32641Y69903D01*
X-32482Y70058D01*
X-32319Y70209D01*
X-32152Y70357D01*
X-31982Y70500D01*
X-31809Y70638D01*
X-31632Y70773D01*
X-31452Y70903D01*
X-31269Y71029D01*
X-31082Y71150D01*
X-30893Y71267D01*
X-30701Y71379D01*
X-30506Y71486D01*
X-30309Y71588D01*
X-30110Y71686D01*
X-29907Y71778D01*
X-29703Y71866D01*
X-29497Y71948D01*
X-29289Y72026D01*
X-29078Y72098D01*
X-28867Y72165D01*
X-28653Y72227D01*
X-28438Y72284D01*
X-28222Y72335D01*
X-28005Y72381D01*
X-27786Y72422D01*
X-27567Y72457D01*
X-27346Y72487D01*
X-27126Y72511D01*
X-26904Y72530D01*
X-26682Y72544D01*
X-26460Y72552D01*
X-26238Y72555D01*
X-26016Y72552D01*
X-25794Y72544D01*
X-25572Y72530D01*
X-25350Y72511D01*
X-25130Y72487D01*
X-24909Y72457D01*
X-24690Y72422D01*
X-24471Y72381D01*
X-24254Y72335D01*
X-24038Y72284D01*
X-23823Y72227D01*
X-23609Y72165D01*
X-23398Y72098D01*
X-23187Y72026D01*
X-22979Y71948D01*
X-22773Y71866D01*
X-22569Y71778D01*
X-22366Y71686D01*
X-22167Y71588D01*
X-21970Y71486D01*
X-21775Y71379D01*
X-21583Y71267D01*
X-21394Y71150D01*
X-21207Y71029D01*
X-21024Y70903D01*
X-20844Y70773D01*
X-20667Y70638D01*
X-20494Y70500D01*
X-20324Y70357D01*
X-20157Y70209D01*
X-19994Y70058D01*
X-19835Y69903D01*
X-19680Y69744D01*
X-19529Y69581D01*
X-19381Y69414D01*
X-19238Y69244D01*
X-19100Y69071D01*
X-18965Y68894D01*
X-18835Y68714D01*
X-18709Y68531D01*
X-18588Y68344D01*
X-18471Y68155D01*
X-18359Y67963D01*
X-18252Y67768D01*
X-18150Y67571D01*
X-18052Y67372D01*
X-17960Y67169D01*
X-17872Y66965D01*
X-17790Y66759D01*
X-17712Y66551D01*
X-17640Y66340D01*
X-17573Y66129D01*
X-17511Y65915D01*
X-17454Y65700D01*
X-17403Y65484D01*
X-17357Y65267D01*
X-17316Y65048D01*
X-17281Y64829D01*
X-17251Y64608D01*
X-17227Y64388D01*
X-17208Y64166D01*
X-17194Y63944D01*
X-17186Y63722D01*
X-17183Y63500D01*
X-17186Y63278D01*
X-17194Y63056D01*
X-17208Y62834D01*
X-17227Y62612D01*
X-17251Y62392D01*
X-17281Y62171D01*
X-17316Y61952D01*
X-17357Y61733D01*
X-17403Y61516D01*
X-17454Y61300D01*
X-17511Y61085D01*
X-17573Y60871D01*
X-17640Y60660D01*
X-17712Y60449D01*
X-17790Y60241D01*
X-17872Y60035D01*
X-17960Y59831D01*
X-18052Y59628D01*
X-18150Y59429D01*
X-18252Y59232D01*
X-18359Y59037D01*
X-18471Y58845D01*
X-18588Y58656D01*
X-18709Y58469D01*
X-18835Y58286D01*
X-18965Y58106D01*
X-19100Y57929D01*
X-19238Y57756D01*
X-19381Y57586D01*
X-19529Y57419D01*
X-19680Y57256D01*
X-19835Y57097D01*
X-19994Y56942D01*
X-20157Y56791D01*
X-20324Y56643D01*
X-20494Y56500D01*
X-20667Y56362D01*
X-20844Y56227D01*
X-21024Y56097D01*
X-21207Y55971D01*
X-21394Y55850D01*
X-21583Y55733D01*
X-21775Y55621D01*
X-21970Y55514D01*
X-22167Y55412D01*
X-22366Y55314D01*
X-22569Y55222D01*
X-22773Y55134D01*
X-22979Y55052D01*
X-23187Y54974D01*
X-23398Y54902D01*
X-23609Y54835D01*
X-23823Y54773D01*
X-24038Y54716D01*
X-24254Y54665D01*
X-24471Y54619D01*
X-24690Y54578D01*
X-24909Y54543D01*
X-25130Y54513D01*
X-25350Y54489D01*
X-25572Y54470D01*
X-25794Y54456D01*
X-26016Y54448D01*
X-26238Y54445D01*
X-26460Y54448D01*
X-26682Y54456D01*
X-26904Y54470D01*
X-27126Y54489D01*
X-27346Y54513D01*
X-27567Y54543D01*
X-27786Y54578D01*
X-28005Y54619D01*
X-28222Y54665D01*
X-28438Y54716D01*
X-28653Y54773D01*
X-28867Y54835D01*
X-29078Y54902D01*
X-29289Y54974D01*
X-29497Y55052D01*
X-29703Y55134D01*
X-29907Y55222D01*
X-30110Y55314D01*
X-30309Y55412D01*
X-30506Y55514D01*
X-30701Y55621D01*
X-30893Y55733D01*
X-31082Y55850D01*
X-31269Y55971D01*
X-31452Y56097D01*
X-31632Y56227D01*
X-31809Y56362D01*
X-31982Y56500D01*
X-32152Y56643D01*
X-32319Y56791D01*
X-32482Y56942D01*
X-32641Y57097D01*
X-32796Y57256D01*
X-32947Y57419D01*
X-33095Y57586D01*
X-33238Y57756D01*
X-33376Y57929D01*
X-33511Y58106D01*
X-33641Y58286D01*
X-33767Y58469D01*
X-33888Y58656D01*
X-34005Y58845D01*
X-34117Y59037D01*
X-34224Y59232D01*
X-34326Y59429D01*
X-34424Y59628D01*
X-34516Y59831D01*
X-34604Y60035D01*
X-34686Y60241D01*
X-34764Y60449D01*
X-34836Y60660D01*
X-34903Y60871D01*
X-34965Y61085D01*
X-35022Y61300D01*
X-35073Y61516D01*
X-35119Y61733D01*
X-35160Y61952D01*
X-35195Y62171D01*
X-35225Y62392D01*
X-35249Y62612D01*
X-35268Y62834D01*
X-35282Y63056D01*
X-35290Y63278D01*
X-35293Y63500D01*
D17*
X-26238Y63500D03*
M02*
