M48
;GenerationSoftware,Autodesk,EAGLE,9.6.2*%
;CreationDate,2022-02-10T03:15:25Z*%
FMAT,2
ICI,OFF
METRIC,TZ,000.000
T5C0.305
T4C0.508
T3C0.650
T2C0.700
T1C1.016
%
G90
M71
T1
X90678Y124244
X36830Y12451
X39370Y124244
X36830Y124244
X36830Y40399
X39370Y40399
X15240Y134404
X12700Y134404
X64008Y50559
X66548Y50559
X90678Y96294
X88138Y96294
X36830Y68346
X15240Y78506
X66548Y106454
X88138Y12451
X12700Y78506
X90678Y40399
X90678Y12451
X12700Y50559
X39370Y12451
X64008Y22611
X66548Y78506
X15240Y50559
X66548Y22611
X88138Y40399
X64008Y106454
X39370Y96294
X66548Y134404
X64008Y134404
X36830Y96294
X88138Y124244
X15240Y106454
X12700Y106454
X90678Y68346
X88138Y68346
X12700Y22611
X15240Y22611
X64008Y78506
X39370Y68346
T2
X47360Y12451
X49160Y12451
X98668Y12451
X100468Y12451
X47360Y40399
X49160Y40399
X98668Y40399
X100468Y40399
X47360Y68346
X49160Y68346
X98668Y68346
X100468Y68346
X47360Y96294
X49160Y96294
X47360Y124244
X49160Y124244
X98668Y96294
X100468Y96294
X98668Y124244
X100468Y124244
T3
X6175Y21691
X6175Y15911
X57483Y21691
X57483Y15911
X6175Y49639
X6175Y43859
X57483Y49639
X57483Y43859
X6175Y77586
X6175Y71806
X57483Y71806
X6175Y105534
X6175Y99754
X57483Y105534
X57483Y99754
X6175Y133484
X6175Y127704
X57483Y133484
X57483Y127704
X57483Y77586
T4
X24130Y4196
X25400Y4196
X26670Y4196
X27940Y4196
X22860Y4196
X24130Y5466
X25400Y5466
X26670Y5466
X27940Y5466
X22860Y5466
X75438Y4196
X76708Y33414
X77978Y33414
X79248Y33414
X74168Y33414
X74168Y32144
X79248Y32144
X77978Y32144
X76708Y32144
X24130Y60091
X25400Y60091
X26670Y60091
X27940Y60091
X22860Y60091
X24130Y61361
X25400Y61361
X26670Y61361
X27940Y61361
X22860Y61361
X75438Y32144
X22860Y33414
X27940Y33414
X75438Y33414
X75438Y60091
X76708Y60091
X77978Y60091
X79248Y60091
X74168Y60091
X75438Y61361
X76708Y61361
X77978Y61361
X79248Y61361
X74168Y61361
X26670Y33414
X25400Y33414
X24130Y33414
X22860Y32144
X24130Y88039
X25400Y88039
X26670Y88039
X27940Y88039
X22860Y88039
X24130Y89309
X25400Y89309
X26670Y89309
X27940Y32144
X22860Y89309
X26670Y32144
X25400Y32144
X24130Y32144
X74168Y5466
X75438Y88039
X76708Y88039
X77978Y88039
X79248Y88039
X74168Y88039
X75438Y89309
X76708Y89309
X77978Y89309
X79248Y89309
X74168Y89309
X79248Y5466
X77978Y5466
X76708Y5466
X75438Y5466
X24130Y115989
X25400Y115989
X27940Y89309
X27940Y115989
X22860Y115989
X24130Y117259
X25400Y117259
X26670Y117259
X27940Y117259
X22860Y117259
X74168Y4196
X79248Y4196
X77978Y4196
X76708Y4196
X75438Y115989
X76708Y115989
X77978Y115989
X79248Y115989
X74168Y115989
X75438Y117259
X76708Y117259
X77978Y117259
X79248Y117259
X74168Y117259
X26670Y115989
T5
X25146Y40018
X30988Y40526
X35179Y42939
X35179Y45479
X35179Y37859
X20066Y37859
X5080Y39383
X4699Y31128
X4445Y29350
X34290Y33922
X36830Y34049
X28575Y29477
X45085Y35319
X42418Y39510
X42418Y31890
X47117Y44463
X44450Y45987
X42545Y44590
X40132Y46114
X44450Y47384
X44450Y51194
X47117Y52972
X42291Y50305
X40513Y48654
X28448Y53861
X28321Y52210
X4900Y54599
X5080Y51575
X47244Y31255
X22479Y39891
X31242Y35700
X19050Y35319
X15621Y36716
X21590Y47257
X25400Y48527
X20320Y46114
X21209Y45860
X19685Y47003
X8890Y51981
X2540Y38621
X20955Y51448
X22860Y51829
X26670Y51829
X22987Y42050
X23749Y41034
X22479Y42761
X11137Y42392
X27305Y44209
X7239Y35700
X30030Y45174
X35560Y36208
X32131Y35700
X29083Y45225
X28321Y43320
X33655Y43947
X27432Y42079
X28194Y40653
X26670Y38748
X25273Y41923
X39370Y33160
X25019Y41034
X39243Y38748
X27686Y38748
X15367Y31255
X12700Y31763
X12700Y34811
X15240Y39002
X21844Y36081
X23622Y44183
X3048Y33541
X12446Y37732
X26924Y42939
X65278Y45479
X67056Y45479
X69088Y49035
X62738Y49289
X60198Y42939
X60325Y49289
X71628Y52083
X71628Y50559
X76708Y50559
X80518Y47257
X76708Y47384
X76581Y44463
X76454Y40018
X82296Y40526
X86487Y42939
X86487Y45479
X86487Y37859
X71374Y37859
X56388Y39383
X56007Y31128
X55753Y29350
X85598Y33922
X88138Y34049
X79883Y29477
X96393Y35319
X93726Y39510
X93726Y31890
X98425Y44463
X95758Y45987
X93853Y44590
X91440Y46114
X95758Y47384
X95758Y51194
X98425Y52972
X93599Y50305
X91821Y48654
X79756Y53861
X79629Y52210
X56208Y54599
X56388Y51575
X98552Y31255
X73787Y39891
X82550Y35700
X70358Y35319
X66929Y36716
X72898Y47257
X76708Y48527
X71628Y46114
X72517Y45860
X70993Y47003
X60198Y51981
X53848Y38621
X72263Y51448
X74168Y51829
X77978Y51829
X74295Y42050
X75057Y41034
X73787Y42761
X62445Y42392
X78613Y44209
X58547Y35700
X81338Y45174
X86868Y36208
X83439Y35700
X80391Y45225
X79629Y43320
X84963Y43947
X78740Y42079
X79502Y40653
X77978Y38748
X76581Y41923
X90678Y33160
X76327Y41034
X90551Y38748
X78994Y38748
X66675Y31255
X64008Y31763
X64008Y34811
X66548Y39002
X73152Y36081
X74930Y44183
X54356Y33541
X63754Y37732
X78232Y42939
X13970Y73426
X15748Y73426
X17780Y76982
X11430Y77236
X8890Y70886
X9017Y77236
X20320Y80030
X20320Y78506
X25400Y78506
X29210Y75204
X25400Y75331
X25273Y72410
X25146Y67965
X30988Y68473
X35179Y70886
X35179Y73426
X35179Y65806
X20066Y65806
X5080Y67330
X4699Y59075
X4445Y57297
X34290Y61869
X36830Y61996
X28575Y57424
X45085Y63266
X42418Y67457
X42418Y59837
X47117Y72410
X44450Y73934
X42545Y72537
X40132Y74061
X44450Y75331
X44450Y79141
X47117Y80919
X42291Y78252
X40513Y76601
X28448Y81808
X28321Y80157
X4900Y82546
X5080Y79522
X47244Y59202
X22479Y67838
X31242Y63647
X19050Y63266
X15621Y64663
X21590Y75204
X25400Y76474
X20320Y74061
X21209Y73807
X19685Y74950
X8890Y79929
X2540Y66568
X20955Y79395
X22860Y79776
X26670Y79776
X22987Y69997
X23749Y68981
X22479Y70709
X11137Y70340
X27305Y72156
X7239Y63647
X30030Y73122
X35560Y64155
X32131Y63647
X29083Y73172
X28321Y71267
X33655Y71894
X27432Y70027
X28194Y68600
X26670Y66695
X25273Y69870
X39370Y61107
X25019Y68981
X39243Y66695
X27686Y66695
X15367Y59202
X12700Y59710
X12700Y62758
X15240Y66949
X21844Y64028
X23622Y72131
X3048Y61488
X12446Y65679
X26924Y70886
X65278Y73426
X67056Y73426
X69088Y76982
X62738Y77236
X60198Y70886
X60325Y77236
X71628Y80030
X71628Y78506
X76708Y78506
X80518Y75204
X76708Y75331
X76581Y72410
X76454Y67965
X82296Y68473
X86487Y70886
X86487Y73426
X86487Y65806
X71374Y65806
X56388Y67330
X56007Y59075
X55753Y57297
X85598Y61869
X88138Y61996
X79883Y57424
X96393Y63266
X93726Y67457
X93726Y59837
X98425Y72410
X95758Y73934
X93853Y72537
X91440Y74061
X95758Y75331
X95758Y79141
X98425Y80919
X93599Y78252
X91821Y76601
X79756Y81808
X79629Y80157
X56208Y82546
X56388Y79522
X98552Y59202
X73787Y67838
X82550Y63647
X70358Y63266
X66929Y64663
X72898Y75204
X76708Y76474
X71628Y74061
X72517Y73807
X70993Y74950
X60198Y79929
X53848Y66568
X72263Y79395
X74168Y79776
X77978Y79776
X74295Y69997
X75057Y68981
X73787Y70709
X62445Y70340
X78613Y72156
X58547Y63647
X81338Y73122
X86868Y64155
X83439Y63647
X80391Y73172
X79629Y71267
X84963Y71894
X78740Y70027
X79502Y68600
X77978Y66695
X76581Y69870
X90678Y61107
X76327Y68981
X90551Y66695
X78994Y66695
X66675Y59202
X64008Y59710
X64008Y62758
X66548Y66949
X73152Y64028
X74930Y72131
X54356Y61488
X63754Y65679
X78232Y70886
X13970Y101374
X15748Y101374
X17780Y104930
X11430Y105184
X8890Y98834
X9017Y105184
X70358Y7371
X20320Y106454
X25400Y106454
X29210Y103152
X25400Y103279
X25273Y100358
X25146Y95913
X30988Y96421
X35179Y98834
X35179Y101374
X35179Y93754
X20066Y93754
X5080Y95278
X4699Y87023
X4445Y85245
X34290Y89817
X36830Y89944
X28575Y85372
X45085Y91214
X42418Y95405
X42418Y87785
X47117Y100358
X44450Y101882
X42545Y100485
X40132Y102009
X44450Y103279
X44450Y107089
X47117Y108867
X42291Y106200
X40513Y104549
X28448Y109756
X28321Y108105
X4900Y110494
X5080Y107470
X47244Y87150
X22479Y95786
X31242Y91595
X19050Y91214
X15621Y92611
X21590Y103152
X25400Y104422
X20320Y102009
X21209Y101755
X19685Y102898
X8890Y107876
X2540Y94516
X20955Y107343
X22860Y107724
X26670Y107724
X22987Y97945
X23749Y96929
X22479Y98656
X11137Y98287
X27305Y100104
X7239Y91595
X30030Y101069
X35560Y92103
X32131Y91595
X29083Y101120
X28321Y99215
X33655Y99842
X27432Y97974
X28194Y96548
X26670Y94643
X25273Y97818
X39370Y89055
X25019Y96929
X39243Y94643
X27686Y94643
X15367Y87150
X12700Y87658
X12700Y90706
X15240Y94897
X21844Y91976
X23622Y100079
X3048Y89436
X12446Y93627
X26924Y98834
X65278Y101374
X67056Y101374
X69088Y104930
X62738Y105184
X60198Y98834
X60325Y105184
X71628Y107978
X71628Y106454
X76708Y106454
X80518Y103152
X76708Y103279
X76581Y100358
X76454Y95913
X82296Y96421
X86487Y98834
X86487Y101374
X86487Y93754
X71374Y93754
X56388Y95278
X56007Y87023
X55753Y85245
X85598Y89817
X88138Y89944
X79883Y85372
X96393Y91214
X93726Y95405
X93726Y87785
X98425Y100358
X95758Y101882
X93853Y100485
X91440Y102009
X95758Y103279
X95758Y107089
X98425Y108867
X93599Y106200
X91821Y104549
X79756Y109756
X79629Y108105
X56208Y110494
X56388Y107470
X98552Y87150
X73787Y95786
X82550Y91595
X70358Y91214
X66929Y92611
X72898Y103152
X76708Y104422
X71628Y102009
X72517Y101755
X70993Y102898
X60198Y107876
X53848Y94516
X72263Y107343
X74168Y107724
X77978Y107724
X74295Y97945
X75057Y96929
X73787Y98656
X62445Y98287
X78613Y100104
X58547Y91595
X81338Y101069
X86868Y92103
X83439Y91595
X80391Y101120
X79629Y99215
X84963Y99842
X78740Y97974
X79502Y96548
X77978Y94643
X76581Y97818
X90678Y89055
X76327Y96929
X90551Y94643
X78994Y94643
X66675Y87150
X64008Y87658
X64008Y90706
X66548Y94897
X73152Y91976
X74930Y100079
X54356Y89436
X63754Y93627
X78232Y98834
X13970Y129324
X15748Y129324
X17780Y132880
X11430Y133134
X8890Y126784
X9017Y133134
X20320Y135928
X20320Y134404
X25400Y134404
X29210Y131102
X25400Y131229
X25273Y128308
X25146Y123863
X30988Y124371
X35179Y126784
X35179Y129324
X35179Y121704
X20066Y121704
X5080Y123228
X4699Y114973
X4445Y113195
X34290Y117767
X36830Y117894
X28575Y113322
X45085Y119164
X42418Y123355
X42418Y115735
X47117Y128308
X44450Y129832
X42545Y128435
X40132Y129959
X44450Y131229
X44450Y135039
X47117Y136817
X42291Y134150
X40513Y132499
X28448Y137706
X28321Y136055
X4900Y138444
X5080Y135420
X47244Y115100
X22479Y123736
X31242Y119545
X19050Y119164
X15621Y120561
X21590Y131102
X25400Y132372
X20320Y129959
X21209Y129705
X19685Y130848
X8890Y135827
X2540Y122466
X20955Y135293
X22860Y135674
X26670Y135674
X22987Y125895
X23749Y124879
X22479Y126606
X11137Y126238
X27305Y128054
X7239Y119545
X30030Y129019
X35560Y120053
X32131Y119545
X29083Y129070
X28321Y127165
X33655Y127792
X27432Y125924
X28194Y124498
X26670Y122593
X25273Y125768
X39370Y117005
X25019Y124879
X39243Y122593
X27686Y122593
X15367Y115100
X12700Y115608
X12700Y118656
X15240Y122847
X21844Y119926
X23622Y128029
X3048Y117386
X12446Y121577
X26924Y126784
X65278Y129324
X67056Y129324
X69088Y132880
X62738Y133134
X60198Y126784
X60325Y133134
X71628Y135928
X71628Y134404
X76708Y134404
X13970Y17531
X76708Y131229
X76581Y128308
X76454Y123863
X82296Y124371
X86487Y126784
X86487Y129324
X86487Y121704
X71374Y121704
X56388Y123228
X56007Y114973
X55753Y113195
X85598Y117767
X88138Y117894
X79883Y113322
X96393Y119164
X93726Y123355
X93726Y115735
X98425Y128308
X95758Y129832
X93853Y128435
X91440Y129959
X95758Y131229
X95758Y135039
X98425Y136817
X93599Y134150
X91821Y132499
X79756Y137706
X79629Y136055
X56208Y138444
X56388Y135420
X98552Y115100
X73787Y123736
X82550Y119545
X70358Y119164
X66929Y120561
X72898Y131102
X76708Y132372
X71628Y129959
X72517Y129705
X70993Y130848
X60198Y135827
X53848Y122466
X72263Y135293
X74168Y135674
X77978Y135674
X74295Y125895
X75057Y124879
X73787Y126606
X62445Y126238
X78613Y128054
X58547Y119545
X81338Y129019
X86868Y120053
X83439Y119545
X80391Y129070
X79629Y127165
X84963Y127792
X78740Y125924
X79502Y124498
X77978Y122593
X76581Y125768
X90678Y117005
X76327Y124879
X90551Y122593
X78994Y122593
X66675Y115100
X64008Y115608
X64008Y118656
X66548Y122847
X73152Y119926
X74930Y128029
X54356Y117386
X63754Y121577
X78232Y126784
X15748Y17531
X17780Y21087
X11430Y21341
X8890Y14991
X9017Y21341
X20320Y24135
X20320Y22611
X25400Y22611
X29210Y19309
X25400Y19436
X25273Y16515
X25146Y12070
X30988Y12578
X35179Y14991
X35179Y17531
X35179Y9911
X20066Y9911
X5080Y11435
X4699Y3180
X4445Y1402
X34290Y5974
X36830Y6101
X28575Y1529
X45085Y7371
X42418Y11562
X42418Y3942
X47117Y16515
X44450Y18039
X42545Y16642
X40132Y18166
X44450Y19436
X44450Y23246
X47117Y25024
X42291Y22357
X40513Y20706
X28448Y25913
X28321Y24262
X4900Y26651
X5080Y23627
X47244Y3307
X22479Y11943
X31242Y7752
X19050Y7371
X15621Y8768
X21590Y19309
X25400Y20579
X20320Y18166
X21209Y17912
X19685Y19055
X8890Y24033
X2540Y10673
X20955Y23500
X20320Y107978
X22860Y23881
X26670Y23881
X22987Y14102
X23749Y13086
X22479Y14813
X11137Y14445
X27305Y16261
X7239Y7752
X30030Y17226
X35560Y8260
X32131Y7752
X29083Y17277
X28321Y15372
X33655Y15999
X27432Y14131
X28194Y12705
X26670Y10800
X25273Y13975
X39370Y5212
X25019Y13086
X39243Y10800
X27686Y10800
X15367Y3307
X12700Y3815
X12700Y6863
X15240Y11054
X21844Y8133
X23622Y16236
X3048Y5593
X12446Y9784
X26924Y14991
X65278Y17531
X67056Y17531
X69088Y21087
X62738Y21341
X60198Y14991
X60325Y21341
X71628Y24135
X71628Y22611
X76708Y22611
X80518Y19309
X76708Y19436
X76581Y16515
X76454Y12070
X82296Y12578
X86487Y14991
X86487Y17531
X86487Y9911
X71374Y9911
X56388Y11435
X56007Y3180
X55753Y1402
X85598Y5974
X88138Y6101
X79883Y1529
X96393Y7371
X93726Y11562
X93726Y3942
X98425Y16515
X95758Y18039
X93853Y16642
X91440Y18166
X95758Y19436
X95758Y23246
X98425Y25024
X93599Y22357
X91821Y20706
X79756Y25913
X79629Y24262
X56208Y26651
X56388Y23627
X98552Y3307
X73787Y11943
X82550Y7752
X66929Y8768
X72898Y19309
X76708Y20579
X71628Y18166
X72517Y17912
X70993Y19055
X60198Y24033
X53848Y10673
X72263Y23500
X74168Y23881
X77978Y23881
X74295Y14102
X75057Y13086
X73787Y14813
X62445Y14445
X78613Y16261
X58547Y7752
X81338Y17226
X86868Y8260
X83439Y7752
X80391Y17277
X79629Y15372
X84963Y15999
X78740Y14131
X79502Y12705
X77978Y10800
X76581Y13975
X90678Y5212
X76327Y13086
X90551Y10800
X78994Y10800
X66675Y3307
X64008Y3815
X64008Y6863
X66548Y11054
X73152Y8133
X74930Y16236
X54356Y5593
X63754Y9784
X78232Y14991
X13970Y45479
X15748Y45479
X17780Y49035
X11430Y49289
X8890Y42939
X9017Y49289
X20320Y52083
X20320Y50559
X25400Y50559
X29210Y47257
X25400Y47384
X25273Y44463
X80518Y131102
M30