M48
;GenerationSoftware,Autodesk,EAGLE,9.6.2*%
;CreationDate,2022-02-24T20:16:46Z*%
FMAT,2
ICI,OFF
METRIC,TZ,000.000
T5C0.305
T4C0.508
T3C0.650
T2C0.700
T1C1.016
%
G90
M71
T1
X66548Y78506
X81788Y115354
X33020Y59456
X15240Y78506
X12700Y50559
X15240Y22611
X12700Y78506
X81788Y31509
X12700Y22611
X81788Y3561
X30480Y87404
X84328Y31509
X84328Y3561
X33020Y31509
X64008Y22611
X30480Y3561
X66548Y22611
X15240Y50559
X33020Y3561
X66548Y50559
X64008Y50559
X30480Y31509
X30480Y59456
X64008Y78506
X84328Y59456
X81788Y59456
X12700Y106454
X15240Y106454
X84328Y115354
X33020Y87404
X64008Y106454
X66548Y106454
X84328Y87404
X81788Y87404
X12700Y134404
X15240Y134404
X33020Y115354
X30480Y115354
X64008Y134404
X66548Y134404
T2
X98668Y124244
X100468Y124244
X47360Y68346
X47360Y12451
X49160Y12451
X98668Y12451
X100468Y12451
X47360Y40399
X49160Y40399
X98668Y40399
X100468Y40399
X49160Y68346
X98668Y68346
X100468Y68346
X47360Y96294
X49160Y96294
X98668Y96294
X100468Y96294
X47360Y124244
X49160Y124244
T3
X6175Y21691
X57483Y127704
X57483Y133484
X6175Y127704
X6175Y133484
X57483Y99754
X6175Y99754
X6175Y105534
X57483Y71806
X57483Y77586
X57483Y105534
X6175Y49639
X6175Y71806
X6175Y77586
X57483Y43859
X57483Y49639
X6175Y43859
X57483Y15911
X57483Y21691
X6175Y15911
T4
X24130Y33414
X25400Y33414
X26670Y33414
X27940Y33414
X22860Y33414
X75438Y32144
X76708Y32144
X77978Y32144
X79248Y32144
X74168Y32144
X22860Y5466
X76708Y33414
X77978Y33414
X79248Y33414
X74168Y33414
X24130Y4196
X25400Y4196
X26670Y4196
X27940Y4196
X24130Y60091
X25400Y60091
X26670Y60091
X27940Y60091
X22860Y60091
X24130Y61361
X25400Y61361
X26670Y61361
X27940Y61361
X22860Y61361
X22860Y4196
X24130Y5466
X25400Y5466
X75438Y33414
X75438Y60091
X76708Y60091
X77978Y60091
X79248Y60091
X74168Y60091
X75438Y61361
X76708Y61361
X77978Y61361
X79248Y61361
X74168Y61361
X26670Y5466
X27940Y5466
X75438Y4196
X76708Y4196
X24130Y88039
X25400Y88039
X26670Y88039
X27940Y88039
X22860Y88039
X24130Y89309
X25400Y89309
X26670Y89309
X77978Y4196
X22860Y89309
X79248Y4196
X74168Y4196
X75438Y5466
X76708Y5466
X75438Y88039
X76708Y88039
X77978Y88039
X79248Y88039
X74168Y88039
X75438Y89309
X76708Y89309
X77978Y89309
X79248Y89309
X74168Y89309
X77978Y5466
X79248Y5466
X74168Y5466
X24130Y32144
X24130Y115989
X25400Y115989
X27940Y89309
X27940Y115989
X22860Y115989
X24130Y117259
X25400Y117259
X26670Y117259
X27940Y117259
X22860Y117259
X25400Y32144
X26670Y32144
X27940Y32144
X22860Y32144
X75438Y115989
X76708Y115989
X77978Y115989
X79248Y115989
X74168Y115989
X75438Y117259
X76708Y117259
X77978Y117259
X79248Y117259
X74168Y117259
X26670Y115989
T5
X25400Y47384
X25273Y44463
X25146Y40018
X31496Y41415
X34798Y41542
X38481Y46114
X35179Y37859
X20066Y37859
X5080Y39383
X4699Y31128
X4445Y29350
X28448Y30239
X40640Y36716
X42926Y39637
X43942Y35954
X47117Y44463
X44450Y45987
X43307Y44463
X40640Y44844
X44450Y47384
X44450Y51194
X47117Y52972
X42291Y50305
X40640Y49162
X28448Y53861
X28321Y52210
X4900Y54599
X5080Y51575
X47244Y31255
X22479Y39891
X35052Y35954
X19050Y35319
X15621Y36716
X21590Y47257
X25400Y48527
X33909Y49289
X20320Y46114
X11252Y50305
X21209Y45860
X19685Y47003
X8890Y51981
X2540Y38621
X20955Y51448
X22860Y51829
X26670Y51829
X22987Y42050
X10414Y31541
X23749Y41034
X15240Y32526
X22479Y42761
X11137Y42392
X8890Y31509
X27305Y44209
X7239Y35700
X27432Y42079
X31510Y34938
X28194Y40653
X30607Y35192
X26670Y38748
X24511Y41542
X47625Y33287
X25294Y41944
X47752Y34303
X27686Y38748
X15367Y31255
X12700Y31763
X12700Y34811
X15240Y38748
X21844Y36081
X23622Y44183
X3048Y33541
X12446Y37732
X26924Y42939
X27762Y42939
X44577Y38494
X65278Y45479
X67056Y45479
X69088Y49035
X62738Y49289
X60198Y42939
X60325Y49289
X71628Y52083
X71628Y50559
X76708Y50559
X80518Y47257
X76708Y47384
X76581Y44463
X76454Y40018
X82804Y41415
X86106Y41542
X89789Y46114
X86487Y37859
X71374Y37859
X56388Y39383
X56007Y31128
X55753Y29350
X79756Y30239
X91948Y36716
X94234Y39637
X95250Y35954
X98425Y44463
X95758Y45987
X94615Y44463
X91948Y44844
X95758Y47384
X95758Y51194
X98425Y52972
X93599Y50305
X91948Y49162
X79756Y53861
X79629Y52210
X56208Y54599
X56388Y51575
X98552Y31255
X73787Y39891
X86360Y35954
X70358Y35319
X66929Y36716
X72898Y47257
X76708Y48527
X85217Y49289
X71628Y46114
X62560Y50305
X72517Y45860
X70993Y47003
X60198Y51981
X53848Y38621
X72263Y51448
X74168Y51829
X77978Y51829
X74295Y42050
X61722Y31541
X75057Y41034
X66548Y32526
X73787Y42761
X62445Y42392
X60198Y31509
X78613Y44209
X58547Y35700
X78740Y42079
X82818Y34938
X79502Y40653
X81915Y35192
X77978Y38748
X75819Y41542
X98933Y33287
X76602Y41944
X99060Y34303
X78994Y38748
X66675Y31255
X64008Y31763
X64008Y34811
X66548Y38748
X73152Y36081
X74930Y44183
X54356Y33541
X63754Y37732
X78232Y42939
X79070Y42939
X95885Y38494
X13970Y73426
X15748Y73426
X17780Y76982
X11430Y77236
X8890Y70886
X9017Y77236
X20320Y80030
X20320Y78506
X25400Y78506
X29210Y75204
X25400Y75331
X25273Y72410
X25146Y67965
X31496Y69362
X34798Y69489
X38481Y74061
X35179Y65806
X20066Y65806
X5080Y67330
X4699Y59075
X4445Y57297
X28448Y58186
X40640Y64663
X42926Y67584
X43942Y63901
X47117Y72410
X44450Y73934
X43307Y72410
X40640Y72791
X44450Y75331
X44450Y79141
X47117Y80919
X42291Y78252
X40640Y77109
X28448Y81808
X28321Y80157
X4900Y82546
X5080Y79522
X47244Y59202
X22479Y67838
X35052Y63901
X19050Y63266
X15621Y64663
X21590Y75204
X25400Y76474
X33909Y77236
X20320Y74061
X11252Y78252
X21209Y73807
X19685Y74950
X8890Y79929
X2540Y66568
X20955Y79395
X22860Y79776
X26670Y79776
X22987Y69997
X10414Y59488
X23749Y68981
X15240Y60473
X22479Y70709
X11137Y70340
X8890Y59456
X27305Y72156
X7239Y63647
X27432Y70027
X31510Y62885
X28194Y68600
X30607Y63139
X26670Y66695
X24511Y69489
X47625Y61234
X25294Y69892
X47752Y62250
X27686Y66695
X15367Y59202
X12700Y59710
X12700Y62758
X15240Y66695
X21844Y64028
X23622Y72131
X3048Y61488
X12446Y65679
X26924Y70886
X27762Y70886
X44577Y66441
X65278Y73426
X67056Y73426
X69088Y76982
X62738Y77236
X60198Y70886
X60325Y77236
X71628Y80030
X71628Y78506
X76708Y78506
X80518Y75204
X76708Y75331
X76581Y72410
X76454Y67965
X82804Y69362
X86106Y69489
X89789Y74061
X86487Y65806
X71374Y65806
X56388Y67330
X56007Y59075
X55753Y57297
X79756Y58186
X91948Y64663
X94234Y67584
X95250Y63901
X98425Y72410
X95758Y73934
X94615Y72410
X91948Y72791
X95758Y75331
X95758Y79141
X98425Y80919
X93599Y78252
X91948Y77109
X79756Y81808
X79629Y80157
X56208Y82546
X56388Y79522
X98552Y59202
X73787Y67838
X86360Y63901
X70358Y63266
X66929Y64663
X72898Y75204
X76708Y76474
X85217Y77236
X71628Y74061
X62560Y78252
X72517Y73807
X70993Y74950
X60198Y79929
X53848Y66568
X72263Y79395
X74168Y79776
X77978Y79776
X74295Y69997
X61722Y59488
X75057Y68981
X66548Y60473
X73787Y70709
X62445Y70340
X60198Y59456
X78613Y72156
X58547Y63647
X78740Y70027
X82818Y62885
X79502Y68600
X81915Y63139
X77978Y66695
X75819Y69489
X98933Y61234
X76602Y69892
X99060Y62250
X78994Y66695
X66675Y59202
X64008Y59710
X64008Y62758
X66548Y66695
X73152Y64028
X74930Y72131
X54356Y61488
X63754Y65679
X78232Y70886
X79070Y70886
X95885Y66441
X13970Y101374
X15748Y101374
X17780Y104930
X11430Y105184
X8890Y98834
X72898Y19309
X20320Y107978
X20320Y106454
X25400Y106454
X29210Y103152
X25400Y103279
X25273Y100358
X25146Y95913
X31496Y97310
X34798Y97437
X38481Y102009
X35179Y93754
X20066Y93754
X5080Y95278
X4699Y87023
X4445Y85245
X28448Y86134
X40640Y92611
X42926Y95532
X43942Y91849
X47117Y100358
X44450Y101882
X43307Y100358
X40640Y100739
X44450Y103279
X44450Y107089
X47117Y108867
X42291Y106200
X40640Y105057
X28448Y109756
X28321Y108105
X4900Y110494
X5080Y107470
X47244Y87150
X22479Y95786
X35052Y91849
X19050Y91214
X15621Y92611
X21590Y103152
X25400Y104422
X33909Y105184
X20320Y102009
X11252Y106200
X21209Y101755
X19685Y102898
X8890Y107876
X2540Y94516
X20955Y107343
X22860Y107724
X26670Y107724
X22987Y97945
X10414Y87436
X23749Y96929
X15240Y88421
X22479Y98656
X11137Y98287
X8890Y87404
X27305Y100104
X7239Y91595
X27432Y97974
X31510Y90833
X28194Y96548
X30607Y91087
X26670Y94643
X24511Y97437
X47625Y89182
X25294Y97839
X47752Y90198
X27686Y94643
X15367Y87150
X12700Y87658
X12700Y90706
X15240Y94643
X21844Y91976
X23622Y100079
X3048Y89436
X12446Y93627
X26924Y98834
X27762Y98834
X44577Y94389
X65278Y101374
X67056Y101374
X69088Y104930
X62738Y105184
X60198Y98834
X60325Y105184
X71628Y107978
X71628Y106454
X76708Y106454
X80518Y103152
X76708Y103279
X76581Y100358
X76454Y95913
X82804Y97310
X86106Y97437
X89789Y102009
X86487Y93754
X71374Y93754
X56388Y95278
X56007Y87023
X55753Y85245
X79756Y86134
X91948Y92611
X94234Y95532
X95250Y91849
X98425Y100358
X95758Y101882
X94615Y100358
X91948Y100739
X95758Y103279
X95758Y107089
X98425Y108867
X93599Y106200
X91948Y105057
X79756Y109756
X79629Y108105
X56208Y110494
X56388Y107470
X98552Y87150
X73787Y95786
X86360Y91849
X70358Y91214
X66929Y92611
X72898Y103152
X76708Y104422
X85217Y105184
X71628Y102009
X62560Y106200
X72517Y101755
X70993Y102898
X60198Y107876
X53848Y94516
X72263Y107343
X74168Y107724
X77978Y107724
X74295Y97945
X61722Y87436
X75057Y96929
X66548Y88421
X73787Y98656
X62445Y98287
X60198Y87404
X78613Y100104
X58547Y91595
X78740Y97974
X82818Y90833
X79502Y96548
X81915Y91087
X77978Y94643
X75819Y97437
X98933Y89182
X76602Y97839
X99060Y90198
X78994Y94643
X66675Y87150
X64008Y87658
X64008Y90706
X66548Y94643
X73152Y91976
X74930Y100079
X54356Y89436
X63754Y93627
X78232Y98834
X79070Y98834
X95885Y94389
X13970Y129324
X15748Y129324
X17780Y132880
X11430Y133134
X8890Y126784
X9017Y133134
X20320Y135928
X20320Y134404
X25400Y134404
X29210Y131102
X25400Y131229
X25273Y128308
X25146Y123863
X31496Y125260
X34798Y125387
X38481Y129959
X35179Y121704
X20066Y121704
X5080Y123228
X4699Y114973
X4445Y113195
X28448Y114084
X40640Y120561
X42926Y123482
X43942Y119799
X47117Y128308
X44450Y129832
X43307Y128308
X40640Y128689
X44450Y131229
X44450Y135039
X47117Y136817
X42291Y134150
X40640Y133007
X28448Y137706
X28321Y136055
X4900Y138444
X5080Y135420
X47244Y115100
X22479Y123736
X35052Y119799
X19050Y119164
X15621Y120561
X21590Y131102
X25400Y132372
X33909Y133134
X20320Y129959
X11252Y134150
X21209Y129705
X19685Y130848
X8890Y135827
X2540Y122466
X20955Y135293
X22860Y135674
X26670Y135674
X22987Y125895
X10414Y115386
X23749Y124879
X15240Y116371
X22479Y126606
X11137Y126238
X8890Y115354
X27305Y128054
X7239Y119545
X27432Y125924
X31510Y118783
X28194Y124498
X30607Y119037
X26670Y122593
X24511Y125387
X47625Y117132
X25294Y125789
X47752Y118148
X27686Y122593
X15367Y115100
X12700Y115608
X12700Y118656
X15240Y122593
X21844Y119926
X23622Y128029
X3048Y117386
X12446Y121577
X26924Y126784
X27762Y126784
X44577Y122339
X65278Y129324
X67056Y129324
X69088Y132880
X62738Y133134
X60198Y126784
X60325Y133134
X71628Y135928
X71628Y134404
X13970Y17531
X80518Y131102
X76708Y131229
X76581Y128308
X76454Y123863
X82804Y125260
X86106Y125387
X89789Y129959
X86487Y121704
X71374Y121704
X56388Y123228
X56007Y114973
X55753Y113195
X79756Y114084
X91948Y120561
X94234Y123482
X95250Y119799
X98425Y128308
X95758Y129832
X94615Y128308
X91948Y128689
X95758Y131229
X95758Y135039
X98425Y136817
X93599Y134150
X91948Y133007
X79756Y137706
X79629Y136055
X56208Y138444
X56388Y135420
X98552Y115100
X73787Y123736
X86360Y119799
X70358Y119164
X66929Y120561
X72898Y131102
X76708Y132372
X85217Y133134
X71628Y129959
X62560Y134150
X72517Y129705
X70993Y130848
X60198Y135827
X53848Y122466
X72263Y135293
X74168Y135674
X77978Y135674
X74295Y125895
X61722Y115386
X75057Y124879
X66548Y116371
X73787Y126606
X62445Y126238
X60198Y115354
X78613Y128054
X58547Y119545
X78740Y125924
X82818Y118783
X79502Y124498
X81915Y119037
X77978Y122593
X75819Y125387
X98933Y117132
X76602Y125789
X99060Y118148
X78994Y122593
X66675Y115100
X64008Y115608
X64008Y118656
X66548Y122593
X73152Y119926
X74930Y128029
X54356Y117386
X63754Y121577
X78232Y126784
X79070Y126784
X95885Y122339
X15748Y17531
X17780Y21087
X11430Y21341
X8890Y14991
X9017Y21341
X20320Y24135
X20320Y22611
X25400Y22611
X29210Y19309
X25400Y19436
X25273Y16515
X25146Y12070
X31496Y13467
X34798Y13594
X38481Y18166
X35179Y9911
X20066Y9911
X5080Y11435
X4699Y3180
X4445Y1402
X28448Y2291
X40640Y8768
X42926Y11689
X43942Y8006
X47117Y16515
X44450Y18039
X43307Y16515
X40640Y16896
X44450Y19436
X44450Y23246
X47117Y25024
X42291Y22357
X40640Y21214
X28448Y25913
X28321Y24262
X4900Y26651
X5080Y23627
X47244Y3307
X22479Y11943
X35052Y8006
X19050Y7371
X15621Y8768
X21590Y19309
X25400Y20579
X33909Y21341
X20320Y18166
X11252Y22357
X21209Y17912
X19685Y19055
X8890Y24033
X2540Y10673
X9017Y105184
X20955Y23500
X22860Y23881
X26670Y23881
X22987Y14102
X10414Y3593
X23749Y13086
X15240Y4578
X22479Y14813
X11137Y14445
X8890Y3561
X27305Y16261
X7239Y7752
X27432Y14131
X31510Y6990
X28194Y12705
X30607Y7244
X26670Y10800
X24511Y13594
X47625Y5339
X25294Y13996
X47752Y6355
X27686Y10800
X15367Y3307
X12700Y3815
X12700Y6863
X15240Y10800
X21844Y8133
X23622Y16236
X3048Y5593
X12446Y9784
X26924Y14991
X27762Y14991
X44577Y10546
X65278Y17531
X67056Y17531
X69088Y21087
X62738Y21341
X60198Y14991
X60325Y21341
X71628Y24135
X71628Y22611
X76708Y22611
X80518Y19309
X76708Y19436
X76581Y16515
X76454Y12070
X82804Y13467
X86106Y13594
X89789Y18166
X86487Y9911
X71374Y9911
X56388Y11435
X56007Y3180
X55753Y1402
X79756Y2291
X91948Y8768
X94234Y11689
X95250Y8006
X98425Y16515
X95758Y18039
X94615Y16515
X91948Y16896
X95758Y19436
X95758Y23246
X98425Y25024
X93599Y22357
X91948Y21214
X79756Y25913
X79629Y24262
X56208Y26651
X56388Y23627
X98552Y3307
X73787Y11943
X86360Y8006
X70358Y7371
X66929Y8768
X76708Y20579
X85217Y21341
X71628Y18166
X62560Y22357
X72517Y17912
X70993Y19055
X60198Y24033
X53848Y10673
X72263Y23500
X74168Y23881
X77978Y23881
X74295Y14102
X61722Y3593
X75057Y13086
X66548Y4578
X73787Y14813
X62445Y14445
X60198Y3561
X78613Y16261
X58547Y7752
X78740Y14131
X82818Y6990
X79502Y12705
X81915Y7244
X77978Y10800
X75819Y13594
X98933Y5339
X76602Y13996
X99060Y6355
X78994Y10800
X66675Y3307
X64008Y3815
X64008Y6863
X66548Y10800
X73152Y8133
X74930Y16236
X54356Y5593
X63754Y9784
X78232Y14991
X79070Y14991
X95885Y10546
X13970Y45479
X15748Y45479
X17780Y49035
X11430Y49289
X8890Y42939
X9017Y49289
X20320Y52083
X20320Y50559
X25400Y50559
X29210Y47257
X76708Y134404
M30