G04 EAGLE Gerber RS-274X export*
G75*
%MOMM*%
%FSLAX34Y34*%
%LPD*%
%INSilkscreen Bottom*%
%IPPOS*%
%AMOC8*
5,1,8,0,0,1.08239X$1,22.5*%
G01*
%ADD10C,0.203200*%

G36*
X471236Y247518D02*
X471236Y247518D01*
X471302Y247523D01*
X471320Y247534D01*
X471341Y247539D01*
X471426Y247599D01*
X471450Y247613D01*
X471453Y247618D01*
X471458Y247622D01*
X473658Y249922D01*
X473666Y249935D01*
X473679Y249945D01*
X473710Y250009D01*
X473746Y250071D01*
X473747Y250087D01*
X473754Y250101D01*
X473753Y250172D01*
X473759Y250243D01*
X473753Y250258D01*
X473752Y250274D01*
X473695Y250399D01*
X473693Y250403D01*
X473693Y250404D01*
X471825Y253019D01*
X471827Y253030D01*
X471836Y253043D01*
X471847Y253101D01*
X471856Y253122D01*
X471856Y253144D01*
X471862Y253177D01*
X471863Y253182D01*
X471863Y253183D01*
X471863Y253184D01*
X471863Y253194D01*
X471896Y253259D01*
X471952Y253316D01*
X471963Y253334D01*
X471975Y253343D01*
X471983Y253362D01*
X472023Y253414D01*
X472096Y253559D01*
X472152Y253616D01*
X472192Y253680D01*
X472236Y253743D01*
X472238Y253755D01*
X472243Y253763D01*
X472247Y253798D01*
X472263Y253884D01*
X472263Y253933D01*
X472292Y253980D01*
X472336Y254043D01*
X472338Y254055D01*
X472343Y254063D01*
X472347Y254098D01*
X472363Y254184D01*
X472363Y254294D01*
X472396Y254359D01*
X472452Y254416D01*
X472492Y254480D01*
X472536Y254543D01*
X472538Y254555D01*
X472543Y254563D01*
X472547Y254598D01*
X472553Y254631D01*
X472556Y254639D01*
X472556Y254647D01*
X472563Y254684D01*
X472563Y254733D01*
X472592Y254780D01*
X472636Y254843D01*
X472638Y254855D01*
X472643Y254863D01*
X472647Y254898D01*
X472663Y254984D01*
X472663Y255094D01*
X472692Y255152D01*
X475948Y255710D01*
X475966Y255717D01*
X475985Y255718D01*
X476045Y255751D01*
X476107Y255777D01*
X476120Y255792D01*
X476137Y255801D01*
X476176Y255857D01*
X476220Y255908D01*
X476225Y255927D01*
X476236Y255943D01*
X476258Y256054D01*
X476263Y256076D01*
X476262Y256080D01*
X476263Y256084D01*
X476263Y259284D01*
X476259Y259303D01*
X476261Y259322D01*
X476250Y259356D01*
X476249Y259363D01*
X476244Y259373D01*
X476239Y259386D01*
X476224Y259452D01*
X476211Y259467D01*
X476205Y259485D01*
X476157Y259533D01*
X476114Y259586D01*
X476096Y259593D01*
X476082Y259607D01*
X475976Y259647D01*
X475956Y259656D01*
X475952Y259656D01*
X475948Y259658D01*
X472736Y260208D01*
X472725Y260247D01*
X472724Y260252D01*
X472723Y260253D01*
X472663Y260373D01*
X472663Y260384D01*
X472660Y260399D01*
X472662Y260415D01*
X472642Y260485D01*
X472642Y260500D01*
X472634Y260514D01*
X472625Y260547D01*
X472624Y260552D01*
X472623Y260553D01*
X472563Y260673D01*
X472563Y260684D01*
X472560Y260699D01*
X472562Y260715D01*
X472525Y260847D01*
X472524Y260852D01*
X472523Y260853D01*
X472363Y261173D01*
X472363Y261184D01*
X472360Y261199D01*
X472362Y261215D01*
X472325Y261347D01*
X472324Y261352D01*
X472323Y261353D01*
X472223Y261553D01*
X472200Y261581D01*
X472163Y261635D01*
X472163Y261684D01*
X472146Y261758D01*
X472132Y261833D01*
X472126Y261843D01*
X472124Y261852D01*
X472101Y261880D01*
X472052Y261952D01*
X471996Y262008D01*
X471923Y262153D01*
X471900Y262181D01*
X471863Y262235D01*
X471863Y262284D01*
X471846Y262358D01*
X471842Y262380D01*
X473696Y265068D01*
X473702Y265084D01*
X473714Y265097D01*
X473734Y265164D01*
X473759Y265229D01*
X473758Y265247D01*
X473763Y265263D01*
X473750Y265332D01*
X473744Y265402D01*
X473735Y265416D01*
X473732Y265433D01*
X473661Y265539D01*
X473654Y265550D01*
X473653Y265550D01*
X473652Y265552D01*
X471452Y267752D01*
X471438Y267761D01*
X471427Y267775D01*
X471365Y267806D01*
X471305Y267843D01*
X471288Y267845D01*
X471273Y267852D01*
X471203Y267853D01*
X471133Y267859D01*
X471117Y267853D01*
X471100Y267853D01*
X470982Y267802D01*
X470971Y267798D01*
X470970Y267797D01*
X470969Y267796D01*
X468270Y265934D01*
X468252Y265952D01*
X468187Y265992D01*
X468125Y266036D01*
X468113Y266038D01*
X468105Y266043D01*
X468070Y266046D01*
X467984Y266063D01*
X467934Y266063D01*
X467922Y266071D01*
X467854Y266123D01*
X467709Y266195D01*
X467652Y266252D01*
X467587Y266292D01*
X467525Y266336D01*
X467513Y266338D01*
X467505Y266343D01*
X467470Y266346D01*
X467384Y266363D01*
X467334Y266363D01*
X467322Y266371D01*
X467254Y266423D01*
X467054Y266523D01*
X467038Y266527D01*
X467025Y266536D01*
X466891Y266562D01*
X466885Y266563D01*
X466884Y266563D01*
X466874Y266563D01*
X466754Y266623D01*
X466738Y266627D01*
X466725Y266636D01*
X466591Y266662D01*
X466585Y266663D01*
X466584Y266663D01*
X466534Y266663D01*
X466487Y266692D01*
X466425Y266736D01*
X466413Y266738D01*
X466405Y266743D01*
X466370Y266746D01*
X466284Y266763D01*
X466174Y266763D01*
X466116Y266792D01*
X465558Y270048D01*
X465550Y270066D01*
X465549Y270085D01*
X465517Y270144D01*
X465490Y270207D01*
X465476Y270220D01*
X465466Y270237D01*
X465411Y270276D01*
X465359Y270320D01*
X465340Y270325D01*
X465325Y270336D01*
X465214Y270357D01*
X465192Y270363D01*
X465188Y270362D01*
X465184Y270363D01*
X461984Y270363D01*
X461965Y270359D01*
X461946Y270361D01*
X461882Y270339D01*
X461816Y270323D01*
X461801Y270311D01*
X461782Y270305D01*
X461735Y270257D01*
X461682Y270213D01*
X461674Y270196D01*
X461661Y270182D01*
X461621Y270076D01*
X461612Y270055D01*
X461612Y270052D01*
X461610Y270048D01*
X461060Y266836D01*
X461021Y266825D01*
X461016Y266823D01*
X461015Y266823D01*
X461014Y266823D01*
X460894Y266763D01*
X460884Y266763D01*
X460868Y266759D01*
X460852Y266762D01*
X460721Y266725D01*
X460716Y266723D01*
X460715Y266723D01*
X460714Y266723D01*
X460594Y266663D01*
X460584Y266663D01*
X460568Y266659D01*
X460552Y266662D01*
X460421Y266625D01*
X460416Y266623D01*
X460415Y266623D01*
X460414Y266623D01*
X460294Y266563D01*
X460184Y266563D01*
X460110Y266546D01*
X460034Y266532D01*
X460025Y266526D01*
X460016Y266523D01*
X459988Y266501D01*
X459916Y266452D01*
X459859Y266395D01*
X459794Y266363D01*
X459784Y266363D01*
X459768Y266359D01*
X459752Y266362D01*
X459621Y266325D01*
X459616Y266323D01*
X459615Y266323D01*
X459614Y266323D01*
X459414Y266223D01*
X459387Y266200D01*
X459316Y266152D01*
X459259Y266095D01*
X459194Y266063D01*
X459184Y266063D01*
X459168Y266059D01*
X459152Y266062D01*
X459021Y266025D01*
X459016Y266023D01*
X459015Y266023D01*
X459014Y266023D01*
X458873Y265952D01*
X456199Y267796D01*
X456187Y267801D01*
X456178Y267810D01*
X456107Y267832D01*
X456038Y267859D01*
X456025Y267858D01*
X456013Y267862D01*
X455940Y267850D01*
X455866Y267844D01*
X455855Y267837D01*
X455842Y267835D01*
X455722Y267758D01*
X453422Y265558D01*
X453408Y265536D01*
X453388Y265520D01*
X453361Y265464D01*
X453327Y265413D01*
X453324Y265387D01*
X453313Y265364D01*
X453314Y265302D01*
X453307Y265241D01*
X453316Y265217D01*
X453316Y265191D01*
X453354Y265111D01*
X453365Y265078D01*
X453372Y265072D01*
X453377Y265061D01*
X455312Y262388D01*
X455272Y262308D01*
X455216Y262252D01*
X455176Y262187D01*
X455132Y262124D01*
X455130Y262113D01*
X455125Y262105D01*
X455121Y262070D01*
X455105Y261984D01*
X455105Y261934D01*
X455097Y261921D01*
X455045Y261853D01*
X454972Y261708D01*
X454916Y261652D01*
X454876Y261587D01*
X454832Y261524D01*
X454830Y261513D01*
X454825Y261505D01*
X454821Y261470D01*
X454805Y261384D01*
X454805Y261334D01*
X454776Y261287D01*
X454732Y261224D01*
X454730Y261213D01*
X454725Y261205D01*
X454721Y261170D01*
X454705Y261084D01*
X454705Y260973D01*
X454672Y260908D01*
X454616Y260852D01*
X454576Y260787D01*
X454532Y260724D01*
X454530Y260713D01*
X454525Y260705D01*
X454521Y260670D01*
X454505Y260584D01*
X454505Y260534D01*
X454476Y260487D01*
X454432Y260424D01*
X454430Y260413D01*
X454425Y260405D01*
X454421Y260370D01*
X454405Y260284D01*
X454405Y260205D01*
X451122Y259658D01*
X451103Y259650D01*
X451083Y259649D01*
X451024Y259617D01*
X450962Y259591D01*
X450949Y259576D01*
X450931Y259566D01*
X450893Y259511D01*
X450849Y259461D01*
X450843Y259441D01*
X450832Y259424D01*
X450816Y259343D01*
X450812Y259333D01*
X450812Y259322D01*
X450811Y259318D01*
X450805Y259293D01*
X450806Y259289D01*
X450805Y259284D01*
X450805Y256084D01*
X450809Y256065D01*
X450807Y256046D01*
X450829Y255981D01*
X450844Y255915D01*
X450857Y255900D01*
X450863Y255882D01*
X450911Y255834D01*
X450954Y255782D01*
X450972Y255774D01*
X450986Y255760D01*
X451092Y255720D01*
X451112Y255711D01*
X451116Y255711D01*
X451120Y255710D01*
X454408Y255146D01*
X454443Y255021D01*
X454444Y255015D01*
X454445Y255015D01*
X454445Y255014D01*
X454505Y254894D01*
X454505Y254884D01*
X454508Y254868D01*
X454506Y254852D01*
X454543Y254721D01*
X454544Y254715D01*
X454545Y254715D01*
X454545Y254714D01*
X454605Y254594D01*
X454605Y254584D01*
X454608Y254568D01*
X454606Y254552D01*
X454643Y254421D01*
X454644Y254415D01*
X454645Y254415D01*
X454645Y254414D01*
X454805Y254094D01*
X454805Y254084D01*
X454808Y254068D01*
X454806Y254052D01*
X454843Y253921D01*
X454844Y253915D01*
X454845Y253915D01*
X454845Y253914D01*
X454945Y253714D01*
X454968Y253686D01*
X455016Y253616D01*
X455072Y253559D01*
X455105Y253494D01*
X455105Y253484D01*
X455108Y253468D01*
X455106Y253452D01*
X455143Y253321D01*
X455144Y253315D01*
X455145Y253315D01*
X455145Y253314D01*
X455245Y253114D01*
X455268Y253086D01*
X455316Y253016D01*
X455326Y253005D01*
X453381Y250411D01*
X453371Y250389D01*
X453354Y250370D01*
X453336Y250310D01*
X453311Y250253D01*
X453312Y250228D01*
X453305Y250204D01*
X453316Y250143D01*
X453319Y250080D01*
X453331Y250058D01*
X453336Y250034D01*
X453387Y249959D01*
X453403Y249929D01*
X453410Y249924D01*
X453416Y249916D01*
X455716Y247616D01*
X455730Y247607D01*
X455741Y247593D01*
X455803Y247561D01*
X455863Y247524D01*
X455880Y247523D01*
X455895Y247515D01*
X455966Y247515D01*
X456035Y247508D01*
X456051Y247514D01*
X456068Y247514D01*
X456186Y247566D01*
X456197Y247570D01*
X456198Y247571D01*
X456199Y247571D01*
X458898Y249433D01*
X458916Y249416D01*
X458981Y249375D01*
X459043Y249331D01*
X459055Y249329D01*
X459063Y249324D01*
X459098Y249321D01*
X459113Y249318D01*
X459116Y249316D01*
X459181Y249275D01*
X459243Y249231D01*
X459255Y249229D01*
X459263Y249224D01*
X459298Y249221D01*
X459384Y249204D01*
X459434Y249204D01*
X459481Y249175D01*
X459543Y249131D01*
X459555Y249129D01*
X459563Y249124D01*
X459598Y249121D01*
X459613Y249118D01*
X459616Y249116D01*
X459681Y249075D01*
X459743Y249031D01*
X459755Y249029D01*
X459763Y249024D01*
X459798Y249021D01*
X459813Y249018D01*
X459816Y249016D01*
X459881Y248975D01*
X459943Y248931D01*
X459955Y248929D01*
X459963Y248924D01*
X459998Y248921D01*
X460027Y248915D01*
X460054Y248882D01*
X460073Y248874D01*
X460088Y248859D01*
X460151Y248839D01*
X460212Y248811D01*
X460233Y248812D01*
X460252Y248806D01*
X460318Y248816D01*
X460385Y248818D01*
X460403Y248828D01*
X460423Y248831D01*
X460478Y248869D01*
X460537Y248901D01*
X460549Y248918D01*
X460565Y248930D01*
X460622Y249022D01*
X460636Y249043D01*
X460637Y249048D01*
X460640Y249052D01*
X462640Y254452D01*
X462644Y254483D01*
X462656Y254511D01*
X462654Y254567D01*
X462661Y254624D01*
X462651Y254653D01*
X462650Y254684D01*
X462623Y254734D01*
X462604Y254787D01*
X462582Y254809D01*
X462567Y254836D01*
X462507Y254882D01*
X462480Y254908D01*
X462467Y254912D01*
X462454Y254923D01*
X461909Y255195D01*
X461752Y255352D01*
X461722Y255371D01*
X461654Y255423D01*
X461509Y255495D01*
X461196Y255808D01*
X461123Y255953D01*
X461100Y255981D01*
X461052Y256052D01*
X460896Y256208D01*
X460835Y256329D01*
X460744Y256604D01*
X460732Y256623D01*
X460723Y256653D01*
X460663Y256773D01*
X460663Y256884D01*
X460655Y256919D01*
X460644Y257004D01*
X460563Y257245D01*
X460563Y258022D01*
X460644Y258264D01*
X460647Y258300D01*
X460663Y258384D01*
X460663Y258569D01*
X460800Y258773D01*
X460813Y258808D01*
X460844Y258864D01*
X460928Y259116D01*
X461279Y259642D01*
X461626Y259989D01*
X462152Y260340D01*
X462404Y260424D01*
X462422Y260435D01*
X462436Y260438D01*
X462449Y260449D01*
X462494Y260468D01*
X462699Y260604D01*
X462884Y260604D01*
X462919Y260613D01*
X463004Y260624D01*
X463246Y260704D01*
X463837Y260704D01*
X464192Y260616D01*
X464228Y260615D01*
X464284Y260604D01*
X464469Y260604D01*
X464674Y260468D01*
X464709Y260455D01*
X464758Y260427D01*
X464760Y260426D01*
X464761Y260426D01*
X464764Y260424D01*
X465016Y260340D01*
X465243Y260189D01*
X465416Y260016D01*
X465442Y259999D01*
X465474Y259968D01*
X465743Y259789D01*
X465889Y259642D01*
X466240Y259116D01*
X466605Y258022D01*
X466605Y257545D01*
X466524Y257304D01*
X466521Y257268D01*
X466505Y257184D01*
X466505Y256973D01*
X466345Y256653D01*
X466339Y256631D01*
X466324Y256604D01*
X466233Y256329D01*
X466072Y256008D01*
X465916Y255852D01*
X465897Y255821D01*
X465845Y255753D01*
X465772Y255608D01*
X465659Y255495D01*
X465514Y255423D01*
X465487Y255400D01*
X465416Y255352D01*
X465259Y255195D01*
X464938Y255035D01*
X464664Y254943D01*
X464615Y254913D01*
X464562Y254891D01*
X464542Y254869D01*
X464517Y254853D01*
X464486Y254804D01*
X464449Y254761D01*
X464441Y254732D01*
X464425Y254706D01*
X464419Y254649D01*
X464405Y254593D01*
X464411Y254559D01*
X464408Y254534D01*
X464420Y254502D01*
X464428Y254452D01*
X466428Y249052D01*
X466454Y249014D01*
X466470Y248971D01*
X466501Y248943D01*
X466524Y248908D01*
X466564Y248885D01*
X466597Y248854D01*
X466637Y248842D01*
X466674Y248821D01*
X466719Y248818D01*
X466763Y248805D01*
X466804Y248812D01*
X466846Y248810D01*
X466889Y248827D01*
X466934Y248835D01*
X466975Y248863D01*
X467006Y248876D01*
X467023Y248896D01*
X467036Y248904D01*
X467084Y248904D01*
X467158Y248922D01*
X467234Y248935D01*
X467243Y248942D01*
X467252Y248944D01*
X467280Y248967D01*
X467352Y249016D01*
X467359Y249022D01*
X467434Y249035D01*
X467443Y249042D01*
X467452Y249044D01*
X467480Y249067D01*
X467552Y249116D01*
X467559Y249122D01*
X467634Y249135D01*
X467643Y249142D01*
X467652Y249144D01*
X467680Y249167D01*
X467752Y249216D01*
X467759Y249222D01*
X467834Y249235D01*
X467843Y249242D01*
X467852Y249244D01*
X467880Y249267D01*
X467952Y249316D01*
X467959Y249322D01*
X468034Y249335D01*
X468043Y249342D01*
X468052Y249344D01*
X468080Y249367D01*
X468152Y249416D01*
X468159Y249422D01*
X468234Y249435D01*
X468243Y249442D01*
X468252Y249444D01*
X468253Y249444D01*
X470969Y247571D01*
X470989Y247564D01*
X471005Y247550D01*
X471068Y247532D01*
X471130Y247508D01*
X471151Y247510D01*
X471172Y247505D01*
X471236Y247518D01*
G37*
G36*
X473658Y69494D02*
X473658Y69494D01*
X473682Y69492D01*
X475482Y69692D01*
X475513Y69703D01*
X475560Y69709D01*
X476160Y69909D01*
X476180Y69922D01*
X476210Y69930D01*
X476810Y70230D01*
X476820Y70238D01*
X476836Y70244D01*
X477336Y70544D01*
X477350Y70558D01*
X477369Y70567D01*
X477439Y70644D01*
X477460Y70665D01*
X477462Y70670D01*
X477466Y70674D01*
X477756Y71158D01*
X478044Y71542D01*
X478059Y71577D01*
X478093Y71629D01*
X478493Y72629D01*
X478498Y72662D01*
X478515Y72708D01*
X478615Y73308D01*
X478613Y73334D01*
X478620Y73370D01*
X478620Y74170D01*
X478612Y74206D01*
X478609Y74262D01*
X478520Y74617D01*
X478520Y74770D01*
X478517Y74785D01*
X478519Y74800D01*
X478482Y74932D01*
X478481Y74939D01*
X478480Y74939D01*
X478480Y74940D01*
X478380Y75140D01*
X478364Y75159D01*
X478355Y75183D01*
X478309Y75225D01*
X478269Y75273D01*
X478247Y75283D01*
X478228Y75300D01*
X478168Y75318D01*
X478111Y75344D01*
X478086Y75343D01*
X478062Y75350D01*
X478000Y75339D01*
X477938Y75336D01*
X477916Y75324D01*
X477891Y75320D01*
X477818Y75271D01*
X477786Y75253D01*
X477781Y75245D01*
X477771Y75239D01*
X477671Y75139D01*
X477651Y75107D01*
X477600Y75040D01*
X477400Y74640D01*
X477394Y74617D01*
X477379Y74590D01*
X477308Y74375D01*
X476998Y74066D01*
X476772Y73915D01*
X476578Y73850D01*
X476402Y73850D01*
X476186Y73922D01*
X475865Y74083D01*
X475636Y74312D01*
X475478Y74548D01*
X475306Y74979D01*
X475220Y75408D01*
X475220Y76123D01*
X475393Y76814D01*
X475724Y77310D01*
X476125Y77631D01*
X476602Y77790D01*
X477162Y77790D01*
X477735Y77544D01*
X478490Y76884D01*
X479387Y76086D01*
X479389Y76085D01*
X479390Y76084D01*
X480190Y75384D01*
X480219Y75368D01*
X480255Y75338D01*
X481155Y74838D01*
X481193Y74827D01*
X481258Y74799D01*
X482158Y74599D01*
X482191Y74599D01*
X482240Y74590D01*
X483040Y74590D01*
X483077Y74598D01*
X483160Y74609D01*
X484060Y74909D01*
X484094Y74930D01*
X484161Y74961D01*
X484861Y75461D01*
X484884Y75487D01*
X484924Y75517D01*
X485724Y76417D01*
X485741Y76448D01*
X485774Y76488D01*
X486374Y77588D01*
X486384Y77624D01*
X486414Y77702D01*
X486614Y78802D01*
X486613Y78831D01*
X486620Y78870D01*
X486620Y79870D01*
X486612Y79907D01*
X486601Y79990D01*
X486301Y80890D01*
X486297Y80896D01*
X486296Y80904D01*
X485996Y81704D01*
X485986Y81718D01*
X485980Y81740D01*
X485680Y82340D01*
X485662Y82362D01*
X485644Y82398D01*
X485344Y82798D01*
X485326Y82813D01*
X485309Y82839D01*
X485209Y82939D01*
X485187Y82952D01*
X485171Y82972D01*
X485114Y82998D01*
X485062Y83030D01*
X485036Y83033D01*
X485012Y83043D01*
X484951Y83041D01*
X484889Y83047D01*
X484865Y83038D01*
X484839Y83037D01*
X484785Y83007D01*
X484727Y82985D01*
X484710Y82966D01*
X484687Y82954D01*
X484652Y82904D01*
X484610Y82858D01*
X484602Y82833D01*
X484587Y82812D01*
X484571Y82728D01*
X484560Y82692D01*
X484562Y82682D01*
X484560Y82670D01*
X484560Y82370D01*
X484568Y82333D01*
X484579Y82250D01*
X484660Y82008D01*
X484660Y81817D01*
X484571Y81462D01*
X484571Y81454D01*
X484567Y81445D01*
X484477Y80994D01*
X484315Y80671D01*
X484075Y80350D01*
X483872Y80215D01*
X483620Y80131D01*
X483600Y80118D01*
X483570Y80110D01*
X483544Y80097D01*
X483394Y80022D01*
X483240Y79971D01*
X483060Y80031D01*
X483047Y80032D01*
X483032Y80039D01*
X482696Y80123D01*
X482451Y80286D01*
X482431Y80294D01*
X482410Y80310D01*
X482065Y80483D01*
X481836Y80712D01*
X481656Y80981D01*
X481649Y80988D01*
X481644Y80998D01*
X481351Y81390D01*
X481170Y81661D01*
X480820Y82360D01*
X480820Y82908D01*
X480885Y83102D01*
X480984Y83251D01*
X481402Y83390D01*
X482140Y83390D01*
X482190Y83402D01*
X482242Y83404D01*
X482274Y83421D01*
X482309Y83429D01*
X482349Y83462D01*
X482394Y83487D01*
X482415Y83517D01*
X482442Y83539D01*
X482464Y83587D01*
X482493Y83629D01*
X482499Y83665D01*
X482513Y83698D01*
X482511Y83749D01*
X482519Y83800D01*
X482508Y83841D01*
X482507Y83871D01*
X482492Y83898D01*
X482480Y83940D01*
X482080Y84740D01*
X482077Y84744D01*
X481993Y84854D01*
X481093Y85654D01*
X481065Y85669D01*
X481032Y85698D01*
X479832Y86398D01*
X479803Y86407D01*
X479768Y86428D01*
X478368Y86928D01*
X478342Y86931D01*
X478310Y86944D01*
X476710Y87244D01*
X476674Y87242D01*
X476619Y87250D01*
X474819Y87150D01*
X474787Y87140D01*
X474738Y87136D01*
X472938Y86636D01*
X472907Y86619D01*
X472855Y86602D01*
X471055Y85602D01*
X471037Y85585D01*
X471007Y85570D01*
X470107Y84870D01*
X470093Y84854D01*
X470071Y84839D01*
X469271Y84039D01*
X469265Y84029D01*
X469254Y84020D01*
X468554Y83220D01*
X468540Y83195D01*
X468514Y83166D01*
X467914Y82166D01*
X467906Y82141D01*
X467887Y82111D01*
X467487Y81111D01*
X467484Y81092D01*
X467473Y81070D01*
X467173Y79970D01*
X467173Y79953D01*
X467165Y79933D01*
X466965Y78733D01*
X466967Y78706D01*
X466960Y78670D01*
X466960Y76801D01*
X466877Y76304D01*
X466627Y75888D01*
X465867Y74938D01*
X465297Y74462D01*
X465287Y74450D01*
X465271Y74439D01*
X463994Y73161D01*
X463319Y72679D01*
X463301Y72659D01*
X463271Y72639D01*
X462683Y72051D01*
X462097Y71562D01*
X462087Y71550D01*
X462071Y71539D01*
X461590Y71058D01*
X461212Y70774D01*
X461197Y70756D01*
X461171Y70739D01*
X460898Y70466D01*
X460629Y70286D01*
X460611Y70267D01*
X460587Y70254D01*
X460552Y70204D01*
X460511Y70160D01*
X460503Y70134D01*
X460487Y70112D01*
X460472Y70031D01*
X460461Y69994D01*
X460462Y69983D01*
X460460Y69970D01*
X460460Y69870D01*
X460471Y69820D01*
X460473Y69769D01*
X460491Y69737D01*
X460499Y69701D01*
X460532Y69662D01*
X460556Y69617D01*
X460586Y69596D01*
X460609Y69568D01*
X460656Y69547D01*
X460698Y69517D01*
X460740Y69509D01*
X460768Y69497D01*
X460798Y69498D01*
X460840Y69490D01*
X473640Y69490D01*
X473658Y69494D01*
G37*
G36*
X457244Y19991D02*
X457244Y19991D01*
X457249Y19990D01*
X457329Y20010D01*
X457409Y20029D01*
X457412Y20032D01*
X457417Y20033D01*
X457479Y20087D01*
X457542Y20139D01*
X457544Y20144D01*
X457548Y20146D01*
X457609Y20278D01*
X457709Y20678D01*
X457709Y20686D01*
X457713Y20695D01*
X457813Y21195D01*
X457812Y21227D01*
X457820Y21270D01*
X457820Y21723D01*
X457909Y22078D01*
X457909Y22086D01*
X457913Y22095D01*
X458011Y22587D01*
X458109Y22978D01*
X458109Y22986D01*
X458113Y22995D01*
X458313Y23995D01*
X458313Y23997D01*
X458313Y23998D01*
X458310Y24082D01*
X458307Y24169D01*
X458307Y24170D01*
X458307Y24171D01*
X458268Y24242D01*
X458225Y24321D01*
X458224Y24322D01*
X458224Y24323D01*
X458156Y24371D01*
X458084Y24422D01*
X458083Y24422D01*
X458082Y24423D01*
X457940Y24450D01*
X457158Y24450D01*
X457309Y24601D01*
X457319Y24617D01*
X457337Y24632D01*
X457737Y25132D01*
X457747Y25153D01*
X457766Y25174D01*
X458366Y26174D01*
X458370Y26187D01*
X458415Y26308D01*
X458615Y27508D01*
X458613Y27534D01*
X458620Y27570D01*
X458620Y28270D01*
X458618Y28281D01*
X458619Y28295D01*
X458519Y29795D01*
X458508Y29832D01*
X458498Y29898D01*
X457998Y31298D01*
X457979Y31327D01*
X457961Y31374D01*
X457261Y32474D01*
X457233Y32501D01*
X457194Y32553D01*
X456194Y33453D01*
X456171Y33466D01*
X456144Y33491D01*
X455044Y34191D01*
X455008Y34204D01*
X454952Y34233D01*
X453652Y34633D01*
X453637Y34634D01*
X453620Y34642D01*
X452220Y34942D01*
X452196Y34941D01*
X452165Y34949D01*
X450665Y35049D01*
X450643Y35046D01*
X450613Y35049D01*
X449213Y34949D01*
X449189Y34942D01*
X449155Y34941D01*
X447855Y34641D01*
X447830Y34628D01*
X447794Y34621D01*
X446594Y34121D01*
X446579Y34111D01*
X446558Y34104D01*
X445458Y33504D01*
X445429Y33478D01*
X445371Y33439D01*
X444471Y32539D01*
X444458Y32517D01*
X444432Y32494D01*
X443632Y31394D01*
X443617Y31358D01*
X443579Y31290D01*
X443179Y30090D01*
X443176Y30060D01*
X443163Y30020D01*
X442963Y28520D01*
X442967Y28481D01*
X442965Y28408D01*
X443265Y26608D01*
X443280Y26571D01*
X443300Y26500D01*
X443600Y25900D01*
X443608Y25890D01*
X443614Y25874D01*
X444214Y24874D01*
X444234Y24854D01*
X444302Y24773D01*
X444581Y24550D01*
X435340Y24550D01*
X435315Y24544D01*
X435289Y24547D01*
X435232Y24525D01*
X435171Y24511D01*
X435151Y24494D01*
X435127Y24485D01*
X435085Y24440D01*
X435038Y24401D01*
X435027Y24377D01*
X435010Y24358D01*
X434992Y24299D01*
X434967Y24242D01*
X434968Y24217D01*
X434960Y24192D01*
X434971Y24131D01*
X434973Y24069D01*
X434986Y24047D01*
X434990Y24021D01*
X435038Y23950D01*
X435056Y23917D01*
X435064Y23911D01*
X435071Y23901D01*
X435956Y23016D01*
X437143Y21532D01*
X437158Y21521D01*
X437171Y21501D01*
X438056Y20616D01*
X438443Y20132D01*
X438451Y20126D01*
X438456Y20117D01*
X438519Y20073D01*
X438579Y20025D01*
X438589Y20023D01*
X438598Y20017D01*
X438740Y19990D01*
X457240Y19990D01*
X457244Y19991D01*
G37*
G36*
X448708Y35596D02*
X448708Y35596D01*
X448730Y35605D01*
X448760Y35609D01*
X449660Y35909D01*
X449687Y35926D01*
X449729Y35940D01*
X450429Y36340D01*
X450453Y36363D01*
X450529Y36423D01*
X451129Y37123D01*
X451143Y37149D01*
X451170Y37181D01*
X451570Y37881D01*
X451578Y37907D01*
X451596Y37937D01*
X451896Y38737D01*
X451899Y38755D01*
X451909Y38778D01*
X452109Y39578D01*
X452109Y39600D01*
X452118Y39628D01*
X452218Y40528D01*
X452417Y42322D01*
X452513Y42991D01*
X452703Y43657D01*
X452888Y44210D01*
X453128Y44611D01*
X453367Y44790D01*
X454250Y44790D01*
X454715Y44558D01*
X454771Y44501D01*
X454803Y44481D01*
X454870Y44430D01*
X454957Y44387D01*
X455160Y43980D01*
X455160Y43870D01*
X455163Y43855D01*
X455161Y43840D01*
X455198Y43708D01*
X455199Y43701D01*
X455200Y43701D01*
X455200Y43700D01*
X455260Y43580D01*
X455260Y41960D01*
X454828Y41095D01*
X454515Y40783D01*
X454394Y40722D01*
X454120Y40631D01*
X454100Y40618D01*
X454070Y40610D01*
X453950Y40550D01*
X453540Y40550D01*
X453490Y40539D01*
X453439Y40537D01*
X453407Y40519D01*
X453371Y40511D01*
X453332Y40478D01*
X453287Y40454D01*
X453266Y40424D01*
X453238Y40401D01*
X453217Y40354D01*
X453187Y40312D01*
X453179Y40270D01*
X453167Y40242D01*
X453168Y40212D01*
X453160Y40170D01*
X453160Y36270D01*
X453179Y36190D01*
X453195Y36110D01*
X453198Y36106D01*
X453199Y36101D01*
X453252Y36038D01*
X453302Y35974D01*
X453306Y35972D01*
X453309Y35968D01*
X453384Y35934D01*
X453458Y35899D01*
X453463Y35899D01*
X453468Y35897D01*
X453495Y35898D01*
X453603Y35895D01*
X454803Y36095D01*
X454826Y36105D01*
X454860Y36109D01*
X455460Y36309D01*
X455492Y36329D01*
X455568Y36366D01*
X455952Y36654D01*
X456436Y36944D01*
X456448Y36956D01*
X456468Y36966D01*
X456868Y37266D01*
X456893Y37296D01*
X456944Y37342D01*
X457244Y37742D01*
X457251Y37758D01*
X457266Y37774D01*
X457866Y38774D01*
X457874Y38799D01*
X457893Y38829D01*
X458093Y39329D01*
X458097Y39358D01*
X458113Y39395D01*
X458208Y39872D01*
X458401Y40450D01*
X458403Y40475D01*
X458415Y40508D01*
X458514Y41101D01*
X458613Y41595D01*
X458612Y41627D01*
X458620Y41670D01*
X458620Y43970D01*
X458613Y44000D01*
X458613Y44045D01*
X458520Y44508D01*
X458520Y45070D01*
X458513Y45100D01*
X458513Y45145D01*
X458413Y45645D01*
X458401Y45671D01*
X458393Y45711D01*
X458206Y46179D01*
X458113Y46645D01*
X458101Y46671D01*
X458093Y46711D01*
X457893Y47211D01*
X457871Y47242D01*
X457844Y47298D01*
X456944Y48498D01*
X456914Y48523D01*
X456868Y48574D01*
X456468Y48874D01*
X456442Y48886D01*
X456410Y48910D01*
X456010Y49110D01*
X455996Y49113D01*
X455981Y49123D01*
X455481Y49323D01*
X455452Y49327D01*
X455415Y49343D01*
X454915Y49443D01*
X454883Y49442D01*
X454840Y49450D01*
X446230Y49450D01*
X446110Y49510D01*
X446095Y49514D01*
X446082Y49523D01*
X445948Y49549D01*
X445942Y49550D01*
X445941Y49550D01*
X445940Y49550D01*
X445130Y49550D01*
X445010Y49610D01*
X444995Y49614D01*
X444982Y49623D01*
X444848Y49649D01*
X444842Y49650D01*
X444841Y49650D01*
X444840Y49650D01*
X444730Y49650D01*
X444610Y49710D01*
X444595Y49714D01*
X444582Y49723D01*
X444448Y49749D01*
X444442Y49750D01*
X444441Y49750D01*
X444440Y49750D01*
X444230Y49750D01*
X444165Y49783D01*
X444109Y49839D01*
X444044Y49879D01*
X443982Y49923D01*
X443970Y49925D01*
X443962Y49930D01*
X443925Y49934D01*
X443840Y49950D01*
X443740Y49950D01*
X443690Y49939D01*
X443639Y49937D01*
X443607Y49919D01*
X443571Y49911D01*
X443532Y49878D01*
X443487Y49854D01*
X443466Y49824D01*
X443438Y49801D01*
X443417Y49754D01*
X443387Y49712D01*
X443379Y49670D01*
X443367Y49642D01*
X443368Y49612D01*
X443360Y49570D01*
X443360Y45670D01*
X443371Y45620D01*
X443373Y45569D01*
X443391Y45537D01*
X443399Y45501D01*
X443432Y45462D01*
X443456Y45417D01*
X443486Y45396D01*
X443509Y45368D01*
X443556Y45347D01*
X443598Y45317D01*
X443640Y45309D01*
X443668Y45297D01*
X443678Y45297D01*
X443736Y45261D01*
X443798Y45217D01*
X443810Y45215D01*
X443818Y45210D01*
X443855Y45206D01*
X443869Y45204D01*
X443871Y45201D01*
X443936Y45161D01*
X443998Y45117D01*
X444010Y45115D01*
X444018Y45110D01*
X444055Y45106D01*
X444140Y45090D01*
X444289Y45090D01*
X444310Y45077D01*
X444171Y44939D01*
X444155Y44912D01*
X444124Y44881D01*
X443924Y44581D01*
X443910Y44545D01*
X443879Y44490D01*
X443795Y44239D01*
X443624Y43981D01*
X443610Y43945D01*
X443579Y43890D01*
X443179Y42690D01*
X443176Y42653D01*
X443160Y42570D01*
X443160Y42332D01*
X443079Y42090D01*
X443076Y42053D01*
X443060Y41970D01*
X443060Y41632D01*
X442979Y41390D01*
X442976Y41353D01*
X442960Y41270D01*
X442960Y40170D01*
X442967Y40140D01*
X442967Y40095D01*
X443060Y39632D01*
X443060Y39170D01*
X443068Y39134D01*
X443071Y39078D01*
X443171Y38678D01*
X443181Y38658D01*
X443187Y38629D01*
X443387Y38129D01*
X443395Y38117D01*
X443400Y38100D01*
X443600Y37700D01*
X443613Y37684D01*
X443624Y37659D01*
X443811Y37379D01*
X444000Y37000D01*
X444024Y36971D01*
X444071Y36901D01*
X444371Y36601D01*
X444398Y36585D01*
X444429Y36554D01*
X444720Y36359D01*
X445112Y36066D01*
X445121Y36062D01*
X445129Y36054D01*
X445429Y35854D01*
X445430Y35853D01*
X445431Y35852D01*
X445565Y35797D01*
X446016Y35707D01*
X446370Y35530D01*
X446385Y35526D01*
X446398Y35517D01*
X446532Y35491D01*
X446539Y35490D01*
X446540Y35490D01*
X447002Y35490D01*
X447465Y35397D01*
X447475Y35397D01*
X447608Y35396D01*
X448708Y35596D01*
G37*
G36*
X461183Y61500D02*
X461183Y61500D01*
X461228Y61500D01*
X461267Y61519D01*
X461309Y61529D01*
X461343Y61558D01*
X461383Y61578D01*
X461416Y61617D01*
X461442Y61639D01*
X461453Y61663D01*
X461475Y61690D01*
X463575Y65590D01*
X463590Y65645D01*
X463613Y65698D01*
X463612Y65728D01*
X463620Y65757D01*
X463609Y65813D01*
X463607Y65871D01*
X463592Y65897D01*
X463586Y65927D01*
X463551Y65972D01*
X463524Y66023D01*
X463499Y66040D01*
X463481Y66064D01*
X463429Y66090D01*
X463382Y66123D01*
X463348Y66129D01*
X463325Y66141D01*
X463290Y66140D01*
X463240Y66150D01*
X453785Y66150D01*
X458203Y70396D01*
X458247Y70463D01*
X458293Y70528D01*
X458294Y70536D01*
X458298Y70541D01*
X458302Y70574D01*
X458320Y70670D01*
X458320Y75270D01*
X458314Y75297D01*
X458316Y75324D01*
X458294Y75380D01*
X458281Y75439D01*
X458263Y75460D01*
X458253Y75486D01*
X458209Y75526D01*
X458171Y75572D01*
X458145Y75584D01*
X458125Y75602D01*
X458067Y75619D01*
X458012Y75643D01*
X457985Y75642D01*
X457958Y75650D01*
X457899Y75639D01*
X457839Y75637D01*
X457815Y75623D01*
X457788Y75619D01*
X457721Y75572D01*
X457687Y75554D01*
X457680Y75545D01*
X457669Y75536D01*
X452687Y70459D01*
X443948Y76188D01*
X443879Y76213D01*
X443812Y76243D01*
X443799Y76243D01*
X443786Y76248D01*
X443713Y76239D01*
X443639Y76237D01*
X443627Y76230D01*
X443614Y76229D01*
X443552Y76189D01*
X443487Y76154D01*
X443479Y76143D01*
X443468Y76135D01*
X443430Y76072D01*
X443387Y76012D01*
X443384Y75997D01*
X443378Y75987D01*
X443375Y75948D01*
X443360Y75870D01*
X443360Y71170D01*
X443367Y71138D01*
X443365Y71104D01*
X443387Y71054D01*
X443399Y71001D01*
X443420Y70976D01*
X443433Y70945D01*
X443485Y70898D01*
X443509Y70868D01*
X443525Y70861D01*
X443540Y70847D01*
X449446Y67191D01*
X448475Y66150D01*
X443740Y66150D01*
X443690Y66139D01*
X443639Y66137D01*
X443607Y66119D01*
X443571Y66111D01*
X443532Y66078D01*
X443487Y66054D01*
X443466Y66024D01*
X443438Y66001D01*
X443417Y65954D01*
X443387Y65912D01*
X443379Y65870D01*
X443367Y65842D01*
X443368Y65812D01*
X443360Y65770D01*
X443360Y61870D01*
X443371Y61820D01*
X443373Y61769D01*
X443391Y61737D01*
X443399Y61701D01*
X443432Y61662D01*
X443456Y61617D01*
X443486Y61596D01*
X443509Y61568D01*
X443556Y61547D01*
X443598Y61517D01*
X443640Y61509D01*
X443668Y61497D01*
X443698Y61498D01*
X443740Y61490D01*
X461140Y61490D01*
X461183Y61500D01*
G37*
G36*
X457990Y100901D02*
X457990Y100901D01*
X458041Y100903D01*
X458073Y100921D01*
X458109Y100929D01*
X458148Y100962D01*
X458193Y100986D01*
X458214Y101016D01*
X458242Y101039D01*
X458263Y101086D01*
X458293Y101128D01*
X458301Y101170D01*
X458313Y101198D01*
X458312Y101228D01*
X458320Y101270D01*
X458320Y104970D01*
X458309Y105020D01*
X458307Y105071D01*
X458289Y105103D01*
X458281Y105139D01*
X458248Y105178D01*
X458224Y105223D01*
X458194Y105244D01*
X458171Y105272D01*
X458124Y105293D01*
X458082Y105323D01*
X458040Y105331D01*
X458012Y105343D01*
X457982Y105342D01*
X457940Y105350D01*
X456958Y105350D01*
X457209Y105601D01*
X457219Y105617D01*
X457237Y105632D01*
X457637Y106132D01*
X457643Y106146D01*
X457656Y106159D01*
X458056Y106759D01*
X458070Y106795D01*
X458101Y106850D01*
X458501Y108050D01*
X458503Y108075D01*
X458515Y108108D01*
X458615Y108708D01*
X458613Y108734D01*
X458620Y108770D01*
X458620Y109370D01*
X458617Y109382D01*
X458619Y109397D01*
X458519Y110797D01*
X458510Y110827D01*
X458507Y110870D01*
X458505Y110877D01*
X458401Y111257D01*
X458298Y111637D01*
X458298Y111638D01*
X458207Y111970D01*
X458190Y112002D01*
X458172Y112055D01*
X457672Y112955D01*
X457646Y112983D01*
X457609Y113039D01*
X456909Y113739D01*
X456879Y113757D01*
X456842Y113792D01*
X456042Y114292D01*
X456005Y114305D01*
X455949Y114334D01*
X454949Y114634D01*
X454930Y114635D01*
X454908Y114644D01*
X453808Y114844D01*
X453791Y114843D01*
X453769Y114849D01*
X452469Y114949D01*
X452456Y114947D01*
X452440Y114950D01*
X443740Y114950D01*
X443690Y114939D01*
X443639Y114937D01*
X443607Y114919D01*
X443571Y114911D01*
X443532Y114878D01*
X443487Y114854D01*
X443466Y114824D01*
X443438Y114801D01*
X443417Y114754D01*
X443387Y114712D01*
X443379Y114670D01*
X443367Y114642D01*
X443368Y114612D01*
X443360Y114570D01*
X443360Y110670D01*
X443371Y110620D01*
X443373Y110569D01*
X443391Y110537D01*
X443399Y110501D01*
X443432Y110462D01*
X443456Y110417D01*
X443486Y110396D01*
X443509Y110368D01*
X443556Y110347D01*
X443598Y110317D01*
X443640Y110309D01*
X443668Y110297D01*
X443698Y110298D01*
X443740Y110290D01*
X451716Y110290D01*
X452489Y110193D01*
X453183Y110094D01*
X453706Y110007D01*
X454128Y109754D01*
X454452Y109511D01*
X454680Y109131D01*
X454766Y108701D01*
X454856Y108162D01*
X454764Y107425D01*
X454677Y106904D01*
X454449Y106524D01*
X454022Y106183D01*
X453567Y105909D01*
X452942Y105642D01*
X452119Y105550D01*
X443740Y105550D01*
X443690Y105539D01*
X443639Y105537D01*
X443607Y105519D01*
X443571Y105511D01*
X443532Y105478D01*
X443487Y105454D01*
X443466Y105424D01*
X443438Y105401D01*
X443417Y105354D01*
X443387Y105312D01*
X443379Y105270D01*
X443367Y105242D01*
X443368Y105212D01*
X443360Y105170D01*
X443360Y101270D01*
X443371Y101220D01*
X443373Y101169D01*
X443391Y101137D01*
X443399Y101101D01*
X443432Y101062D01*
X443456Y101017D01*
X443486Y100996D01*
X443509Y100968D01*
X443556Y100947D01*
X443598Y100917D01*
X443640Y100909D01*
X443668Y100897D01*
X443698Y100898D01*
X443740Y100890D01*
X457940Y100890D01*
X457990Y100901D01*
G37*
G36*
X457990Y85601D02*
X457990Y85601D01*
X458041Y85603D01*
X458073Y85621D01*
X458109Y85629D01*
X458148Y85662D01*
X458193Y85686D01*
X458214Y85716D01*
X458242Y85739D01*
X458263Y85786D01*
X458293Y85828D01*
X458301Y85870D01*
X458313Y85898D01*
X458312Y85928D01*
X458320Y85970D01*
X458320Y89770D01*
X458309Y89820D01*
X458307Y89871D01*
X458289Y89903D01*
X458281Y89939D01*
X458248Y89978D01*
X458224Y90023D01*
X458194Y90044D01*
X458171Y90072D01*
X458124Y90093D01*
X458082Y90123D01*
X458040Y90131D01*
X458012Y90143D01*
X457982Y90142D01*
X457940Y90150D01*
X449964Y90150D01*
X448395Y90346D01*
X447894Y90430D01*
X447228Y90930D01*
X447000Y91309D01*
X446914Y91739D01*
X446824Y92278D01*
X446916Y93015D01*
X447003Y93536D01*
X447242Y93934D01*
X447565Y94258D01*
X447800Y94375D01*
X448100Y94525D01*
X448740Y94799D01*
X449464Y94890D01*
X457940Y94890D01*
X457990Y94901D01*
X458041Y94903D01*
X458073Y94921D01*
X458109Y94929D01*
X458148Y94962D01*
X458193Y94986D01*
X458214Y95016D01*
X458242Y95039D01*
X458263Y95086D01*
X458293Y95128D01*
X458301Y95170D01*
X458313Y95198D01*
X458312Y95228D01*
X458320Y95270D01*
X458320Y99170D01*
X458309Y99220D01*
X458307Y99271D01*
X458289Y99303D01*
X458281Y99339D01*
X458248Y99378D01*
X458224Y99423D01*
X458194Y99444D01*
X458171Y99472D01*
X458124Y99493D01*
X458082Y99523D01*
X458040Y99531D01*
X458012Y99543D01*
X457982Y99542D01*
X457940Y99550D01*
X443740Y99550D01*
X443690Y99539D01*
X443639Y99537D01*
X443607Y99519D01*
X443571Y99511D01*
X443532Y99478D01*
X443487Y99454D01*
X443466Y99424D01*
X443438Y99401D01*
X443417Y99354D01*
X443387Y99312D01*
X443379Y99270D01*
X443367Y99242D01*
X443368Y99212D01*
X443360Y99170D01*
X443360Y95470D01*
X443371Y95420D01*
X443373Y95369D01*
X443391Y95337D01*
X443399Y95301D01*
X443432Y95262D01*
X443456Y95217D01*
X443486Y95196D01*
X443509Y95168D01*
X443556Y95147D01*
X443598Y95117D01*
X443640Y95109D01*
X443668Y95097D01*
X443698Y95098D01*
X443740Y95090D01*
X444681Y95090D01*
X444402Y94867D01*
X444381Y94840D01*
X444343Y94808D01*
X443943Y94308D01*
X443929Y94278D01*
X443900Y94240D01*
X443600Y93640D01*
X443597Y93626D01*
X443587Y93611D01*
X443387Y93111D01*
X443385Y93101D01*
X443379Y93090D01*
X443179Y92490D01*
X443177Y92461D01*
X443164Y92424D01*
X443064Y91727D01*
X442965Y91133D01*
X442967Y91097D01*
X442961Y91043D01*
X443061Y89643D01*
X443072Y89606D01*
X443083Y89540D01*
X443483Y88440D01*
X443497Y88418D01*
X443508Y88385D01*
X444008Y87485D01*
X444029Y87462D01*
X444051Y87423D01*
X444651Y86723D01*
X444674Y86706D01*
X444755Y86638D01*
X445655Y86138D01*
X445688Y86128D01*
X445731Y86106D01*
X446731Y85806D01*
X446750Y85805D01*
X446772Y85796D01*
X447872Y85596D01*
X447901Y85597D01*
X447940Y85590D01*
X457940Y85590D01*
X457990Y85601D01*
G37*
G36*
X448362Y5300D02*
X448362Y5300D01*
X448441Y5303D01*
X448447Y5307D01*
X448455Y5308D01*
X448523Y5348D01*
X448593Y5386D01*
X448597Y5392D01*
X448604Y5396D01*
X448647Y5463D01*
X448693Y5528D01*
X448694Y5536D01*
X448698Y5542D01*
X448702Y5575D01*
X448720Y5670D01*
X448720Y9370D01*
X448709Y9420D01*
X448707Y9471D01*
X448689Y9503D01*
X448681Y9539D01*
X448648Y9578D01*
X448624Y9623D01*
X448594Y9644D01*
X448571Y9672D01*
X448524Y9693D01*
X448482Y9723D01*
X448440Y9731D01*
X448412Y9743D01*
X448382Y9742D01*
X448340Y9750D01*
X447813Y9750D01*
X447428Y9904D01*
X447112Y10142D01*
X446600Y10824D01*
X446515Y11333D01*
X446513Y11338D01*
X446513Y11345D01*
X446414Y11839D01*
X446328Y12354D01*
X446409Y12678D01*
X446409Y12714D01*
X446420Y12770D01*
X446420Y13123D01*
X446499Y13437D01*
X446665Y13769D01*
X446928Y14120D01*
X447134Y14327D01*
X447740Y14478D01*
X448007Y14411D01*
X448290Y14270D01*
X448524Y13958D01*
X448792Y13510D01*
X448975Y12964D01*
X449369Y11387D01*
X449567Y10395D01*
X449569Y10392D01*
X449569Y10388D01*
X449769Y9488D01*
X449779Y9467D01*
X449784Y9437D01*
X450084Y8637D01*
X450088Y8630D01*
X450091Y8620D01*
X450391Y7920D01*
X450402Y7905D01*
X450410Y7881D01*
X450810Y7181D01*
X450818Y7173D01*
X450824Y7159D01*
X451224Y6559D01*
X451225Y6558D01*
X451226Y6556D01*
X451329Y6454D01*
X451929Y6054D01*
X451957Y6043D01*
X451990Y6021D01*
X452690Y5721D01*
X452729Y5714D01*
X452798Y5692D01*
X453698Y5592D01*
X453729Y5596D01*
X453772Y5591D01*
X454972Y5691D01*
X455009Y5703D01*
X455081Y5717D01*
X456081Y6117D01*
X456110Y6137D01*
X456190Y6184D01*
X456990Y6884D01*
X457004Y6903D01*
X457029Y6923D01*
X457629Y7623D01*
X457646Y7655D01*
X457680Y7700D01*
X458180Y8700D01*
X458189Y8737D01*
X458213Y8795D01*
X458413Y9795D01*
X458413Y9799D01*
X458414Y9802D01*
X458614Y10902D01*
X458613Y10921D01*
X458613Y10932D01*
X458620Y10970D01*
X458620Y13270D01*
X458614Y13298D01*
X458614Y13338D01*
X458414Y14438D01*
X458407Y14455D01*
X458404Y14479D01*
X458104Y15479D01*
X458094Y15498D01*
X458087Y15524D01*
X457687Y16424D01*
X457667Y16452D01*
X457644Y16498D01*
X457044Y17298D01*
X457021Y17318D01*
X457014Y17330D01*
X456997Y17342D01*
X456968Y17374D01*
X456168Y17974D01*
X456142Y17986D01*
X456110Y18010D01*
X455110Y18510D01*
X455072Y18519D01*
X455003Y18545D01*
X453803Y18745D01*
X453721Y18740D01*
X453639Y18737D01*
X453635Y18734D01*
X453630Y18734D01*
X453559Y18693D01*
X453487Y18654D01*
X453484Y18650D01*
X453480Y18647D01*
X453434Y18579D01*
X453387Y18512D01*
X453386Y18507D01*
X453384Y18503D01*
X453380Y18475D01*
X453360Y18370D01*
X453360Y14670D01*
X453363Y14657D01*
X453361Y14643D01*
X453382Y14573D01*
X453399Y14501D01*
X453408Y14491D01*
X453412Y14478D01*
X453463Y14425D01*
X453509Y14368D01*
X453522Y14362D01*
X453531Y14352D01*
X453665Y14297D01*
X454131Y14204D01*
X454562Y14032D01*
X454766Y13896D01*
X454911Y13679D01*
X455093Y13314D01*
X455260Y12897D01*
X455260Y11332D01*
X455179Y11090D01*
X455178Y11077D01*
X455171Y11062D01*
X455075Y10676D01*
X455021Y10514D01*
X454625Y10250D01*
X454387Y10250D01*
X454107Y10320D01*
X453812Y10542D01*
X453565Y10871D01*
X453292Y11416D01*
X453113Y11955D01*
X453017Y12717D01*
X453010Y12736D01*
X453009Y12762D01*
X452410Y15158D01*
X452211Y16053D01*
X452194Y16088D01*
X452170Y16159D01*
X451370Y17559D01*
X451351Y17579D01*
X451332Y17613D01*
X450832Y18213D01*
X450801Y18237D01*
X450751Y18286D01*
X450151Y18686D01*
X450123Y18697D01*
X450090Y18720D01*
X449390Y19020D01*
X449351Y19026D01*
X449282Y19048D01*
X448382Y19148D01*
X448344Y19143D01*
X448282Y19146D01*
X446982Y18946D01*
X446953Y18934D01*
X446910Y18927D01*
X445810Y18527D01*
X445777Y18506D01*
X445712Y18474D01*
X444912Y17874D01*
X444891Y17849D01*
X444854Y17820D01*
X444154Y17020D01*
X444136Y16987D01*
X444100Y16940D01*
X443600Y15940D01*
X443593Y15910D01*
X443573Y15870D01*
X443273Y14770D01*
X443273Y14753D01*
X443265Y14733D01*
X443065Y13533D01*
X443066Y13519D01*
X443061Y13502D01*
X442961Y12302D01*
X442965Y12275D01*
X442961Y12238D01*
X443061Y11038D01*
X443065Y11025D01*
X443065Y11008D01*
X443265Y9808D01*
X443272Y9792D01*
X443273Y9770D01*
X443278Y9752D01*
X443382Y9372D01*
X443485Y8992D01*
X443485Y8991D01*
X443573Y8670D01*
X443588Y8642D01*
X443600Y8600D01*
X444100Y7600D01*
X444124Y7571D01*
X444154Y7520D01*
X444854Y6720D01*
X444879Y6702D01*
X444907Y6670D01*
X445807Y5970D01*
X445842Y5954D01*
X445899Y5917D01*
X446899Y5517D01*
X446933Y5512D01*
X446982Y5494D01*
X448282Y5294D01*
X448362Y5300D01*
G37*
G36*
X455405Y74002D02*
X455405Y74002D01*
X455441Y74003D01*
X455487Y74028D01*
X455537Y74045D01*
X455567Y74072D01*
X455593Y74086D01*
X455611Y74112D01*
X455644Y74142D01*
X455928Y74520D01*
X457509Y76101D01*
X457521Y76121D01*
X457544Y76142D01*
X457812Y76498D01*
X458168Y76766D01*
X458179Y76778D01*
X458193Y76786D01*
X458234Y76844D01*
X458279Y76899D01*
X458283Y76914D01*
X458293Y76928D01*
X458317Y77055D01*
X458320Y77067D01*
X458320Y77068D01*
X458320Y77070D01*
X458320Y77890D01*
X459940Y77890D01*
X459966Y77896D01*
X460074Y77914D01*
X460874Y78214D01*
X460880Y78218D01*
X460890Y78221D01*
X461590Y78521D01*
X461621Y78544D01*
X461683Y78578D01*
X462283Y79078D01*
X462306Y79108D01*
X462349Y79149D01*
X462849Y79849D01*
X462859Y79873D01*
X462880Y79900D01*
X463280Y80700D01*
X463287Y80727D01*
X463304Y80761D01*
X463604Y81761D01*
X463607Y81800D01*
X463620Y81870D01*
X463620Y84770D01*
X463617Y84785D01*
X463619Y84800D01*
X463582Y84932D01*
X463581Y84939D01*
X463580Y84939D01*
X463580Y84940D01*
X463480Y85140D01*
X463448Y85179D01*
X463424Y85223D01*
X463393Y85244D01*
X463369Y85273D01*
X463323Y85294D01*
X463282Y85323D01*
X463239Y85331D01*
X463211Y85344D01*
X463181Y85342D01*
X463140Y85350D01*
X460340Y85350D01*
X460290Y85339D01*
X460239Y85337D01*
X460207Y85319D01*
X460171Y85311D01*
X460132Y85278D01*
X460087Y85254D01*
X460066Y85224D01*
X460038Y85201D01*
X460017Y85154D01*
X459987Y85112D01*
X459979Y85070D01*
X459967Y85042D01*
X459968Y85012D01*
X459960Y84970D01*
X459960Y83317D01*
X459881Y83003D01*
X459745Y82730D01*
X459549Y82600D01*
X459450Y82550D01*
X459140Y82550D01*
X459104Y82542D01*
X459048Y82539D01*
X458693Y82450D01*
X458320Y82450D01*
X458320Y84770D01*
X458309Y84820D01*
X458307Y84871D01*
X458289Y84903D01*
X458281Y84939D01*
X458248Y84978D01*
X458224Y85023D01*
X458194Y85044D01*
X458171Y85072D01*
X458124Y85093D01*
X458082Y85123D01*
X458040Y85131D01*
X458012Y85143D01*
X457982Y85142D01*
X457940Y85150D01*
X455340Y85150D01*
X455290Y85139D01*
X455239Y85137D01*
X455207Y85119D01*
X455171Y85111D01*
X455132Y85078D01*
X455087Y85054D01*
X455066Y85024D01*
X455038Y85001D01*
X455017Y84954D01*
X454987Y84912D01*
X454979Y84870D01*
X454967Y84842D01*
X454968Y84812D01*
X454960Y84770D01*
X454960Y82450D01*
X443740Y82450D01*
X443690Y82439D01*
X443639Y82437D01*
X443607Y82419D01*
X443571Y82411D01*
X443532Y82378D01*
X443487Y82354D01*
X443466Y82324D01*
X443438Y82301D01*
X443417Y82254D01*
X443387Y82212D01*
X443379Y82170D01*
X443367Y82142D01*
X443368Y82112D01*
X443360Y82070D01*
X443360Y78270D01*
X443371Y78220D01*
X443373Y78169D01*
X443391Y78137D01*
X443399Y78101D01*
X443432Y78062D01*
X443456Y78017D01*
X443486Y77996D01*
X443509Y77968D01*
X443556Y77947D01*
X443598Y77917D01*
X443640Y77909D01*
X443668Y77897D01*
X443698Y77898D01*
X443740Y77890D01*
X454960Y77890D01*
X454960Y74370D01*
X454972Y74319D01*
X454974Y74266D01*
X454991Y74236D01*
X454999Y74201D01*
X455033Y74161D01*
X455058Y74115D01*
X455087Y74095D01*
X455109Y74068D01*
X455157Y74046D01*
X455201Y74016D01*
X455235Y74011D01*
X455268Y73997D01*
X455320Y73999D01*
X455372Y73991D01*
X455405Y74002D01*
G37*
G36*
X457253Y50893D02*
X457253Y50893D01*
X457267Y50891D01*
X457337Y50912D01*
X457409Y50929D01*
X457419Y50938D01*
X457432Y50942D01*
X457486Y50993D01*
X457542Y51039D01*
X457548Y51052D01*
X457558Y51061D01*
X457613Y51195D01*
X457711Y51687D01*
X457809Y52078D01*
X457809Y52114D01*
X457820Y52170D01*
X457820Y52632D01*
X457911Y53087D01*
X458009Y53478D01*
X458009Y53486D01*
X458013Y53495D01*
X458211Y54487D01*
X458309Y54878D01*
X458309Y54888D01*
X458313Y54898D01*
X458310Y54974D01*
X458312Y55051D01*
X458307Y55060D01*
X458307Y55071D01*
X458270Y55138D01*
X458237Y55207D01*
X458229Y55214D01*
X458224Y55223D01*
X458161Y55267D01*
X458101Y55315D01*
X458091Y55317D01*
X458082Y55323D01*
X457940Y55350D01*
X456524Y55350D01*
X456678Y55473D01*
X456680Y55476D01*
X456683Y55478D01*
X457283Y55978D01*
X457303Y56003D01*
X457337Y56032D01*
X457737Y56532D01*
X457748Y56556D01*
X457770Y56581D01*
X458170Y57281D01*
X458179Y57311D01*
X458201Y57350D01*
X458401Y57950D01*
X458401Y57957D01*
X458406Y57966D01*
X458606Y58666D01*
X458608Y58704D01*
X458620Y58770D01*
X458620Y60170D01*
X458603Y60244D01*
X458590Y60319D01*
X458583Y60329D01*
X458581Y60339D01*
X458557Y60368D01*
X458509Y60439D01*
X458508Y60440D01*
X458507Y60471D01*
X458489Y60503D01*
X458481Y60539D01*
X458448Y60578D01*
X458424Y60623D01*
X458394Y60644D01*
X458371Y60672D01*
X458324Y60693D01*
X458282Y60723D01*
X458240Y60731D01*
X458212Y60743D01*
X458182Y60742D01*
X458140Y60750D01*
X454540Y60750D01*
X454490Y60739D01*
X454439Y60737D01*
X454407Y60719D01*
X454371Y60711D01*
X454332Y60678D01*
X454287Y60654D01*
X454266Y60624D01*
X454238Y60601D01*
X454217Y60554D01*
X454187Y60512D01*
X454179Y60470D01*
X454167Y60442D01*
X454168Y60412D01*
X454160Y60370D01*
X454160Y60270D01*
X454163Y60255D01*
X454161Y60240D01*
X454198Y60108D01*
X454199Y60101D01*
X454200Y60101D01*
X454200Y60100D01*
X454260Y59980D01*
X454260Y58989D01*
X454164Y58035D01*
X453984Y57313D01*
X453644Y56718D01*
X453122Y56284D01*
X452491Y55923D01*
X451846Y55739D01*
X450998Y55550D01*
X443740Y55550D01*
X443690Y55539D01*
X443639Y55537D01*
X443607Y55519D01*
X443571Y55511D01*
X443532Y55478D01*
X443487Y55454D01*
X443466Y55424D01*
X443438Y55401D01*
X443417Y55354D01*
X443387Y55312D01*
X443379Y55270D01*
X443367Y55242D01*
X443368Y55212D01*
X443360Y55170D01*
X443360Y51270D01*
X443371Y51220D01*
X443373Y51169D01*
X443391Y51137D01*
X443399Y51101D01*
X443432Y51062D01*
X443456Y51017D01*
X443486Y50996D01*
X443509Y50968D01*
X443556Y50947D01*
X443598Y50917D01*
X443640Y50909D01*
X443668Y50897D01*
X443698Y50898D01*
X443740Y50890D01*
X457240Y50890D01*
X457253Y50893D01*
G37*
%LPC*%
G36*
X449987Y24450D02*
X449987Y24450D01*
X448462Y24832D01*
X447857Y25091D01*
X447421Y25527D01*
X446984Y26052D01*
X446814Y26644D01*
X446723Y27467D01*
X446814Y28200D01*
X446988Y28893D01*
X447408Y29397D01*
X447837Y29741D01*
X448482Y30017D01*
X449232Y30298D01*
X449964Y30390D01*
X451616Y30390D01*
X452348Y30298D01*
X453098Y30017D01*
X453739Y29742D01*
X454254Y29313D01*
X454604Y28788D01*
X454868Y28172D01*
X454957Y27373D01*
X454868Y26662D01*
X454605Y25960D01*
X454267Y25538D01*
X453739Y25098D01*
X453098Y24823D01*
X452348Y24542D01*
X451616Y24450D01*
X449987Y24450D01*
G37*
%LPD*%
%LPC*%
G36*
X447602Y40050D02*
X447602Y40050D01*
X447360Y40131D01*
X447323Y40134D01*
X447240Y40150D01*
X447130Y40150D01*
X447065Y40183D01*
X447009Y40239D01*
X446977Y40259D01*
X446910Y40310D01*
X446823Y40353D01*
X446780Y40440D01*
X446756Y40469D01*
X446709Y40539D01*
X446653Y40595D01*
X446520Y40860D01*
X446520Y40970D01*
X446517Y40985D01*
X446519Y41000D01*
X446482Y41132D01*
X446481Y41139D01*
X446480Y41139D01*
X446480Y41140D01*
X446420Y41260D01*
X446420Y41370D01*
X446417Y41385D01*
X446419Y41400D01*
X446382Y41532D01*
X446381Y41539D01*
X446380Y41539D01*
X446380Y41540D01*
X446320Y41660D01*
X446320Y42032D01*
X446413Y42495D01*
X446412Y42527D01*
X446420Y42570D01*
X446420Y42980D01*
X446580Y43300D01*
X446588Y43333D01*
X446609Y43378D01*
X446693Y43714D01*
X446836Y43928D01*
X446982Y44075D01*
X447251Y44254D01*
X447272Y44277D01*
X447309Y44301D01*
X447445Y44438D01*
X447960Y44609D01*
X447980Y44622D01*
X448010Y44630D01*
X448186Y44718D01*
X448402Y44790D01*
X450025Y44790D01*
X449900Y44540D01*
X449896Y44525D01*
X449887Y44512D01*
X449861Y44378D01*
X449860Y44372D01*
X449860Y44371D01*
X449860Y44370D01*
X449860Y44260D01*
X449800Y44140D01*
X449796Y44125D01*
X449787Y44112D01*
X449761Y43978D01*
X449760Y43972D01*
X449760Y43971D01*
X449760Y43970D01*
X449760Y43660D01*
X449700Y43540D01*
X449696Y43525D01*
X449687Y43512D01*
X449661Y43378D01*
X449660Y43372D01*
X449660Y43371D01*
X449660Y43370D01*
X449660Y43232D01*
X449579Y42990D01*
X449576Y42953D01*
X449573Y42938D01*
X449567Y42924D01*
X449567Y42909D01*
X449560Y42870D01*
X449560Y42532D01*
X449479Y42290D01*
X449476Y42253D01*
X449460Y42170D01*
X449460Y41860D01*
X449400Y41740D01*
X449396Y41725D01*
X449387Y41712D01*
X449361Y41578D01*
X449360Y41572D01*
X449360Y41571D01*
X449360Y41570D01*
X449360Y41432D01*
X449288Y41216D01*
X449228Y41095D01*
X449171Y41039D01*
X449151Y41007D01*
X449100Y40940D01*
X448928Y40595D01*
X448871Y40539D01*
X448851Y40507D01*
X448800Y40440D01*
X448757Y40353D01*
X448637Y40294D01*
X448350Y40150D01*
X448240Y40150D01*
X448225Y40147D01*
X448210Y40149D01*
X448078Y40112D01*
X448071Y40111D01*
X448071Y40110D01*
X448070Y40110D01*
X447950Y40050D01*
X447602Y40050D01*
G37*
%LPD*%
D10*
X48600Y264700D02*
X28600Y264700D01*
X28600Y14700D01*
X48600Y14700D01*
X283600Y14700D02*
X428600Y14700D01*
X428600Y54700D01*
X428600Y109700D02*
X428600Y169700D01*
X428600Y224700D02*
X428600Y264700D01*
X283600Y264700D01*
X355600Y254000D02*
X355600Y215900D01*
X393700Y215900D01*
X393700Y254000D01*
X355600Y254000D01*
X360451Y234950D02*
X360455Y235298D01*
X360468Y235647D01*
X360489Y235995D01*
X360519Y236342D01*
X360558Y236688D01*
X360605Y237033D01*
X360660Y237377D01*
X360724Y237720D01*
X360796Y238061D01*
X360877Y238400D01*
X360965Y238737D01*
X361062Y239072D01*
X361168Y239404D01*
X361281Y239733D01*
X361402Y240060D01*
X361532Y240384D01*
X361669Y240704D01*
X361814Y241021D01*
X361967Y241334D01*
X362128Y241643D01*
X362296Y241949D01*
X362471Y242250D01*
X362654Y242546D01*
X362844Y242839D01*
X363041Y243126D01*
X363245Y243408D01*
X363456Y243686D01*
X363674Y243958D01*
X363898Y244224D01*
X364129Y244485D01*
X364366Y244741D01*
X364610Y244990D01*
X364859Y245234D01*
X365115Y245471D01*
X365376Y245702D01*
X365642Y245926D01*
X365914Y246144D01*
X366192Y246355D01*
X366474Y246559D01*
X366761Y246756D01*
X367054Y246946D01*
X367350Y247129D01*
X367651Y247304D01*
X367957Y247472D01*
X368266Y247633D01*
X368579Y247786D01*
X368896Y247931D01*
X369216Y248068D01*
X369540Y248198D01*
X369867Y248319D01*
X370196Y248432D01*
X370528Y248538D01*
X370863Y248635D01*
X371200Y248723D01*
X371539Y248804D01*
X371880Y248876D01*
X372223Y248940D01*
X372567Y248995D01*
X372912Y249042D01*
X373258Y249081D01*
X373605Y249111D01*
X373953Y249132D01*
X374302Y249145D01*
X374650Y249149D01*
X374998Y249145D01*
X375347Y249132D01*
X375695Y249111D01*
X376042Y249081D01*
X376388Y249042D01*
X376733Y248995D01*
X377077Y248940D01*
X377420Y248876D01*
X377761Y248804D01*
X378100Y248723D01*
X378437Y248635D01*
X378772Y248538D01*
X379104Y248432D01*
X379433Y248319D01*
X379760Y248198D01*
X380084Y248068D01*
X380404Y247931D01*
X380721Y247786D01*
X381034Y247633D01*
X381343Y247472D01*
X381649Y247304D01*
X381950Y247129D01*
X382246Y246946D01*
X382539Y246756D01*
X382826Y246559D01*
X383108Y246355D01*
X383386Y246144D01*
X383658Y245926D01*
X383924Y245702D01*
X384185Y245471D01*
X384441Y245234D01*
X384690Y244990D01*
X384934Y244741D01*
X385171Y244485D01*
X385402Y244224D01*
X385626Y243958D01*
X385844Y243686D01*
X386055Y243408D01*
X386259Y243126D01*
X386456Y242839D01*
X386646Y242546D01*
X386829Y242250D01*
X387004Y241949D01*
X387172Y241643D01*
X387333Y241334D01*
X387486Y241021D01*
X387631Y240704D01*
X387768Y240384D01*
X387898Y240060D01*
X388019Y239733D01*
X388132Y239404D01*
X388238Y239072D01*
X388335Y238737D01*
X388423Y238400D01*
X388504Y238061D01*
X388576Y237720D01*
X388640Y237377D01*
X388695Y237033D01*
X388742Y236688D01*
X388781Y236342D01*
X388811Y235995D01*
X388832Y235647D01*
X388845Y235298D01*
X388849Y234950D01*
X388845Y234602D01*
X388832Y234253D01*
X388811Y233905D01*
X388781Y233558D01*
X388742Y233212D01*
X388695Y232867D01*
X388640Y232523D01*
X388576Y232180D01*
X388504Y231839D01*
X388423Y231500D01*
X388335Y231163D01*
X388238Y230828D01*
X388132Y230496D01*
X388019Y230167D01*
X387898Y229840D01*
X387768Y229516D01*
X387631Y229196D01*
X387486Y228879D01*
X387333Y228566D01*
X387172Y228257D01*
X387004Y227951D01*
X386829Y227650D01*
X386646Y227354D01*
X386456Y227061D01*
X386259Y226774D01*
X386055Y226492D01*
X385844Y226214D01*
X385626Y225942D01*
X385402Y225676D01*
X385171Y225415D01*
X384934Y225159D01*
X384690Y224910D01*
X384441Y224666D01*
X384185Y224429D01*
X383924Y224198D01*
X383658Y223974D01*
X383386Y223756D01*
X383108Y223545D01*
X382826Y223341D01*
X382539Y223144D01*
X382246Y222954D01*
X381950Y222771D01*
X381649Y222596D01*
X381343Y222428D01*
X381034Y222267D01*
X380721Y222114D01*
X380404Y221969D01*
X380084Y221832D01*
X379760Y221702D01*
X379433Y221581D01*
X379104Y221468D01*
X378772Y221362D01*
X378437Y221265D01*
X378100Y221177D01*
X377761Y221096D01*
X377420Y221024D01*
X377077Y220960D01*
X376733Y220905D01*
X376388Y220858D01*
X376042Y220819D01*
X375695Y220789D01*
X375347Y220768D01*
X374998Y220755D01*
X374650Y220751D01*
X374302Y220755D01*
X373953Y220768D01*
X373605Y220789D01*
X373258Y220819D01*
X372912Y220858D01*
X372567Y220905D01*
X372223Y220960D01*
X371880Y221024D01*
X371539Y221096D01*
X371200Y221177D01*
X370863Y221265D01*
X370528Y221362D01*
X370196Y221468D01*
X369867Y221581D01*
X369540Y221702D01*
X369216Y221832D01*
X368896Y221969D01*
X368579Y222114D01*
X368266Y222267D01*
X367957Y222428D01*
X367651Y222596D01*
X367350Y222771D01*
X367054Y222954D01*
X366761Y223144D01*
X366474Y223341D01*
X366192Y223545D01*
X365914Y223756D01*
X365642Y223974D01*
X365376Y224198D01*
X365115Y224429D01*
X364859Y224666D01*
X364610Y224910D01*
X364366Y225159D01*
X364129Y225415D01*
X363898Y225676D01*
X363674Y225942D01*
X363456Y226214D01*
X363245Y226492D01*
X363041Y226774D01*
X362844Y227061D01*
X362654Y227354D01*
X362471Y227650D01*
X362296Y227951D01*
X362128Y228257D01*
X361967Y228566D01*
X361814Y228879D01*
X361669Y229196D01*
X361532Y229516D01*
X361402Y229840D01*
X361281Y230167D01*
X361168Y230496D01*
X361062Y230828D01*
X360965Y231163D01*
X360877Y231500D01*
X360796Y231839D01*
X360724Y232180D01*
X360660Y232523D01*
X360605Y232867D01*
X360558Y233212D01*
X360519Y233558D01*
X360489Y233905D01*
X360468Y234253D01*
X360455Y234602D01*
X360451Y234950D01*
M02*
