G04 EAGLE Gerber RS-274X export*
G75*
%MOMM*%
%FSLAX34Y34*%
%LPD*%
%INSoldermask Top*%
%IPPOS*%
%AMOC8*
5,1,8,0,0,1.08239X$1,22.5*%
G01*
%ADD10C,1.152400*%
%ADD11C,0.253525*%
%ADD12C,0.252862*%
%ADD13C,0.248381*%
%ADD14C,0.251966*%
%ADD15C,2.032000*%
%ADD16C,0.243431*%
%ADD17C,0.449434*%
%ADD18C,0.253344*%
%ADD19C,0.255816*%
%ADD20C,0.802400*%
%ADD21C,0.264381*%
%ADD22C,0.257147*%
%ADD23C,0.255116*%
%ADD24C,0.246888*%

G36*
X73004Y227654D02*
X73004Y227654D01*
X73007Y227651D01*
X74129Y227806D01*
X74134Y227811D01*
X74138Y227808D01*
X75209Y228179D01*
X75213Y228185D01*
X75218Y228183D01*
X76195Y228756D01*
X76198Y228762D01*
X76203Y228761D01*
X77050Y229514D01*
X77052Y229521D01*
X77057Y229521D01*
X77741Y230424D01*
X77741Y230431D01*
X77746Y230432D01*
X78241Y231451D01*
X78239Y231458D01*
X78244Y231460D01*
X78531Y232557D01*
X78529Y232561D01*
X78531Y232562D01*
X78529Y232564D01*
X78532Y232566D01*
X78599Y233697D01*
X78597Y233701D01*
X78599Y233703D01*
X78532Y234834D01*
X78527Y234839D01*
X78531Y234843D01*
X78244Y235940D01*
X78238Y235944D01*
X78241Y235949D01*
X77746Y236968D01*
X77740Y236971D01*
X77741Y236976D01*
X77057Y237879D01*
X77050Y237881D01*
X77050Y237886D01*
X76203Y238639D01*
X76196Y238639D01*
X76195Y238644D01*
X75218Y239217D01*
X75211Y239216D01*
X75209Y239221D01*
X74138Y239592D01*
X74132Y239589D01*
X74129Y239594D01*
X73007Y239749D01*
X73002Y239746D01*
X73000Y239749D01*
X61000Y239749D01*
X60995Y239746D01*
X60992Y239749D01*
X59725Y239544D01*
X59719Y239538D01*
X59715Y239541D01*
X58525Y239059D01*
X58521Y239052D01*
X58515Y239054D01*
X57462Y238320D01*
X57460Y238312D01*
X57454Y238313D01*
X56591Y237363D01*
X56590Y237354D01*
X56585Y237354D01*
X55955Y236235D01*
X55956Y236227D01*
X55950Y236225D01*
X55585Y234995D01*
X55588Y234987D01*
X55583Y234984D01*
X55501Y233703D01*
X55504Y233699D01*
X55501Y233697D01*
X55583Y232416D01*
X55589Y232410D01*
X55585Y232405D01*
X55950Y231175D01*
X55957Y231170D01*
X55955Y231165D01*
X56585Y230046D01*
X56592Y230043D01*
X56591Y230037D01*
X57454Y229087D01*
X57462Y229086D01*
X57462Y229080D01*
X58515Y228346D01*
X58523Y228346D01*
X58525Y228341D01*
X59715Y227859D01*
X59722Y227861D01*
X59725Y227856D01*
X60992Y227651D01*
X60997Y227654D01*
X61000Y227651D01*
X73000Y227651D01*
X73004Y227654D01*
G37*
G36*
X73004Y141254D02*
X73004Y141254D01*
X73007Y141251D01*
X74129Y141406D01*
X74134Y141411D01*
X74138Y141408D01*
X75209Y141779D01*
X75213Y141785D01*
X75218Y141783D01*
X76195Y142356D01*
X76198Y142362D01*
X76203Y142361D01*
X77050Y143114D01*
X77052Y143121D01*
X77057Y143121D01*
X77741Y144024D01*
X77741Y144031D01*
X77746Y144032D01*
X78241Y145051D01*
X78239Y145058D01*
X78244Y145060D01*
X78531Y146157D01*
X78529Y146161D01*
X78531Y146162D01*
X78529Y146164D01*
X78532Y146166D01*
X78599Y147297D01*
X78597Y147301D01*
X78599Y147303D01*
X78532Y148434D01*
X78527Y148439D01*
X78531Y148443D01*
X78244Y149540D01*
X78238Y149544D01*
X78241Y149549D01*
X77746Y150568D01*
X77740Y150571D01*
X77741Y150576D01*
X77057Y151479D01*
X77050Y151481D01*
X77050Y151486D01*
X76203Y152239D01*
X76196Y152239D01*
X76195Y152244D01*
X75218Y152817D01*
X75211Y152816D01*
X75209Y152821D01*
X74138Y153192D01*
X74132Y153189D01*
X74129Y153194D01*
X73007Y153349D01*
X73002Y153346D01*
X73000Y153349D01*
X61000Y153349D01*
X60995Y153346D01*
X60992Y153349D01*
X59725Y153144D01*
X59719Y153138D01*
X59715Y153141D01*
X58525Y152659D01*
X58521Y152652D01*
X58515Y152654D01*
X57462Y151920D01*
X57460Y151912D01*
X57454Y151913D01*
X56591Y150963D01*
X56590Y150954D01*
X56585Y150954D01*
X55955Y149835D01*
X55956Y149827D01*
X55950Y149825D01*
X55585Y148595D01*
X55588Y148587D01*
X55583Y148584D01*
X55501Y147303D01*
X55504Y147299D01*
X55501Y147297D01*
X55583Y146016D01*
X55589Y146010D01*
X55585Y146005D01*
X55950Y144775D01*
X55957Y144770D01*
X55955Y144765D01*
X56585Y143646D01*
X56592Y143643D01*
X56591Y143637D01*
X57454Y142687D01*
X57462Y142686D01*
X57462Y142680D01*
X58515Y141946D01*
X58523Y141946D01*
X58525Y141941D01*
X59715Y141459D01*
X59722Y141461D01*
X59725Y141456D01*
X60992Y141251D01*
X60997Y141254D01*
X61000Y141251D01*
X73000Y141251D01*
X73004Y141254D01*
G37*
G36*
X28203Y227653D02*
X28203Y227653D01*
X28205Y227651D01*
X29381Y227762D01*
X29386Y227767D01*
X29390Y227764D01*
X30522Y228102D01*
X30526Y228108D01*
X30531Y228106D01*
X31575Y228658D01*
X31578Y228665D01*
X31583Y228663D01*
X32499Y229409D01*
X32500Y229416D01*
X32506Y229416D01*
X33259Y230326D01*
X33259Y230333D01*
X33264Y230334D01*
X33825Y231373D01*
X33824Y231378D01*
X33828Y231380D01*
X33827Y231381D01*
X33829Y231382D01*
X34176Y232511D01*
X34176Y232512D01*
X34177Y232513D01*
X34174Y232517D01*
X34178Y232520D01*
X34299Y233695D01*
X34295Y233702D01*
X34299Y233706D01*
X34142Y235046D01*
X34137Y235052D01*
X34140Y235057D01*
X33689Y236328D01*
X33682Y236333D01*
X33684Y236338D01*
X32962Y237477D01*
X32954Y237480D01*
X32955Y237486D01*
X31997Y238436D01*
X31989Y238437D01*
X31988Y238443D01*
X30843Y239156D01*
X30835Y239155D01*
X30833Y239161D01*
X29557Y239601D01*
X29550Y239599D01*
X29547Y239603D01*
X28205Y239749D01*
X28202Y239747D01*
X28200Y239749D01*
X22200Y239749D01*
X22197Y239747D01*
X22194Y239749D01*
X20865Y239594D01*
X20859Y239588D01*
X20855Y239591D01*
X19594Y239144D01*
X19589Y239137D01*
X19584Y239139D01*
X18454Y238422D01*
X18451Y238415D01*
X18445Y238416D01*
X17503Y237466D01*
X17502Y237457D01*
X17496Y237457D01*
X16789Y236321D01*
X16790Y236313D01*
X16784Y236311D01*
X16348Y235046D01*
X16350Y235038D01*
X16345Y235036D01*
X16201Y233705D01*
X16205Y233699D01*
X16201Y233695D01*
X16311Y232529D01*
X16316Y232524D01*
X16313Y232520D01*
X16648Y231397D01*
X16654Y231393D01*
X16652Y231389D01*
X17200Y230353D01*
X17206Y230350D01*
X17205Y230345D01*
X17944Y229437D01*
X17951Y229435D01*
X17951Y229430D01*
X18853Y228683D01*
X18861Y228683D01*
X18861Y228678D01*
X19892Y228121D01*
X19899Y228122D01*
X19901Y228117D01*
X21020Y227773D01*
X21027Y227775D01*
X21030Y227771D01*
X22195Y227651D01*
X22198Y227653D01*
X22200Y227651D01*
X28200Y227651D01*
X28203Y227653D01*
G37*
G36*
X28203Y141253D02*
X28203Y141253D01*
X28205Y141251D01*
X29381Y141362D01*
X29386Y141367D01*
X29390Y141364D01*
X30522Y141702D01*
X30526Y141708D01*
X30531Y141706D01*
X31575Y142258D01*
X31578Y142265D01*
X31583Y142263D01*
X32499Y143009D01*
X32500Y143016D01*
X32506Y143016D01*
X33259Y143926D01*
X33259Y143933D01*
X33264Y143934D01*
X33825Y144973D01*
X33824Y144978D01*
X33828Y144980D01*
X33827Y144981D01*
X33829Y144982D01*
X34176Y146111D01*
X34176Y146112D01*
X34177Y146113D01*
X34174Y146117D01*
X34178Y146120D01*
X34299Y147295D01*
X34295Y147302D01*
X34299Y147306D01*
X34142Y148646D01*
X34137Y148652D01*
X34140Y148657D01*
X33689Y149928D01*
X33682Y149933D01*
X33684Y149938D01*
X32962Y151077D01*
X32954Y151080D01*
X32955Y151086D01*
X31997Y152036D01*
X31989Y152037D01*
X31988Y152043D01*
X30843Y152756D01*
X30835Y152755D01*
X30833Y152761D01*
X29557Y153201D01*
X29550Y153199D01*
X29547Y153203D01*
X28205Y153349D01*
X28202Y153347D01*
X28200Y153349D01*
X22200Y153349D01*
X22197Y153347D01*
X22194Y153349D01*
X20865Y153194D01*
X20859Y153188D01*
X20855Y153191D01*
X19594Y152744D01*
X19589Y152737D01*
X19584Y152739D01*
X18454Y152022D01*
X18451Y152015D01*
X18445Y152016D01*
X17503Y151066D01*
X17502Y151057D01*
X17496Y151057D01*
X16789Y149921D01*
X16790Y149913D01*
X16784Y149911D01*
X16348Y148646D01*
X16350Y148638D01*
X16345Y148636D01*
X16201Y147305D01*
X16205Y147299D01*
X16201Y147295D01*
X16311Y146129D01*
X16316Y146124D01*
X16313Y146120D01*
X16648Y144997D01*
X16654Y144993D01*
X16652Y144989D01*
X17200Y143953D01*
X17206Y143950D01*
X17205Y143945D01*
X17944Y143037D01*
X17951Y143035D01*
X17951Y143030D01*
X18853Y142283D01*
X18861Y142283D01*
X18861Y142278D01*
X19892Y141721D01*
X19899Y141722D01*
X19901Y141717D01*
X21020Y141373D01*
X21027Y141375D01*
X21030Y141371D01*
X22195Y141251D01*
X22198Y141253D01*
X22200Y141251D01*
X28200Y141251D01*
X28203Y141253D01*
G37*
G36*
X141670Y221373D02*
X141670Y221373D01*
X141736Y221375D01*
X141779Y221393D01*
X141826Y221401D01*
X141883Y221435D01*
X141943Y221460D01*
X141978Y221491D01*
X142019Y221516D01*
X142061Y221567D01*
X142109Y221611D01*
X142131Y221653D01*
X142160Y221690D01*
X142181Y221752D01*
X142212Y221811D01*
X142220Y221865D01*
X142232Y221902D01*
X142231Y221942D01*
X142239Y221996D01*
X142239Y235204D01*
X142228Y235269D01*
X142226Y235335D01*
X142208Y235378D01*
X142200Y235425D01*
X142166Y235482D01*
X142141Y235542D01*
X142110Y235577D01*
X142085Y235618D01*
X142034Y235660D01*
X141990Y235708D01*
X141948Y235730D01*
X141911Y235759D01*
X141849Y235780D01*
X141790Y235811D01*
X141736Y235819D01*
X141699Y235831D01*
X141659Y235830D01*
X141605Y235838D01*
X137795Y235838D01*
X137730Y235827D01*
X137664Y235825D01*
X137621Y235807D01*
X137574Y235799D01*
X137517Y235765D01*
X137457Y235740D01*
X137422Y235709D01*
X137381Y235684D01*
X137340Y235633D01*
X137291Y235589D01*
X137269Y235547D01*
X137240Y235510D01*
X137219Y235448D01*
X137188Y235389D01*
X137180Y235335D01*
X137168Y235298D01*
X137169Y235258D01*
X137161Y235204D01*
X137161Y221996D01*
X137172Y221931D01*
X137174Y221865D01*
X137192Y221822D01*
X137200Y221775D01*
X137234Y221718D01*
X137259Y221658D01*
X137290Y221623D01*
X137315Y221582D01*
X137366Y221541D01*
X137410Y221492D01*
X137452Y221470D01*
X137489Y221441D01*
X137551Y221420D01*
X137610Y221389D01*
X137664Y221381D01*
X137701Y221369D01*
X137741Y221370D01*
X137795Y221362D01*
X141605Y221362D01*
X141670Y221373D01*
G37*
G36*
X395035Y91452D02*
X395035Y91452D01*
X395101Y91454D01*
X395144Y91472D01*
X395191Y91480D01*
X395248Y91514D01*
X395308Y91539D01*
X395343Y91570D01*
X395384Y91595D01*
X395426Y91646D01*
X395474Y91690D01*
X395496Y91732D01*
X395525Y91769D01*
X395546Y91831D01*
X395577Y91890D01*
X395585Y91944D01*
X395597Y91981D01*
X395596Y92021D01*
X395604Y92075D01*
X395604Y95885D01*
X395593Y95950D01*
X395591Y96016D01*
X395573Y96059D01*
X395565Y96106D01*
X395531Y96163D01*
X395506Y96223D01*
X395475Y96258D01*
X395450Y96299D01*
X395399Y96341D01*
X395355Y96389D01*
X395313Y96411D01*
X395276Y96440D01*
X395214Y96461D01*
X395155Y96492D01*
X395101Y96500D01*
X395064Y96512D01*
X395024Y96511D01*
X394970Y96519D01*
X392430Y96519D01*
X392365Y96508D01*
X392299Y96506D01*
X392256Y96488D01*
X392209Y96480D01*
X392152Y96446D01*
X392092Y96421D01*
X392057Y96390D01*
X392016Y96365D01*
X391975Y96314D01*
X391926Y96270D01*
X391904Y96228D01*
X391875Y96191D01*
X391854Y96129D01*
X391823Y96070D01*
X391815Y96016D01*
X391803Y95979D01*
X391803Y95975D01*
X391803Y95974D01*
X391804Y95939D01*
X391796Y95885D01*
X391796Y92075D01*
X391807Y92010D01*
X391809Y91944D01*
X391827Y91901D01*
X391835Y91854D01*
X391869Y91797D01*
X391894Y91737D01*
X391925Y91702D01*
X391950Y91661D01*
X392001Y91620D01*
X392045Y91571D01*
X392087Y91549D01*
X392124Y91520D01*
X392186Y91499D01*
X392245Y91468D01*
X392299Y91460D01*
X392336Y91448D01*
X392376Y91449D01*
X392430Y91441D01*
X394970Y91441D01*
X395035Y91452D01*
G37*
G36*
X395035Y81292D02*
X395035Y81292D01*
X395101Y81294D01*
X395144Y81312D01*
X395191Y81320D01*
X395248Y81354D01*
X395308Y81379D01*
X395343Y81410D01*
X395384Y81435D01*
X395426Y81486D01*
X395474Y81530D01*
X395496Y81572D01*
X395525Y81609D01*
X395546Y81671D01*
X395577Y81730D01*
X395585Y81784D01*
X395597Y81821D01*
X395596Y81861D01*
X395604Y81915D01*
X395604Y85725D01*
X395593Y85790D01*
X395591Y85856D01*
X395573Y85899D01*
X395565Y85946D01*
X395531Y86003D01*
X395506Y86063D01*
X395475Y86098D01*
X395450Y86139D01*
X395399Y86181D01*
X395355Y86229D01*
X395313Y86251D01*
X395276Y86280D01*
X395214Y86301D01*
X395155Y86332D01*
X395101Y86340D01*
X395064Y86352D01*
X395024Y86351D01*
X394970Y86359D01*
X392430Y86359D01*
X392365Y86348D01*
X392299Y86346D01*
X392256Y86328D01*
X392209Y86320D01*
X392152Y86286D01*
X392092Y86261D01*
X392057Y86230D01*
X392016Y86205D01*
X391975Y86154D01*
X391926Y86110D01*
X391904Y86068D01*
X391875Y86031D01*
X391854Y85969D01*
X391823Y85910D01*
X391815Y85856D01*
X391803Y85819D01*
X391803Y85815D01*
X391803Y85814D01*
X391804Y85779D01*
X391796Y85725D01*
X391796Y81915D01*
X391807Y81850D01*
X391809Y81784D01*
X391827Y81741D01*
X391835Y81694D01*
X391869Y81637D01*
X391894Y81577D01*
X391925Y81542D01*
X391950Y81501D01*
X392001Y81460D01*
X392045Y81411D01*
X392087Y81389D01*
X392124Y81360D01*
X392186Y81339D01*
X392245Y81308D01*
X392299Y81300D01*
X392336Y81288D01*
X392376Y81289D01*
X392430Y81281D01*
X394970Y81281D01*
X395035Y81292D01*
G37*
D10*
X482600Y266700D03*
X25400Y12700D03*
D11*
X181305Y182295D02*
X191295Y182295D01*
X191295Y173305D01*
X181305Y173305D01*
X181305Y182295D01*
X181305Y175713D02*
X191295Y175713D01*
X191295Y178121D02*
X181305Y178121D01*
X181305Y180529D02*
X191295Y180529D01*
X174295Y182295D02*
X164305Y182295D01*
X174295Y182295D02*
X174295Y173305D01*
X164305Y173305D01*
X164305Y182295D01*
X164305Y175713D02*
X174295Y175713D01*
X174295Y178121D02*
X164305Y178121D01*
X164305Y180529D02*
X174295Y180529D01*
X174295Y147905D02*
X164305Y147905D01*
X164305Y156895D01*
X174295Y156895D01*
X174295Y147905D01*
X174295Y150313D02*
X164305Y150313D01*
X164305Y152721D02*
X174295Y152721D01*
X174295Y155129D02*
X164305Y155129D01*
X181305Y147905D02*
X191295Y147905D01*
X181305Y147905D02*
X181305Y156895D01*
X191295Y156895D01*
X191295Y147905D01*
X191295Y150313D02*
X181305Y150313D01*
X181305Y152721D02*
X191295Y152721D01*
X191295Y155129D02*
X181305Y155129D01*
D12*
X185052Y234399D02*
X189548Y234399D01*
X189548Y223403D01*
X185052Y223403D01*
X185052Y234399D01*
X185052Y225806D02*
X189548Y225806D01*
X189548Y228209D02*
X185052Y228209D01*
X185052Y230612D02*
X189548Y230612D01*
X189548Y233015D02*
X185052Y233015D01*
X180048Y234399D02*
X175552Y234399D01*
X180048Y234399D02*
X180048Y223403D01*
X175552Y223403D01*
X175552Y234399D01*
X175552Y225806D02*
X180048Y225806D01*
X180048Y228209D02*
X175552Y228209D01*
X175552Y230612D02*
X180048Y230612D01*
X180048Y233015D02*
X175552Y233015D01*
X170548Y234399D02*
X166052Y234399D01*
X170548Y234399D02*
X170548Y223403D01*
X166052Y223403D01*
X166052Y234399D01*
X166052Y225806D02*
X170548Y225806D01*
X170548Y228209D02*
X166052Y228209D01*
X166052Y230612D02*
X170548Y230612D01*
X170548Y233015D02*
X166052Y233015D01*
X166052Y208397D02*
X170548Y208397D01*
X170548Y197401D01*
X166052Y197401D01*
X166052Y208397D01*
X166052Y199804D02*
X170548Y199804D01*
X170548Y202207D02*
X166052Y202207D01*
X166052Y204610D02*
X170548Y204610D01*
X170548Y207013D02*
X166052Y207013D01*
X185052Y208397D02*
X189548Y208397D01*
X189548Y197401D01*
X185052Y197401D01*
X185052Y208397D01*
X185052Y199804D02*
X189548Y199804D01*
X189548Y202207D02*
X185052Y202207D01*
X185052Y204610D02*
X189548Y204610D01*
X189548Y207013D02*
X185052Y207013D01*
D11*
X131495Y47295D02*
X131495Y37305D01*
X122505Y37305D01*
X122505Y47295D01*
X131495Y47295D01*
X131495Y39713D02*
X122505Y39713D01*
X122505Y42121D02*
X131495Y42121D01*
X131495Y44529D02*
X122505Y44529D01*
X122505Y46937D02*
X131495Y46937D01*
X131495Y54305D02*
X131495Y64295D01*
X131495Y54305D02*
X122505Y54305D01*
X122505Y64295D01*
X131495Y64295D01*
X131495Y56713D02*
X122505Y56713D01*
X122505Y59121D02*
X131495Y59121D01*
X131495Y61529D02*
X122505Y61529D01*
X122505Y63937D02*
X131495Y63937D01*
X211405Y219405D02*
X211405Y229395D01*
X220395Y229395D01*
X220395Y219405D01*
X211405Y219405D01*
X211405Y221813D02*
X220395Y221813D01*
X220395Y224221D02*
X211405Y224221D01*
X211405Y226629D02*
X220395Y226629D01*
X220395Y229037D02*
X211405Y229037D01*
X211405Y212395D02*
X211405Y202405D01*
X211405Y212395D02*
X220395Y212395D01*
X220395Y202405D01*
X211405Y202405D01*
X211405Y204813D02*
X220395Y204813D01*
X220395Y207221D02*
X211405Y207221D01*
X211405Y209629D02*
X220395Y209629D01*
X220395Y212037D02*
X211405Y212037D01*
X296595Y212395D02*
X296595Y202405D01*
X287605Y202405D01*
X287605Y212395D01*
X296595Y212395D01*
X296595Y204813D02*
X287605Y204813D01*
X287605Y207221D02*
X296595Y207221D01*
X296595Y209629D02*
X287605Y209629D01*
X287605Y212037D02*
X296595Y212037D01*
X296595Y219405D02*
X296595Y229395D01*
X296595Y219405D02*
X287605Y219405D01*
X287605Y229395D01*
X296595Y229395D01*
X296595Y221813D02*
X287605Y221813D01*
X287605Y224221D02*
X296595Y224221D01*
X296595Y226629D02*
X287605Y226629D01*
X287605Y229037D02*
X296595Y229037D01*
X245795Y212395D02*
X245795Y202405D01*
X236805Y202405D01*
X236805Y212395D01*
X245795Y212395D01*
X245795Y204813D02*
X236805Y204813D01*
X236805Y207221D02*
X245795Y207221D01*
X245795Y209629D02*
X236805Y209629D01*
X236805Y212037D02*
X245795Y212037D01*
X245795Y219405D02*
X245795Y229395D01*
X245795Y219405D02*
X236805Y219405D01*
X236805Y229395D01*
X245795Y229395D01*
X245795Y221813D02*
X236805Y221813D01*
X236805Y224221D02*
X245795Y224221D01*
X245795Y226629D02*
X236805Y226629D01*
X236805Y229037D02*
X245795Y229037D01*
X131495Y240505D02*
X131495Y250495D01*
X131495Y240505D02*
X122505Y240505D01*
X122505Y250495D01*
X131495Y250495D01*
X131495Y242913D02*
X122505Y242913D01*
X122505Y245321D02*
X131495Y245321D01*
X131495Y247729D02*
X122505Y247729D01*
X122505Y250137D02*
X131495Y250137D01*
X131495Y257505D02*
X131495Y267495D01*
X131495Y257505D02*
X122505Y257505D01*
X122505Y267495D01*
X131495Y267495D01*
X131495Y259913D02*
X122505Y259913D01*
X122505Y262321D02*
X131495Y262321D01*
X131495Y264729D02*
X122505Y264729D01*
X122505Y267137D02*
X131495Y267137D01*
X106095Y250495D02*
X106095Y240505D01*
X97105Y240505D01*
X97105Y250495D01*
X106095Y250495D01*
X106095Y242913D02*
X97105Y242913D01*
X97105Y245321D02*
X106095Y245321D01*
X106095Y247729D02*
X97105Y247729D01*
X97105Y250137D02*
X106095Y250137D01*
X106095Y257505D02*
X106095Y267495D01*
X106095Y257505D02*
X97105Y257505D01*
X97105Y267495D01*
X106095Y267495D01*
X106095Y259913D02*
X97105Y259913D01*
X97105Y262321D02*
X106095Y262321D01*
X106095Y264729D02*
X97105Y264729D01*
X97105Y267137D02*
X106095Y267137D01*
D13*
X172580Y261520D02*
X172580Y246480D01*
X172580Y261520D02*
X185620Y261520D01*
X185620Y246480D01*
X172580Y246480D01*
X172580Y248840D02*
X185620Y248840D01*
X185620Y251200D02*
X172580Y251200D01*
X172580Y253560D02*
X185620Y253560D01*
X185620Y255920D02*
X172580Y255920D01*
X172580Y258280D02*
X185620Y258280D01*
X185620Y260640D02*
X172580Y260640D01*
X144580Y261520D02*
X144580Y246480D01*
X144580Y261520D02*
X157620Y261520D01*
X157620Y246480D01*
X144580Y246480D01*
X144580Y248840D02*
X157620Y248840D01*
X157620Y251200D02*
X144580Y251200D01*
X144580Y253560D02*
X157620Y253560D01*
X157620Y255920D02*
X144580Y255920D01*
X144580Y258280D02*
X157620Y258280D01*
X157620Y260640D02*
X144580Y260640D01*
D14*
X137297Y222748D02*
X131943Y222748D01*
X131943Y234452D01*
X137297Y234452D01*
X137297Y222748D01*
X137297Y225142D02*
X131943Y225142D01*
X131943Y227536D02*
X137297Y227536D01*
X137297Y229930D02*
X131943Y229930D01*
X131943Y232324D02*
X137297Y232324D01*
X142103Y222748D02*
X147457Y222748D01*
X142103Y222748D02*
X142103Y234452D01*
X147457Y234452D01*
X147457Y222748D01*
X147457Y225142D02*
X142103Y225142D01*
X142103Y227536D02*
X147457Y227536D01*
X147457Y229930D02*
X142103Y229930D01*
X142103Y232324D02*
X147457Y232324D01*
D15*
X127000Y228600D03*
X152400Y228600D03*
D16*
X151745Y166845D02*
X127655Y166845D01*
X151745Y166845D02*
X151745Y155755D01*
X127655Y155755D01*
X127655Y166845D01*
X127655Y158067D02*
X151745Y158067D01*
X151745Y160379D02*
X127655Y160379D01*
X127655Y162691D02*
X151745Y162691D01*
X151745Y165003D02*
X127655Y165003D01*
X127655Y199845D02*
X151745Y199845D01*
X151745Y188755D01*
X127655Y188755D01*
X127655Y199845D01*
X127655Y191067D02*
X151745Y191067D01*
X151745Y193379D02*
X127655Y193379D01*
X127655Y195691D02*
X151745Y195691D01*
X151745Y198003D02*
X127655Y198003D01*
D11*
X316705Y198705D02*
X326695Y198705D01*
X316705Y198705D02*
X316705Y207695D01*
X326695Y207695D01*
X326695Y198705D01*
X326695Y201113D02*
X316705Y201113D01*
X316705Y203521D02*
X326695Y203521D01*
X326695Y205929D02*
X316705Y205929D01*
X333705Y198705D02*
X343695Y198705D01*
X333705Y198705D02*
X333705Y207695D01*
X343695Y207695D01*
X343695Y198705D01*
X343695Y201113D02*
X333705Y201113D01*
X333705Y203521D02*
X343695Y203521D01*
X343695Y205929D02*
X333705Y205929D01*
X333705Y233095D02*
X343695Y233095D01*
X343695Y224105D01*
X333705Y224105D01*
X333705Y233095D01*
X333705Y226513D02*
X343695Y226513D01*
X343695Y228921D02*
X333705Y228921D01*
X333705Y231329D02*
X343695Y231329D01*
X326695Y233095D02*
X316705Y233095D01*
X326695Y233095D02*
X326695Y224105D01*
X316705Y224105D01*
X316705Y233095D01*
X316705Y226513D02*
X326695Y226513D01*
X326695Y228921D02*
X316705Y228921D01*
X316705Y231329D02*
X326695Y231329D01*
D17*
X79715Y56055D02*
X72685Y56055D01*
X72685Y63085D01*
X79715Y63085D01*
X79715Y56055D01*
X79715Y60324D02*
X72685Y60324D01*
X72685Y38515D02*
X79715Y38515D01*
X72685Y38515D02*
X72685Y45545D01*
X79715Y45545D01*
X79715Y38515D01*
X79715Y42784D02*
X72685Y42784D01*
D11*
X106095Y47295D02*
X106095Y37305D01*
X97105Y37305D01*
X97105Y47295D01*
X106095Y47295D01*
X106095Y39713D02*
X97105Y39713D01*
X97105Y42121D02*
X106095Y42121D01*
X106095Y44529D02*
X97105Y44529D01*
X97105Y46937D02*
X106095Y46937D01*
X106095Y54305D02*
X106095Y64295D01*
X106095Y54305D02*
X97105Y54305D01*
X97105Y64295D01*
X106095Y64295D01*
X106095Y56713D02*
X97105Y56713D01*
X97105Y59121D02*
X106095Y59121D01*
X106095Y61529D02*
X97105Y61529D01*
X97105Y63937D02*
X106095Y63937D01*
X97105Y105105D02*
X97105Y115095D01*
X106095Y115095D01*
X106095Y105105D01*
X97105Y105105D01*
X97105Y107513D02*
X106095Y107513D01*
X106095Y109921D02*
X97105Y109921D01*
X97105Y112329D02*
X106095Y112329D01*
X106095Y114737D02*
X97105Y114737D01*
X97105Y98095D02*
X97105Y88105D01*
X97105Y98095D02*
X106095Y98095D01*
X106095Y88105D01*
X97105Y88105D01*
X97105Y90513D02*
X106095Y90513D01*
X106095Y92921D02*
X97105Y92921D01*
X97105Y95329D02*
X106095Y95329D01*
X106095Y97737D02*
X97105Y97737D01*
D17*
X79715Y96345D02*
X72685Y96345D01*
X79715Y96345D02*
X79715Y89315D01*
X72685Y89315D01*
X72685Y96345D01*
X72685Y93584D02*
X79715Y93584D01*
X79715Y113885D02*
X72685Y113885D01*
X79715Y113885D02*
X79715Y106855D01*
X72685Y106855D01*
X72685Y113885D01*
X72685Y111124D02*
X79715Y111124D01*
D18*
X69454Y182004D02*
X69454Y183996D01*
X82946Y183996D01*
X82946Y182004D01*
X69454Y182004D01*
X69454Y187004D02*
X69454Y188996D01*
X82946Y188996D01*
X82946Y187004D01*
X69454Y187004D01*
D19*
X69467Y160733D02*
X69467Y155767D01*
X69467Y160733D02*
X82933Y160733D01*
X82933Y155767D01*
X69467Y155767D01*
X69467Y158197D02*
X82933Y158197D01*
X82933Y160627D02*
X69467Y160627D01*
D12*
X69452Y163752D02*
X69452Y168248D01*
X82948Y168248D01*
X82948Y163752D01*
X69452Y163752D01*
X69452Y166155D02*
X82948Y166155D01*
D18*
X69454Y172004D02*
X69454Y173996D01*
X82946Y173996D01*
X82946Y172004D01*
X69454Y172004D01*
X69454Y177004D02*
X69454Y178996D01*
X82946Y178996D01*
X82946Y177004D01*
X69454Y177004D01*
X82946Y197004D02*
X82946Y198996D01*
X82946Y197004D02*
X69454Y197004D01*
X69454Y198996D01*
X82946Y198996D01*
X82946Y193996D02*
X82946Y192004D01*
X69454Y192004D01*
X69454Y193996D01*
X82946Y193996D01*
D19*
X82933Y220267D02*
X82933Y225233D01*
X82933Y220267D02*
X69467Y220267D01*
X69467Y225233D01*
X82933Y225233D01*
X82933Y222697D02*
X69467Y222697D01*
X69467Y225127D02*
X82933Y225127D01*
D12*
X82948Y217248D02*
X82948Y212752D01*
X69452Y212752D01*
X69452Y217248D01*
X82948Y217248D01*
X82948Y215155D02*
X69452Y215155D01*
D18*
X82946Y208996D02*
X82946Y207004D01*
X69454Y207004D01*
X69454Y208996D01*
X82946Y208996D01*
X82946Y203996D02*
X82946Y202004D01*
X69454Y202004D01*
X69454Y203996D01*
X82946Y203996D01*
D20*
X61750Y219400D03*
X61750Y161600D03*
D11*
X106095Y161595D02*
X106095Y151605D01*
X97105Y151605D01*
X97105Y161595D01*
X106095Y161595D01*
X106095Y154013D02*
X97105Y154013D01*
X97105Y156421D02*
X106095Y156421D01*
X106095Y158829D02*
X97105Y158829D01*
X97105Y161237D02*
X106095Y161237D01*
X106095Y168605D02*
X106095Y178595D01*
X106095Y168605D02*
X97105Y168605D01*
X97105Y178595D01*
X106095Y178595D01*
X106095Y171013D02*
X97105Y171013D01*
X97105Y173421D02*
X106095Y173421D01*
X106095Y175829D02*
X97105Y175829D01*
X97105Y178237D02*
X106095Y178237D01*
X97105Y219405D02*
X97105Y229395D01*
X106095Y229395D01*
X106095Y219405D01*
X97105Y219405D01*
X97105Y221813D02*
X106095Y221813D01*
X106095Y224221D02*
X97105Y224221D01*
X97105Y226629D02*
X106095Y226629D01*
X106095Y229037D02*
X97105Y229037D01*
X97105Y212395D02*
X97105Y202405D01*
X97105Y212395D02*
X106095Y212395D01*
X106095Y202405D01*
X97105Y202405D01*
X97105Y204813D02*
X106095Y204813D01*
X106095Y207221D02*
X97105Y207221D01*
X97105Y209629D02*
X106095Y209629D01*
X106095Y212037D02*
X97105Y212037D01*
D14*
X44948Y255387D02*
X44948Y260741D01*
X56652Y260741D01*
X56652Y255387D01*
X44948Y255387D01*
X44948Y257781D02*
X56652Y257781D01*
X56652Y260175D02*
X44948Y260175D01*
X44948Y252613D02*
X44948Y247259D01*
X44948Y252613D02*
X56652Y252613D01*
X56652Y247259D01*
X44948Y247259D01*
X44948Y249653D02*
X56652Y249653D01*
X56652Y252047D02*
X44948Y252047D01*
D21*
X490610Y191090D02*
X490610Y177210D01*
X451730Y177210D01*
X451730Y191090D01*
X490610Y191090D01*
X490610Y179722D02*
X451730Y179722D01*
X451730Y182234D02*
X490610Y182234D01*
X490610Y184746D02*
X451730Y184746D01*
X451730Y187258D02*
X490610Y187258D01*
X490610Y189770D02*
X451730Y189770D01*
X490610Y228010D02*
X490610Y241890D01*
X490610Y228010D02*
X451730Y228010D01*
X451730Y241890D01*
X490610Y241890D01*
X490610Y230522D02*
X451730Y230522D01*
X451730Y233034D02*
X490610Y233034D01*
X490610Y235546D02*
X451730Y235546D01*
X451730Y238058D02*
X490610Y238058D01*
X490610Y240570D02*
X451730Y240570D01*
D19*
X53683Y109933D02*
X53683Y104967D01*
X37717Y104967D01*
X37717Y109933D01*
X53683Y109933D01*
X53683Y107397D02*
X37717Y107397D01*
X37717Y109827D02*
X53683Y109827D01*
D11*
X26695Y30945D02*
X705Y30945D01*
X26695Y30945D02*
X26695Y21955D01*
X705Y21955D01*
X705Y30945D01*
X705Y24363D02*
X26695Y24363D01*
X26695Y26771D02*
X705Y26771D01*
X705Y29179D02*
X26695Y29179D01*
X26695Y130445D02*
X705Y130445D01*
X26695Y130445D02*
X26695Y121455D01*
X705Y121455D01*
X705Y130445D01*
X705Y123863D02*
X26695Y123863D01*
X26695Y126271D02*
X705Y126271D01*
X705Y128679D02*
X26695Y128679D01*
D19*
X53683Y97433D02*
X53683Y92467D01*
X37717Y92467D01*
X37717Y97433D01*
X53683Y97433D01*
X53683Y94897D02*
X37717Y94897D01*
X37717Y97327D02*
X53683Y97327D01*
X53683Y84933D02*
X53683Y79967D01*
X37717Y79967D01*
X37717Y84933D01*
X53683Y84933D01*
X53683Y82397D02*
X37717Y82397D01*
X37717Y84827D02*
X53683Y84827D01*
X53683Y72433D02*
X53683Y67467D01*
X37717Y67467D01*
X37717Y72433D01*
X53683Y72433D01*
X53683Y69897D02*
X37717Y69897D01*
X37717Y72327D02*
X53683Y72327D01*
X53683Y59933D02*
X53683Y54967D01*
X37717Y54967D01*
X37717Y59933D01*
X53683Y59933D01*
X53683Y57397D02*
X37717Y57397D01*
X37717Y59827D02*
X53683Y59827D01*
X53683Y47433D02*
X53683Y42467D01*
X37717Y42467D01*
X37717Y47433D01*
X53683Y47433D01*
X53683Y44897D02*
X37717Y44897D01*
X37717Y47327D02*
X53683Y47327D01*
D22*
X70723Y259523D02*
X70723Y266477D01*
X81677Y266477D01*
X81677Y259523D01*
X70723Y259523D01*
X70723Y261965D02*
X81677Y261965D01*
X81677Y264407D02*
X70723Y264407D01*
X70723Y248477D02*
X70723Y241523D01*
X70723Y248477D02*
X81677Y248477D01*
X81677Y241523D01*
X70723Y241523D01*
X70723Y243965D02*
X81677Y243965D01*
X81677Y246407D02*
X70723Y246407D01*
D17*
X301285Y45545D02*
X308315Y45545D01*
X308315Y38515D01*
X301285Y38515D01*
X301285Y45545D01*
X301285Y42784D02*
X308315Y42784D01*
X308315Y63085D02*
X301285Y63085D01*
X308315Y63085D02*
X308315Y56055D01*
X301285Y56055D01*
X301285Y63085D01*
X301285Y60324D02*
X308315Y60324D01*
X352085Y45545D02*
X359115Y45545D01*
X359115Y38515D01*
X352085Y38515D01*
X352085Y45545D01*
X352085Y42784D02*
X359115Y42784D01*
X359115Y63085D02*
X352085Y63085D01*
X359115Y63085D02*
X359115Y56055D01*
X352085Y56055D01*
X352085Y63085D01*
X352085Y60324D02*
X359115Y60324D01*
D11*
X376505Y64295D02*
X376505Y54305D01*
X376505Y64295D02*
X385495Y64295D01*
X385495Y54305D01*
X376505Y54305D01*
X376505Y56713D02*
X385495Y56713D01*
X385495Y59121D02*
X376505Y59121D01*
X376505Y61529D02*
X385495Y61529D01*
X385495Y63937D02*
X376505Y63937D01*
X376505Y47295D02*
X376505Y37305D01*
X376505Y47295D02*
X385495Y47295D01*
X385495Y37305D01*
X376505Y37305D01*
X376505Y39713D02*
X385495Y39713D01*
X385495Y42121D02*
X376505Y42121D01*
X376505Y44529D02*
X385495Y44529D01*
X385495Y46937D02*
X376505Y46937D01*
X325705Y54305D02*
X325705Y64295D01*
X334695Y64295D01*
X334695Y54305D01*
X325705Y54305D01*
X325705Y56713D02*
X334695Y56713D01*
X334695Y59121D02*
X325705Y59121D01*
X325705Y61529D02*
X334695Y61529D01*
X334695Y63937D02*
X325705Y63937D01*
X325705Y47295D02*
X325705Y37305D01*
X325705Y47295D02*
X334695Y47295D01*
X334695Y37305D01*
X325705Y37305D01*
X325705Y39713D02*
X334695Y39713D01*
X334695Y42121D02*
X325705Y42121D01*
X325705Y44529D02*
X334695Y44529D01*
X334695Y46937D02*
X325705Y46937D01*
X321705Y135005D02*
X321705Y143995D01*
X338695Y143995D01*
X338695Y135005D01*
X321705Y135005D01*
X321705Y137413D02*
X338695Y137413D01*
X338695Y139821D02*
X321705Y139821D01*
X321705Y142229D02*
X338695Y142229D01*
X321705Y118995D02*
X321705Y110005D01*
X321705Y118995D02*
X338695Y118995D01*
X338695Y110005D01*
X321705Y110005D01*
X321705Y112413D02*
X338695Y112413D01*
X338695Y114821D02*
X321705Y114821D01*
X321705Y117229D02*
X338695Y117229D01*
D23*
X303487Y111313D02*
X289513Y111313D01*
X289513Y113087D01*
X303487Y113087D01*
X303487Y111313D01*
X303487Y116313D02*
X289513Y116313D01*
X289513Y118087D01*
X303487Y118087D01*
X303487Y116313D01*
X303487Y121313D02*
X289513Y121313D01*
X289513Y123087D01*
X303487Y123087D01*
X303487Y121313D01*
X303487Y126313D02*
X289513Y126313D01*
X289513Y128087D01*
X303487Y128087D01*
X303487Y126313D01*
X303487Y131313D02*
X289513Y131313D01*
X289513Y133087D01*
X303487Y133087D01*
X303487Y131313D01*
X303487Y136313D02*
X289513Y136313D01*
X289513Y138087D01*
X303487Y138087D01*
X303487Y136313D01*
X303487Y141313D02*
X289513Y141313D01*
X289513Y143087D01*
X303487Y143087D01*
X303487Y141313D01*
X303487Y146313D02*
X289513Y146313D01*
X289513Y148087D01*
X303487Y148087D01*
X303487Y146313D01*
X303487Y151313D02*
X289513Y151313D01*
X289513Y153087D01*
X303487Y153087D01*
X303487Y151313D01*
X303487Y156313D02*
X289513Y156313D01*
X289513Y158087D01*
X303487Y158087D01*
X303487Y156313D01*
X303487Y161313D02*
X289513Y161313D01*
X289513Y163087D01*
X303487Y163087D01*
X303487Y161313D01*
X303487Y166313D02*
X289513Y166313D01*
X289513Y168087D01*
X303487Y168087D01*
X303487Y166313D01*
X282387Y175213D02*
X282387Y189187D01*
X282387Y175213D02*
X280613Y175213D01*
X280613Y189187D01*
X282387Y189187D01*
X282387Y177636D02*
X280613Y177636D01*
X280613Y180059D02*
X282387Y180059D01*
X282387Y182482D02*
X280613Y182482D01*
X280613Y184905D02*
X282387Y184905D01*
X282387Y187328D02*
X280613Y187328D01*
X277387Y189187D02*
X277387Y175213D01*
X275613Y175213D01*
X275613Y189187D01*
X277387Y189187D01*
X277387Y177636D02*
X275613Y177636D01*
X275613Y180059D02*
X277387Y180059D01*
X277387Y182482D02*
X275613Y182482D01*
X275613Y184905D02*
X277387Y184905D01*
X277387Y187328D02*
X275613Y187328D01*
X272387Y189187D02*
X272387Y175213D01*
X270613Y175213D01*
X270613Y189187D01*
X272387Y189187D01*
X272387Y177636D02*
X270613Y177636D01*
X270613Y180059D02*
X272387Y180059D01*
X272387Y182482D02*
X270613Y182482D01*
X270613Y184905D02*
X272387Y184905D01*
X272387Y187328D02*
X270613Y187328D01*
X267387Y189187D02*
X267387Y175213D01*
X265613Y175213D01*
X265613Y189187D01*
X267387Y189187D01*
X267387Y177636D02*
X265613Y177636D01*
X265613Y180059D02*
X267387Y180059D01*
X267387Y182482D02*
X265613Y182482D01*
X265613Y184905D02*
X267387Y184905D01*
X267387Y187328D02*
X265613Y187328D01*
X262387Y189187D02*
X262387Y175213D01*
X260613Y175213D01*
X260613Y189187D01*
X262387Y189187D01*
X262387Y177636D02*
X260613Y177636D01*
X260613Y180059D02*
X262387Y180059D01*
X262387Y182482D02*
X260613Y182482D01*
X260613Y184905D02*
X262387Y184905D01*
X262387Y187328D02*
X260613Y187328D01*
X257387Y189187D02*
X257387Y175213D01*
X255613Y175213D01*
X255613Y189187D01*
X257387Y189187D01*
X257387Y177636D02*
X255613Y177636D01*
X255613Y180059D02*
X257387Y180059D01*
X257387Y182482D02*
X255613Y182482D01*
X255613Y184905D02*
X257387Y184905D01*
X257387Y187328D02*
X255613Y187328D01*
X252387Y189187D02*
X252387Y175213D01*
X250613Y175213D01*
X250613Y189187D01*
X252387Y189187D01*
X252387Y177636D02*
X250613Y177636D01*
X250613Y180059D02*
X252387Y180059D01*
X252387Y182482D02*
X250613Y182482D01*
X250613Y184905D02*
X252387Y184905D01*
X252387Y187328D02*
X250613Y187328D01*
X247387Y189187D02*
X247387Y175213D01*
X245613Y175213D01*
X245613Y189187D01*
X247387Y189187D01*
X247387Y177636D02*
X245613Y177636D01*
X245613Y180059D02*
X247387Y180059D01*
X247387Y182482D02*
X245613Y182482D01*
X245613Y184905D02*
X247387Y184905D01*
X247387Y187328D02*
X245613Y187328D01*
X242387Y189187D02*
X242387Y175213D01*
X240613Y175213D01*
X240613Y189187D01*
X242387Y189187D01*
X242387Y177636D02*
X240613Y177636D01*
X240613Y180059D02*
X242387Y180059D01*
X242387Y182482D02*
X240613Y182482D01*
X240613Y184905D02*
X242387Y184905D01*
X242387Y187328D02*
X240613Y187328D01*
X237387Y189187D02*
X237387Y175213D01*
X235613Y175213D01*
X235613Y189187D01*
X237387Y189187D01*
X237387Y177636D02*
X235613Y177636D01*
X235613Y180059D02*
X237387Y180059D01*
X237387Y182482D02*
X235613Y182482D01*
X235613Y184905D02*
X237387Y184905D01*
X237387Y187328D02*
X235613Y187328D01*
X232387Y189187D02*
X232387Y175213D01*
X230613Y175213D01*
X230613Y189187D01*
X232387Y189187D01*
X232387Y177636D02*
X230613Y177636D01*
X230613Y180059D02*
X232387Y180059D01*
X232387Y182482D02*
X230613Y182482D01*
X230613Y184905D02*
X232387Y184905D01*
X232387Y187328D02*
X230613Y187328D01*
X227387Y189187D02*
X227387Y175213D01*
X225613Y175213D01*
X225613Y189187D01*
X227387Y189187D01*
X227387Y177636D02*
X225613Y177636D01*
X225613Y180059D02*
X227387Y180059D01*
X227387Y182482D02*
X225613Y182482D01*
X225613Y184905D02*
X227387Y184905D01*
X227387Y187328D02*
X225613Y187328D01*
X218487Y168087D02*
X204513Y168087D01*
X218487Y168087D02*
X218487Y166313D01*
X204513Y166313D01*
X204513Y168087D01*
X204513Y163087D02*
X218487Y163087D01*
X218487Y161313D01*
X204513Y161313D01*
X204513Y163087D01*
X204513Y158087D02*
X218487Y158087D01*
X218487Y156313D01*
X204513Y156313D01*
X204513Y158087D01*
X204513Y153087D02*
X218487Y153087D01*
X218487Y151313D01*
X204513Y151313D01*
X204513Y153087D01*
X204513Y148087D02*
X218487Y148087D01*
X218487Y146313D01*
X204513Y146313D01*
X204513Y148087D01*
X204513Y143087D02*
X218487Y143087D01*
X218487Y141313D01*
X204513Y141313D01*
X204513Y143087D01*
X204513Y138087D02*
X218487Y138087D01*
X218487Y136313D01*
X204513Y136313D01*
X204513Y138087D01*
X204513Y133087D02*
X218487Y133087D01*
X218487Y131313D01*
X204513Y131313D01*
X204513Y133087D01*
X204513Y128087D02*
X218487Y128087D01*
X218487Y126313D01*
X204513Y126313D01*
X204513Y128087D01*
X204513Y123087D02*
X218487Y123087D01*
X218487Y121313D01*
X204513Y121313D01*
X204513Y123087D01*
X204513Y118087D02*
X218487Y118087D01*
X218487Y116313D01*
X204513Y116313D01*
X204513Y118087D01*
X204513Y113087D02*
X218487Y113087D01*
X218487Y111313D01*
X204513Y111313D01*
X204513Y113087D01*
X225613Y104187D02*
X225613Y90213D01*
X225613Y104187D02*
X227387Y104187D01*
X227387Y90213D01*
X225613Y90213D01*
X225613Y92636D02*
X227387Y92636D01*
X227387Y95059D02*
X225613Y95059D01*
X225613Y97482D02*
X227387Y97482D01*
X227387Y99905D02*
X225613Y99905D01*
X225613Y102328D02*
X227387Y102328D01*
X230613Y104187D02*
X230613Y90213D01*
X230613Y104187D02*
X232387Y104187D01*
X232387Y90213D01*
X230613Y90213D01*
X230613Y92636D02*
X232387Y92636D01*
X232387Y95059D02*
X230613Y95059D01*
X230613Y97482D02*
X232387Y97482D01*
X232387Y99905D02*
X230613Y99905D01*
X230613Y102328D02*
X232387Y102328D01*
X235613Y104187D02*
X235613Y90213D01*
X235613Y104187D02*
X237387Y104187D01*
X237387Y90213D01*
X235613Y90213D01*
X235613Y92636D02*
X237387Y92636D01*
X237387Y95059D02*
X235613Y95059D01*
X235613Y97482D02*
X237387Y97482D01*
X237387Y99905D02*
X235613Y99905D01*
X235613Y102328D02*
X237387Y102328D01*
X240613Y104187D02*
X240613Y90213D01*
X240613Y104187D02*
X242387Y104187D01*
X242387Y90213D01*
X240613Y90213D01*
X240613Y92636D02*
X242387Y92636D01*
X242387Y95059D02*
X240613Y95059D01*
X240613Y97482D02*
X242387Y97482D01*
X242387Y99905D02*
X240613Y99905D01*
X240613Y102328D02*
X242387Y102328D01*
X245613Y104187D02*
X245613Y90213D01*
X245613Y104187D02*
X247387Y104187D01*
X247387Y90213D01*
X245613Y90213D01*
X245613Y92636D02*
X247387Y92636D01*
X247387Y95059D02*
X245613Y95059D01*
X245613Y97482D02*
X247387Y97482D01*
X247387Y99905D02*
X245613Y99905D01*
X245613Y102328D02*
X247387Y102328D01*
X250613Y104187D02*
X250613Y90213D01*
X250613Y104187D02*
X252387Y104187D01*
X252387Y90213D01*
X250613Y90213D01*
X250613Y92636D02*
X252387Y92636D01*
X252387Y95059D02*
X250613Y95059D01*
X250613Y97482D02*
X252387Y97482D01*
X252387Y99905D02*
X250613Y99905D01*
X250613Y102328D02*
X252387Y102328D01*
X255613Y104187D02*
X255613Y90213D01*
X255613Y104187D02*
X257387Y104187D01*
X257387Y90213D01*
X255613Y90213D01*
X255613Y92636D02*
X257387Y92636D01*
X257387Y95059D02*
X255613Y95059D01*
X255613Y97482D02*
X257387Y97482D01*
X257387Y99905D02*
X255613Y99905D01*
X255613Y102328D02*
X257387Y102328D01*
X260613Y104187D02*
X260613Y90213D01*
X260613Y104187D02*
X262387Y104187D01*
X262387Y90213D01*
X260613Y90213D01*
X260613Y92636D02*
X262387Y92636D01*
X262387Y95059D02*
X260613Y95059D01*
X260613Y97482D02*
X262387Y97482D01*
X262387Y99905D02*
X260613Y99905D01*
X260613Y102328D02*
X262387Y102328D01*
X265613Y104187D02*
X265613Y90213D01*
X265613Y104187D02*
X267387Y104187D01*
X267387Y90213D01*
X265613Y90213D01*
X265613Y92636D02*
X267387Y92636D01*
X267387Y95059D02*
X265613Y95059D01*
X265613Y97482D02*
X267387Y97482D01*
X267387Y99905D02*
X265613Y99905D01*
X265613Y102328D02*
X267387Y102328D01*
X270613Y104187D02*
X270613Y90213D01*
X270613Y104187D02*
X272387Y104187D01*
X272387Y90213D01*
X270613Y90213D01*
X270613Y92636D02*
X272387Y92636D01*
X272387Y95059D02*
X270613Y95059D01*
X270613Y97482D02*
X272387Y97482D01*
X272387Y99905D02*
X270613Y99905D01*
X270613Y102328D02*
X272387Y102328D01*
X275613Y104187D02*
X275613Y90213D01*
X275613Y104187D02*
X277387Y104187D01*
X277387Y90213D01*
X275613Y90213D01*
X275613Y92636D02*
X277387Y92636D01*
X277387Y95059D02*
X275613Y95059D01*
X275613Y97482D02*
X277387Y97482D01*
X277387Y99905D02*
X275613Y99905D01*
X275613Y102328D02*
X277387Y102328D01*
X280613Y104187D02*
X280613Y90213D01*
X280613Y104187D02*
X282387Y104187D01*
X282387Y90213D01*
X280613Y90213D01*
X280613Y92636D02*
X282387Y92636D01*
X282387Y95059D02*
X280613Y95059D01*
X280613Y97482D02*
X282387Y97482D01*
X282387Y99905D02*
X280613Y99905D01*
X280613Y102328D02*
X282387Y102328D01*
D11*
X191295Y106095D02*
X181305Y106095D01*
X191295Y106095D02*
X191295Y97105D01*
X181305Y97105D01*
X181305Y106095D01*
X181305Y99513D02*
X191295Y99513D01*
X191295Y101921D02*
X181305Y101921D01*
X181305Y104329D02*
X191295Y104329D01*
X174295Y106095D02*
X164305Y106095D01*
X174295Y106095D02*
X174295Y97105D01*
X164305Y97105D01*
X164305Y106095D01*
X164305Y99513D02*
X174295Y99513D01*
X174295Y101921D02*
X164305Y101921D01*
X164305Y104329D02*
X174295Y104329D01*
X257505Y80695D02*
X267495Y80695D01*
X267495Y71705D01*
X257505Y71705D01*
X257505Y80695D01*
X257505Y74113D02*
X267495Y74113D01*
X267495Y76521D02*
X257505Y76521D01*
X257505Y78929D02*
X267495Y78929D01*
X250495Y80695D02*
X240505Y80695D01*
X250495Y80695D02*
X250495Y71705D01*
X240505Y71705D01*
X240505Y80695D01*
X240505Y74113D02*
X250495Y74113D01*
X250495Y76521D02*
X240505Y76521D01*
X240505Y78929D02*
X250495Y78929D01*
X271195Y202405D02*
X271195Y212395D01*
X271195Y202405D02*
X262205Y202405D01*
X262205Y212395D01*
X271195Y212395D01*
X271195Y204813D02*
X262205Y204813D01*
X262205Y207221D02*
X271195Y207221D01*
X271195Y209629D02*
X262205Y209629D01*
X262205Y212037D02*
X271195Y212037D01*
X271195Y219405D02*
X271195Y229395D01*
X271195Y219405D02*
X262205Y219405D01*
X262205Y229395D01*
X271195Y229395D01*
X271195Y221813D02*
X262205Y221813D01*
X262205Y224221D02*
X271195Y224221D01*
X271195Y226629D02*
X262205Y226629D01*
X262205Y229037D02*
X271195Y229037D01*
X316705Y173305D02*
X326695Y173305D01*
X316705Y173305D02*
X316705Y182295D01*
X326695Y182295D01*
X326695Y173305D01*
X326695Y175713D02*
X316705Y175713D01*
X316705Y178121D02*
X326695Y178121D01*
X326695Y180529D02*
X316705Y180529D01*
X333705Y173305D02*
X343695Y173305D01*
X333705Y173305D02*
X333705Y182295D01*
X343695Y182295D01*
X343695Y173305D01*
X343695Y175713D02*
X333705Y175713D01*
X333705Y178121D02*
X343695Y178121D01*
X343695Y180529D02*
X333705Y180529D01*
X156895Y47295D02*
X156895Y37305D01*
X147905Y37305D01*
X147905Y47295D01*
X156895Y47295D01*
X156895Y39713D02*
X147905Y39713D01*
X147905Y42121D02*
X156895Y42121D01*
X156895Y44529D02*
X147905Y44529D01*
X147905Y46937D02*
X156895Y46937D01*
X156895Y54305D02*
X156895Y64295D01*
X156895Y54305D02*
X147905Y54305D01*
X147905Y64295D01*
X156895Y64295D01*
X156895Y56713D02*
X147905Y56713D01*
X147905Y59121D02*
X156895Y59121D01*
X156895Y61529D02*
X147905Y61529D01*
X147905Y63937D02*
X156895Y63937D01*
X333705Y106095D02*
X343695Y106095D01*
X343695Y97105D01*
X333705Y97105D01*
X333705Y106095D01*
X333705Y99513D02*
X343695Y99513D01*
X343695Y101921D02*
X333705Y101921D01*
X333705Y104329D02*
X343695Y104329D01*
X326695Y106095D02*
X316705Y106095D01*
X326695Y106095D02*
X326695Y97105D01*
X316705Y97105D01*
X316705Y106095D01*
X316705Y99513D02*
X326695Y99513D01*
X326695Y101921D02*
X316705Y101921D01*
X316705Y104329D02*
X326695Y104329D01*
X326695Y147905D02*
X316705Y147905D01*
X316705Y156895D01*
X326695Y156895D01*
X326695Y147905D01*
X326695Y150313D02*
X316705Y150313D01*
X316705Y152721D02*
X326695Y152721D01*
X326695Y155129D02*
X316705Y155129D01*
X333705Y147905D02*
X343695Y147905D01*
X333705Y147905D02*
X333705Y156895D01*
X343695Y156895D01*
X343695Y147905D01*
X343695Y150313D02*
X333705Y150313D01*
X333705Y152721D02*
X343695Y152721D01*
X343695Y155129D02*
X333705Y155129D01*
D24*
X174788Y30008D02*
X168112Y30008D01*
X174788Y30008D02*
X174788Y15712D01*
X168112Y15712D01*
X168112Y30008D01*
X168112Y18058D02*
X174788Y18058D01*
X174788Y20404D02*
X168112Y20404D01*
X168112Y22750D02*
X174788Y22750D01*
X174788Y25096D02*
X168112Y25096D01*
X168112Y27442D02*
X174788Y27442D01*
X174788Y29788D02*
X168112Y29788D01*
X168112Y85888D02*
X174788Y85888D01*
X174788Y71592D01*
X168112Y71592D01*
X168112Y85888D01*
X168112Y73938D02*
X174788Y73938D01*
X174788Y76284D02*
X168112Y76284D01*
X168112Y78630D02*
X174788Y78630D01*
X174788Y80976D02*
X168112Y80976D01*
X168112Y83322D02*
X174788Y83322D01*
X174788Y85668D02*
X168112Y85668D01*
X206212Y30008D02*
X212888Y30008D01*
X212888Y15712D01*
X206212Y15712D01*
X206212Y30008D01*
X206212Y18058D02*
X212888Y18058D01*
X212888Y20404D02*
X206212Y20404D01*
X206212Y22750D02*
X212888Y22750D01*
X212888Y25096D02*
X206212Y25096D01*
X206212Y27442D02*
X212888Y27442D01*
X212888Y29788D02*
X206212Y29788D01*
X206212Y85888D02*
X212888Y85888D01*
X212888Y71592D01*
X206212Y71592D01*
X206212Y85888D01*
X206212Y73938D02*
X212888Y73938D01*
X212888Y76284D02*
X206212Y76284D01*
X206212Y78630D02*
X212888Y78630D01*
X212888Y80976D02*
X206212Y80976D01*
X206212Y83322D02*
X212888Y83322D01*
X212888Y85668D02*
X206212Y85668D01*
D16*
X506035Y66445D02*
X506035Y55355D01*
X486945Y55355D01*
X486945Y66445D01*
X506035Y66445D01*
X506035Y57667D02*
X486945Y57667D01*
X486945Y59979D02*
X506035Y59979D01*
X506035Y62291D02*
X486945Y62291D01*
X486945Y64603D02*
X506035Y64603D01*
X506035Y111355D02*
X506035Y122445D01*
X506035Y111355D02*
X486945Y111355D01*
X486945Y122445D01*
X506035Y122445D01*
X506035Y113667D02*
X486945Y113667D01*
X486945Y115979D02*
X506035Y115979D01*
X506035Y118291D02*
X486945Y118291D01*
X486945Y120603D02*
X506035Y120603D01*
D19*
X465973Y76383D02*
X465973Y71417D01*
X453507Y71417D01*
X453507Y76383D01*
X465973Y76383D01*
X465973Y73847D02*
X453507Y73847D01*
X453507Y76277D02*
X465973Y76277D01*
X465973Y81417D02*
X465973Y86383D01*
X465973Y81417D02*
X453507Y81417D01*
X453507Y86383D01*
X465973Y86383D01*
X465973Y83847D02*
X453507Y83847D01*
X453507Y86277D02*
X465973Y86277D01*
X465973Y91417D02*
X465973Y96383D01*
X465973Y91417D02*
X453507Y91417D01*
X453507Y96383D01*
X465973Y96383D01*
X465973Y93847D02*
X453507Y93847D01*
X453507Y96277D02*
X465973Y96277D01*
X465973Y101417D02*
X465973Y106383D01*
X465973Y101417D02*
X453507Y101417D01*
X453507Y106383D01*
X465973Y106383D01*
X465973Y103847D02*
X453507Y103847D01*
X453507Y106277D02*
X465973Y106277D01*
D10*
X241300Y44450D03*
X254000Y44450D03*
X266700Y44450D03*
X279400Y44450D03*
X228600Y44450D03*
X241300Y57150D03*
X254000Y57150D03*
X266700Y57150D03*
X279400Y57150D03*
X228600Y57150D03*
D11*
X414605Y117805D02*
X414605Y127795D01*
X423595Y127795D01*
X423595Y117805D01*
X414605Y117805D01*
X414605Y120213D02*
X423595Y120213D01*
X423595Y122621D02*
X414605Y122621D01*
X414605Y125029D02*
X423595Y125029D01*
X423595Y127437D02*
X414605Y127437D01*
X414605Y110795D02*
X414605Y100805D01*
X414605Y110795D02*
X423595Y110795D01*
X423595Y100805D01*
X414605Y100805D01*
X414605Y103213D02*
X423595Y103213D01*
X423595Y105621D02*
X414605Y105621D01*
X414605Y108029D02*
X423595Y108029D01*
X423595Y110437D02*
X414605Y110437D01*
X423595Y59995D02*
X423595Y50005D01*
X414605Y50005D01*
X414605Y59995D01*
X423595Y59995D01*
X423595Y52413D02*
X414605Y52413D01*
X414605Y54821D02*
X423595Y54821D01*
X423595Y57229D02*
X414605Y57229D01*
X414605Y59637D02*
X423595Y59637D01*
X423595Y67005D02*
X423595Y76995D01*
X423595Y67005D02*
X414605Y67005D01*
X414605Y76995D01*
X423595Y76995D01*
X423595Y69413D02*
X414605Y69413D01*
X414605Y71821D02*
X423595Y71821D01*
X423595Y74229D02*
X414605Y74229D01*
X414605Y76637D02*
X423595Y76637D01*
D14*
X387848Y96510D02*
X387848Y102118D01*
X399552Y102118D01*
X399552Y96510D01*
X387848Y96510D01*
X387848Y98904D02*
X399552Y98904D01*
X399552Y101298D02*
X387848Y101298D01*
X387848Y91704D02*
X387848Y86096D01*
X387848Y91704D02*
X399552Y91704D01*
X399552Y86096D01*
X387848Y86096D01*
X387848Y88490D02*
X399552Y88490D01*
X399552Y90884D02*
X387848Y90884D01*
X387848Y81290D02*
X387848Y75682D01*
X387848Y81290D02*
X399552Y81290D01*
X399552Y75682D01*
X387848Y75682D01*
X387848Y78076D02*
X399552Y78076D01*
X399552Y80470D02*
X387848Y80470D01*
M02*
