G04 EAGLE Gerber RS-274X export*
G75*
%MOMM*%
%FSLAX34Y34*%
%LPD*%
%INSilkscreen Top*%
%IPPOS*%
%AMOC8*
5,1,8,0,0,1.08239X$1,22.5*%
G01*
%ADD10C,0.254000*%
%ADD11C,0.203200*%
%ADD12C,0.152400*%
%ADD13C,0.600000*%

G36*
X440877Y61334D02*
X440877Y61334D01*
X440882Y61332D01*
X442462Y61492D01*
X442466Y61496D01*
X442474Y61495D01*
X443990Y61966D01*
X443993Y61969D01*
X443998Y61969D01*
X444476Y62192D01*
X444477Y62194D01*
X444479Y62194D01*
X445410Y62699D01*
X445411Y62701D01*
X445414Y62702D01*
X445854Y62992D01*
X445855Y62995D01*
X445860Y62996D01*
X446676Y63669D01*
X446676Y63671D01*
X446678Y63671D01*
X447071Y64023D01*
X447072Y64027D01*
X447078Y64030D01*
X448088Y65255D01*
X448089Y65259D01*
X448089Y65260D01*
X448095Y65265D01*
X448854Y66659D01*
X448854Y66663D01*
X448858Y66667D01*
X449041Y67162D01*
X449041Y67163D01*
X449042Y67165D01*
X449356Y68176D01*
X449356Y68178D01*
X449358Y68181D01*
X449472Y68695D01*
X449470Y68698D01*
X449473Y68702D01*
X449579Y69756D01*
X449632Y70281D01*
X449631Y70284D01*
X449632Y70288D01*
X449632Y107339D01*
X449631Y107341D01*
X449632Y107345D01*
X449484Y108925D01*
X449483Y108927D01*
X449484Y108930D01*
X449393Y109449D01*
X449390Y109452D01*
X449391Y109457D01*
X448915Y110972D01*
X448911Y110975D01*
X448910Y110983D01*
X448153Y112378D01*
X448149Y112380D01*
X448147Y112386D01*
X447827Y112806D01*
X447826Y112806D01*
X447826Y112808D01*
X447152Y113625D01*
X447149Y113625D01*
X447148Y113630D01*
X446770Y113997D01*
X446768Y113998D01*
X446766Y114001D01*
X445950Y114674D01*
X445948Y114675D01*
X445946Y114677D01*
X445519Y114985D01*
X445515Y114986D01*
X445512Y114990D01*
X444113Y115740D01*
X444108Y115739D01*
X444102Y115744D01*
X442586Y116215D01*
X442581Y116214D01*
X442576Y116217D01*
X442054Y116294D01*
X442053Y116293D01*
X442051Y116294D01*
X440998Y116401D01*
X440996Y116400D01*
X440994Y116401D01*
X440467Y116416D01*
X440464Y116414D01*
X440459Y116416D01*
X438879Y116256D01*
X438875Y116253D01*
X438867Y116254D01*
X437349Y115789D01*
X437347Y115786D01*
X437342Y115786D01*
X436862Y115568D01*
X436861Y115566D01*
X436858Y115566D01*
X435928Y115061D01*
X435926Y115059D01*
X435924Y115059D01*
X435480Y114774D01*
X435478Y114771D01*
X435474Y114769D01*
X434259Y113748D01*
X434258Y113743D01*
X434251Y113740D01*
X433241Y112515D01*
X433240Y112510D01*
X433234Y112506D01*
X432470Y111115D01*
X432470Y111111D01*
X432466Y111107D01*
X432277Y110615D01*
X432277Y110613D01*
X432275Y110611D01*
X431962Y109600D01*
X431962Y109598D01*
X431960Y109596D01*
X431840Y109083D01*
X431841Y109079D01*
X431839Y109075D01*
X431679Y107495D01*
X431681Y107492D01*
X431679Y107489D01*
X431676Y104715D01*
X431687Y104697D01*
X431690Y104676D01*
X431707Y104667D01*
X431713Y104658D01*
X431722Y104660D01*
X431736Y104653D01*
X432123Y104637D01*
X432124Y104638D01*
X432125Y104637D01*
X436360Y104637D01*
X436361Y104637D01*
X436754Y104647D01*
X436765Y104654D01*
X436778Y104652D01*
X436791Y104672D01*
X436811Y104685D01*
X436808Y104698D01*
X436816Y104709D01*
X436801Y104743D01*
X436799Y104752D01*
X436796Y104753D01*
X436795Y104756D01*
X436309Y105187D01*
X435982Y105590D01*
X435719Y106037D01*
X435534Y106522D01*
X435417Y107029D01*
X435364Y107547D01*
X435385Y108068D01*
X435434Y108589D01*
X435553Y109096D01*
X435705Y109595D01*
X435943Y110058D01*
X436204Y110508D01*
X436552Y110897D01*
X436922Y111261D01*
X437345Y111566D01*
X437795Y111828D01*
X438271Y112043D01*
X438767Y112203D01*
X439276Y112329D01*
X439793Y112402D01*
X440316Y112442D01*
X440840Y112447D01*
X441363Y112407D01*
X441881Y112340D01*
X442390Y112214D01*
X442887Y112057D01*
X443362Y111840D01*
X443811Y111578D01*
X444232Y111271D01*
X444600Y110903D01*
X444691Y110800D01*
X444747Y110737D01*
X444803Y110675D01*
X444858Y110612D01*
X444859Y110612D01*
X444946Y110514D01*
X445199Y110059D01*
X445426Y109591D01*
X445578Y109092D01*
X445683Y108582D01*
X445731Y108061D01*
X445740Y107540D01*
X445681Y107022D01*
X445557Y106517D01*
X445366Y106034D01*
X445102Y105587D01*
X444780Y105183D01*
X444232Y104753D01*
X444227Y104738D01*
X444214Y104730D01*
X444217Y104708D01*
X444210Y104688D01*
X444221Y104678D01*
X444223Y104662D01*
X444251Y104650D01*
X444259Y104642D01*
X444265Y104643D01*
X444270Y104640D01*
X444770Y104637D01*
X445299Y104637D01*
X445641Y104634D01*
X445641Y101399D01*
X445641Y101398D01*
X445641Y101381D01*
X432023Y101381D01*
X432021Y101380D01*
X432019Y101380D01*
X431735Y101364D01*
X431718Y101351D01*
X431697Y101348D01*
X431689Y101330D01*
X431680Y101323D01*
X431682Y101314D01*
X431676Y101301D01*
X431676Y70373D01*
X431678Y70370D01*
X431676Y70367D01*
X431827Y68786D01*
X431829Y68784D01*
X431828Y68781D01*
X431925Y68263D01*
X431928Y68261D01*
X431927Y68256D01*
X432409Y66744D01*
X432413Y66740D01*
X432414Y66733D01*
X433171Y65337D01*
X433176Y65335D01*
X433178Y65328D01*
X434177Y64095D01*
X434180Y64094D01*
X434182Y64089D01*
X434564Y63726D01*
X434566Y63725D01*
X434567Y63723D01*
X435384Y63049D01*
X435386Y63049D01*
X435388Y63046D01*
X435819Y62743D01*
X435822Y62743D01*
X435825Y62739D01*
X437227Y61995D01*
X437232Y61995D01*
X437237Y61991D01*
X438754Y61520D01*
X438759Y61521D01*
X438764Y61518D01*
X439287Y61447D01*
X439288Y61447D01*
X439289Y61447D01*
X440343Y61341D01*
X440345Y61342D01*
X440348Y61340D01*
X440875Y61332D01*
X440877Y61334D01*
G37*
G36*
X443399Y25577D02*
X443399Y25577D01*
X443440Y25579D01*
X443464Y25596D01*
X443493Y25605D01*
X443548Y25654D01*
X444398Y26665D01*
X445265Y27658D01*
X447488Y30097D01*
X447941Y30557D01*
X448420Y30965D01*
X448942Y31278D01*
X449513Y31452D01*
X450132Y31475D01*
X450785Y31457D01*
X450790Y31459D01*
X450800Y31457D01*
X451461Y31479D01*
X451467Y31481D01*
X451482Y31480D01*
X452138Y31557D01*
X452144Y31560D01*
X452159Y31560D01*
X452807Y31692D01*
X452813Y31695D01*
X452829Y31697D01*
X453462Y31886D01*
X453468Y31890D01*
X453484Y31893D01*
X454098Y32138D01*
X454103Y32143D01*
X454119Y32148D01*
X454708Y32448D01*
X454713Y32453D01*
X454727Y32459D01*
X455287Y32811D01*
X455292Y32816D01*
X455305Y32824D01*
X455832Y33224D01*
X455836Y33230D01*
X455847Y33237D01*
X456339Y33680D01*
X456342Y33685D01*
X456353Y33693D01*
X456808Y34173D01*
X456811Y34178D01*
X456820Y34186D01*
X457240Y34697D01*
X457242Y34702D01*
X457250Y34711D01*
X457635Y35249D01*
X457637Y35254D01*
X457645Y35264D01*
X457990Y35828D01*
X457991Y35834D01*
X457999Y35845D01*
X458299Y36434D01*
X458300Y36440D01*
X458307Y36452D01*
X458560Y37063D01*
X458560Y37070D01*
X458567Y37083D01*
X458767Y37713D01*
X458767Y37720D01*
X458773Y37733D01*
X458919Y38378D01*
X458919Y38385D01*
X458923Y38400D01*
X459014Y39055D01*
X459013Y39061D01*
X459016Y39076D01*
X459050Y39736D01*
X459049Y39742D01*
X459050Y39756D01*
X459032Y40417D01*
X459030Y40423D01*
X459030Y40437D01*
X458959Y41094D01*
X458957Y41101D01*
X458956Y41118D01*
X458823Y41765D01*
X458819Y41771D01*
X458817Y41787D01*
X458628Y42420D01*
X458624Y42426D01*
X458621Y42441D01*
X458376Y43055D01*
X458371Y43061D01*
X458366Y43076D01*
X458065Y43665D01*
X458060Y43671D01*
X458052Y43688D01*
X457690Y44241D01*
X457683Y44247D01*
X457672Y44266D01*
X457541Y44420D01*
X457244Y44770D01*
X457235Y44776D01*
X457216Y44799D01*
X456713Y45227D01*
X456704Y45231D01*
X456665Y45260D01*
X456077Y45559D01*
X456074Y45560D01*
X456068Y45564D01*
X456046Y45574D01*
X456038Y45575D01*
X456031Y45580D01*
X455969Y45585D01*
X455907Y45594D01*
X455900Y45591D01*
X455892Y45591D01*
X455836Y45562D01*
X455780Y45536D01*
X455775Y45530D01*
X455768Y45526D01*
X455738Y45472D01*
X455703Y45419D01*
X455703Y45411D01*
X455699Y45404D01*
X455693Y45330D01*
X455735Y44723D01*
X455571Y44242D01*
X455161Y44007D01*
X454625Y44059D01*
X454072Y44293D01*
X453549Y44629D01*
X453081Y45036D01*
X452701Y45509D01*
X452467Y46030D01*
X452476Y46566D01*
X452743Y47049D01*
X453172Y47428D01*
X453710Y47646D01*
X454305Y47711D01*
X454933Y47640D01*
X454940Y47641D01*
X454947Y47639D01*
X455009Y47653D01*
X455071Y47664D01*
X455076Y47669D01*
X455083Y47670D01*
X455127Y47716D01*
X455174Y47758D01*
X455176Y47765D01*
X455181Y47770D01*
X455194Y47832D01*
X455210Y47893D01*
X455208Y47900D01*
X455210Y47907D01*
X455187Y47966D01*
X455168Y48027D01*
X455163Y48031D01*
X455160Y48037D01*
X455107Y48090D01*
X454582Y48470D01*
X454573Y48473D01*
X454556Y48486D01*
X453977Y48805D01*
X453968Y48807D01*
X453950Y48818D01*
X453338Y49067D01*
X453329Y49068D01*
X453307Y49077D01*
X452668Y49245D01*
X452658Y49245D01*
X452632Y49252D01*
X451975Y49323D01*
X451965Y49321D01*
X451935Y49324D01*
X451275Y49290D01*
X451266Y49287D01*
X451235Y49285D01*
X450589Y49145D01*
X450580Y49140D01*
X450549Y49132D01*
X449936Y48885D01*
X449928Y48879D01*
X449903Y48868D01*
X449334Y48532D01*
X449328Y48525D01*
X449307Y48514D01*
X448786Y48107D01*
X448781Y48099D01*
X448759Y48081D01*
X448305Y47601D01*
X448300Y47592D01*
X448275Y47563D01*
X447924Y47004D01*
X447921Y46995D01*
X447898Y46950D01*
X447691Y46323D01*
X447690Y46316D01*
X447678Y46260D01*
X447638Y45602D01*
X447640Y45593D01*
X447642Y45543D01*
X447758Y44893D01*
X447762Y44884D01*
X447771Y44847D01*
X448010Y44231D01*
X448016Y44223D01*
X448025Y44198D01*
X448352Y43623D01*
X448358Y43617D01*
X448368Y43599D01*
X448758Y43066D01*
X448764Y43061D01*
X448772Y43048D01*
X449208Y42551D01*
X449212Y42548D01*
X449219Y42540D01*
X450130Y41621D01*
X450450Y41117D01*
X450606Y40563D01*
X450553Y40006D01*
X450287Y39511D01*
X449854Y39132D01*
X449316Y38894D01*
X448727Y38803D01*
X448131Y38856D01*
X447578Y39053D01*
X447128Y39402D01*
X446859Y39872D01*
X446854Y40375D01*
X447164Y40799D01*
X447678Y41136D01*
X447680Y41138D01*
X447731Y41183D01*
X447944Y41433D01*
X447948Y41444D01*
X447958Y41451D01*
X447976Y41507D01*
X448000Y41561D01*
X447999Y41572D01*
X448002Y41584D01*
X447988Y41641D01*
X447980Y41699D01*
X447972Y41708D01*
X447969Y41719D01*
X447926Y41760D01*
X447888Y41804D01*
X447876Y41808D01*
X447868Y41816D01*
X447797Y41840D01*
X447147Y41956D01*
X447137Y41955D01*
X447104Y41960D01*
X446443Y41961D01*
X446433Y41958D01*
X446401Y41958D01*
X445750Y41848D01*
X445740Y41843D01*
X445707Y41837D01*
X445085Y41615D01*
X445077Y41608D01*
X445044Y41595D01*
X444473Y41264D01*
X444466Y41256D01*
X444429Y41232D01*
X443944Y40785D01*
X443939Y40776D01*
X443906Y40741D01*
X443536Y40194D01*
X443533Y40184D01*
X443512Y40149D01*
X443262Y39538D01*
X443261Y39527D01*
X443250Y39499D01*
X443102Y38854D01*
X443102Y38845D01*
X443097Y38823D01*
X443032Y38165D01*
X443033Y38158D01*
X443031Y38141D01*
X443021Y26234D01*
X443024Y26224D01*
X443027Y26183D01*
X443113Y25764D01*
X443127Y25738D01*
X443132Y25708D01*
X443159Y25677D01*
X443179Y25640D01*
X443205Y25626D01*
X443224Y25604D01*
X443264Y25592D01*
X443301Y25571D01*
X443330Y25573D01*
X443359Y25565D01*
X443399Y25577D01*
G37*
G36*
X401277Y2218D02*
X401277Y2218D01*
X401290Y2216D01*
X401343Y2240D01*
X401398Y2258D01*
X401406Y2268D01*
X401417Y2273D01*
X401449Y2322D01*
X401486Y2367D01*
X401488Y2379D01*
X401494Y2390D01*
X401505Y2463D01*
X401505Y11042D01*
X401520Y11024D01*
X401528Y11019D01*
X401543Y11001D01*
X402027Y10551D01*
X402036Y10547D01*
X402057Y10528D01*
X402603Y10156D01*
X402613Y10153D01*
X402635Y10138D01*
X403231Y9851D01*
X403240Y9849D01*
X403264Y9838D01*
X403894Y9638D01*
X403903Y9638D01*
X403926Y9630D01*
X404578Y9517D01*
X404587Y9518D01*
X404609Y9514D01*
X405270Y9484D01*
X405277Y9486D01*
X405296Y9484D01*
X405956Y9525D01*
X405964Y9528D01*
X405985Y9528D01*
X406635Y9645D01*
X406643Y9648D01*
X406664Y9652D01*
X407297Y9845D01*
X407304Y9850D01*
X407327Y9856D01*
X407929Y10130D01*
X407936Y10136D01*
X407958Y10146D01*
X408518Y10497D01*
X408524Y10504D01*
X408545Y10516D01*
X409054Y10939D01*
X409059Y10946D01*
X409076Y10960D01*
X409528Y11444D01*
X409532Y11451D01*
X409547Y11466D01*
X409938Y12000D01*
X409940Y12007D01*
X409953Y12023D01*
X410282Y12596D01*
X410284Y12603D01*
X410293Y12618D01*
X410565Y13221D01*
X410566Y13228D01*
X410574Y13243D01*
X410788Y13869D01*
X410788Y13875D01*
X410793Y13888D01*
X410955Y14530D01*
X410955Y14536D01*
X410959Y14549D01*
X411069Y15201D01*
X411068Y15207D01*
X411072Y15219D01*
X411134Y15878D01*
X411131Y15888D01*
X411134Y15924D01*
X411080Y16519D01*
X411078Y16524D01*
X411078Y16530D01*
X411066Y16558D01*
X411082Y16586D01*
X411110Y16614D01*
X411116Y16641D01*
X411116Y16643D01*
X411117Y16645D01*
X411132Y16672D01*
X411139Y16746D01*
X411104Y17403D01*
X411102Y17408D01*
X411102Y17420D01*
X411023Y18073D01*
X411021Y18078D01*
X411021Y18091D01*
X410895Y18737D01*
X410892Y18743D01*
X410890Y18756D01*
X410715Y19391D01*
X410712Y19396D01*
X410709Y19411D01*
X410481Y20028D01*
X410477Y20034D01*
X410473Y20049D01*
X410191Y20644D01*
X410185Y20650D01*
X410178Y20666D01*
X409837Y21229D01*
X409831Y21235D01*
X409821Y21252D01*
X409418Y21773D01*
X409411Y21778D01*
X409398Y21795D01*
X408935Y22263D01*
X408927Y22268D01*
X408911Y22284D01*
X408392Y22689D01*
X408384Y22693D01*
X408365Y22708D01*
X407798Y23041D01*
X407789Y23043D01*
X407769Y23056D01*
X407163Y23313D01*
X407154Y23314D01*
X407134Y23323D01*
X406501Y23504D01*
X406493Y23503D01*
X406474Y23510D01*
X405824Y23618D01*
X405817Y23617D01*
X405799Y23621D01*
X405142Y23663D01*
X405135Y23661D01*
X405118Y23663D01*
X404460Y23642D01*
X404452Y23639D01*
X404431Y23639D01*
X403781Y23541D01*
X403772Y23537D01*
X403748Y23534D01*
X403116Y23349D01*
X403108Y23344D01*
X403081Y23336D01*
X402485Y23057D01*
X402477Y23051D01*
X402449Y23037D01*
X401907Y22665D01*
X401900Y22657D01*
X401875Y22639D01*
X401401Y22183D01*
X401396Y22174D01*
X401375Y22154D01*
X401333Y22099D01*
X401333Y22593D01*
X401330Y22606D01*
X401332Y22618D01*
X401314Y22690D01*
X401129Y23128D01*
X401091Y23174D01*
X401058Y23223D01*
X401048Y23228D01*
X401041Y23237D01*
X400984Y23255D01*
X400930Y23279D01*
X400914Y23278D01*
X400908Y23281D01*
X400898Y23278D01*
X400856Y23277D01*
X398262Y22815D01*
X398258Y22813D01*
X398248Y22813D01*
X397635Y22667D01*
X397585Y22638D01*
X397532Y22615D01*
X397525Y22604D01*
X397514Y22598D01*
X397487Y22546D01*
X397455Y22498D01*
X397452Y22481D01*
X397449Y22474D01*
X397450Y22464D01*
X397444Y22425D01*
X397441Y16497D01*
X397441Y5911D01*
X397442Y5907D01*
X397441Y5904D01*
X397455Y5830D01*
X397651Y5257D01*
X397667Y5235D01*
X397674Y5209D01*
X397722Y5152D01*
X400688Y2513D01*
X400697Y2509D01*
X400727Y2484D01*
X401130Y2248D01*
X401142Y2245D01*
X401151Y2237D01*
X401209Y2228D01*
X401266Y2214D01*
X401277Y2218D01*
G37*
G36*
X416658Y9492D02*
X416658Y9492D01*
X416672Y9491D01*
X417329Y9541D01*
X417335Y9543D01*
X417348Y9543D01*
X417999Y9644D01*
X418006Y9648D01*
X418024Y9649D01*
X418661Y9815D01*
X418668Y9819D01*
X418687Y9823D01*
X419302Y10058D01*
X419309Y10063D01*
X419330Y10070D01*
X419912Y10378D01*
X419919Y10385D01*
X419941Y10396D01*
X420465Y10771D01*
X420537Y10812D01*
X420590Y10511D01*
X420596Y10499D01*
X420595Y10487D01*
X420626Y10419D01*
X420929Y9948D01*
X420942Y9937D01*
X420948Y9922D01*
X420994Y9892D01*
X421035Y9857D01*
X421051Y9854D01*
X421065Y9845D01*
X421138Y9834D01*
X424433Y9834D01*
X424461Y9842D01*
X424491Y9841D01*
X424527Y9862D01*
X424567Y9873D01*
X424587Y9896D01*
X424612Y9910D01*
X424632Y9947D01*
X424659Y9979D01*
X424663Y10008D01*
X424677Y10034D01*
X424681Y10108D01*
X424633Y10577D01*
X424630Y10585D01*
X424629Y10605D01*
X424493Y11237D01*
X424421Y11871D01*
X424387Y12515D01*
X424379Y14486D01*
X424375Y14499D01*
X424377Y14509D01*
X424375Y14511D01*
X424376Y14519D01*
X424354Y14568D01*
X424339Y14620D01*
X424326Y14631D01*
X424320Y14646D01*
X424315Y14649D01*
X424329Y14671D01*
X424365Y14726D01*
X424366Y14731D01*
X424367Y14734D01*
X424367Y14740D01*
X424376Y14799D01*
X424376Y19446D01*
X424376Y19448D01*
X424376Y19452D01*
X424359Y20116D01*
X424356Y20125D01*
X424355Y20153D01*
X424238Y20805D01*
X424233Y20815D01*
X424224Y20854D01*
X423977Y21469D01*
X423971Y21476D01*
X423950Y21519D01*
X423569Y22061D01*
X423561Y22067D01*
X423532Y22102D01*
X423041Y22547D01*
X423032Y22552D01*
X423004Y22575D01*
X422438Y22920D01*
X422428Y22923D01*
X422404Y22937D01*
X421793Y23194D01*
X421786Y23194D01*
X421782Y23197D01*
X421778Y23197D01*
X421765Y23203D01*
X421128Y23387D01*
X421121Y23387D01*
X421107Y23392D01*
X420456Y23520D01*
X420450Y23519D01*
X420439Y23523D01*
X419780Y23605D01*
X419775Y23604D01*
X419765Y23606D01*
X419103Y23649D01*
X419100Y23649D01*
X419092Y23650D01*
X418433Y23664D01*
X418429Y23663D01*
X418421Y23664D01*
X417758Y23648D01*
X417753Y23646D01*
X417742Y23647D01*
X417081Y23588D01*
X417076Y23586D01*
X417065Y23586D01*
X416409Y23484D01*
X416404Y23482D01*
X416390Y23481D01*
X415744Y23329D01*
X415738Y23326D01*
X415723Y23323D01*
X415093Y23114D01*
X415087Y23110D01*
X415068Y23105D01*
X414464Y22830D01*
X414458Y22824D01*
X414437Y22815D01*
X413873Y22466D01*
X413866Y22459D01*
X413843Y22444D01*
X413336Y22016D01*
X413331Y22008D01*
X413307Y21987D01*
X412879Y21481D01*
X412874Y21472D01*
X412854Y21446D01*
X412519Y20873D01*
X412517Y20863D01*
X412501Y20835D01*
X412268Y20215D01*
X412267Y20205D01*
X412257Y20178D01*
X412122Y19529D01*
X412126Y19480D01*
X412121Y19431D01*
X412132Y19400D01*
X412133Y19390D01*
X412138Y19382D01*
X412146Y19361D01*
X412361Y18955D01*
X412380Y18935D01*
X412392Y18910D01*
X412428Y18886D01*
X412459Y18855D01*
X412486Y18848D01*
X412508Y18833D01*
X412582Y18822D01*
X415894Y18830D01*
X415953Y18847D01*
X416014Y18860D01*
X416020Y18867D01*
X416028Y18869D01*
X416069Y18916D01*
X416112Y18959D01*
X416116Y18970D01*
X416120Y18975D01*
X416121Y18984D01*
X416138Y19029D01*
X416263Y19644D01*
X416531Y20152D01*
X416965Y20515D01*
X417518Y20713D01*
X418131Y20781D01*
X418760Y20767D01*
X419359Y20664D01*
X419866Y20417D01*
X420190Y19983D01*
X420306Y19429D01*
X420248Y18893D01*
X419906Y18505D01*
X419370Y18275D01*
X418755Y18134D01*
X418111Y18037D01*
X416138Y17792D01*
X416135Y17791D01*
X416127Y17791D01*
X415473Y17678D01*
X415468Y17675D01*
X415457Y17675D01*
X414812Y17521D01*
X414806Y17517D01*
X414791Y17515D01*
X414161Y17307D01*
X414154Y17302D01*
X414133Y17296D01*
X413533Y17014D01*
X413525Y17007D01*
X413498Y16994D01*
X412952Y16619D01*
X412945Y16611D01*
X412914Y16587D01*
X412452Y16112D01*
X412447Y16103D01*
X412419Y16069D01*
X412072Y15504D01*
X412070Y15494D01*
X412049Y15456D01*
X411831Y14830D01*
X411829Y14784D01*
X411817Y14738D01*
X411825Y14715D01*
X411824Y14691D01*
X411847Y14650D01*
X411860Y14612D01*
X411854Y14597D01*
X411849Y14591D01*
X411848Y14581D01*
X411846Y14580D01*
X411846Y14577D01*
X411832Y14543D01*
X411695Y13952D01*
X411696Y13943D01*
X411689Y13894D01*
X411693Y13236D01*
X411696Y13227D01*
X411696Y13201D01*
X411793Y12550D01*
X411797Y12541D01*
X411802Y12511D01*
X412002Y11884D01*
X412008Y11875D01*
X412020Y11840D01*
X412335Y11263D01*
X412343Y11256D01*
X412364Y11222D01*
X412489Y11074D01*
X412699Y10825D01*
X412699Y10824D01*
X412788Y10719D01*
X412797Y10713D01*
X412824Y10685D01*
X413339Y10276D01*
X413349Y10272D01*
X413376Y10251D01*
X413956Y9940D01*
X413966Y9938D01*
X413991Y9925D01*
X414612Y9707D01*
X414621Y9706D01*
X414643Y9698D01*
X415288Y9562D01*
X415296Y9563D01*
X415315Y9558D01*
X415970Y9493D01*
X415977Y9494D01*
X415994Y9492D01*
X416653Y9490D01*
X416658Y9492D01*
G37*
G36*
X448084Y9835D02*
X448084Y9835D01*
X448090Y9834D01*
X448712Y9856D01*
X448726Y9861D01*
X448741Y9859D01*
X448791Y9882D01*
X448844Y9900D01*
X448854Y9911D01*
X448867Y9918D01*
X448897Y9965D01*
X448933Y10008D01*
X448934Y10023D01*
X448942Y10036D01*
X448942Y10092D01*
X448949Y10147D01*
X448942Y10161D01*
X448942Y10176D01*
X448911Y10243D01*
X443797Y17948D01*
X443643Y18307D01*
X448262Y22809D01*
X448274Y22831D01*
X448294Y22847D01*
X448308Y22890D01*
X448330Y22930D01*
X448329Y22956D01*
X448337Y22980D01*
X448325Y23024D01*
X448323Y23070D01*
X448308Y23091D01*
X448302Y23115D01*
X448268Y23146D01*
X448241Y23184D01*
X448218Y23193D01*
X448199Y23210D01*
X448129Y23233D01*
X447658Y23311D01*
X447648Y23310D01*
X447618Y23315D01*
X444307Y23315D01*
X444298Y23312D01*
X444290Y23314D01*
X444217Y23298D01*
X443648Y23079D01*
X443634Y23068D01*
X443617Y23064D01*
X443559Y23019D01*
X439703Y19012D01*
X439703Y27443D01*
X439701Y27453D01*
X439700Y27482D01*
X439618Y28005D01*
X439593Y28058D01*
X439572Y28114D01*
X439563Y28121D01*
X439559Y28131D01*
X439508Y28163D01*
X439461Y28199D01*
X439450Y28200D01*
X439440Y28206D01*
X439381Y28205D01*
X439322Y28210D01*
X439307Y28205D01*
X439300Y28205D01*
X439292Y28199D01*
X439252Y28184D01*
X435769Y26274D01*
X435751Y26257D01*
X435727Y26246D01*
X435701Y26207D01*
X435670Y26175D01*
X435665Y26151D01*
X435650Y26130D01*
X435639Y26056D01*
X435639Y10165D01*
X435659Y10098D01*
X435678Y10032D01*
X435679Y10031D01*
X435732Y9985D01*
X435783Y9940D01*
X435783Y9939D01*
X435784Y9939D01*
X435785Y9939D01*
X435854Y9918D01*
X436434Y9837D01*
X436444Y9838D01*
X436469Y9834D01*
X439118Y9834D01*
X439173Y9850D01*
X439230Y9861D01*
X439244Y9871D01*
X439252Y9873D01*
X439259Y9881D01*
X439291Y9904D01*
X439627Y10230D01*
X439658Y10284D01*
X439692Y10335D01*
X439694Y10346D01*
X439697Y10351D01*
X439696Y10361D01*
X439703Y10409D01*
X439703Y14304D01*
X439999Y14731D01*
X440750Y15455D01*
X440928Y15258D01*
X444035Y10200D01*
X444048Y10188D01*
X444056Y10171D01*
X444069Y10162D01*
X444079Y10146D01*
X444136Y10108D01*
X444138Y10106D01*
X444139Y10106D01*
X444141Y10105D01*
X444665Y9858D01*
X444682Y9855D01*
X444697Y9845D01*
X444771Y9834D01*
X448082Y9834D01*
X448084Y9835D01*
G37*
G36*
X483962Y9835D02*
X483962Y9835D01*
X483969Y9833D01*
X484028Y9854D01*
X484089Y9872D01*
X484094Y9878D01*
X484101Y9880D01*
X484154Y9932D01*
X484439Y10310D01*
X484455Y10351D01*
X484478Y10387D01*
X484485Y10431D01*
X484489Y10441D01*
X484487Y10447D01*
X484490Y10460D01*
X484490Y17763D01*
X484489Y17764D01*
X484490Y17765D01*
X484485Y18429D01*
X484484Y18432D01*
X484485Y18440D01*
X484451Y19103D01*
X484449Y19107D01*
X484450Y19118D01*
X484376Y19777D01*
X484373Y19783D01*
X484373Y19798D01*
X484242Y20449D01*
X484238Y20456D01*
X484235Y20476D01*
X484034Y21108D01*
X484029Y21116D01*
X484020Y21142D01*
X483729Y21737D01*
X483722Y21745D01*
X483705Y21776D01*
X483312Y22309D01*
X483303Y22315D01*
X483278Y22346D01*
X482784Y22789D01*
X482775Y22793D01*
X482744Y22818D01*
X482173Y23154D01*
X482163Y23157D01*
X482134Y23173D01*
X481514Y23406D01*
X481504Y23407D01*
X481480Y23416D01*
X480833Y23561D01*
X480825Y23561D01*
X480807Y23566D01*
X480148Y23641D01*
X480141Y23640D01*
X480127Y23643D01*
X479464Y23664D01*
X479456Y23662D01*
X479438Y23663D01*
X478776Y23615D01*
X478767Y23612D01*
X478743Y23610D01*
X478094Y23474D01*
X478085Y23469D01*
X478061Y23464D01*
X477437Y23239D01*
X477429Y23233D01*
X477404Y23225D01*
X476819Y22912D01*
X476812Y22905D01*
X476787Y22892D01*
X476255Y22496D01*
X476249Y22488D01*
X476227Y22472D01*
X475761Y22000D01*
X475756Y21991D01*
X475736Y21972D01*
X475700Y21922D01*
X475700Y22471D01*
X475698Y22479D01*
X475698Y22500D01*
X475629Y23094D01*
X475628Y23096D01*
X475628Y23099D01*
X475601Y23161D01*
X475574Y23223D01*
X475572Y23224D01*
X475571Y23226D01*
X475515Y23264D01*
X475459Y23302D01*
X475457Y23302D01*
X475455Y23303D01*
X475381Y23314D01*
X472062Y23314D01*
X472044Y23309D01*
X472028Y23312D01*
X471999Y23298D01*
X471964Y23294D01*
X471948Y23281D01*
X471928Y23275D01*
X471916Y23262D01*
X471901Y23255D01*
X471882Y23227D01*
X471856Y23205D01*
X471843Y23178D01*
X471836Y23170D01*
X471834Y23161D01*
X471824Y23138D01*
X471813Y23065D01*
X471813Y10451D01*
X471826Y10406D01*
X471830Y10359D01*
X471849Y10327D01*
X471852Y10317D01*
X471858Y10312D01*
X471867Y10295D01*
X472163Y9927D01*
X472166Y9925D01*
X472167Y9922D01*
X472223Y9885D01*
X472278Y9847D01*
X472281Y9847D01*
X472284Y9845D01*
X472358Y9834D01*
X475013Y9834D01*
X475019Y9835D01*
X475032Y9834D01*
X475649Y9882D01*
X475656Y9884D01*
X475663Y9883D01*
X475721Y9909D01*
X475779Y9931D01*
X475784Y9937D01*
X475791Y9940D01*
X475825Y9993D01*
X475863Y10043D01*
X475864Y10050D01*
X475868Y10057D01*
X475879Y10130D01*
X475879Y16767D01*
X475892Y17419D01*
X475950Y18058D01*
X476071Y18677D01*
X476284Y19251D01*
X476617Y19738D01*
X477081Y20087D01*
X477642Y20283D01*
X478252Y20351D01*
X478862Y20318D01*
X479418Y20142D01*
X479861Y19788D01*
X480154Y19285D01*
X480322Y18696D01*
X480401Y18067D01*
X480425Y17419D01*
X480425Y10121D01*
X480428Y10113D01*
X480426Y10104D01*
X480447Y10046D01*
X480465Y9987D01*
X480472Y9981D01*
X480475Y9973D01*
X480524Y9936D01*
X480570Y9895D01*
X480579Y9894D01*
X480586Y9888D01*
X480659Y9873D01*
X481284Y9833D01*
X481289Y9834D01*
X481299Y9833D01*
X483955Y9833D01*
X483962Y9835D01*
G37*
G36*
X462701Y9486D02*
X462701Y9486D01*
X462719Y9484D01*
X463381Y9533D01*
X463390Y9536D01*
X463414Y9538D01*
X464063Y9674D01*
X464071Y9679D01*
X464096Y9684D01*
X464720Y9910D01*
X464728Y9915D01*
X464753Y9924D01*
X465338Y10236D01*
X465345Y10243D01*
X465369Y10256D01*
X465901Y10653D01*
X465907Y10661D01*
X465930Y10677D01*
X466396Y11149D01*
X466400Y11158D01*
X466420Y11178D01*
X466452Y11223D01*
X466452Y10675D01*
X466455Y10666D01*
X466454Y10645D01*
X466526Y10053D01*
X466527Y10051D01*
X466527Y10049D01*
X466555Y9986D01*
X466581Y9924D01*
X466583Y9923D01*
X466583Y9922D01*
X466641Y9884D01*
X466697Y9846D01*
X466699Y9845D01*
X466700Y9845D01*
X466774Y9833D01*
X470093Y9833D01*
X470108Y9838D01*
X470126Y9835D01*
X470140Y9841D01*
X470156Y9841D01*
X470191Y9862D01*
X470227Y9873D01*
X470238Y9885D01*
X470254Y9892D01*
X470262Y9905D01*
X470276Y9913D01*
X470317Y9974D01*
X470318Y9975D01*
X470318Y9977D01*
X470319Y9978D01*
X470322Y9995D01*
X470331Y10008D01*
X470342Y10082D01*
X470342Y22696D01*
X470337Y22712D01*
X470340Y22727D01*
X470327Y22755D01*
X470324Y22788D01*
X470306Y22820D01*
X470303Y22830D01*
X470297Y22835D01*
X470287Y22852D01*
X469991Y23220D01*
X469988Y23222D01*
X469987Y23225D01*
X469931Y23262D01*
X469876Y23300D01*
X469873Y23300D01*
X469870Y23302D01*
X469797Y23313D01*
X467141Y23313D01*
X467135Y23311D01*
X467121Y23312D01*
X466506Y23263D01*
X466500Y23261D01*
X466492Y23262D01*
X466435Y23236D01*
X466376Y23214D01*
X466371Y23208D01*
X466365Y23205D01*
X466330Y23152D01*
X466292Y23101D01*
X466292Y23094D01*
X466288Y23088D01*
X466277Y23015D01*
X466277Y16378D01*
X466263Y15726D01*
X466205Y15087D01*
X466084Y14468D01*
X465871Y13895D01*
X465537Y13409D01*
X465073Y13059D01*
X464511Y12865D01*
X463900Y12797D01*
X463291Y12831D01*
X462735Y13007D01*
X462293Y13360D01*
X462000Y13865D01*
X461833Y14454D01*
X461827Y14502D01*
X461796Y14751D01*
X461765Y15000D01*
X461754Y15083D01*
X461731Y15731D01*
X461731Y23029D01*
X461728Y23038D01*
X461730Y23048D01*
X461709Y23105D01*
X461692Y23163D01*
X461684Y23169D01*
X461681Y23179D01*
X461632Y23215D01*
X461586Y23255D01*
X461577Y23256D01*
X461569Y23262D01*
X461496Y23278D01*
X460869Y23314D01*
X460864Y23313D01*
X460854Y23315D01*
X458199Y23315D01*
X458191Y23313D01*
X458183Y23314D01*
X458125Y23293D01*
X458065Y23276D01*
X458059Y23270D01*
X458052Y23267D01*
X457999Y23215D01*
X457715Y22835D01*
X457707Y22812D01*
X457695Y22798D01*
X457693Y22783D01*
X457677Y22759D01*
X457670Y22713D01*
X457666Y22704D01*
X457668Y22698D01*
X457666Y22685D01*
X457666Y15383D01*
X457666Y15382D01*
X457666Y15381D01*
X457670Y14717D01*
X457671Y14714D01*
X457671Y14706D01*
X457704Y14043D01*
X457706Y14038D01*
X457706Y14028D01*
X457779Y13368D01*
X457782Y13362D01*
X457783Y13347D01*
X457914Y12697D01*
X457917Y12689D01*
X457920Y12670D01*
X458122Y12038D01*
X458127Y12030D01*
X458135Y12004D01*
X458427Y11408D01*
X458434Y11401D01*
X458450Y11370D01*
X458845Y10837D01*
X458853Y10831D01*
X458860Y10822D01*
X458862Y10818D01*
X458866Y10815D01*
X458879Y10800D01*
X459372Y10357D01*
X459382Y10353D01*
X459412Y10328D01*
X459984Y9992D01*
X459994Y9990D01*
X460022Y9974D01*
X460643Y9741D01*
X460653Y9740D01*
X460676Y9731D01*
X461324Y9586D01*
X461332Y9586D01*
X461350Y9581D01*
X462009Y9506D01*
X462016Y9507D01*
X462030Y9505D01*
X462693Y9484D01*
X462701Y9486D01*
G37*
G36*
X390327Y9483D02*
X390327Y9483D01*
X390337Y9482D01*
X391000Y9502D01*
X391004Y9503D01*
X391015Y9503D01*
X391676Y9563D01*
X391681Y9565D01*
X391693Y9565D01*
X392348Y9670D01*
X392353Y9673D01*
X392367Y9674D01*
X393012Y9831D01*
X393018Y9835D01*
X393035Y9838D01*
X393661Y10055D01*
X393668Y10060D01*
X393687Y10066D01*
X394285Y10352D01*
X394292Y10358D01*
X394314Y10368D01*
X394869Y10730D01*
X394876Y10738D01*
X394900Y10754D01*
X395392Y11198D01*
X395398Y11207D01*
X395422Y11229D01*
X395830Y11752D01*
X395834Y11762D01*
X395854Y11789D01*
X396161Y12377D01*
X396164Y12387D01*
X396178Y12416D01*
X396380Y13047D01*
X396381Y13058D01*
X396389Y13085D01*
X396492Y13740D01*
X396491Y13749D01*
X396495Y13773D01*
X396510Y14436D01*
X396508Y14446D01*
X396508Y14476D01*
X396505Y14500D01*
X396470Y14750D01*
X396435Y14999D01*
X396417Y15132D01*
X396413Y15142D01*
X396404Y15184D01*
X396176Y15805D01*
X396171Y15812D01*
X396149Y15858D01*
X395779Y16408D01*
X395771Y16414D01*
X395743Y16450D01*
X395260Y16903D01*
X395250Y16908D01*
X395224Y16931D01*
X394667Y17290D01*
X394658Y17292D01*
X394637Y17306D01*
X394037Y17587D01*
X394030Y17588D01*
X394015Y17596D01*
X393390Y17820D01*
X393385Y17820D01*
X393375Y17825D01*
X392737Y18007D01*
X392732Y18007D01*
X392723Y18010D01*
X390141Y18595D01*
X389524Y18771D01*
X388958Y19007D01*
X388527Y19350D01*
X388365Y19823D01*
X388500Y20295D01*
X388915Y20608D01*
X389485Y20749D01*
X390109Y20783D01*
X390735Y20743D01*
X391321Y20600D01*
X391811Y20310D01*
X392136Y19856D01*
X392281Y19261D01*
X392305Y19219D01*
X392321Y19174D01*
X392339Y19160D01*
X392350Y19140D01*
X392393Y19118D01*
X392431Y19088D01*
X392465Y19080D01*
X392474Y19076D01*
X392483Y19076D01*
X392504Y19072D01*
X393124Y19024D01*
X393130Y19026D01*
X393143Y19024D01*
X395798Y19024D01*
X395804Y19025D01*
X395811Y19024D01*
X395871Y19045D01*
X395932Y19063D01*
X395936Y19068D01*
X395943Y19070D01*
X395982Y19120D01*
X396024Y19168D01*
X396025Y19175D01*
X396029Y19180D01*
X396046Y19252D01*
X396091Y19793D01*
X396090Y19797D01*
X396092Y19802D01*
X396084Y19876D01*
X395918Y20518D01*
X395913Y20526D01*
X395906Y20553D01*
X395644Y21163D01*
X395638Y21171D01*
X395624Y21200D01*
X395262Y21756D01*
X395254Y21762D01*
X395235Y21790D01*
X394780Y22273D01*
X394771Y22278D01*
X394749Y22301D01*
X394219Y22699D01*
X394209Y22703D01*
X394187Y22719D01*
X393602Y23033D01*
X393594Y23035D01*
X393574Y23046D01*
X392954Y23283D01*
X392946Y23284D01*
X392929Y23291D01*
X392287Y23460D01*
X392280Y23460D01*
X392266Y23464D01*
X391612Y23576D01*
X391606Y23576D01*
X391593Y23579D01*
X390933Y23642D01*
X390928Y23641D01*
X390917Y23643D01*
X390254Y23665D01*
X390250Y23663D01*
X390241Y23665D01*
X389578Y23651D01*
X389573Y23650D01*
X389563Y23651D01*
X388902Y23600D01*
X388897Y23598D01*
X388885Y23598D01*
X388229Y23503D01*
X388223Y23500D01*
X388210Y23499D01*
X387562Y23353D01*
X387556Y23349D01*
X387539Y23346D01*
X386909Y23137D01*
X386902Y23131D01*
X386881Y23125D01*
X386282Y22840D01*
X386275Y22833D01*
X386250Y22822D01*
X385701Y22450D01*
X385694Y22442D01*
X385666Y22422D01*
X385193Y21958D01*
X385188Y21948D01*
X385161Y21920D01*
X384789Y21372D01*
X384786Y21361D01*
X384766Y21329D01*
X384508Y20719D01*
X384507Y20708D01*
X384494Y20677D01*
X384347Y20030D01*
X384348Y20020D01*
X384342Y19994D01*
X384292Y19333D01*
X384294Y19323D01*
X384292Y19295D01*
X384341Y18635D01*
X384345Y18625D01*
X384351Y18581D01*
X384542Y17947D01*
X384546Y17941D01*
X384568Y17890D01*
X384912Y17324D01*
X384918Y17319D01*
X384929Y17305D01*
X384932Y17297D01*
X384937Y17294D01*
X384950Y17276D01*
X385421Y16812D01*
X385431Y16807D01*
X385460Y16781D01*
X386015Y16418D01*
X386024Y16415D01*
X386045Y16401D01*
X386645Y16119D01*
X386653Y16118D01*
X386667Y16110D01*
X387292Y15886D01*
X387297Y15886D01*
X387308Y15882D01*
X387946Y15699D01*
X387950Y15699D01*
X387959Y15696D01*
X389897Y15255D01*
X390531Y15094D01*
X391148Y14905D01*
X391725Y14665D01*
X392196Y14339D01*
X392434Y13882D01*
X392379Y13362D01*
X392081Y12909D01*
X391598Y12601D01*
X391020Y12428D01*
X390405Y12367D01*
X389786Y12410D01*
X389190Y12556D01*
X388653Y12822D01*
X388226Y13215D01*
X387962Y13725D01*
X387875Y14335D01*
X387875Y14336D01*
X387855Y14382D01*
X387842Y14430D01*
X387827Y14445D01*
X387818Y14464D01*
X387776Y14492D01*
X387740Y14526D01*
X387719Y14530D01*
X387701Y14541D01*
X387628Y14552D01*
X384310Y14552D01*
X384297Y14549D01*
X384284Y14551D01*
X384231Y14529D01*
X384176Y14513D01*
X384167Y14503D01*
X384154Y14498D01*
X384121Y14451D01*
X384084Y14408D01*
X384082Y14395D01*
X384074Y14384D01*
X384061Y14311D01*
X384043Y13719D01*
X384045Y13710D01*
X384046Y13692D01*
X384045Y13686D01*
X384047Y13682D01*
X384048Y13660D01*
X384186Y13011D01*
X384190Y13003D01*
X384196Y12976D01*
X384428Y12355D01*
X384434Y12346D01*
X384446Y12318D01*
X384777Y11743D01*
X384784Y11736D01*
X384801Y11709D01*
X385225Y11199D01*
X385233Y11193D01*
X385253Y11170D01*
X385754Y10736D01*
X385763Y10731D01*
X385784Y10713D01*
X386344Y10358D01*
X386352Y10356D01*
X386371Y10343D01*
X386972Y10061D01*
X386980Y10060D01*
X386997Y10051D01*
X387625Y9837D01*
X387632Y9836D01*
X387647Y9830D01*
X388292Y9674D01*
X388298Y9675D01*
X388310Y9670D01*
X388966Y9565D01*
X388971Y9565D01*
X388982Y9563D01*
X389643Y9502D01*
X389648Y9503D01*
X389659Y9501D01*
X390322Y9482D01*
X390327Y9483D01*
G37*
%LPC*%
G36*
X435789Y86356D02*
X435789Y86356D01*
X435487Y86467D01*
X435487Y89707D01*
X435790Y89813D01*
X441352Y91528D01*
X441795Y91659D01*
X441807Y91673D01*
X441824Y91678D01*
X441827Y91696D01*
X441839Y91711D01*
X441832Y91727D01*
X441835Y91745D01*
X441816Y91761D01*
X441811Y91772D01*
X441802Y91773D01*
X441796Y91779D01*
X435656Y93693D01*
X435487Y93747D01*
X435487Y96993D01*
X435579Y97033D01*
X445647Y100756D01*
X445647Y100718D01*
X445641Y100472D01*
X445641Y100471D01*
X445641Y97393D01*
X445640Y97392D01*
X445636Y97392D01*
X439036Y95445D01*
X439034Y95443D01*
X439031Y95443D01*
X438778Y95345D01*
X438769Y95332D01*
X438753Y95328D01*
X438751Y95307D01*
X438738Y95290D01*
X438746Y95276D01*
X438744Y95260D01*
X438766Y95242D01*
X438772Y95231D01*
X438779Y95231D01*
X438784Y95227D01*
X445545Y93262D01*
X445641Y93233D01*
X445641Y90096D01*
X445371Y90019D01*
X438766Y88088D01*
X438755Y88075D01*
X438738Y88071D01*
X438734Y88052D01*
X438721Y88037D01*
X438729Y88021D01*
X438726Y88004D01*
X438745Y87986D01*
X438750Y87975D01*
X438758Y87974D01*
X438763Y87969D01*
X439203Y87819D01*
X439204Y87819D01*
X439206Y87818D01*
X445298Y86020D01*
X445298Y86021D01*
X445298Y86020D01*
X445641Y85921D01*
X445641Y82792D01*
X445640Y82767D01*
X435789Y86356D01*
G37*
%LPD*%
G36*
X454200Y9846D02*
X454200Y9846D01*
X454263Y9862D01*
X454268Y9866D01*
X454271Y9867D01*
X454276Y9873D01*
X454321Y9909D01*
X454636Y10253D01*
X454660Y10302D01*
X454690Y10348D01*
X454694Y10370D01*
X454698Y10378D01*
X454697Y10389D01*
X454702Y10421D01*
X454702Y20224D01*
X454868Y20426D01*
X456728Y20426D01*
X456768Y20438D01*
X456810Y20440D01*
X456834Y20457D01*
X456862Y20465D01*
X456890Y20497D01*
X456924Y20521D01*
X456948Y20563D01*
X456954Y20570D01*
X456955Y20576D01*
X456961Y20585D01*
X457144Y21061D01*
X457145Y21070D01*
X457150Y21077D01*
X457161Y21151D01*
X457161Y22470D01*
X457159Y22478D01*
X457159Y22499D01*
X457090Y23089D01*
X457089Y23091D01*
X457090Y23094D01*
X457062Y23156D01*
X457036Y23218D01*
X457034Y23219D01*
X457033Y23221D01*
X456976Y23259D01*
X456921Y23297D01*
X456918Y23297D01*
X456916Y23298D01*
X456843Y23310D01*
X454934Y23310D01*
X454702Y23449D01*
X454704Y23948D01*
X454791Y24517D01*
X455092Y24915D01*
X455606Y25062D01*
X456222Y25062D01*
X456871Y25017D01*
X456904Y25024D01*
X456937Y25021D01*
X456971Y25039D01*
X457007Y25047D01*
X457031Y25070D01*
X457061Y25086D01*
X457106Y25145D01*
X457332Y25555D01*
X457338Y25581D01*
X457352Y25602D01*
X457363Y25676D01*
X457363Y27654D01*
X457359Y27668D01*
X457362Y27682D01*
X457340Y27734D01*
X457324Y27788D01*
X457313Y27798D01*
X457308Y27811D01*
X457253Y27861D01*
X456846Y28134D01*
X456818Y28143D01*
X456795Y28160D01*
X456723Y28176D01*
X455407Y28259D01*
X455400Y28257D01*
X455385Y28259D01*
X454726Y28243D01*
X454719Y28241D01*
X454702Y28242D01*
X454048Y28162D01*
X454040Y28159D01*
X454018Y28157D01*
X453378Y28000D01*
X453370Y27995D01*
X453344Y27989D01*
X452733Y27742D01*
X452725Y27735D01*
X452696Y27722D01*
X452314Y27485D01*
X452136Y27375D01*
X452129Y27367D01*
X452098Y27346D01*
X451616Y26898D01*
X451610Y26889D01*
X451583Y26861D01*
X451199Y26326D01*
X451195Y26316D01*
X451175Y26284D01*
X450901Y25685D01*
X450900Y25675D01*
X450887Y25644D01*
X450721Y25007D01*
X450721Y24997D01*
X450714Y24971D01*
X450644Y24316D01*
X450645Y24308D01*
X450643Y24291D01*
X450638Y23652D01*
X450581Y23315D01*
X450132Y23315D01*
X450122Y23312D01*
X450111Y23314D01*
X450039Y23296D01*
X449473Y23067D01*
X449464Y23060D01*
X449452Y23057D01*
X449392Y23014D01*
X447510Y21166D01*
X447497Y21144D01*
X447478Y21128D01*
X447446Y21061D01*
X447351Y20753D01*
X447351Y20700D01*
X447343Y20647D01*
X447350Y20631D01*
X447349Y20614D01*
X447378Y20568D01*
X447399Y20519D01*
X447414Y20509D01*
X447423Y20495D01*
X447471Y20472D01*
X447516Y20442D01*
X447541Y20438D01*
X447549Y20434D01*
X447559Y20436D01*
X447590Y20431D01*
X450638Y20431D01*
X450638Y10124D01*
X450640Y10117D01*
X450638Y10110D01*
X450659Y10050D01*
X450677Y9990D01*
X450682Y9985D01*
X450685Y9978D01*
X450734Y9939D01*
X450782Y9898D01*
X450789Y9897D01*
X450795Y9892D01*
X450868Y9876D01*
X451480Y9829D01*
X451486Y9830D01*
X451499Y9828D01*
X454137Y9828D01*
X454200Y9846D01*
G37*
G36*
X429079Y9836D02*
X429079Y9836D01*
X429087Y9835D01*
X429723Y9864D01*
X429734Y9867D01*
X429745Y9866D01*
X429800Y9890D01*
X429855Y9909D01*
X429863Y9918D01*
X429873Y9923D01*
X429906Y9972D01*
X429943Y10018D01*
X429944Y10030D01*
X429950Y10039D01*
X429961Y10113D01*
X429963Y16094D01*
X430002Y16739D01*
X430102Y17368D01*
X430279Y17972D01*
X430546Y18529D01*
X430916Y19013D01*
X431385Y19393D01*
X431935Y19655D01*
X432536Y19802D01*
X433164Y19852D01*
X433802Y19826D01*
X434449Y19737D01*
X434478Y19741D01*
X434506Y19736D01*
X434545Y19751D01*
X434587Y19758D01*
X434609Y19777D01*
X434636Y19787D01*
X434661Y19822D01*
X434693Y19849D01*
X434701Y19877D01*
X434718Y19901D01*
X434732Y19974D01*
X434758Y20607D01*
X434757Y20610D01*
X434758Y20617D01*
X434758Y23279D01*
X434741Y23338D01*
X434728Y23398D01*
X434722Y23405D01*
X434719Y23413D01*
X434673Y23454D01*
X434630Y23497D01*
X434618Y23502D01*
X434614Y23505D01*
X434604Y23507D01*
X434560Y23523D01*
X433920Y23657D01*
X433912Y23656D01*
X433859Y23662D01*
X433195Y23633D01*
X433185Y23630D01*
X433156Y23629D01*
X432504Y23497D01*
X432496Y23492D01*
X432469Y23487D01*
X431844Y23260D01*
X431836Y23254D01*
X431811Y23246D01*
X431225Y22931D01*
X431218Y22925D01*
X431195Y22912D01*
X430660Y22518D01*
X430654Y22510D01*
X430633Y22495D01*
X430159Y22028D01*
X430154Y22019D01*
X430135Y22000D01*
X429788Y21539D01*
X429788Y22516D01*
X429785Y22526D01*
X429782Y22569D01*
X429668Y23098D01*
X429662Y23109D01*
X429662Y23121D01*
X429629Y23169D01*
X429601Y23220D01*
X429590Y23226D01*
X429583Y23237D01*
X429530Y23260D01*
X429479Y23288D01*
X429466Y23287D01*
X429455Y23292D01*
X429380Y23290D01*
X426114Y22707D01*
X426113Y22707D01*
X426111Y22707D01*
X426105Y22706D01*
X426072Y22689D01*
X426029Y22680D01*
X426010Y22661D01*
X425985Y22651D01*
X425981Y22644D01*
X425980Y22643D01*
X425972Y22631D01*
X425961Y22614D01*
X425929Y22582D01*
X425923Y22556D01*
X425908Y22534D01*
X425897Y22460D01*
X425897Y10482D01*
X425907Y10447D01*
X425908Y10410D01*
X425935Y10353D01*
X425936Y10348D01*
X425938Y10346D01*
X425939Y10343D01*
X426207Y9945D01*
X426218Y9936D01*
X426223Y9923D01*
X426271Y9892D01*
X426314Y9855D01*
X426328Y9854D01*
X426340Y9846D01*
X426414Y9835D01*
X429075Y9835D01*
X429079Y9836D01*
G37*
G36*
X406487Y249351D02*
X406487Y249351D01*
X406507Y249372D01*
X406521Y249373D01*
X406921Y249973D01*
X406920Y249982D01*
X406927Y249984D01*
X407726Y252283D01*
X408477Y254254D01*
X409733Y250484D01*
X409933Y249884D01*
X409947Y249875D01*
X409945Y249865D01*
X410445Y249365D01*
X410466Y249362D01*
X410472Y249351D01*
X411072Y249251D01*
X411089Y249261D01*
X411099Y249255D01*
X411799Y249555D01*
X411810Y249573D01*
X411822Y249575D01*
X412122Y250075D01*
X412121Y250082D01*
X412126Y250084D01*
X414626Y257184D01*
X414624Y257191D01*
X414629Y257193D01*
X414729Y257893D01*
X414722Y257905D01*
X414723Y257905D01*
X414723Y257906D01*
X414728Y257912D01*
X414628Y258312D01*
X414606Y258329D01*
X414604Y258343D01*
X413904Y258743D01*
X413896Y258742D01*
X413894Y258747D01*
X413194Y258947D01*
X413166Y258937D01*
X413153Y258941D01*
X412553Y258541D01*
X412545Y258520D01*
X412533Y258516D01*
X411037Y254127D01*
X410902Y253991D01*
X409627Y257816D01*
X409622Y257819D01*
X409624Y257822D01*
X409324Y258422D01*
X409311Y258429D01*
X409311Y258438D01*
X408811Y258838D01*
X408783Y258839D01*
X408773Y258849D01*
X408073Y258749D01*
X408065Y258741D01*
X408058Y258744D01*
X407458Y258444D01*
X407447Y258423D01*
X407435Y258419D01*
X407135Y257719D01*
X407135Y257717D01*
X407133Y257716D01*
X405859Y253991D01*
X405723Y254126D01*
X404527Y258014D01*
X404522Y258018D01*
X404524Y258022D01*
X404224Y258622D01*
X404204Y258632D01*
X404202Y258644D01*
X403602Y258944D01*
X403577Y258939D01*
X403566Y258947D01*
X402866Y258747D01*
X402860Y258739D01*
X402853Y258741D01*
X402253Y258341D01*
X402244Y258316D01*
X402232Y258310D01*
X402132Y257810D01*
X402137Y257799D01*
X402131Y257793D01*
X402231Y257093D01*
X402236Y257088D01*
X402234Y257084D01*
X404734Y249984D01*
X404744Y249977D01*
X404742Y249969D01*
X405142Y249469D01*
X405161Y249464D01*
X405164Y249453D01*
X405764Y249253D01*
X405780Y249258D01*
X405787Y249251D01*
X406487Y249351D01*
G37*
G36*
X459015Y209884D02*
X459015Y209884D01*
X459018Y209881D01*
X459618Y209981D01*
X459639Y210003D01*
X459652Y210005D01*
X459952Y210505D01*
X459952Y210508D01*
X459950Y210523D01*
X459959Y210530D01*
X459959Y215250D01*
X460077Y215191D01*
X461770Y212802D01*
X461782Y212798D01*
X461783Y212789D01*
X462383Y212389D01*
X462397Y212390D01*
X462402Y212381D01*
X463002Y212281D01*
X463025Y212293D01*
X463037Y212289D01*
X463637Y212689D01*
X463640Y212696D01*
X463645Y212695D01*
X464045Y213095D01*
X464046Y213102D01*
X464050Y213102D01*
X465561Y215273D01*
X465561Y210630D01*
X465572Y210615D01*
X465568Y210605D01*
X465868Y210105D01*
X465890Y210096D01*
X465894Y210083D01*
X466494Y209883D01*
X466505Y209887D01*
X466510Y209881D01*
X467210Y209881D01*
X467225Y209892D01*
X467235Y209888D01*
X467735Y210188D01*
X467743Y210207D01*
X467750Y210212D01*
X467749Y210213D01*
X467757Y210216D01*
X467957Y210916D01*
X467954Y210926D01*
X467959Y210930D01*
X467959Y218430D01*
X467956Y218435D01*
X467959Y218438D01*
X467859Y219038D01*
X467840Y219056D01*
X467840Y219069D01*
X467440Y219369D01*
X467421Y219369D01*
X467415Y219379D01*
X466515Y219479D01*
X466502Y219471D01*
X466494Y219477D01*
X465894Y219277D01*
X465883Y219261D01*
X465872Y219261D01*
X464572Y217661D01*
X464572Y217660D01*
X464571Y217660D01*
X463079Y215671D01*
X462627Y215490D01*
X460249Y218660D01*
X460248Y218660D01*
X460248Y218661D01*
X459848Y219161D01*
X459832Y219165D01*
X459829Y219175D01*
X459129Y219475D01*
X459116Y219472D01*
X459110Y219479D01*
X458310Y219479D01*
X458295Y219468D01*
X458285Y219472D01*
X457785Y219172D01*
X457774Y219144D01*
X457761Y219138D01*
X457661Y218538D01*
X457664Y218533D01*
X457661Y218530D01*
X457661Y210430D01*
X457675Y210412D01*
X457672Y210399D01*
X458072Y209899D01*
X458102Y209892D01*
X458110Y209881D01*
X459010Y209881D01*
X459015Y209884D01*
G37*
G36*
X80211Y15559D02*
X80211Y15559D01*
X80218Y15554D01*
X80718Y15754D01*
X80733Y15778D01*
X80740Y15783D01*
X80747Y15786D01*
X80947Y16486D01*
X80942Y16499D01*
X80949Y16505D01*
X80849Y17405D01*
X80833Y17422D01*
X80835Y17435D01*
X80435Y17835D01*
X80414Y17838D01*
X80408Y17849D01*
X79808Y17949D01*
X79803Y17946D01*
X79800Y17949D01*
X78433Y17949D01*
X78249Y18409D01*
X78249Y19673D01*
X79023Y20156D01*
X80620Y20855D01*
X80631Y20876D01*
X80644Y20878D01*
X80944Y21478D01*
X80941Y21493D01*
X80946Y21497D01*
X80942Y21501D01*
X80949Y21508D01*
X80849Y22108D01*
X80839Y22117D01*
X80843Y22124D01*
X80443Y22824D01*
X80422Y22833D01*
X80418Y22846D01*
X79918Y23046D01*
X79897Y23040D01*
X79886Y23047D01*
X79186Y22847D01*
X79185Y22846D01*
X79184Y22847D01*
X78884Y22747D01*
X78882Y22743D01*
X78879Y22745D01*
X77589Y22149D01*
X77117Y22149D01*
X76631Y22538D01*
X76623Y22539D01*
X76622Y22544D01*
X76022Y22844D01*
X76011Y22842D01*
X76007Y22849D01*
X74607Y23049D01*
X74598Y23044D01*
X74593Y23049D01*
X73893Y22949D01*
X73885Y22941D01*
X73878Y22944D01*
X72678Y22344D01*
X72671Y22331D01*
X72662Y22331D01*
X72262Y21831D01*
X72261Y21822D01*
X72257Y21819D01*
X72261Y21813D01*
X72261Y21812D01*
X72233Y21837D01*
X72173Y21841D01*
X72172Y21828D01*
X72159Y21827D01*
X71759Y21227D01*
X71759Y21223D01*
X71756Y21222D01*
X71456Y20622D01*
X71458Y20612D01*
X71451Y20608D01*
X71351Y20008D01*
X71352Y20007D01*
X71351Y20007D01*
X71251Y19307D01*
X71254Y19302D01*
X71251Y19300D01*
X71251Y16500D01*
X71257Y16492D01*
X71253Y16486D01*
X71453Y15786D01*
X71478Y15767D01*
X71482Y15754D01*
X71982Y15554D01*
X71995Y15558D01*
X72000Y15551D01*
X80200Y15551D01*
X80211Y15559D01*
G37*
G36*
X375886Y249351D02*
X375886Y249351D01*
X375902Y249367D01*
X375915Y249365D01*
X376315Y249765D01*
X376316Y249777D01*
X376320Y249779D01*
X376317Y249783D01*
X376318Y249786D01*
X376329Y249792D01*
X376429Y250392D01*
X376426Y250397D01*
X376429Y250400D01*
X376429Y251767D01*
X376889Y251951D01*
X378253Y251951D01*
X378736Y251177D01*
X379435Y249580D01*
X379453Y249570D01*
X379455Y249558D01*
X379955Y249258D01*
X379979Y249260D01*
X379988Y249251D01*
X380588Y249351D01*
X380597Y249361D01*
X380604Y249357D01*
X381304Y249757D01*
X381311Y249773D01*
X381322Y249775D01*
X381622Y250275D01*
X381619Y250303D01*
X381627Y250314D01*
X381427Y251014D01*
X381419Y251020D01*
X381421Y251027D01*
X381224Y251323D01*
X380727Y252614D01*
X380633Y253087D01*
X381018Y253569D01*
X381019Y253577D01*
X381024Y253578D01*
X381324Y254178D01*
X381323Y254185D01*
X381327Y254186D01*
X381527Y254886D01*
X381524Y254896D01*
X381529Y254900D01*
X381529Y255600D01*
X381526Y255604D01*
X381529Y255607D01*
X381429Y256307D01*
X381424Y256312D01*
X381427Y256316D01*
X381227Y256916D01*
X381219Y256921D01*
X381221Y256927D01*
X380821Y257527D01*
X380811Y257531D01*
X380811Y257538D01*
X380311Y257938D01*
X380292Y257939D01*
X380317Y257967D01*
X380321Y258027D01*
X380308Y258028D01*
X380307Y258041D01*
X379707Y258441D01*
X379703Y258441D01*
X379702Y258444D01*
X379102Y258744D01*
X379092Y258742D01*
X379088Y258749D01*
X377888Y258949D01*
X377883Y258946D01*
X377880Y258949D01*
X375080Y258949D01*
X375072Y258943D01*
X375066Y258947D01*
X374366Y258747D01*
X374351Y258727D01*
X374338Y258725D01*
X374038Y258225D01*
X374040Y258207D01*
X374031Y258200D01*
X374031Y250000D01*
X374042Y249985D01*
X374038Y249975D01*
X374338Y249475D01*
X374362Y249465D01*
X374366Y249453D01*
X375066Y249253D01*
X375080Y249258D01*
X375086Y249251D01*
X375886Y249351D01*
G37*
G36*
X313475Y249351D02*
X313475Y249351D01*
X313492Y249367D01*
X313505Y249365D01*
X313905Y249765D01*
X313906Y249777D01*
X313910Y249779D01*
X313907Y249783D01*
X313908Y249786D01*
X313919Y249792D01*
X314019Y250392D01*
X314016Y250397D01*
X314019Y250400D01*
X314019Y251767D01*
X314479Y251951D01*
X315840Y251951D01*
X316225Y251179D01*
X316925Y249580D01*
X316946Y249569D01*
X316948Y249556D01*
X317548Y249256D01*
X317569Y249260D01*
X317578Y249251D01*
X318178Y249351D01*
X318187Y249361D01*
X318194Y249357D01*
X318894Y249757D01*
X318903Y249778D01*
X318916Y249782D01*
X319116Y250282D01*
X319110Y250303D01*
X319117Y250314D01*
X318917Y251014D01*
X318916Y251015D01*
X318917Y251016D01*
X318817Y251316D01*
X318813Y251318D01*
X318815Y251321D01*
X318219Y252611D01*
X318219Y253083D01*
X318608Y253569D01*
X318609Y253577D01*
X318614Y253578D01*
X318914Y254178D01*
X318912Y254189D01*
X318919Y254193D01*
X319119Y255593D01*
X319114Y255602D01*
X319119Y255607D01*
X319019Y256307D01*
X319011Y256315D01*
X319014Y256322D01*
X318414Y257522D01*
X318401Y257529D01*
X318401Y257538D01*
X317901Y257938D01*
X317882Y257939D01*
X317907Y257967D01*
X317911Y258027D01*
X317898Y258028D01*
X317897Y258041D01*
X317297Y258441D01*
X317293Y258441D01*
X317292Y258444D01*
X316692Y258744D01*
X316682Y258742D01*
X316678Y258749D01*
X316078Y258849D01*
X316077Y258848D01*
X316077Y258849D01*
X315377Y258949D01*
X315372Y258946D01*
X315370Y258949D01*
X312570Y258949D01*
X312561Y258942D01*
X312554Y258947D01*
X311954Y258747D01*
X311941Y258727D01*
X311928Y258725D01*
X311628Y258225D01*
X311630Y258207D01*
X311621Y258200D01*
X311621Y250000D01*
X311629Y249989D01*
X311624Y249982D01*
X311824Y249482D01*
X311852Y249465D01*
X311856Y249453D01*
X312556Y249253D01*
X312569Y249258D01*
X312575Y249251D01*
X313475Y249351D01*
G37*
G36*
X171706Y4241D02*
X171706Y4241D01*
X171722Y4257D01*
X171735Y4255D01*
X172135Y4655D01*
X172136Y4667D01*
X172140Y4669D01*
X172137Y4673D01*
X172138Y4676D01*
X172149Y4682D01*
X172249Y5282D01*
X172246Y5287D01*
X172249Y5290D01*
X172249Y6657D01*
X172709Y6841D01*
X174073Y6841D01*
X174556Y6067D01*
X175255Y4470D01*
X175273Y4460D01*
X175275Y4448D01*
X175775Y4148D01*
X175799Y4150D01*
X175808Y4141D01*
X176408Y4241D01*
X176417Y4251D01*
X176424Y4247D01*
X177124Y4647D01*
X177131Y4663D01*
X177142Y4665D01*
X177442Y5165D01*
X177439Y5193D01*
X177447Y5204D01*
X177247Y5904D01*
X177239Y5910D01*
X177241Y5917D01*
X177043Y6214D01*
X176449Y7501D01*
X176449Y7973D01*
X176838Y8459D01*
X176839Y8467D01*
X176844Y8468D01*
X177144Y9068D01*
X177143Y9075D01*
X177147Y9076D01*
X177347Y9776D01*
X177344Y9786D01*
X177349Y9790D01*
X177349Y10490D01*
X177346Y10494D01*
X177349Y10497D01*
X177249Y11197D01*
X177244Y11202D01*
X177247Y11206D01*
X177047Y11806D01*
X177039Y11811D01*
X177041Y11817D01*
X176641Y12417D01*
X176631Y12421D01*
X176631Y12428D01*
X176131Y12828D01*
X176112Y12829D01*
X176137Y12857D01*
X176141Y12917D01*
X176128Y12918D01*
X176127Y12931D01*
X175527Y13331D01*
X175523Y13331D01*
X175522Y13334D01*
X174922Y13634D01*
X174912Y13632D01*
X174908Y13639D01*
X174308Y13739D01*
X174307Y13738D01*
X174307Y13739D01*
X173607Y13839D01*
X173602Y13836D01*
X173600Y13839D01*
X170900Y13839D01*
X170892Y13833D01*
X170886Y13837D01*
X170186Y13637D01*
X170171Y13617D01*
X170158Y13615D01*
X169858Y13115D01*
X169860Y13097D01*
X169851Y13090D01*
X169851Y4890D01*
X169862Y4875D01*
X169858Y4865D01*
X170158Y4365D01*
X170182Y4355D01*
X170186Y4343D01*
X170886Y4143D01*
X170900Y4148D01*
X170906Y4141D01*
X171706Y4241D01*
G37*
G36*
X66245Y54182D02*
X66245Y54182D01*
X66255Y54178D01*
X66755Y54478D01*
X66763Y54497D01*
X66770Y54502D01*
X66777Y54504D01*
X66977Y55104D01*
X66972Y55119D01*
X66979Y55125D01*
X66879Y56025D01*
X66863Y56042D01*
X66865Y56055D01*
X66465Y56455D01*
X66444Y56458D01*
X66438Y56469D01*
X65838Y56569D01*
X65833Y56566D01*
X65830Y56569D01*
X64463Y56569D01*
X64279Y57029D01*
X64279Y58393D01*
X65052Y58876D01*
X66647Y59474D01*
X66661Y59496D01*
X66674Y59498D01*
X66974Y60098D01*
X66971Y60113D01*
X66976Y60117D01*
X66972Y60121D01*
X66979Y60128D01*
X66879Y60728D01*
X66869Y60737D01*
X66873Y60744D01*
X66473Y61444D01*
X66457Y61451D01*
X66455Y61462D01*
X65955Y61762D01*
X65922Y61759D01*
X65911Y61765D01*
X65212Y61466D01*
X64914Y61367D01*
X64912Y61363D01*
X64909Y61365D01*
X63619Y60769D01*
X63147Y60769D01*
X62661Y61158D01*
X62653Y61159D01*
X62652Y61164D01*
X62052Y61464D01*
X62041Y61462D01*
X62037Y61469D01*
X60637Y61669D01*
X60628Y61664D01*
X60623Y61669D01*
X59923Y61569D01*
X59918Y61564D01*
X59914Y61567D01*
X59314Y61367D01*
X59309Y61359D01*
X59303Y61361D01*
X58703Y60961D01*
X58699Y60951D01*
X58692Y60951D01*
X58292Y60451D01*
X58291Y60442D01*
X58287Y60439D01*
X58291Y60433D01*
X58291Y60432D01*
X58263Y60457D01*
X58203Y60461D01*
X58202Y60448D01*
X58189Y60447D01*
X57789Y59847D01*
X57789Y59843D01*
X57786Y59842D01*
X57486Y59242D01*
X57488Y59232D01*
X57481Y59228D01*
X57381Y58628D01*
X57382Y58627D01*
X57381Y58627D01*
X57281Y57927D01*
X57284Y57922D01*
X57281Y57920D01*
X57281Y55220D01*
X57287Y55212D01*
X57283Y55206D01*
X57483Y54506D01*
X57503Y54491D01*
X57505Y54478D01*
X58005Y54178D01*
X58023Y54180D01*
X58030Y54171D01*
X66230Y54171D01*
X66245Y54182D01*
G37*
G36*
X66245Y91012D02*
X66245Y91012D01*
X66255Y91008D01*
X66755Y91308D01*
X66763Y91327D01*
X66770Y91332D01*
X66777Y91334D01*
X66977Y91934D01*
X66972Y91949D01*
X66979Y91955D01*
X66879Y92855D01*
X66863Y92872D01*
X66865Y92885D01*
X66465Y93285D01*
X66444Y93288D01*
X66438Y93299D01*
X65838Y93399D01*
X65833Y93396D01*
X65830Y93399D01*
X64463Y93399D01*
X64279Y93859D01*
X64279Y95223D01*
X65052Y95706D01*
X66647Y96304D01*
X66661Y96326D01*
X66674Y96328D01*
X66974Y96928D01*
X66971Y96943D01*
X66976Y96947D01*
X66972Y96951D01*
X66979Y96958D01*
X66879Y97558D01*
X66869Y97567D01*
X66873Y97574D01*
X66473Y98274D01*
X66457Y98281D01*
X66455Y98292D01*
X65955Y98592D01*
X65922Y98589D01*
X65911Y98595D01*
X65212Y98296D01*
X64914Y98197D01*
X64912Y98193D01*
X64909Y98195D01*
X63619Y97599D01*
X63147Y97599D01*
X62661Y97988D01*
X62653Y97989D01*
X62652Y97994D01*
X62052Y98294D01*
X62041Y98292D01*
X62037Y98299D01*
X60637Y98499D01*
X60628Y98494D01*
X60623Y98499D01*
X59923Y98399D01*
X59918Y98394D01*
X59914Y98397D01*
X59314Y98197D01*
X59309Y98189D01*
X59303Y98191D01*
X58703Y97791D01*
X58699Y97781D01*
X58692Y97781D01*
X58292Y97281D01*
X58291Y97272D01*
X58287Y97269D01*
X58291Y97263D01*
X58291Y97262D01*
X58263Y97287D01*
X58203Y97291D01*
X58202Y97278D01*
X58189Y97277D01*
X57789Y96677D01*
X57789Y96673D01*
X57786Y96672D01*
X57486Y96072D01*
X57488Y96062D01*
X57481Y96058D01*
X57381Y95458D01*
X57382Y95457D01*
X57381Y95457D01*
X57281Y94757D01*
X57284Y94752D01*
X57281Y94750D01*
X57281Y92050D01*
X57287Y92042D01*
X57283Y92036D01*
X57483Y91336D01*
X57503Y91321D01*
X57505Y91308D01*
X58005Y91008D01*
X58023Y91010D01*
X58030Y91001D01*
X66230Y91001D01*
X66245Y91012D01*
G37*
G36*
X301309Y20658D02*
X301309Y20658D01*
X301316Y20653D01*
X301916Y20853D01*
X301933Y20878D01*
X301946Y20882D01*
X302146Y21382D01*
X302142Y21395D01*
X302149Y21400D01*
X302149Y25955D01*
X305761Y21270D01*
X305762Y21270D01*
X305762Y21268D01*
X306262Y20668D01*
X306292Y20662D01*
X306300Y20651D01*
X307000Y20651D01*
X307004Y20654D01*
X307006Y20651D01*
X307806Y20751D01*
X307826Y20770D01*
X307839Y20770D01*
X308139Y21170D01*
X308139Y21177D01*
X308142Y21179D01*
X308139Y21182D01*
X308139Y21187D01*
X308149Y21192D01*
X308249Y21792D01*
X308246Y21797D01*
X308249Y21800D01*
X308249Y29300D01*
X308242Y29309D01*
X308247Y29316D01*
X308047Y29916D01*
X308027Y29929D01*
X308025Y29942D01*
X307525Y30242D01*
X307507Y30240D01*
X307500Y30249D01*
X306700Y30249D01*
X306691Y30242D01*
X306684Y30247D01*
X306084Y30047D01*
X306066Y30020D01*
X306053Y30016D01*
X305853Y29416D01*
X305857Y29405D01*
X305851Y29400D01*
X305851Y24846D01*
X304339Y26830D01*
X302340Y29529D01*
X302338Y29530D01*
X302338Y29531D01*
X301938Y30031D01*
X301918Y30036D01*
X301914Y30047D01*
X301214Y30247D01*
X301204Y30244D01*
X301200Y30249D01*
X300500Y30249D01*
X300482Y30235D01*
X300469Y30238D01*
X299969Y29838D01*
X299963Y29813D01*
X299951Y29807D01*
X299851Y29107D01*
X299854Y29102D01*
X299851Y29100D01*
X299851Y21700D01*
X299854Y21695D01*
X299851Y21692D01*
X299951Y21092D01*
X299967Y21077D01*
X299965Y21065D01*
X300365Y20665D01*
X300392Y20662D01*
X300400Y20651D01*
X301300Y20651D01*
X301309Y20658D01*
G37*
G36*
X395881Y263237D02*
X395881Y263237D01*
X395895Y263235D01*
X396295Y263635D01*
X396296Y263647D01*
X396301Y263651D01*
X396298Y263656D01*
X396309Y263662D01*
X396409Y264262D01*
X396406Y264267D01*
X396409Y264270D01*
X396409Y267170D01*
X396406Y267174D01*
X396409Y267177D01*
X396309Y267877D01*
X396305Y267881D01*
X396307Y267884D01*
X396107Y268584D01*
X396104Y268586D01*
X396106Y268588D01*
X395906Y269088D01*
X395894Y269096D01*
X395895Y269105D01*
X395495Y269505D01*
X395488Y269506D01*
X395487Y269511D01*
X394887Y269911D01*
X394878Y269910D01*
X394876Y269917D01*
X394276Y270117D01*
X394271Y270115D01*
X394271Y270116D01*
X394263Y270116D01*
X394260Y270119D01*
X393560Y270119D01*
X393555Y270116D01*
X393552Y270116D01*
X393547Y270112D01*
X393541Y270115D01*
X392841Y269815D01*
X392836Y269807D01*
X392829Y269808D01*
X392330Y269409D01*
X391965Y269135D01*
X391495Y269605D01*
X391486Y269606D01*
X391485Y269612D01*
X390985Y269912D01*
X390976Y269911D01*
X390974Y269917D01*
X390274Y270117D01*
X390269Y270116D01*
X390263Y270116D01*
X390260Y270119D01*
X389660Y270119D01*
X389655Y270116D01*
X389653Y270116D01*
X389646Y270110D01*
X389638Y270114D01*
X389038Y269814D01*
X389032Y269801D01*
X389022Y269802D01*
X388579Y269269D01*
X388407Y269786D01*
X388387Y269799D01*
X388385Y269812D01*
X387885Y270112D01*
X387870Y270111D01*
X387866Y270116D01*
X387863Y270116D01*
X387860Y270119D01*
X386960Y270119D01*
X386955Y270116D01*
X386954Y270116D01*
X386944Y270108D01*
X386935Y270112D01*
X386435Y269812D01*
X386427Y269794D01*
X386414Y269784D01*
X386417Y269781D01*
X386411Y269778D01*
X386311Y269178D01*
X386314Y269173D01*
X386311Y269170D01*
X386311Y263770D01*
X386327Y263749D01*
X386325Y263735D01*
X386725Y263335D01*
X386748Y263332D01*
X386754Y263321D01*
X387554Y263221D01*
X387562Y263226D01*
X387567Y263221D01*
X388267Y263321D01*
X388289Y263343D01*
X388302Y263345D01*
X388602Y263845D01*
X388602Y263848D01*
X388600Y263863D01*
X388609Y263870D01*
X388609Y266567D01*
X388707Y267347D01*
X389077Y267718D01*
X389733Y267624D01*
X390013Y267251D01*
X390111Y266467D01*
X390111Y263770D01*
X390127Y263749D01*
X390125Y263735D01*
X390525Y263335D01*
X390547Y263332D01*
X390553Y263321D01*
X391253Y263221D01*
X391261Y263226D01*
X391266Y263221D01*
X392066Y263321D01*
X392082Y263337D01*
X392095Y263335D01*
X392495Y263735D01*
X392496Y263747D01*
X392500Y263749D01*
X392497Y263753D01*
X392499Y263762D01*
X392509Y263770D01*
X392509Y266467D01*
X392608Y267157D01*
X392795Y267625D01*
X393446Y267718D01*
X393914Y267344D01*
X394011Y266567D01*
X394011Y263970D01*
X394020Y263957D01*
X394016Y263948D01*
X394316Y263348D01*
X394346Y263333D01*
X394352Y263321D01*
X394952Y263221D01*
X394957Y263224D01*
X394960Y263221D01*
X395860Y263221D01*
X395881Y263237D01*
G37*
G36*
X471318Y209887D02*
X471318Y209887D01*
X471324Y209883D01*
X472024Y210083D01*
X472043Y210108D01*
X472056Y210112D01*
X472256Y210612D01*
X472252Y210625D01*
X472259Y210630D01*
X472259Y213310D01*
X472630Y213681D01*
X475290Y213681D01*
X475661Y213310D01*
X475661Y210630D01*
X475669Y210619D01*
X475664Y210612D01*
X475864Y210112D01*
X475892Y210095D01*
X475896Y210083D01*
X476596Y209883D01*
X476606Y209886D01*
X476610Y209881D01*
X477510Y209881D01*
X477531Y209897D01*
X477545Y209895D01*
X477945Y210295D01*
X477946Y210307D01*
X477951Y210311D01*
X477948Y210316D01*
X477959Y210322D01*
X478059Y210922D01*
X478056Y210927D01*
X478059Y210930D01*
X478059Y218530D01*
X478052Y218539D01*
X478057Y218546D01*
X477857Y219146D01*
X477837Y219159D01*
X477835Y219172D01*
X477335Y219472D01*
X477317Y219470D01*
X477310Y219479D01*
X476510Y219479D01*
X476501Y219472D01*
X476494Y219477D01*
X475894Y219277D01*
X475876Y219250D01*
X475863Y219246D01*
X475663Y218646D01*
X475667Y218635D01*
X475661Y218630D01*
X475661Y215855D01*
X475294Y215579D01*
X472630Y215579D01*
X472259Y215950D01*
X472259Y218630D01*
X472252Y218639D01*
X472257Y218646D01*
X472057Y219246D01*
X472030Y219264D01*
X472026Y219277D01*
X471426Y219477D01*
X471415Y219473D01*
X471410Y219479D01*
X470510Y219479D01*
X470492Y219466D01*
X470480Y219469D01*
X470080Y219169D01*
X470076Y219153D01*
X470074Y219148D01*
X470063Y219144D01*
X469863Y218444D01*
X469866Y218434D01*
X469861Y218430D01*
X469861Y210930D01*
X469864Y210925D01*
X469861Y210922D01*
X469961Y210322D01*
X469980Y210305D01*
X469979Y210292D01*
X470479Y209892D01*
X470502Y209891D01*
X470510Y209881D01*
X471310Y209881D01*
X471318Y209887D01*
G37*
G36*
X80218Y24854D02*
X80218Y24854D01*
X80228Y24871D01*
X80240Y24871D01*
X80740Y25571D01*
X80740Y25580D01*
X80746Y25582D01*
X80946Y26082D01*
X80939Y26107D01*
X80946Y26118D01*
X80746Y26618D01*
X80731Y26627D01*
X80732Y26638D01*
X80132Y27137D01*
X78036Y28934D01*
X77668Y29394D01*
X80732Y32063D01*
X80736Y32079D01*
X80746Y32082D01*
X80946Y32582D01*
X80939Y32605D01*
X80947Y32616D01*
X80747Y33216D01*
X80731Y33226D01*
X80732Y33238D01*
X80132Y33738D01*
X80120Y33738D01*
X80118Y33746D01*
X79618Y33946D01*
X79595Y33939D01*
X79584Y33947D01*
X78984Y33747D01*
X78975Y33733D01*
X78965Y33735D01*
X78466Y33236D01*
X76000Y30967D01*
X73033Y33637D01*
X73023Y33637D01*
X73022Y33644D01*
X72422Y33944D01*
X72401Y33940D01*
X72392Y33949D01*
X71792Y33849D01*
X71773Y33829D01*
X71760Y33829D01*
X71260Y33129D01*
X71260Y33120D01*
X71254Y33118D01*
X71054Y32618D01*
X71061Y32594D01*
X71061Y32593D01*
X71054Y32582D01*
X71254Y32082D01*
X71266Y32074D01*
X71265Y32065D01*
X71865Y31465D01*
X71868Y31465D01*
X71868Y31462D01*
X73867Y29764D01*
X74327Y29303D01*
X71768Y27138D01*
X71768Y27135D01*
X71765Y27135D01*
X71265Y26635D01*
X71263Y26619D01*
X71253Y26616D01*
X71053Y26016D01*
X71061Y25994D01*
X71060Y25994D01*
X71061Y25993D01*
X71054Y25982D01*
X71254Y25482D01*
X71266Y25474D01*
X71265Y25465D01*
X71865Y24865D01*
X71879Y24863D01*
X71882Y24854D01*
X72382Y24654D01*
X72415Y24663D01*
X72427Y24659D01*
X73027Y25059D01*
X73029Y25065D01*
X73033Y25064D01*
X75530Y27360D01*
X75994Y27639D01*
X78467Y25463D01*
X78469Y25463D01*
X78468Y25462D01*
X79068Y24962D01*
X79077Y24962D01*
X79078Y24956D01*
X79678Y24656D01*
X79707Y24661D01*
X79718Y24654D01*
X80218Y24854D01*
G37*
G36*
X72415Y128333D02*
X72415Y128333D01*
X72427Y128329D01*
X73027Y128729D01*
X73029Y128735D01*
X73033Y128734D01*
X75532Y131032D01*
X75998Y131405D01*
X78467Y129134D01*
X78469Y129134D01*
X78468Y129132D01*
X79068Y128632D01*
X79077Y128632D01*
X79078Y128626D01*
X79678Y128326D01*
X79713Y128333D01*
X79725Y128328D01*
X80225Y128628D01*
X80230Y128639D01*
X80238Y128638D01*
X80738Y129238D01*
X80738Y129250D01*
X80746Y129252D01*
X80946Y129752D01*
X80939Y129777D01*
X80946Y129788D01*
X80746Y130288D01*
X80734Y130296D01*
X80735Y130305D01*
X80135Y130905D01*
X80131Y130905D01*
X80131Y130908D01*
X78035Y132605D01*
X77668Y133064D01*
X80732Y135733D01*
X80736Y135749D01*
X80746Y135752D01*
X80946Y136252D01*
X80939Y136275D01*
X80947Y136286D01*
X80747Y136886D01*
X80733Y136895D01*
X80735Y136905D01*
X80135Y137505D01*
X80115Y137508D01*
X80110Y137518D01*
X79610Y137618D01*
X79594Y137610D01*
X79584Y137617D01*
X78984Y137417D01*
X78975Y137403D01*
X78965Y137405D01*
X78466Y136906D01*
X76000Y134637D01*
X73033Y137307D01*
X73023Y137307D01*
X73022Y137314D01*
X72422Y137614D01*
X72401Y137610D01*
X72392Y137619D01*
X71792Y137519D01*
X71775Y137501D01*
X71762Y137502D01*
X71262Y136902D01*
X71262Y136888D01*
X71253Y136886D01*
X71053Y136286D01*
X71061Y136263D01*
X71054Y136252D01*
X71254Y135752D01*
X71269Y135743D01*
X71268Y135732D01*
X71868Y135232D01*
X73866Y133434D01*
X74327Y132973D01*
X71768Y130808D01*
X71768Y130805D01*
X71765Y130805D01*
X71265Y130305D01*
X71263Y130291D01*
X71254Y130288D01*
X71054Y129788D01*
X71061Y129765D01*
X71053Y129754D01*
X71253Y129154D01*
X71267Y129145D01*
X71265Y129135D01*
X71865Y128535D01*
X71879Y128533D01*
X71882Y128524D01*
X72382Y128324D01*
X72415Y128333D01*
G37*
G36*
X333174Y249254D02*
X333174Y249254D01*
X333177Y249251D01*
X333877Y249351D01*
X333890Y249364D01*
X333901Y249362D01*
X334373Y249739D01*
X334643Y249559D01*
X334647Y249559D01*
X334648Y249556D01*
X335248Y249256D01*
X335264Y249259D01*
X335270Y249251D01*
X336170Y249251D01*
X336185Y249262D01*
X336195Y249258D01*
X336695Y249558D01*
X336703Y249577D01*
X336710Y249582D01*
X336708Y249585D01*
X336718Y249590D01*
X336818Y250090D01*
X336815Y250097D01*
X336819Y250100D01*
X336819Y258300D01*
X336816Y258304D01*
X336819Y258307D01*
X336719Y259007D01*
X336697Y259029D01*
X336695Y259042D01*
X336195Y259342D01*
X336179Y259340D01*
X336174Y259347D01*
X336172Y259347D01*
X336170Y259349D01*
X335370Y259349D01*
X335367Y259347D01*
X335363Y259347D01*
X335359Y259344D01*
X335354Y259347D01*
X334754Y259147D01*
X334740Y259125D01*
X334738Y259124D01*
X334726Y259122D01*
X334626Y258922D01*
X334627Y258919D01*
X334624Y258917D01*
X334628Y258913D01*
X334628Y258912D01*
X334621Y258908D01*
X334521Y258308D01*
X334524Y258303D01*
X334521Y258300D01*
X334521Y255680D01*
X334192Y255844D01*
X334187Y255843D01*
X334186Y255847D01*
X333586Y256047D01*
X333579Y256045D01*
X333577Y256049D01*
X332877Y256149D01*
X332872Y256146D01*
X332865Y256146D01*
X332862Y256149D01*
X332262Y256049D01*
X332255Y256041D01*
X332248Y256044D01*
X331648Y255744D01*
X331646Y255740D01*
X331643Y255741D01*
X331043Y255341D01*
X331039Y255331D01*
X331032Y255332D01*
X330532Y254732D01*
X330532Y254726D01*
X330528Y254725D01*
X330228Y254225D01*
X330229Y254216D01*
X330223Y254214D01*
X330023Y253514D01*
X330024Y253510D01*
X330021Y253508D01*
X329921Y252908D01*
X329924Y252903D01*
X329921Y252900D01*
X329921Y252200D01*
X329928Y252191D01*
X329923Y252184D01*
X330123Y251584D01*
X330126Y251583D01*
X330125Y251581D01*
X330425Y250881D01*
X330433Y250876D01*
X330432Y250869D01*
X330832Y250369D01*
X330836Y250368D01*
X330835Y250365D01*
X331335Y249865D01*
X331342Y249864D01*
X331343Y249859D01*
X331943Y249459D01*
X331952Y249460D01*
X331954Y249453D01*
X332554Y249253D01*
X332565Y249257D01*
X332570Y249251D01*
X333170Y249251D01*
X333174Y249254D01*
G37*
G36*
X347815Y20662D02*
X347815Y20662D01*
X347826Y20658D01*
X348626Y21158D01*
X348632Y21174D01*
X348642Y21175D01*
X348942Y21675D01*
X348940Y21700D01*
X348948Y21710D01*
X348848Y22210D01*
X348842Y22216D01*
X348844Y22221D01*
X345244Y29721D01*
X345234Y29727D01*
X345235Y29735D01*
X344935Y30035D01*
X344923Y30036D01*
X344922Y30044D01*
X344322Y30344D01*
X344301Y30340D01*
X344292Y30349D01*
X343692Y30249D01*
X343682Y30238D01*
X343673Y30241D01*
X343073Y29841D01*
X343067Y29824D01*
X343056Y29822D01*
X342756Y29222D01*
X342756Y29221D01*
X342755Y29221D01*
X339556Y22422D01*
X339256Y21822D01*
X339263Y21787D01*
X339258Y21775D01*
X339558Y21275D01*
X339571Y21269D01*
X339571Y21260D01*
X340271Y20760D01*
X340287Y20760D01*
X340292Y20751D01*
X340892Y20651D01*
X340913Y20663D01*
X340925Y20658D01*
X341425Y20958D01*
X341433Y20976D01*
X341444Y20978D01*
X341744Y21578D01*
X342330Y22751D01*
X345700Y22751D01*
X345703Y22753D01*
X345706Y22751D01*
X345711Y22759D01*
X345747Y22787D01*
X345736Y22802D01*
X345740Y22804D01*
X345738Y22807D01*
X345740Y22811D01*
X345756Y22779D01*
X345762Y22776D01*
X345761Y22770D01*
X346058Y22373D01*
X346757Y21077D01*
X346766Y21072D01*
X346765Y21065D01*
X347165Y20665D01*
X347192Y20662D01*
X347200Y20651D01*
X347800Y20651D01*
X347815Y20662D01*
G37*
G36*
X435487Y198464D02*
X435487Y198464D01*
X435499Y198460D01*
X436199Y198960D01*
X436203Y198974D01*
X436212Y198975D01*
X436512Y199475D01*
X436510Y199500D01*
X436518Y199510D01*
X436418Y200010D01*
X436412Y200016D01*
X436414Y200021D01*
X432814Y207521D01*
X432810Y207524D01*
X432811Y207527D01*
X432611Y207827D01*
X432594Y207833D01*
X432592Y207844D01*
X431992Y208144D01*
X431972Y208140D01*
X431963Y208149D01*
X431263Y208049D01*
X431250Y208036D01*
X431239Y208038D01*
X430739Y207638D01*
X430736Y207624D01*
X430726Y207622D01*
X430426Y207022D01*
X427126Y200222D01*
X427127Y200217D01*
X427123Y200216D01*
X426923Y199616D01*
X426930Y199597D01*
X426929Y199597D01*
X426930Y199596D01*
X426931Y199593D01*
X426924Y199582D01*
X427124Y199082D01*
X427141Y199072D01*
X427141Y199060D01*
X427841Y198560D01*
X427857Y198560D01*
X427862Y198551D01*
X428462Y198451D01*
X428481Y198461D01*
X428492Y198456D01*
X429092Y198756D01*
X429102Y198776D01*
X429114Y198778D01*
X429414Y199378D01*
X430000Y200551D01*
X433350Y200551D01*
X433729Y200171D01*
X434325Y198879D01*
X434340Y198872D01*
X434339Y198862D01*
X434839Y198462D01*
X434862Y198461D01*
X434870Y198451D01*
X435470Y198451D01*
X435487Y198464D01*
G37*
G36*
X316311Y20662D02*
X316311Y20662D01*
X316322Y20656D01*
X316922Y20956D01*
X316927Y20966D01*
X316935Y20965D01*
X317535Y21565D01*
X317539Y21592D01*
X317549Y21600D01*
X317549Y22100D01*
X317540Y22113D01*
X317544Y22122D01*
X317244Y22722D01*
X317234Y22727D01*
X317235Y22735D01*
X314374Y25596D01*
X314831Y25962D01*
X314832Y25966D01*
X314835Y25965D01*
X316035Y27165D01*
X316035Y27167D01*
X316037Y27167D01*
X316836Y28066D01*
X317235Y28465D01*
X317236Y28477D01*
X317244Y28478D01*
X317544Y29078D01*
X317541Y29094D01*
X317549Y29100D01*
X317549Y29600D01*
X317533Y29621D01*
X317535Y29635D01*
X316935Y30235D01*
X316923Y30236D01*
X316922Y30244D01*
X316322Y30544D01*
X316293Y30539D01*
X316282Y30546D01*
X315782Y30346D01*
X315774Y30334D01*
X315765Y30335D01*
X315265Y29835D01*
X315265Y29832D01*
X315263Y29832D01*
X314063Y28432D01*
X312649Y26830D01*
X312649Y29300D01*
X312643Y29308D01*
X312647Y29314D01*
X312447Y30014D01*
X312430Y30027D01*
X312430Y30039D01*
X312030Y30339D01*
X312008Y30339D01*
X312000Y30349D01*
X311100Y30349D01*
X311091Y30342D01*
X311084Y30347D01*
X310484Y30147D01*
X310467Y30122D01*
X310454Y30118D01*
X310254Y29618D01*
X310258Y29605D01*
X310251Y29600D01*
X310251Y21400D01*
X310260Y21387D01*
X310256Y21378D01*
X310456Y20978D01*
X310482Y20965D01*
X310486Y20953D01*
X311186Y20753D01*
X311200Y20758D01*
X311206Y20751D01*
X312006Y20851D01*
X312019Y20864D01*
X312030Y20861D01*
X312430Y21161D01*
X312434Y21177D01*
X312437Y21179D01*
X312436Y21181D01*
X312447Y21184D01*
X312647Y21784D01*
X312643Y21795D01*
X312649Y21800D01*
X312649Y24269D01*
X315263Y21268D01*
X315265Y21267D01*
X315265Y21265D01*
X315765Y20765D01*
X315785Y20762D01*
X315790Y20752D01*
X316290Y20652D01*
X316311Y20662D01*
G37*
G36*
X435914Y209884D02*
X435914Y209884D01*
X435917Y209881D01*
X436617Y209981D01*
X436621Y209985D01*
X436624Y209983D01*
X437324Y210183D01*
X437328Y210188D01*
X437332Y210186D01*
X437932Y210486D01*
X437935Y210493D01*
X437941Y210492D01*
X438941Y211292D01*
X438943Y211299D01*
X438948Y211299D01*
X439348Y211799D01*
X439349Y211803D01*
X439351Y211803D01*
X439751Y212403D01*
X439751Y212410D01*
X439756Y212412D01*
X439955Y212911D01*
X440255Y213611D01*
X440253Y213619D01*
X440259Y213622D01*
X440359Y214222D01*
X440358Y214223D01*
X440359Y214223D01*
X440559Y215623D01*
X440555Y215629D01*
X440556Y215630D01*
X440554Y215632D01*
X440559Y215636D01*
X440459Y216436D01*
X440458Y216437D01*
X440459Y216437D01*
X440359Y217137D01*
X440354Y217142D01*
X440357Y217146D01*
X440157Y217746D01*
X440150Y217750D01*
X440152Y217755D01*
X439852Y218255D01*
X439848Y218257D01*
X439848Y218261D01*
X439448Y218761D01*
X439441Y218763D01*
X439441Y218768D01*
X438941Y219168D01*
X438933Y219169D01*
X438932Y219174D01*
X438332Y219474D01*
X438321Y219472D01*
X438317Y219479D01*
X437617Y219579D01*
X437612Y219576D01*
X437610Y219579D01*
X436810Y219579D01*
X436806Y219576D01*
X436803Y219579D01*
X436103Y219479D01*
X436098Y219474D01*
X436094Y219477D01*
X435494Y219277D01*
X435490Y219270D01*
X435485Y219272D01*
X434985Y218972D01*
X434981Y218964D01*
X434975Y218965D01*
X434475Y218465D01*
X434474Y218458D01*
X434469Y218457D01*
X434069Y217857D01*
X434070Y217848D01*
X434063Y217846D01*
X433863Y217246D01*
X433865Y217239D01*
X433861Y217237D01*
X433761Y216537D01*
X433764Y216532D01*
X433761Y216530D01*
X433761Y216430D01*
X433764Y216425D01*
X433761Y216422D01*
X433861Y215822D01*
X433869Y215815D01*
X433866Y215808D01*
X434166Y215208D01*
X434174Y215204D01*
X434172Y215198D01*
X434672Y214598D01*
X434679Y214597D01*
X434679Y214592D01*
X435179Y214192D01*
X435187Y214191D01*
X435188Y214186D01*
X435788Y213886D01*
X435799Y213888D01*
X435803Y213881D01*
X437203Y213681D01*
X437217Y213689D01*
X437226Y213683D01*
X437740Y213855D01*
X437664Y213550D01*
X437275Y212966D01*
X436685Y212573D01*
X436098Y212279D01*
X435410Y212279D01*
X435406Y212276D01*
X435403Y212279D01*
X434703Y212179D01*
X434693Y212169D01*
X434685Y212172D01*
X434185Y211872D01*
X434175Y211848D01*
X434163Y211844D01*
X433963Y211144D01*
X433968Y211130D01*
X433961Y211124D01*
X434061Y210324D01*
X434080Y210304D01*
X434080Y210291D01*
X434480Y209991D01*
X434498Y209991D01*
X434503Y209981D01*
X435203Y209881D01*
X435208Y209884D01*
X435210Y209881D01*
X435910Y209881D01*
X435914Y209884D01*
G37*
G36*
X452414Y209884D02*
X452414Y209884D01*
X452417Y209881D01*
X453117Y209981D01*
X453125Y209989D01*
X453132Y209986D01*
X453732Y210286D01*
X453735Y210293D01*
X453741Y210292D01*
X454241Y210692D01*
X454242Y210696D01*
X454245Y210695D01*
X454745Y211195D01*
X454746Y211207D01*
X454754Y211208D01*
X455054Y211808D01*
X455053Y211815D01*
X455057Y211816D01*
X455257Y212516D01*
X455256Y212521D01*
X455259Y212523D01*
X455359Y213223D01*
X455353Y213233D01*
X455359Y213238D01*
X455259Y213838D01*
X455255Y213841D01*
X455257Y213844D01*
X455057Y214544D01*
X455050Y214549D01*
X455052Y214555D01*
X454752Y215055D01*
X454747Y215057D01*
X454748Y215062D01*
X454248Y215662D01*
X454238Y215664D01*
X454237Y215671D01*
X453637Y216071D01*
X453628Y216070D01*
X453626Y216077D01*
X452426Y216477D01*
X452415Y216473D01*
X452410Y216479D01*
X451759Y216479D01*
X451759Y217190D01*
X452215Y217281D01*
X454310Y217281D01*
X454321Y217289D01*
X454328Y217284D01*
X454828Y217484D01*
X454840Y217503D01*
X454852Y217505D01*
X455152Y218005D01*
X455150Y218023D01*
X455159Y218030D01*
X455159Y218930D01*
X455148Y218945D01*
X455152Y218955D01*
X454852Y219455D01*
X454830Y219464D01*
X454826Y219477D01*
X454226Y219677D01*
X454215Y219673D01*
X454210Y219679D01*
X450810Y219679D01*
X450802Y219673D01*
X450796Y219677D01*
X450096Y219477D01*
X450084Y219460D01*
X450072Y219461D01*
X449672Y218961D01*
X449671Y218946D01*
X449662Y218942D01*
X449562Y218542D01*
X449564Y218538D01*
X449561Y218536D01*
X449061Y214636D01*
X449068Y214625D01*
X449062Y214618D01*
X449162Y214218D01*
X449182Y214202D01*
X449183Y214189D01*
X449783Y213789D01*
X449787Y213789D01*
X449788Y213786D01*
X450388Y213486D01*
X450408Y213490D01*
X450417Y213481D01*
X451117Y213581D01*
X451130Y213594D01*
X451141Y213592D01*
X451627Y213981D01*
X452298Y213981D01*
X452865Y213697D01*
X452959Y213038D01*
X452675Y212470D01*
X452105Y212280D01*
X451330Y212377D01*
X450841Y212768D01*
X450828Y212769D01*
X450826Y212777D01*
X450226Y212977D01*
X450203Y212969D01*
X450192Y212976D01*
X449692Y212776D01*
X449684Y212764D01*
X449675Y212765D01*
X449075Y212165D01*
X449073Y212149D01*
X449063Y212146D01*
X448863Y211546D01*
X448875Y211512D01*
X448872Y211499D01*
X449272Y210999D01*
X449276Y210998D01*
X449275Y210995D01*
X449775Y210495D01*
X449787Y210494D01*
X449788Y210486D01*
X450388Y210186D01*
X450393Y210187D01*
X450394Y210183D01*
X450994Y209983D01*
X451001Y209985D01*
X451003Y209981D01*
X451703Y209881D01*
X451708Y209884D01*
X451710Y209881D01*
X452410Y209881D01*
X452414Y209884D01*
G37*
G36*
X306255Y263224D02*
X306255Y263224D01*
X306258Y263221D01*
X306858Y263321D01*
X306864Y263328D01*
X306869Y263325D01*
X307569Y263625D01*
X307572Y263629D01*
X307575Y263628D01*
X308075Y263928D01*
X308077Y263932D01*
X308081Y263932D01*
X308581Y264332D01*
X308583Y264342D01*
X308591Y264343D01*
X308991Y264943D01*
X308990Y264952D01*
X308997Y264954D01*
X309197Y265554D01*
X309195Y265561D01*
X309199Y265563D01*
X309299Y266263D01*
X309294Y266271D01*
X309299Y266276D01*
X309199Y267076D01*
X309194Y267081D01*
X309197Y267086D01*
X308997Y267686D01*
X308986Y267693D01*
X308988Y267701D01*
X308588Y268201D01*
X308581Y268203D01*
X308581Y268208D01*
X308081Y268608D01*
X308073Y268609D01*
X308072Y268614D01*
X307472Y268914D01*
X307467Y268913D01*
X307466Y268917D01*
X306866Y269117D01*
X306862Y269115D01*
X306860Y269118D01*
X305472Y269416D01*
X304992Y269799D01*
X304805Y270360D01*
X305176Y270824D01*
X305845Y270920D01*
X306426Y270726D01*
X307018Y270232D01*
X307042Y270231D01*
X307050Y270221D01*
X307650Y270221D01*
X307665Y270232D01*
X307675Y270228D01*
X308175Y270528D01*
X308181Y270541D01*
X308190Y270541D01*
X308690Y271241D01*
X308689Y271263D01*
X308699Y271270D01*
X308699Y271770D01*
X308683Y271791D01*
X308685Y271805D01*
X308185Y272305D01*
X308181Y272305D01*
X308181Y272308D01*
X307681Y272708D01*
X307667Y272709D01*
X307664Y272717D01*
X306964Y272917D01*
X306959Y272916D01*
X306957Y272919D01*
X305557Y273119D01*
X305548Y273114D01*
X305543Y273119D01*
X304843Y273019D01*
X304838Y273014D01*
X304834Y273017D01*
X304234Y272817D01*
X304231Y272812D01*
X304228Y272814D01*
X303628Y272514D01*
X303625Y272507D01*
X303619Y272508D01*
X303119Y272108D01*
X303117Y272098D01*
X303109Y272097D01*
X302709Y271497D01*
X302710Y271488D01*
X302703Y271486D01*
X302503Y270886D01*
X302505Y270880D01*
X302501Y270878D01*
X302401Y270278D01*
X302407Y270268D01*
X302401Y270263D01*
X302501Y269563D01*
X302505Y269559D01*
X302503Y269556D01*
X302703Y268856D01*
X302710Y268851D01*
X302708Y268845D01*
X303008Y268345D01*
X303019Y268340D01*
X303019Y268332D01*
X303519Y267932D01*
X303527Y267931D01*
X303528Y267926D01*
X304128Y267626D01*
X304130Y267626D01*
X304131Y267625D01*
X304831Y267325D01*
X304835Y267326D01*
X304836Y267323D01*
X305536Y267123D01*
X305540Y267124D01*
X305542Y267121D01*
X306135Y267023D01*
X306710Y266735D01*
X306896Y266176D01*
X306616Y265709D01*
X305943Y265421D01*
X305268Y265517D01*
X304680Y265909D01*
X304082Y266408D01*
X304070Y266408D01*
X304068Y266416D01*
X303568Y266616D01*
X303556Y266612D01*
X303551Y266619D01*
X303549Y266619D01*
X303545Y266616D01*
X303542Y266619D01*
X302942Y266519D01*
X302925Y266501D01*
X302912Y266502D01*
X302412Y265902D01*
X302412Y265894D01*
X302411Y265894D01*
X302412Y265893D01*
X302411Y265884D01*
X302402Y265880D01*
X302302Y265380D01*
X302311Y265361D01*
X302305Y265351D01*
X302605Y264651D01*
X302616Y264644D01*
X302615Y264635D01*
X303015Y264235D01*
X303022Y264234D01*
X303023Y264229D01*
X304223Y263429D01*
X304232Y263430D01*
X304234Y263423D01*
X304834Y263223D01*
X304845Y263227D01*
X304850Y263221D01*
X306250Y263221D01*
X306255Y263224D01*
G37*
G36*
X356608Y20657D02*
X356608Y20657D01*
X356614Y20653D01*
X358014Y21053D01*
X358019Y21060D01*
X358025Y21058D01*
X358525Y21358D01*
X358527Y21362D01*
X358531Y21362D01*
X359031Y21762D01*
X359036Y21781D01*
X359047Y21784D01*
X359247Y22384D01*
X359237Y22412D01*
X359243Y22424D01*
X358843Y23124D01*
X358834Y23128D01*
X358835Y23135D01*
X358335Y23635D01*
X358316Y23637D01*
X358312Y23648D01*
X357912Y23748D01*
X357888Y23738D01*
X357876Y23743D01*
X357177Y23344D01*
X356588Y23049D01*
X355312Y23049D01*
X354725Y23343D01*
X354134Y23737D01*
X353742Y24227D01*
X353449Y24812D01*
X353449Y26192D01*
X353644Y26776D01*
X354133Y27362D01*
X354623Y27657D01*
X355215Y27952D01*
X355900Y28050D01*
X356589Y27952D01*
X357178Y27755D01*
X357773Y27359D01*
X357793Y27360D01*
X357800Y27351D01*
X358300Y27351D01*
X358321Y27367D01*
X358335Y27365D01*
X358835Y27865D01*
X358836Y27872D01*
X358841Y27873D01*
X359241Y28473D01*
X359240Y28493D01*
X359249Y28500D01*
X359249Y29100D01*
X359233Y29121D01*
X359235Y29135D01*
X358735Y29635D01*
X358723Y29636D01*
X358722Y29644D01*
X357522Y30244D01*
X357511Y30242D01*
X357507Y30249D01*
X356107Y30449D01*
X356102Y30446D01*
X356100Y30449D01*
X355500Y30449D01*
X355496Y30446D01*
X355493Y30449D01*
X354793Y30349D01*
X354788Y30344D01*
X354784Y30347D01*
X354184Y30147D01*
X354183Y30144D01*
X354181Y30145D01*
X353481Y29845D01*
X353477Y29839D01*
X353473Y29841D01*
X352873Y29441D01*
X352872Y29438D01*
X352869Y29438D01*
X352369Y29038D01*
X352367Y29031D01*
X352362Y29031D01*
X351962Y28531D01*
X351961Y28527D01*
X351959Y28527D01*
X351559Y27927D01*
X351560Y27918D01*
X351553Y27916D01*
X351153Y26716D01*
X351155Y26709D01*
X351151Y26707D01*
X351051Y26007D01*
X351054Y26002D01*
X351051Y26000D01*
X351051Y24600D01*
X351058Y24591D01*
X351053Y24584D01*
X351253Y23984D01*
X351256Y23983D01*
X351255Y23981D01*
X351555Y23281D01*
X351559Y23278D01*
X351558Y23275D01*
X351858Y22775D01*
X351862Y22773D01*
X351862Y22769D01*
X352262Y22269D01*
X352266Y22268D01*
X352265Y22265D01*
X352765Y21765D01*
X352772Y21764D01*
X352773Y21759D01*
X353373Y21359D01*
X353377Y21359D01*
X353378Y21356D01*
X353978Y21056D01*
X353983Y21057D01*
X353984Y21053D01*
X354584Y20853D01*
X354586Y20854D01*
X354586Y20853D01*
X355286Y20653D01*
X355296Y20656D01*
X355300Y20651D01*
X356600Y20651D01*
X356608Y20657D01*
G37*
G36*
X62334Y77704D02*
X62334Y77704D01*
X62337Y77701D01*
X63037Y77801D01*
X63042Y77806D01*
X63046Y77803D01*
X63645Y78003D01*
X64344Y78203D01*
X64352Y78214D01*
X64361Y78212D01*
X65361Y79012D01*
X65362Y79016D01*
X65365Y79015D01*
X65865Y79515D01*
X65865Y79519D01*
X65868Y79519D01*
X66268Y80019D01*
X66269Y80029D01*
X66275Y80031D01*
X66575Y80731D01*
X66575Y80734D01*
X66577Y80734D01*
X66977Y81934D01*
X66973Y81945D01*
X66979Y81950D01*
X66979Y83250D01*
X66973Y83258D01*
X66977Y83264D01*
X66778Y83962D01*
X66578Y84762D01*
X66567Y84771D01*
X66569Y84780D01*
X66270Y85179D01*
X65871Y85777D01*
X65844Y85787D01*
X65838Y85799D01*
X65238Y85899D01*
X65221Y85890D01*
X65211Y85895D01*
X64511Y85595D01*
X64504Y85584D01*
X64495Y85585D01*
X63995Y85085D01*
X63993Y85066D01*
X63982Y85062D01*
X63882Y84662D01*
X63893Y84638D01*
X63887Y84626D01*
X64286Y83927D01*
X64581Y83338D01*
X64581Y82060D01*
X64287Y81376D01*
X63893Y80883D01*
X63403Y80393D01*
X62819Y80198D01*
X62130Y80100D01*
X61441Y80198D01*
X60852Y80395D01*
X60268Y80784D01*
X59974Y81372D01*
X59677Y81965D01*
X59580Y82551D01*
X59678Y83339D01*
X59875Y83928D01*
X60271Y84523D01*
X60271Y84530D01*
X60275Y84533D01*
X60270Y84540D01*
X60270Y84543D01*
X60279Y84550D01*
X60279Y85050D01*
X60263Y85071D01*
X60265Y85085D01*
X59765Y85585D01*
X59758Y85586D01*
X59757Y85591D01*
X59157Y85991D01*
X59132Y85989D01*
X59122Y85999D01*
X58522Y85899D01*
X58507Y85883D01*
X58495Y85885D01*
X57995Y85385D01*
X57994Y85376D01*
X57988Y85375D01*
X57688Y84875D01*
X57688Y84870D01*
X57685Y84869D01*
X57385Y84169D01*
X57385Y84167D01*
X57384Y84166D01*
X57387Y84162D01*
X57387Y84160D01*
X57381Y84157D01*
X57281Y83458D01*
X57181Y82858D01*
X57184Y82853D01*
X57181Y82850D01*
X57181Y82150D01*
X57184Y82145D01*
X57181Y82142D01*
X57281Y81542D01*
X57285Y81539D01*
X57283Y81536D01*
X57483Y80836D01*
X57488Y80832D01*
X57486Y80828D01*
X57786Y80228D01*
X57790Y80226D01*
X57789Y80223D01*
X58189Y79623D01*
X58192Y79622D01*
X58192Y79619D01*
X58592Y79119D01*
X58599Y79117D01*
X58599Y79112D01*
X59099Y78712D01*
X59103Y78711D01*
X59103Y78709D01*
X59703Y78309D01*
X59707Y78309D01*
X59708Y78306D01*
X60308Y78006D01*
X60313Y78007D01*
X60314Y78003D01*
X60914Y77803D01*
X60921Y77805D01*
X60923Y77801D01*
X61623Y77701D01*
X61628Y77704D01*
X61630Y77701D01*
X62330Y77701D01*
X62334Y77704D01*
G37*
G36*
X324479Y249258D02*
X324479Y249258D01*
X324486Y249253D01*
X325086Y249453D01*
X325095Y249467D01*
X325105Y249465D01*
X325560Y249921D01*
X325828Y249475D01*
X325848Y249466D01*
X325852Y249454D01*
X326352Y249254D01*
X326365Y249258D01*
X326370Y249251D01*
X327270Y249251D01*
X327285Y249262D01*
X327295Y249258D01*
X327795Y249558D01*
X327803Y249577D01*
X327810Y249582D01*
X327807Y249586D01*
X327819Y249593D01*
X327919Y250293D01*
X327916Y250298D01*
X327919Y250300D01*
X327919Y255100D01*
X327912Y255109D01*
X327917Y255116D01*
X327717Y255716D01*
X327703Y255725D01*
X327705Y255735D01*
X327305Y256135D01*
X327279Y256138D01*
X327274Y256146D01*
X327273Y256146D01*
X327270Y256149D01*
X326470Y256149D01*
X326465Y256146D01*
X326459Y256146D01*
X326456Y256147D01*
X325756Y255947D01*
X325741Y255927D01*
X325733Y255921D01*
X325724Y255918D01*
X325552Y255488D01*
X325505Y255535D01*
X325501Y255535D01*
X325501Y255538D01*
X325001Y255938D01*
X324987Y255939D01*
X324984Y255947D01*
X324284Y256147D01*
X324279Y256146D01*
X324273Y256146D01*
X324270Y256149D01*
X323670Y256149D01*
X323665Y256146D01*
X323659Y256146D01*
X323656Y256147D01*
X322956Y255947D01*
X322951Y255940D01*
X322945Y255942D01*
X322445Y255642D01*
X322443Y255637D01*
X322438Y255638D01*
X321838Y255138D01*
X321836Y255128D01*
X321829Y255127D01*
X321429Y254527D01*
X321429Y254523D01*
X321426Y254522D01*
X321126Y253922D01*
X321127Y253917D01*
X321123Y253916D01*
X320923Y253316D01*
X320927Y253306D01*
X320923Y253303D01*
X320923Y253302D01*
X320921Y253300D01*
X320921Y252600D01*
X320924Y252596D01*
X320921Y252593D01*
X321021Y251893D01*
X321026Y251888D01*
X321023Y251884D01*
X321223Y251284D01*
X321228Y251281D01*
X321226Y251278D01*
X321526Y250678D01*
X321533Y250675D01*
X321532Y250669D01*
X321932Y250169D01*
X321939Y250167D01*
X321938Y250162D01*
X322538Y249662D01*
X322547Y249662D01*
X322548Y249656D01*
X323148Y249356D01*
X323159Y249358D01*
X323162Y249351D01*
X323762Y249251D01*
X323767Y249254D01*
X323770Y249251D01*
X324470Y249251D01*
X324479Y249258D01*
G37*
G36*
X485078Y198457D02*
X485078Y198457D01*
X485084Y198453D01*
X485784Y198653D01*
X485796Y198670D01*
X485808Y198669D01*
X486164Y199114D01*
X486428Y198675D01*
X486450Y198666D01*
X486454Y198653D01*
X487054Y198453D01*
X487065Y198457D01*
X487070Y198451D01*
X487870Y198451D01*
X487885Y198462D01*
X487895Y198458D01*
X488395Y198758D01*
X488403Y198777D01*
X488410Y198782D01*
X488407Y198786D01*
X488419Y198793D01*
X488519Y199493D01*
X488516Y199498D01*
X488519Y199500D01*
X488519Y204300D01*
X488516Y204305D01*
X488519Y204308D01*
X488419Y204908D01*
X488400Y204925D01*
X488401Y204938D01*
X487901Y205338D01*
X487879Y205339D01*
X487874Y205346D01*
X487873Y205346D01*
X487870Y205349D01*
X487070Y205349D01*
X487065Y205346D01*
X487060Y205346D01*
X487058Y205344D01*
X487054Y205347D01*
X486454Y205147D01*
X486441Y205127D01*
X486428Y205125D01*
X486160Y204679D01*
X486105Y204735D01*
X486101Y204735D01*
X486101Y204738D01*
X485601Y205138D01*
X485588Y205139D01*
X485586Y205147D01*
X484986Y205347D01*
X484981Y205345D01*
X484981Y205346D01*
X484973Y205346D01*
X484970Y205349D01*
X484270Y205349D01*
X484265Y205346D01*
X484260Y205346D01*
X484258Y205344D01*
X484254Y205347D01*
X483654Y205147D01*
X483651Y205142D01*
X483648Y205144D01*
X483048Y204844D01*
X483044Y204837D01*
X483038Y204838D01*
X482438Y204338D01*
X482436Y204328D01*
X482429Y204327D01*
X482029Y203727D01*
X482029Y203723D01*
X482026Y203722D01*
X481726Y203122D01*
X481727Y203117D01*
X481723Y203116D01*
X481523Y202516D01*
X481527Y202506D01*
X481523Y202503D01*
X481523Y202502D01*
X481521Y202500D01*
X481521Y201800D01*
X481524Y201796D01*
X481521Y201793D01*
X481621Y201093D01*
X481626Y201088D01*
X481623Y201084D01*
X481823Y200484D01*
X481828Y200481D01*
X481826Y200478D01*
X482126Y199878D01*
X482136Y199873D01*
X482135Y199865D01*
X483135Y198865D01*
X483147Y198864D01*
X483148Y198856D01*
X483748Y198556D01*
X483759Y198558D01*
X483762Y198551D01*
X484362Y198451D01*
X484367Y198454D01*
X484370Y198451D01*
X485070Y198451D01*
X485078Y198457D01*
G37*
G36*
X386888Y249257D02*
X386888Y249257D01*
X386894Y249253D01*
X387594Y249453D01*
X387606Y249470D01*
X387618Y249469D01*
X387974Y249914D01*
X388238Y249475D01*
X388260Y249466D01*
X388264Y249453D01*
X388864Y249253D01*
X388875Y249257D01*
X388880Y249251D01*
X389680Y249251D01*
X389695Y249262D01*
X389705Y249258D01*
X390205Y249558D01*
X390213Y249577D01*
X390220Y249582D01*
X390217Y249586D01*
X390229Y249593D01*
X390329Y250293D01*
X390326Y250298D01*
X390329Y250300D01*
X390329Y255100D01*
X390326Y255105D01*
X390329Y255108D01*
X390229Y255708D01*
X390210Y255725D01*
X390211Y255738D01*
X389711Y256138D01*
X389689Y256139D01*
X389684Y256146D01*
X389683Y256146D01*
X389680Y256149D01*
X388880Y256149D01*
X388875Y256146D01*
X388870Y256146D01*
X388868Y256144D01*
X388864Y256147D01*
X388264Y255947D01*
X388251Y255927D01*
X388238Y255925D01*
X387970Y255479D01*
X387915Y255535D01*
X387911Y255535D01*
X387911Y255538D01*
X387411Y255938D01*
X387397Y255939D01*
X387394Y255947D01*
X386694Y256147D01*
X386689Y256146D01*
X386683Y256146D01*
X386680Y256149D01*
X386080Y256149D01*
X386075Y256146D01*
X386070Y256146D01*
X386068Y256144D01*
X386064Y256147D01*
X385464Y255947D01*
X385461Y255942D01*
X385458Y255944D01*
X384858Y255644D01*
X384854Y255637D01*
X384848Y255638D01*
X384248Y255138D01*
X384246Y255128D01*
X384239Y255127D01*
X383839Y254527D01*
X383839Y254523D01*
X383836Y254522D01*
X383536Y253922D01*
X383537Y253917D01*
X383533Y253916D01*
X383333Y253316D01*
X383337Y253306D01*
X383333Y253303D01*
X383333Y253302D01*
X383331Y253300D01*
X383331Y252600D01*
X383334Y252596D01*
X383331Y252593D01*
X383431Y251893D01*
X383436Y251888D01*
X383433Y251884D01*
X383633Y251284D01*
X383638Y251281D01*
X383636Y251278D01*
X383936Y250678D01*
X383946Y250673D01*
X383945Y250665D01*
X384945Y249665D01*
X384957Y249664D01*
X384958Y249656D01*
X385558Y249356D01*
X385569Y249358D01*
X385572Y249351D01*
X386172Y249251D01*
X386177Y249254D01*
X386180Y249251D01*
X386880Y249251D01*
X386888Y249257D01*
G37*
G36*
X335159Y263228D02*
X335159Y263228D01*
X335166Y263223D01*
X335766Y263423D01*
X335775Y263437D01*
X335785Y263435D01*
X336232Y263882D01*
X336404Y263452D01*
X336430Y263436D01*
X336434Y263423D01*
X337034Y263223D01*
X337045Y263227D01*
X337050Y263221D01*
X337850Y263221D01*
X337865Y263232D01*
X337875Y263228D01*
X338375Y263528D01*
X338383Y263547D01*
X338390Y263552D01*
X338387Y263556D01*
X338399Y263563D01*
X338499Y264263D01*
X338496Y264268D01*
X338499Y264270D01*
X338499Y269070D01*
X338496Y269075D01*
X338499Y269078D01*
X338399Y269678D01*
X338380Y269695D01*
X338381Y269708D01*
X337881Y270108D01*
X337859Y270109D01*
X337854Y270116D01*
X337853Y270116D01*
X337850Y270119D01*
X337150Y270119D01*
X337145Y270116D01*
X337139Y270116D01*
X337136Y270117D01*
X336436Y269917D01*
X336421Y269897D01*
X336408Y269895D01*
X336140Y269449D01*
X336085Y269505D01*
X336081Y269505D01*
X336081Y269508D01*
X335581Y269908D01*
X335568Y269909D01*
X335566Y269917D01*
X334966Y270117D01*
X334961Y270115D01*
X334961Y270116D01*
X334953Y270116D01*
X334950Y270119D01*
X334250Y270119D01*
X334245Y270116D01*
X334240Y270116D01*
X334238Y270114D01*
X334234Y270117D01*
X333634Y269917D01*
X333631Y269912D01*
X333628Y269914D01*
X333028Y269614D01*
X333023Y269604D01*
X333015Y269605D01*
X332515Y269105D01*
X332515Y269101D01*
X332512Y269102D01*
X332012Y268502D01*
X332012Y268493D01*
X332006Y268492D01*
X331706Y267892D01*
X331708Y267882D01*
X331701Y267878D01*
X331601Y267278D01*
X331602Y267277D01*
X331601Y267277D01*
X331501Y266577D01*
X331506Y266568D01*
X331501Y266563D01*
X331601Y265863D01*
X331606Y265858D01*
X331603Y265854D01*
X331803Y265254D01*
X331808Y265251D01*
X331806Y265248D01*
X332106Y264648D01*
X332116Y264643D01*
X332115Y264635D01*
X332615Y264135D01*
X332619Y264135D01*
X332618Y264132D01*
X333218Y263632D01*
X333224Y263632D01*
X333225Y263628D01*
X333725Y263328D01*
X333739Y263329D01*
X333743Y263321D01*
X334443Y263221D01*
X334448Y263224D01*
X334450Y263221D01*
X335150Y263221D01*
X335159Y263228D01*
G37*
G36*
X368684Y249254D02*
X368684Y249254D01*
X368687Y249251D01*
X369387Y249351D01*
X369395Y249359D01*
X369402Y249356D01*
X370002Y249656D01*
X370004Y249660D01*
X370007Y249659D01*
X370607Y250059D01*
X370608Y250062D01*
X370611Y250062D01*
X371111Y250462D01*
X371113Y250472D01*
X371121Y250473D01*
X371521Y251073D01*
X371520Y251082D01*
X371527Y251084D01*
X371727Y251684D01*
X371726Y251686D01*
X371727Y251686D01*
X371927Y252386D01*
X371926Y252389D01*
X371927Y252389D01*
X371925Y252393D01*
X371924Y252396D01*
X371929Y252400D01*
X371929Y253100D01*
X371926Y253104D01*
X371929Y253107D01*
X371829Y253807D01*
X371821Y253815D01*
X371824Y253822D01*
X371224Y255022D01*
X371214Y255027D01*
X371215Y255035D01*
X370715Y255535D01*
X370711Y255535D01*
X370711Y255538D01*
X370211Y255938D01*
X370203Y255939D01*
X370202Y255944D01*
X369602Y256244D01*
X369592Y256242D01*
X369590Y256244D01*
X369589Y256244D01*
X369587Y256249D01*
X368187Y256449D01*
X368178Y256444D01*
X368173Y256449D01*
X367473Y256349D01*
X367468Y256344D01*
X367464Y256347D01*
X366864Y256147D01*
X366861Y256142D01*
X366858Y256144D01*
X366258Y255844D01*
X366253Y255834D01*
X366245Y255835D01*
X365746Y255336D01*
X364747Y254437D01*
X364742Y254408D01*
X364731Y254400D01*
X364731Y252300D01*
X364737Y252292D01*
X364733Y252286D01*
X364933Y251586D01*
X364938Y251582D01*
X364936Y251578D01*
X365236Y250978D01*
X365240Y250976D01*
X365239Y250973D01*
X365639Y250373D01*
X365649Y250369D01*
X365649Y250362D01*
X366149Y249962D01*
X366153Y249961D01*
X366153Y249959D01*
X366753Y249559D01*
X366762Y249560D01*
X366764Y249553D01*
X367364Y249353D01*
X367371Y249355D01*
X367373Y249351D01*
X368073Y249251D01*
X368078Y249254D01*
X368080Y249251D01*
X368680Y249251D01*
X368684Y249254D01*
G37*
G36*
X346974Y249254D02*
X346974Y249254D01*
X346977Y249251D01*
X347677Y249351D01*
X347685Y249359D01*
X347692Y249356D01*
X348292Y249656D01*
X348294Y249660D01*
X348297Y249659D01*
X348897Y250059D01*
X348900Y250066D01*
X348905Y250065D01*
X349305Y250465D01*
X349306Y250472D01*
X349311Y250473D01*
X349711Y251073D01*
X349711Y251077D01*
X349714Y251078D01*
X350014Y251678D01*
X350012Y251689D01*
X350019Y251693D01*
X350219Y253093D01*
X350212Y253106D01*
X350217Y253114D01*
X350017Y253814D01*
X350016Y253815D01*
X350017Y253816D01*
X349817Y254416D01*
X349812Y254419D01*
X349814Y254422D01*
X349514Y255022D01*
X349504Y255027D01*
X349505Y255035D01*
X349005Y255535D01*
X348998Y255536D01*
X348997Y255541D01*
X348397Y255941D01*
X348393Y255941D01*
X348392Y255944D01*
X347792Y256244D01*
X347782Y256242D01*
X347781Y256243D01*
X347778Y256249D01*
X347178Y256349D01*
X347177Y256348D01*
X347177Y256349D01*
X346477Y256449D01*
X346468Y256444D01*
X346463Y256449D01*
X345763Y256349D01*
X345758Y256344D01*
X345754Y256347D01*
X345154Y256147D01*
X345151Y256142D01*
X345148Y256144D01*
X344548Y255844D01*
X344543Y255834D01*
X344535Y255835D01*
X344037Y255337D01*
X342939Y254438D01*
X342932Y254408D01*
X342921Y254400D01*
X342921Y252900D01*
X342924Y252895D01*
X342921Y252892D01*
X343021Y252292D01*
X343025Y252289D01*
X343023Y252286D01*
X343223Y251586D01*
X343228Y251582D01*
X343226Y251578D01*
X343526Y250978D01*
X343530Y250976D01*
X343529Y250973D01*
X343929Y250373D01*
X343939Y250369D01*
X343939Y250362D01*
X344939Y249562D01*
X344999Y249560D01*
X344999Y249573D01*
X345012Y249575D01*
X345030Y249604D01*
X345036Y249565D01*
X345050Y249567D01*
X345054Y249553D01*
X345654Y249353D01*
X345661Y249355D01*
X345663Y249351D01*
X346363Y249251D01*
X346368Y249254D01*
X346370Y249251D01*
X346970Y249251D01*
X346974Y249254D01*
G37*
%LPC*%
G36*
X443051Y68388D02*
X443051Y68388D01*
X443050Y68392D01*
X443052Y68398D01*
X443062Y68923D01*
X443059Y68928D01*
X443061Y68937D01*
X442949Y69454D01*
X442944Y69460D01*
X442943Y69471D01*
X442701Y69927D01*
X442696Y69929D01*
X442694Y69937D01*
X442360Y70345D01*
X442359Y70345D01*
X442359Y70346D01*
X442348Y70351D01*
X442341Y70360D01*
X441874Y70610D01*
X441871Y70610D01*
X441867Y70613D01*
X441379Y70800D01*
X441373Y70798D01*
X441366Y70803D01*
X440843Y70880D01*
X440839Y70879D01*
X440835Y70881D01*
X440311Y70892D01*
X440307Y70889D01*
X440301Y70891D01*
X439777Y70815D01*
X439773Y70812D01*
X439767Y70812D01*
X439270Y70653D01*
X439267Y70649D01*
X439260Y70648D01*
X438793Y70398D01*
X438789Y70391D01*
X438777Y70386D01*
X438423Y70002D01*
X438422Y69996D01*
X438416Y69992D01*
X438144Y69550D01*
X438144Y69541D01*
X438136Y69530D01*
X438025Y69012D01*
X438027Y69008D01*
X438024Y69001D01*
X438007Y68358D01*
X437757Y68348D01*
X435397Y68348D01*
X435390Y68518D01*
X435383Y69039D01*
X435740Y71108D01*
X436574Y72437D01*
X436993Y72895D01*
X436994Y72905D01*
X438204Y73695D01*
X438678Y73873D01*
X440231Y74149D01*
X440741Y74160D01*
X442296Y73886D01*
X442784Y73746D01*
X444104Y72893D01*
X444459Y72535D01*
X445306Y71210D01*
X445443Y70720D01*
X445715Y69163D01*
X445746Y68644D01*
X445732Y68348D01*
X443044Y68348D01*
X443051Y68388D01*
G37*
%LPD*%
G36*
X184007Y4146D02*
X184007Y4146D01*
X184012Y4142D01*
X184812Y4342D01*
X184819Y4351D01*
X184825Y4348D01*
X185325Y4648D01*
X185329Y4656D01*
X185335Y4655D01*
X185635Y4955D01*
X185639Y4982D01*
X185649Y4990D01*
X185649Y5490D01*
X185638Y5504D01*
X185643Y5514D01*
X185243Y6214D01*
X185227Y6221D01*
X185225Y6232D01*
X184725Y6532D01*
X184696Y6529D01*
X184684Y6537D01*
X183492Y6139D01*
X182708Y6139D01*
X182127Y6333D01*
X181688Y6772D01*
X182118Y6944D01*
X182139Y6978D01*
X182146Y6984D01*
X182144Y6987D01*
X182148Y6994D01*
X182152Y6978D01*
X182199Y6941D01*
X182199Y6942D01*
X182200Y6941D01*
X184900Y6941D01*
X184910Y6948D01*
X184915Y6948D01*
X184916Y6949D01*
X184922Y6946D01*
X185522Y7246D01*
X185525Y7253D01*
X185531Y7252D01*
X186031Y7652D01*
X186035Y7667D01*
X186043Y7673D01*
X186038Y7680D01*
X186038Y7682D01*
X186049Y7690D01*
X186049Y8490D01*
X186046Y8494D01*
X186049Y8497D01*
X185949Y9197D01*
X185944Y9202D01*
X185947Y9206D01*
X185747Y9806D01*
X185736Y9813D01*
X185738Y9821D01*
X185338Y10321D01*
X185334Y10322D01*
X185335Y10325D01*
X184835Y10825D01*
X184823Y10826D01*
X184822Y10834D01*
X184222Y11134D01*
X184212Y11132D01*
X184210Y11134D01*
X184209Y11134D01*
X184207Y11139D01*
X182807Y11339D01*
X182798Y11334D01*
X182793Y11339D01*
X182093Y11239D01*
X182089Y11235D01*
X182086Y11237D01*
X181386Y11037D01*
X181382Y11032D01*
X181378Y11034D01*
X180778Y10734D01*
X180775Y10727D01*
X180769Y10728D01*
X179769Y9928D01*
X179766Y9914D01*
X179756Y9912D01*
X179456Y9312D01*
X179457Y9307D01*
X179453Y9306D01*
X179253Y8706D01*
X179255Y8699D01*
X179251Y8697D01*
X179151Y7997D01*
X179154Y7992D01*
X179151Y7990D01*
X179151Y7290D01*
X179154Y7286D01*
X179151Y7283D01*
X179251Y6583D01*
X179259Y6575D01*
X179256Y6568D01*
X179856Y5368D01*
X179866Y5363D01*
X179865Y5355D01*
X180365Y4855D01*
X180372Y4854D01*
X180373Y4849D01*
X180973Y4449D01*
X180982Y4450D01*
X180984Y4443D01*
X181584Y4243D01*
X181591Y4245D01*
X181593Y4241D01*
X182293Y4141D01*
X182298Y4144D01*
X182300Y4141D01*
X184000Y4141D01*
X184007Y4146D01*
G37*
G36*
X367767Y263226D02*
X367767Y263226D01*
X367772Y263222D01*
X368572Y263422D01*
X368579Y263431D01*
X368585Y263428D01*
X369085Y263728D01*
X369089Y263736D01*
X369095Y263735D01*
X369395Y264035D01*
X369399Y264062D01*
X369409Y264070D01*
X369409Y264570D01*
X369398Y264584D01*
X369403Y264594D01*
X369003Y265294D01*
X368987Y265301D01*
X368985Y265312D01*
X368485Y265612D01*
X368456Y265609D01*
X368444Y265617D01*
X367252Y265219D01*
X366468Y265219D01*
X365887Y265413D01*
X365448Y265852D01*
X365878Y266024D01*
X365899Y266058D01*
X365906Y266064D01*
X365904Y266067D01*
X365908Y266074D01*
X365912Y266058D01*
X365959Y266021D01*
X365959Y266022D01*
X365960Y266021D01*
X368660Y266021D01*
X368670Y266028D01*
X368675Y266028D01*
X368676Y266029D01*
X368682Y266026D01*
X369282Y266326D01*
X369285Y266333D01*
X369291Y266332D01*
X369791Y266732D01*
X369795Y266747D01*
X369803Y266753D01*
X369798Y266760D01*
X369798Y266762D01*
X369809Y266770D01*
X369809Y267570D01*
X369806Y267574D01*
X369809Y267577D01*
X369709Y268277D01*
X369704Y268282D01*
X369707Y268286D01*
X369507Y268886D01*
X369496Y268893D01*
X369498Y268901D01*
X369098Y269401D01*
X369094Y269402D01*
X369095Y269405D01*
X368595Y269905D01*
X368583Y269906D01*
X368582Y269914D01*
X367982Y270214D01*
X367972Y270212D01*
X367970Y270214D01*
X367969Y270214D01*
X367967Y270219D01*
X366567Y270419D01*
X366558Y270414D01*
X366553Y270419D01*
X365853Y270319D01*
X365849Y270315D01*
X365846Y270317D01*
X365146Y270117D01*
X365142Y270112D01*
X365138Y270114D01*
X364538Y269814D01*
X364535Y269807D01*
X364529Y269808D01*
X364029Y269408D01*
X364028Y269404D01*
X364025Y269405D01*
X363625Y269005D01*
X363624Y268998D01*
X363619Y268997D01*
X363219Y268397D01*
X363220Y268388D01*
X363213Y268386D01*
X363013Y267786D01*
X363015Y267779D01*
X363011Y267777D01*
X362911Y267077D01*
X362914Y267072D01*
X362911Y267070D01*
X362911Y266370D01*
X362914Y266366D01*
X362911Y266363D01*
X363011Y265663D01*
X363019Y265655D01*
X363016Y265648D01*
X363616Y264448D01*
X363626Y264443D01*
X363625Y264435D01*
X364125Y263935D01*
X364132Y263934D01*
X364133Y263929D01*
X364733Y263529D01*
X364742Y263530D01*
X364744Y263523D01*
X365344Y263323D01*
X365351Y263325D01*
X365353Y263321D01*
X366053Y263221D01*
X366058Y263224D01*
X366060Y263221D01*
X367760Y263221D01*
X367767Y263226D01*
G37*
G36*
X403068Y263227D02*
X403068Y263227D01*
X403074Y263223D01*
X403774Y263423D01*
X403779Y263430D01*
X403785Y263428D01*
X404285Y263728D01*
X404289Y263736D01*
X404295Y263735D01*
X404595Y264035D01*
X404599Y264062D01*
X404609Y264070D01*
X404609Y264570D01*
X404601Y264581D01*
X404605Y264589D01*
X404305Y265289D01*
X404287Y265300D01*
X404285Y265312D01*
X403785Y265612D01*
X403757Y265609D01*
X403746Y265617D01*
X403046Y265417D01*
X403045Y265416D01*
X403044Y265417D01*
X402452Y265219D01*
X401767Y265219D01*
X401089Y265413D01*
X400737Y265853D01*
X401082Y266026D01*
X401098Y266057D01*
X401106Y266064D01*
X401103Y266068D01*
X401107Y266076D01*
X401108Y266077D01*
X401112Y266058D01*
X401159Y266021D01*
X401159Y266022D01*
X401160Y266021D01*
X403860Y266021D01*
X403870Y266028D01*
X403875Y266028D01*
X403876Y266029D01*
X403882Y266026D01*
X404482Y266326D01*
X404485Y266333D01*
X404491Y266332D01*
X404991Y266732D01*
X404995Y266747D01*
X405003Y266753D01*
X404998Y266760D01*
X404998Y266762D01*
X405009Y266770D01*
X405009Y267570D01*
X405006Y267574D01*
X405009Y267577D01*
X404909Y268277D01*
X404904Y268282D01*
X404907Y268286D01*
X404707Y268886D01*
X404696Y268893D01*
X404698Y268901D01*
X404298Y269401D01*
X404294Y269402D01*
X404295Y269405D01*
X403795Y269905D01*
X403783Y269906D01*
X403782Y269914D01*
X403182Y270214D01*
X403172Y270212D01*
X403170Y270214D01*
X403169Y270214D01*
X403167Y270219D01*
X401767Y270419D01*
X401758Y270414D01*
X401753Y270419D01*
X401053Y270319D01*
X401049Y270315D01*
X401046Y270317D01*
X400346Y270117D01*
X400342Y270112D01*
X400338Y270114D01*
X399738Y269814D01*
X399735Y269807D01*
X399729Y269808D01*
X399229Y269408D01*
X399228Y269404D01*
X399225Y269405D01*
X398825Y269005D01*
X398824Y268998D01*
X398819Y268997D01*
X398419Y268397D01*
X398420Y268388D01*
X398413Y268386D01*
X398213Y267786D01*
X398215Y267779D01*
X398211Y267777D01*
X398111Y267077D01*
X398114Y267072D01*
X398111Y267070D01*
X398111Y266370D01*
X398117Y266362D01*
X398113Y266356D01*
X398313Y265656D01*
X398314Y265655D01*
X398313Y265654D01*
X398513Y265054D01*
X398521Y265049D01*
X398519Y265043D01*
X398919Y264443D01*
X398922Y264442D01*
X398922Y264439D01*
X399322Y263939D01*
X399332Y263937D01*
X399333Y263929D01*
X399933Y263529D01*
X399942Y263530D01*
X399944Y263523D01*
X400544Y263323D01*
X400551Y263325D01*
X400553Y263321D01*
X401253Y263221D01*
X401258Y263224D01*
X401260Y263221D01*
X403060Y263221D01*
X403068Y263227D01*
G37*
G36*
X316158Y263227D02*
X316158Y263227D01*
X316164Y263223D01*
X316864Y263423D01*
X316869Y263430D01*
X316875Y263428D01*
X317375Y263728D01*
X317379Y263736D01*
X317385Y263735D01*
X317685Y264035D01*
X317689Y264062D01*
X317699Y264070D01*
X317699Y264570D01*
X317691Y264581D01*
X317695Y264589D01*
X317395Y265289D01*
X317374Y265301D01*
X317372Y265314D01*
X316772Y265614D01*
X316746Y265609D01*
X316734Y265617D01*
X315542Y265219D01*
X314857Y265219D01*
X314179Y265413D01*
X313827Y265853D01*
X314172Y266026D01*
X314188Y266057D01*
X314196Y266064D01*
X314193Y266068D01*
X314197Y266076D01*
X314198Y266077D01*
X314202Y266058D01*
X314249Y266021D01*
X314249Y266022D01*
X314250Y266021D01*
X316950Y266021D01*
X316960Y266028D01*
X316965Y266028D01*
X316966Y266029D01*
X316972Y266026D01*
X317572Y266326D01*
X317575Y266333D01*
X317581Y266332D01*
X318081Y266732D01*
X318085Y266747D01*
X318093Y266753D01*
X318088Y266760D01*
X318088Y266762D01*
X318099Y266770D01*
X318099Y267570D01*
X318096Y267574D01*
X318099Y267577D01*
X317999Y268277D01*
X317994Y268282D01*
X317997Y268286D01*
X317797Y268886D01*
X317786Y268893D01*
X317788Y268901D01*
X317388Y269401D01*
X317384Y269402D01*
X317385Y269405D01*
X316885Y269905D01*
X316873Y269906D01*
X316872Y269914D01*
X316272Y270214D01*
X316262Y270212D01*
X316260Y270214D01*
X316259Y270214D01*
X316257Y270219D01*
X314857Y270419D01*
X314848Y270414D01*
X314843Y270419D01*
X314143Y270319D01*
X314139Y270315D01*
X314136Y270317D01*
X313436Y270117D01*
X313432Y270112D01*
X313428Y270114D01*
X312828Y269814D01*
X312825Y269807D01*
X312819Y269808D01*
X312319Y269408D01*
X312318Y269404D01*
X312315Y269405D01*
X311915Y269005D01*
X311914Y268998D01*
X311909Y268997D01*
X311509Y268397D01*
X311510Y268388D01*
X311503Y268386D01*
X311303Y267786D01*
X311305Y267779D01*
X311301Y267777D01*
X311201Y267077D01*
X311204Y267072D01*
X311201Y267070D01*
X311201Y266370D01*
X311207Y266362D01*
X311203Y266356D01*
X311403Y265656D01*
X311404Y265655D01*
X311403Y265654D01*
X311603Y265054D01*
X311611Y265049D01*
X311609Y265043D01*
X312009Y264443D01*
X312012Y264442D01*
X312012Y264439D01*
X312412Y263939D01*
X312422Y263937D01*
X312423Y263929D01*
X313023Y263529D01*
X313032Y263530D01*
X313034Y263523D01*
X313634Y263323D01*
X313641Y263325D01*
X313643Y263321D01*
X314343Y263221D01*
X314348Y263224D01*
X314350Y263221D01*
X316150Y263221D01*
X316158Y263227D01*
G37*
G36*
X200608Y4147D02*
X200608Y4147D01*
X200614Y4143D01*
X201314Y4343D01*
X201319Y4350D01*
X201325Y4348D01*
X201825Y4648D01*
X201829Y4656D01*
X201835Y4655D01*
X202135Y4955D01*
X202139Y4982D01*
X202149Y4990D01*
X202149Y5490D01*
X202141Y5501D01*
X202145Y5509D01*
X201845Y6209D01*
X201827Y6220D01*
X201825Y6232D01*
X201325Y6532D01*
X201297Y6529D01*
X201286Y6537D01*
X200586Y6337D01*
X200585Y6336D01*
X200584Y6337D01*
X199992Y6139D01*
X199307Y6139D01*
X198629Y6333D01*
X198280Y6769D01*
X198709Y6941D01*
X201400Y6941D01*
X201410Y6948D01*
X201415Y6948D01*
X201416Y6949D01*
X201422Y6946D01*
X202022Y7246D01*
X202025Y7253D01*
X202031Y7252D01*
X202531Y7652D01*
X202535Y7667D01*
X202543Y7673D01*
X202538Y7680D01*
X202538Y7682D01*
X202549Y7690D01*
X202549Y8490D01*
X202546Y8494D01*
X202549Y8497D01*
X202449Y9197D01*
X202444Y9202D01*
X202447Y9206D01*
X202247Y9806D01*
X202236Y9813D01*
X202238Y9821D01*
X201838Y10321D01*
X201834Y10322D01*
X201835Y10325D01*
X201335Y10825D01*
X201323Y10826D01*
X201322Y10834D01*
X200722Y11134D01*
X200712Y11132D01*
X200711Y11133D01*
X200708Y11139D01*
X200108Y11239D01*
X200107Y11238D01*
X200106Y11239D01*
X199306Y11339D01*
X199298Y11334D01*
X199293Y11339D01*
X198593Y11239D01*
X198589Y11235D01*
X198586Y11237D01*
X197886Y11037D01*
X197881Y11030D01*
X197875Y11032D01*
X197375Y10732D01*
X197374Y10731D01*
X197373Y10731D01*
X196773Y10331D01*
X196770Y10324D01*
X196765Y10325D01*
X196365Y9925D01*
X196364Y9918D01*
X196359Y9917D01*
X195959Y9317D01*
X195960Y9308D01*
X195953Y9306D01*
X195753Y8706D01*
X195755Y8699D01*
X195751Y8697D01*
X195651Y7997D01*
X195654Y7992D01*
X195651Y7990D01*
X195651Y7290D01*
X195657Y7282D01*
X195653Y7276D01*
X195853Y6576D01*
X195854Y6575D01*
X195853Y6574D01*
X196053Y5974D01*
X196061Y5969D01*
X196059Y5963D01*
X196459Y5363D01*
X196462Y5362D01*
X196462Y5359D01*
X196862Y4859D01*
X196872Y4857D01*
X196873Y4849D01*
X197473Y4449D01*
X197482Y4450D01*
X197484Y4443D01*
X198084Y4243D01*
X198091Y4245D01*
X198093Y4241D01*
X198793Y4141D01*
X198798Y4144D01*
X198800Y4141D01*
X200600Y4141D01*
X200608Y4147D01*
G37*
G36*
X382168Y263227D02*
X382168Y263227D01*
X382174Y263223D01*
X382874Y263423D01*
X382878Y263428D01*
X382882Y263426D01*
X383482Y263726D01*
X383490Y263742D01*
X383501Y263743D01*
X383701Y264043D01*
X383700Y264056D01*
X383708Y264060D01*
X383808Y264560D01*
X383798Y264582D01*
X383803Y264594D01*
X383403Y265294D01*
X383387Y265301D01*
X383385Y265312D01*
X382885Y265612D01*
X382857Y265609D01*
X382846Y265617D01*
X382146Y265417D01*
X382145Y265416D01*
X382144Y265417D01*
X381552Y265219D01*
X380868Y265219D01*
X380287Y265413D01*
X379848Y265852D01*
X380269Y266021D01*
X382960Y266021D01*
X382970Y266028D01*
X382975Y266028D01*
X382976Y266029D01*
X382982Y266026D01*
X383582Y266326D01*
X383585Y266333D01*
X383591Y266332D01*
X384091Y266732D01*
X384095Y266747D01*
X384103Y266753D01*
X384098Y266760D01*
X384098Y266762D01*
X384109Y266770D01*
X384109Y268270D01*
X384100Y268283D01*
X384104Y268292D01*
X383804Y268892D01*
X383797Y268895D01*
X383798Y268901D01*
X383398Y269401D01*
X383394Y269402D01*
X383395Y269405D01*
X382895Y269905D01*
X382886Y269906D01*
X382885Y269912D01*
X382385Y270212D01*
X382371Y270211D01*
X382367Y270219D01*
X381667Y270319D01*
X381666Y270318D01*
X381666Y270319D01*
X380866Y270419D01*
X380858Y270414D01*
X380853Y270419D01*
X380153Y270319D01*
X380148Y270314D01*
X380144Y270317D01*
X379544Y270117D01*
X379541Y270112D01*
X379538Y270114D01*
X378938Y269814D01*
X378935Y269807D01*
X378929Y269808D01*
X377929Y269008D01*
X377926Y268994D01*
X377916Y268992D01*
X377616Y268392D01*
X377617Y268387D01*
X377613Y268386D01*
X377413Y267786D01*
X377415Y267779D01*
X377411Y267777D01*
X377311Y267077D01*
X377314Y267072D01*
X377311Y267070D01*
X377311Y266370D01*
X377314Y266366D01*
X377311Y266363D01*
X377411Y265663D01*
X377416Y265658D01*
X377413Y265654D01*
X377613Y265054D01*
X377621Y265049D01*
X377619Y265043D01*
X378019Y264443D01*
X378022Y264442D01*
X378022Y264439D01*
X378422Y263939D01*
X378432Y263937D01*
X378433Y263929D01*
X379033Y263529D01*
X379044Y263530D01*
X379046Y263523D01*
X379746Y263323D01*
X379750Y263324D01*
X379752Y263321D01*
X380352Y263221D01*
X380357Y263224D01*
X380360Y263221D01*
X382160Y263221D01*
X382168Y263227D01*
G37*
G36*
X459878Y198457D02*
X459878Y198457D01*
X459884Y198453D01*
X460584Y198653D01*
X460588Y198658D01*
X460592Y198656D01*
X461192Y198956D01*
X461200Y198972D01*
X461211Y198973D01*
X461411Y199273D01*
X461410Y199286D01*
X461418Y199290D01*
X461518Y199790D01*
X461508Y199812D01*
X461513Y199824D01*
X461113Y200524D01*
X461097Y200531D01*
X461095Y200542D01*
X460595Y200842D01*
X460567Y200839D01*
X460556Y200847D01*
X459856Y200647D01*
X459855Y200646D01*
X459854Y200647D01*
X459262Y200449D01*
X458578Y200449D01*
X457997Y200643D01*
X457558Y201082D01*
X457979Y201251D01*
X460670Y201251D01*
X460680Y201258D01*
X460685Y201258D01*
X460686Y201259D01*
X460692Y201256D01*
X461292Y201556D01*
X461295Y201563D01*
X461301Y201562D01*
X461801Y201962D01*
X461805Y201977D01*
X461813Y201983D01*
X461808Y201990D01*
X461808Y201992D01*
X461819Y202000D01*
X461819Y202800D01*
X461816Y202804D01*
X461819Y202807D01*
X461719Y203507D01*
X461714Y203512D01*
X461717Y203516D01*
X461517Y204116D01*
X461506Y204123D01*
X461508Y204131D01*
X461108Y204631D01*
X461104Y204632D01*
X461105Y204635D01*
X460605Y205135D01*
X460593Y205136D01*
X460592Y205144D01*
X459992Y205444D01*
X459982Y205442D01*
X459981Y205443D01*
X459978Y205449D01*
X459378Y205549D01*
X459377Y205548D01*
X459376Y205549D01*
X458576Y205649D01*
X458568Y205644D01*
X458563Y205649D01*
X457863Y205549D01*
X457858Y205544D01*
X457854Y205547D01*
X457254Y205347D01*
X457251Y205342D01*
X457248Y205344D01*
X456648Y205044D01*
X456645Y205037D01*
X456639Y205038D01*
X455639Y204238D01*
X455636Y204224D01*
X455626Y204222D01*
X455326Y203622D01*
X455327Y203617D01*
X455323Y203616D01*
X455123Y203016D01*
X455125Y203009D01*
X455121Y203007D01*
X455021Y202307D01*
X455024Y202302D01*
X455021Y202300D01*
X455021Y201600D01*
X455024Y201596D01*
X455021Y201593D01*
X455121Y200893D01*
X455126Y200888D01*
X455123Y200884D01*
X455323Y200284D01*
X455331Y200279D01*
X455329Y200273D01*
X455729Y199673D01*
X455732Y199672D01*
X455732Y199669D01*
X456132Y199169D01*
X456142Y199167D01*
X456143Y199159D01*
X456743Y198759D01*
X456754Y198760D01*
X456756Y198753D01*
X457456Y198553D01*
X457460Y198554D01*
X457462Y198551D01*
X458062Y198451D01*
X458067Y198454D01*
X458070Y198451D01*
X459870Y198451D01*
X459878Y198457D01*
G37*
G36*
X424570Y260232D02*
X424570Y260232D01*
X424582Y260226D01*
X425182Y260526D01*
X425192Y260546D01*
X425204Y260548D01*
X425504Y261148D01*
X425504Y261149D01*
X425505Y261150D01*
X428805Y268450D01*
X428804Y268455D01*
X428807Y268456D01*
X429007Y269156D01*
X429002Y269169D01*
X429005Y269171D01*
X429003Y269173D01*
X429008Y269180D01*
X428908Y269680D01*
X428891Y269695D01*
X428892Y269708D01*
X428292Y270208D01*
X428277Y270209D01*
X428274Y270217D01*
X427574Y270417D01*
X427569Y270416D01*
X427554Y270416D01*
X427544Y270408D01*
X427535Y270412D01*
X427035Y270112D01*
X427031Y270104D01*
X427025Y270105D01*
X426725Y269805D01*
X426724Y269793D01*
X426718Y269789D01*
X426719Y269787D01*
X426713Y269786D01*
X426514Y269189D01*
X425616Y267392D01*
X425617Y267389D01*
X425614Y267388D01*
X425442Y266958D01*
X425301Y267099D01*
X424704Y268292D01*
X424701Y268293D01*
X424702Y268296D01*
X423602Y270096D01*
X423586Y270102D01*
X423585Y270112D01*
X423085Y270412D01*
X423070Y270411D01*
X423066Y270416D01*
X423049Y270416D01*
X423048Y270415D01*
X423044Y270417D01*
X422444Y270217D01*
X422440Y270211D01*
X422436Y270213D01*
X421736Y269813D01*
X421727Y269792D01*
X421725Y269791D01*
X421714Y269788D01*
X421514Y269288D01*
X421521Y269262D01*
X421515Y269251D01*
X421815Y268551D01*
X421819Y268548D01*
X421817Y268545D01*
X424111Y264557D01*
X424111Y263782D01*
X423316Y262192D01*
X423317Y262189D01*
X423314Y262188D01*
X423114Y261688D01*
X423115Y261686D01*
X423113Y261686D01*
X423013Y261386D01*
X423022Y261360D01*
X423016Y261348D01*
X423216Y260948D01*
X423232Y260940D01*
X423233Y260929D01*
X423833Y260529D01*
X423839Y260529D01*
X423841Y260525D01*
X424541Y260225D01*
X424570Y260232D01*
G37*
G36*
X486335Y209900D02*
X486335Y209900D01*
X486348Y209899D01*
X486748Y210399D01*
X486749Y210407D01*
X486751Y210409D01*
X486749Y210413D01*
X486749Y210418D01*
X486759Y210423D01*
X486859Y211123D01*
X486854Y211132D01*
X486859Y211137D01*
X486759Y211837D01*
X486737Y211859D01*
X486735Y211872D01*
X486235Y212172D01*
X486221Y212171D01*
X486217Y212179D01*
X485517Y212279D01*
X485512Y212276D01*
X485510Y212279D01*
X483541Y212279D01*
X485842Y214293D01*
X485843Y214295D01*
X485845Y214295D01*
X486445Y214895D01*
X486447Y214911D01*
X486457Y214914D01*
X486657Y215514D01*
X486652Y215530D01*
X486653Y215531D01*
X486651Y215535D01*
X486657Y215544D01*
X486457Y216244D01*
X486440Y216256D01*
X486441Y216268D01*
X485941Y216668D01*
X485923Y216669D01*
X485918Y216679D01*
X485318Y216779D01*
X485313Y216776D01*
X485310Y216779D01*
X481210Y216779D01*
X481206Y216776D01*
X481203Y216779D01*
X480503Y216679D01*
X480481Y216657D01*
X480468Y216655D01*
X480168Y216155D01*
X480168Y216151D01*
X480166Y216149D01*
X480169Y216145D01*
X480169Y216141D01*
X480161Y216137D01*
X480061Y215437D01*
X480068Y215424D01*
X480063Y215416D01*
X480263Y214716D01*
X480285Y214699D01*
X480288Y214686D01*
X480688Y214486D01*
X480704Y214489D01*
X480710Y214481D01*
X482861Y214481D01*
X482861Y214253D01*
X482278Y213768D01*
X480579Y212368D01*
X480578Y212364D01*
X480575Y212365D01*
X480175Y211965D01*
X480174Y211953D01*
X480166Y211952D01*
X479866Y211352D01*
X479869Y211336D01*
X479861Y211330D01*
X479861Y210630D01*
X479875Y210612D01*
X479872Y210599D01*
X480272Y210099D01*
X480291Y210094D01*
X480294Y210083D01*
X480894Y209883D01*
X480905Y209887D01*
X480910Y209881D01*
X486310Y209881D01*
X486335Y209900D01*
G37*
%LPC*%
G36*
X403659Y12721D02*
X403659Y12721D01*
X403084Y12898D01*
X402576Y13209D01*
X402161Y13642D01*
X401845Y14165D01*
X401622Y14745D01*
X401479Y15359D01*
X401403Y16002D01*
X401399Y16011D01*
X401394Y16044D01*
X401252Y16518D01*
X401383Y16930D01*
X401383Y16940D01*
X401394Y16981D01*
X401458Y17624D01*
X401580Y18242D01*
X401777Y18832D01*
X402062Y19374D01*
X402444Y19836D01*
X402923Y20184D01*
X403479Y20399D01*
X404078Y20483D01*
X404684Y20453D01*
X405261Y20295D01*
X405778Y20002D01*
X406208Y19587D01*
X406542Y19079D01*
X406785Y18511D01*
X406949Y17906D01*
X407045Y17281D01*
X407082Y16635D01*
X407096Y16594D01*
X407102Y16550D01*
X407119Y16529D01*
X407128Y16504D01*
X407163Y16476D01*
X407191Y16443D01*
X407221Y16428D01*
X407088Y16126D01*
X407088Y16125D01*
X407088Y16124D01*
X407069Y16052D01*
X407000Y15407D01*
X406870Y14790D01*
X406659Y14204D01*
X406356Y13674D01*
X405950Y13233D01*
X405449Y12913D01*
X404877Y12729D01*
X404269Y12670D01*
X403659Y12721D01*
G37*
%LPD*%
G36*
X474588Y198464D02*
X474588Y198464D01*
X474600Y198461D01*
X475000Y198761D01*
X475004Y198777D01*
X475011Y198782D01*
X475011Y198783D01*
X475017Y198784D01*
X475217Y199384D01*
X475213Y199395D01*
X475219Y199400D01*
X475219Y202088D01*
X475507Y202663D01*
X476082Y202951D01*
X476753Y202951D01*
X477227Y202571D01*
X477421Y201893D01*
X477421Y199200D01*
X477429Y199189D01*
X477424Y199182D01*
X477624Y198682D01*
X477650Y198666D01*
X477654Y198653D01*
X478254Y198453D01*
X478265Y198457D01*
X478270Y198451D01*
X479170Y198451D01*
X479188Y198465D01*
X479201Y198462D01*
X479701Y198862D01*
X479705Y198877D01*
X479710Y198881D01*
X479707Y198885D01*
X479707Y198886D01*
X479719Y198892D01*
X479819Y199492D01*
X479816Y199497D01*
X479819Y199500D01*
X479819Y202300D01*
X479812Y202309D01*
X479817Y202316D01*
X479617Y202915D01*
X479417Y203614D01*
X479410Y203619D01*
X479412Y203625D01*
X479112Y204125D01*
X479104Y204129D01*
X479105Y204135D01*
X478605Y204635D01*
X478598Y204636D01*
X478597Y204641D01*
X477997Y205041D01*
X477988Y205040D01*
X477986Y205047D01*
X477386Y205247D01*
X477379Y205245D01*
X477377Y205249D01*
X476677Y205349D01*
X476672Y205346D01*
X476666Y205346D01*
X476663Y205349D01*
X475963Y205249D01*
X475950Y205236D01*
X475939Y205238D01*
X475448Y204845D01*
X475093Y204757D01*
X474812Y205225D01*
X474784Y205237D01*
X474777Y205249D01*
X474077Y205349D01*
X474072Y205346D01*
X474067Y205346D01*
X474064Y205349D01*
X473264Y205249D01*
X473248Y205233D01*
X473235Y205235D01*
X472835Y204835D01*
X472834Y204823D01*
X472827Y204817D01*
X472832Y204810D01*
X472832Y204808D01*
X472821Y204800D01*
X472821Y199300D01*
X472828Y199291D01*
X472823Y199284D01*
X473023Y198684D01*
X473050Y198666D01*
X473054Y198653D01*
X473654Y198453D01*
X473665Y198457D01*
X473670Y198451D01*
X474570Y198451D01*
X474588Y198464D01*
G37*
G36*
X440588Y198464D02*
X440588Y198464D01*
X440600Y198461D01*
X441000Y198761D01*
X441004Y198777D01*
X441011Y198782D01*
X441011Y198783D01*
X441017Y198784D01*
X441217Y199384D01*
X441213Y199395D01*
X441219Y199400D01*
X441219Y202088D01*
X441507Y202663D01*
X442082Y202951D01*
X442753Y202951D01*
X443227Y202571D01*
X443421Y201893D01*
X443421Y199200D01*
X443429Y199189D01*
X443424Y199182D01*
X443624Y198682D01*
X443650Y198666D01*
X443654Y198653D01*
X444254Y198453D01*
X444265Y198457D01*
X444270Y198451D01*
X445170Y198451D01*
X445191Y198467D01*
X445205Y198465D01*
X445605Y198865D01*
X445606Y198877D01*
X445611Y198881D01*
X445610Y198882D01*
X445617Y198884D01*
X445817Y199484D01*
X445813Y199495D01*
X445819Y199500D01*
X445819Y202300D01*
X445812Y202309D01*
X445817Y202316D01*
X445617Y202915D01*
X445417Y203614D01*
X445410Y203619D01*
X445412Y203625D01*
X445112Y204125D01*
X445104Y204129D01*
X445105Y204135D01*
X444605Y204635D01*
X444598Y204636D01*
X444597Y204641D01*
X443997Y205041D01*
X443988Y205040D01*
X443986Y205047D01*
X443386Y205247D01*
X443379Y205245D01*
X443377Y205249D01*
X442677Y205349D01*
X442672Y205346D01*
X442666Y205346D01*
X442663Y205349D01*
X441963Y205249D01*
X441950Y205236D01*
X441939Y205238D01*
X441448Y204845D01*
X441093Y204757D01*
X440812Y205225D01*
X440784Y205237D01*
X440777Y205249D01*
X440077Y205349D01*
X440072Y205346D01*
X440067Y205346D01*
X440064Y205349D01*
X439264Y205249D01*
X439248Y205233D01*
X439235Y205235D01*
X438835Y204835D01*
X438834Y204823D01*
X438827Y204817D01*
X438832Y204810D01*
X438832Y204808D01*
X438821Y204800D01*
X438821Y199300D01*
X438828Y199291D01*
X438823Y199284D01*
X439023Y198684D01*
X439050Y198666D01*
X439054Y198653D01*
X439654Y198453D01*
X439665Y198457D01*
X439670Y198451D01*
X440570Y198451D01*
X440588Y198464D01*
G37*
G36*
X72807Y117321D02*
X72807Y117321D01*
X72822Y117337D01*
X72835Y117335D01*
X73235Y117735D01*
X73236Y117747D01*
X73240Y117749D01*
X73237Y117753D01*
X73238Y117757D01*
X73249Y117763D01*
X73349Y118463D01*
X73346Y118468D01*
X73349Y118470D01*
X73349Y120445D01*
X73716Y120721D01*
X80500Y120721D01*
X80525Y120740D01*
X80538Y120739D01*
X80938Y121239D01*
X80939Y121246D01*
X80939Y121262D01*
X80949Y121270D01*
X80949Y122070D01*
X80946Y122075D01*
X80949Y122078D01*
X80849Y122678D01*
X80825Y122701D01*
X80822Y122714D01*
X80222Y123014D01*
X80206Y123011D01*
X80200Y123019D01*
X73442Y123019D01*
X73349Y123574D01*
X73349Y125670D01*
X73340Y125683D01*
X73344Y125692D01*
X73044Y126292D01*
X73014Y126307D01*
X73008Y126319D01*
X72408Y126419D01*
X72398Y126413D01*
X72393Y126419D01*
X71693Y126319D01*
X71671Y126297D01*
X71658Y126295D01*
X71358Y125795D01*
X71360Y125777D01*
X71351Y125770D01*
X71351Y118270D01*
X71354Y118266D01*
X71351Y118263D01*
X71451Y117563D01*
X71476Y117539D01*
X71478Y117526D01*
X72078Y117226D01*
X72098Y117230D01*
X72107Y117221D01*
X72807Y117321D01*
G37*
G36*
X365905Y20654D02*
X365905Y20654D01*
X365908Y20651D01*
X366508Y20751D01*
X366531Y20776D01*
X366544Y20778D01*
X366844Y21378D01*
X366841Y21394D01*
X366849Y21400D01*
X366849Y28157D01*
X367503Y28251D01*
X369600Y28251D01*
X369615Y28262D01*
X369625Y28258D01*
X370125Y28558D01*
X370137Y28586D01*
X370149Y28592D01*
X370249Y29192D01*
X370246Y29197D01*
X370249Y29200D01*
X370249Y29900D01*
X370224Y29933D01*
X370222Y29944D01*
X369622Y30244D01*
X369606Y30241D01*
X369600Y30249D01*
X362100Y30249D01*
X362096Y30246D01*
X362093Y30249D01*
X361393Y30149D01*
X361364Y30119D01*
X361353Y30116D01*
X361153Y29516D01*
X361157Y29505D01*
X361151Y29500D01*
X361151Y28800D01*
X361167Y28779D01*
X361165Y28765D01*
X361565Y28365D01*
X361587Y28362D01*
X361593Y28351D01*
X362293Y28251D01*
X362298Y28254D01*
X362300Y28251D01*
X364370Y28251D01*
X364551Y27888D01*
X364551Y21700D01*
X364554Y21695D01*
X364551Y21692D01*
X364651Y21092D01*
X364670Y21075D01*
X364669Y21062D01*
X365169Y20662D01*
X365192Y20661D01*
X365200Y20651D01*
X365900Y20651D01*
X365905Y20654D01*
G37*
G36*
X58851Y64517D02*
X58851Y64517D01*
X58865Y64515D01*
X59265Y64915D01*
X59266Y64927D01*
X59271Y64931D01*
X59268Y64936D01*
X59268Y64937D01*
X59279Y64943D01*
X59379Y65643D01*
X59376Y65648D01*
X59379Y65650D01*
X59379Y67720D01*
X59742Y67901D01*
X65930Y67901D01*
X65935Y67904D01*
X65938Y67901D01*
X66538Y68001D01*
X66555Y68020D01*
X66568Y68019D01*
X66968Y68519D01*
X66969Y68526D01*
X66969Y68542D01*
X66979Y68550D01*
X66979Y69250D01*
X66976Y69255D01*
X66979Y69258D01*
X66879Y69858D01*
X66855Y69881D01*
X66852Y69894D01*
X66252Y70194D01*
X66236Y70191D01*
X66230Y70199D01*
X59473Y70199D01*
X59379Y70853D01*
X59379Y72850D01*
X59370Y72863D01*
X59374Y72872D01*
X59074Y73472D01*
X59044Y73487D01*
X59038Y73499D01*
X58438Y73599D01*
X58433Y73596D01*
X58430Y73599D01*
X57730Y73599D01*
X57697Y73574D01*
X57686Y73572D01*
X57386Y72972D01*
X57389Y72956D01*
X57381Y72950D01*
X57381Y65450D01*
X57384Y65446D01*
X57381Y65443D01*
X57481Y64743D01*
X57511Y64714D01*
X57514Y64703D01*
X58114Y64503D01*
X58125Y64507D01*
X58130Y64501D01*
X58830Y64501D01*
X58851Y64517D01*
G37*
G36*
X356465Y263224D02*
X356465Y263224D01*
X356468Y263221D01*
X357068Y263321D01*
X357091Y263346D01*
X357104Y263348D01*
X357404Y263948D01*
X357401Y263964D01*
X357409Y263970D01*
X357409Y270728D01*
X357964Y270821D01*
X360060Y270821D01*
X360073Y270830D01*
X360082Y270826D01*
X360682Y271126D01*
X360697Y271156D01*
X360709Y271162D01*
X360809Y271762D01*
X360806Y271767D01*
X360809Y271770D01*
X360809Y272470D01*
X360784Y272503D01*
X360782Y272514D01*
X360182Y272814D01*
X360166Y272811D01*
X360160Y272819D01*
X352660Y272819D01*
X352656Y272816D01*
X352653Y272819D01*
X351953Y272719D01*
X351924Y272689D01*
X351913Y272686D01*
X351713Y272086D01*
X351717Y272075D01*
X351711Y272070D01*
X351711Y271370D01*
X351727Y271349D01*
X351725Y271335D01*
X352125Y270935D01*
X352147Y270932D01*
X352153Y270921D01*
X352853Y270821D01*
X352858Y270824D01*
X352860Y270821D01*
X354930Y270821D01*
X355111Y270458D01*
X355111Y264270D01*
X355114Y264265D01*
X355111Y264262D01*
X355211Y263662D01*
X355230Y263645D01*
X355229Y263632D01*
X355729Y263232D01*
X355752Y263231D01*
X355760Y263221D01*
X356460Y263221D01*
X356465Y263224D01*
G37*
G36*
X465688Y198464D02*
X465688Y198464D01*
X465700Y198461D01*
X466100Y198761D01*
X466104Y198777D01*
X466111Y198782D01*
X466111Y198783D01*
X466117Y198784D01*
X466317Y199384D01*
X466313Y199395D01*
X466319Y199400D01*
X466319Y202088D01*
X466607Y202663D01*
X467182Y202951D01*
X467853Y202951D01*
X468327Y202571D01*
X468521Y201893D01*
X468521Y199200D01*
X468529Y199189D01*
X468524Y199182D01*
X468724Y198682D01*
X468752Y198665D01*
X468756Y198653D01*
X469456Y198453D01*
X469466Y198456D01*
X469470Y198451D01*
X470270Y198451D01*
X470288Y198465D01*
X470301Y198462D01*
X470801Y198862D01*
X470805Y198877D01*
X470810Y198881D01*
X470807Y198885D01*
X470807Y198886D01*
X470819Y198892D01*
X470919Y199492D01*
X470916Y199497D01*
X470919Y199500D01*
X470919Y202300D01*
X470916Y202305D01*
X470919Y202308D01*
X470819Y202908D01*
X470812Y202914D01*
X470815Y202919D01*
X470515Y203619D01*
X470511Y203622D01*
X470512Y203625D01*
X470212Y204125D01*
X470204Y204129D01*
X470205Y204135D01*
X469705Y204635D01*
X469698Y204636D01*
X469697Y204641D01*
X469097Y205041D01*
X469088Y205040D01*
X469086Y205047D01*
X468486Y205247D01*
X468479Y205245D01*
X468477Y205249D01*
X467777Y205349D01*
X467772Y205346D01*
X467765Y205346D01*
X467762Y205349D01*
X467162Y205249D01*
X467152Y205238D01*
X467143Y205241D01*
X466548Y204845D01*
X466292Y204759D01*
X466012Y205225D01*
X465983Y205237D01*
X465976Y205249D01*
X465176Y205349D01*
X465171Y205346D01*
X465167Y205346D01*
X465164Y205349D01*
X464364Y205249D01*
X464344Y205230D01*
X464331Y205230D01*
X464031Y204830D01*
X464031Y204821D01*
X464026Y204817D01*
X464031Y204811D01*
X464031Y204808D01*
X464021Y204800D01*
X464021Y199300D01*
X464024Y199295D01*
X464021Y199292D01*
X464121Y198692D01*
X464151Y198664D01*
X464154Y198653D01*
X464754Y198453D01*
X464765Y198457D01*
X464770Y198451D01*
X465670Y198451D01*
X465688Y198464D01*
G37*
%LPC*%
G36*
X435487Y82220D02*
X435487Y82220D01*
X435931Y82218D01*
X445632Y82218D01*
X445641Y81995D01*
X445641Y79351D01*
X445626Y78980D01*
X435549Y78980D01*
X435547Y78979D01*
X435543Y78980D01*
X435487Y78974D01*
X435487Y82220D01*
G37*
%LPD*%
%LPC*%
G36*
X445368Y74934D02*
X445368Y74934D01*
X445367Y74933D01*
X445366Y74934D01*
X435977Y74934D01*
X435951Y74945D01*
X435950Y74945D01*
X435487Y74933D01*
X435487Y78166D01*
X435643Y78171D01*
X445635Y78171D01*
X445636Y78108D01*
X445641Y74925D01*
X445368Y74934D01*
G37*
%LPD*%
G36*
X296904Y20654D02*
X296904Y20654D01*
X296907Y20651D01*
X297607Y20751D01*
X297634Y20778D01*
X297646Y20782D01*
X297846Y21282D01*
X297842Y21295D01*
X297849Y21300D01*
X297849Y22000D01*
X297838Y22015D01*
X297842Y22025D01*
X297542Y22525D01*
X297514Y22537D01*
X297507Y22549D01*
X296807Y22649D01*
X296802Y22646D01*
X296800Y22649D01*
X293449Y22649D01*
X293449Y29300D01*
X293442Y29309D01*
X293447Y29316D01*
X293247Y29916D01*
X293227Y29929D01*
X293225Y29942D01*
X292725Y30242D01*
X292707Y30240D01*
X292700Y30249D01*
X291800Y30249D01*
X291785Y30238D01*
X291775Y30242D01*
X291275Y29942D01*
X291266Y29922D01*
X291254Y29918D01*
X291054Y29418D01*
X291058Y29405D01*
X291051Y29400D01*
X291051Y21200D01*
X291064Y21182D01*
X291061Y21170D01*
X291361Y20770D01*
X291387Y20763D01*
X291394Y20751D01*
X292194Y20651D01*
X292198Y20653D01*
X292200Y20651D01*
X296900Y20651D01*
X296904Y20654D01*
G37*
G36*
X361985Y249254D02*
X361985Y249254D01*
X361988Y249251D01*
X362588Y249351D01*
X362609Y249373D01*
X362622Y249375D01*
X362922Y249875D01*
X362922Y249878D01*
X362920Y249893D01*
X362929Y249900D01*
X362929Y250600D01*
X362915Y250618D01*
X362918Y250631D01*
X362518Y251131D01*
X362493Y251137D01*
X362487Y251149D01*
X361787Y251249D01*
X361782Y251246D01*
X361780Y251249D01*
X358529Y251249D01*
X358529Y257900D01*
X358522Y257909D01*
X358527Y257916D01*
X358327Y258516D01*
X358305Y258531D01*
X358302Y258544D01*
X357702Y258844D01*
X357686Y258841D01*
X357680Y258849D01*
X356880Y258849D01*
X356867Y258840D01*
X356858Y258844D01*
X356258Y258544D01*
X356244Y258516D01*
X356232Y258510D01*
X356132Y258010D01*
X356135Y258003D01*
X356131Y258000D01*
X356131Y249800D01*
X356144Y249782D01*
X356141Y249770D01*
X356441Y249370D01*
X356467Y249363D01*
X356473Y249351D01*
X357173Y249251D01*
X357178Y249254D01*
X357180Y249251D01*
X361980Y249251D01*
X361985Y249254D01*
G37*
G36*
X191505Y4144D02*
X191505Y4144D01*
X191508Y4141D01*
X192108Y4241D01*
X192112Y4246D01*
X192116Y4243D01*
X192716Y4443D01*
X192725Y4457D01*
X192735Y4455D01*
X193235Y4955D01*
X193236Y4964D01*
X193242Y4965D01*
X193542Y5465D01*
X193541Y5474D01*
X193547Y5476D01*
X193747Y6176D01*
X193744Y6186D01*
X193749Y6190D01*
X193749Y6890D01*
X193742Y6899D01*
X193747Y6906D01*
X193547Y7506D01*
X193536Y7513D01*
X193538Y7521D01*
X193138Y8021D01*
X193128Y8023D01*
X193127Y8031D01*
X192527Y8431D01*
X192516Y8430D01*
X192514Y8437D01*
X191814Y8637D01*
X191810Y8636D01*
X191808Y8639D01*
X191210Y8738D01*
X190441Y8931D01*
X190359Y9258D01*
X190905Y9440D01*
X191590Y9342D01*
X192286Y9143D01*
X192296Y9146D01*
X192300Y9141D01*
X192800Y9141D01*
X192824Y9159D01*
X192838Y9158D01*
X193338Y9758D01*
X193339Y9777D01*
X193349Y9782D01*
X193449Y10382D01*
X193433Y10412D01*
X193435Y10425D01*
X192935Y10925D01*
X192919Y10927D01*
X192916Y10937D01*
X192316Y11137D01*
X192309Y11135D01*
X192307Y11139D01*
X191608Y11239D01*
X191008Y11339D01*
X190999Y11334D01*
X190995Y11339D01*
X190095Y11239D01*
X190090Y11235D01*
X190086Y11237D01*
X189386Y11037D01*
X189381Y11030D01*
X189375Y11032D01*
X188875Y10732D01*
X188871Y10724D01*
X188865Y10725D01*
X188465Y10325D01*
X188464Y10313D01*
X188460Y10310D01*
X188454Y10308D01*
X188254Y9808D01*
X188257Y9800D01*
X188251Y9797D01*
X188151Y9097D01*
X188157Y9087D01*
X188151Y9082D01*
X188251Y8482D01*
X188258Y8476D01*
X188255Y8471D01*
X188555Y7771D01*
X188563Y7766D01*
X188562Y7759D01*
X188962Y7259D01*
X188976Y7256D01*
X188978Y7246D01*
X189578Y6946D01*
X189583Y6947D01*
X189584Y6943D01*
X190184Y6743D01*
X190187Y6744D01*
X190188Y6742D01*
X190986Y6543D01*
X191523Y6364D01*
X191372Y6136D01*
X190605Y6040D01*
X190020Y6235D01*
X189324Y6633D01*
X189307Y6630D01*
X189300Y6639D01*
X188700Y6639D01*
X188676Y6621D01*
X188662Y6622D01*
X188162Y6022D01*
X188162Y6010D01*
X188154Y6008D01*
X187954Y5508D01*
X187961Y5485D01*
X187960Y5485D01*
X187959Y5484D01*
X187959Y5483D01*
X187953Y5474D01*
X188153Y4874D01*
X188175Y4859D01*
X188178Y4846D01*
X188778Y4546D01*
X188780Y4546D01*
X188781Y4545D01*
X189481Y4245D01*
X189489Y4247D01*
X189492Y4241D01*
X190092Y4141D01*
X190097Y4144D01*
X190100Y4141D01*
X191500Y4141D01*
X191505Y4144D01*
G37*
G36*
X208921Y4157D02*
X208921Y4157D01*
X208935Y4155D01*
X209335Y4555D01*
X209336Y4567D01*
X209341Y4571D01*
X209339Y4573D01*
X209347Y4576D01*
X209547Y5276D01*
X209540Y5294D01*
X209547Y5304D01*
X209347Y6004D01*
X209327Y6019D01*
X209325Y6032D01*
X208825Y6332D01*
X208811Y6331D01*
X208807Y6339D01*
X208130Y6435D01*
X207849Y6904D01*
X207849Y8182D01*
X208034Y8735D01*
X208693Y8641D01*
X208703Y8647D01*
X208708Y8641D01*
X209308Y8741D01*
X209320Y8753D01*
X209330Y8751D01*
X209730Y9051D01*
X209737Y9078D01*
X209749Y9085D01*
X209849Y9985D01*
X209844Y9992D01*
X209849Y9997D01*
X209749Y10697D01*
X209727Y10719D01*
X209725Y10732D01*
X209225Y11032D01*
X209210Y11031D01*
X209206Y11036D01*
X209203Y11036D01*
X209200Y11039D01*
X208500Y11039D01*
X208496Y11036D01*
X208493Y11039D01*
X207849Y10947D01*
X207849Y12890D01*
X207830Y12915D01*
X207831Y12928D01*
X207331Y13328D01*
X207312Y13329D01*
X207306Y13339D01*
X206506Y13439D01*
X206494Y13432D01*
X206486Y13437D01*
X205786Y13237D01*
X205767Y13212D01*
X205754Y13208D01*
X205554Y12708D01*
X205558Y12695D01*
X205551Y12690D01*
X205551Y11310D01*
X205273Y11033D01*
X204684Y10837D01*
X204671Y10817D01*
X204658Y10815D01*
X204358Y10315D01*
X204358Y10311D01*
X204357Y10310D01*
X204359Y10308D01*
X204360Y10297D01*
X204351Y10290D01*
X204351Y9490D01*
X204358Y9481D01*
X204353Y9474D01*
X204553Y8874D01*
X204578Y8857D01*
X204582Y8844D01*
X205551Y8457D01*
X205551Y6390D01*
X205554Y6386D01*
X205551Y6383D01*
X205651Y5683D01*
X205659Y5675D01*
X205656Y5668D01*
X205956Y5068D01*
X205962Y5065D01*
X205961Y5060D01*
X206261Y4660D01*
X206274Y4657D01*
X206275Y4648D01*
X206775Y4348D01*
X206784Y4349D01*
X206786Y4343D01*
X207486Y4143D01*
X207496Y4146D01*
X207500Y4141D01*
X208900Y4141D01*
X208921Y4157D01*
G37*
G36*
X411381Y263237D02*
X411381Y263237D01*
X411395Y263235D01*
X411795Y263635D01*
X411796Y263647D01*
X411801Y263651D01*
X411799Y263653D01*
X411807Y263656D01*
X412007Y264356D01*
X412000Y264374D01*
X412007Y264384D01*
X411807Y265084D01*
X411787Y265099D01*
X411785Y265112D01*
X411285Y265412D01*
X411271Y265411D01*
X411267Y265419D01*
X410590Y265515D01*
X410309Y265984D01*
X410309Y267262D01*
X410493Y267815D01*
X411052Y267721D01*
X411062Y267727D01*
X411067Y267721D01*
X411767Y267821D01*
X411779Y267834D01*
X411790Y267831D01*
X412190Y268131D01*
X412197Y268158D01*
X412209Y268165D01*
X412309Y269065D01*
X412302Y269076D01*
X412307Y269084D01*
X412107Y269784D01*
X412090Y269797D01*
X412090Y269809D01*
X411690Y270109D01*
X411670Y270109D01*
X411665Y270116D01*
X411663Y270116D01*
X411660Y270119D01*
X410960Y270119D01*
X410956Y270116D01*
X410953Y270119D01*
X410309Y270027D01*
X410309Y271970D01*
X410290Y271995D01*
X410291Y272008D01*
X409791Y272408D01*
X409772Y272409D01*
X409766Y272419D01*
X408966Y272519D01*
X408954Y272512D01*
X408946Y272517D01*
X408246Y272317D01*
X408227Y272292D01*
X408214Y272288D01*
X408014Y271788D01*
X408018Y271775D01*
X408011Y271770D01*
X408011Y270390D01*
X407733Y270113D01*
X407144Y269917D01*
X407131Y269897D01*
X407118Y269895D01*
X406818Y269395D01*
X406818Y269391D01*
X406817Y269390D01*
X406819Y269388D01*
X406820Y269377D01*
X406811Y269370D01*
X406811Y268570D01*
X406818Y268561D01*
X406813Y268554D01*
X407013Y267954D01*
X407038Y267937D01*
X407042Y267924D01*
X408011Y267537D01*
X408011Y265470D01*
X408014Y265466D01*
X408011Y265463D01*
X408111Y264763D01*
X408119Y264755D01*
X408116Y264748D01*
X408416Y264148D01*
X408422Y264145D01*
X408421Y264140D01*
X408721Y263740D01*
X408734Y263737D01*
X408735Y263728D01*
X409235Y263428D01*
X409244Y263429D01*
X409246Y263423D01*
X409946Y263223D01*
X409956Y263226D01*
X409960Y263221D01*
X411360Y263221D01*
X411381Y263237D01*
G37*
G36*
X451991Y198467D02*
X451991Y198467D01*
X452005Y198465D01*
X452405Y198865D01*
X452406Y198877D01*
X452411Y198881D01*
X452408Y198886D01*
X452408Y198887D01*
X452419Y198893D01*
X452519Y199593D01*
X452514Y199602D01*
X452519Y199607D01*
X452419Y200307D01*
X452397Y200329D01*
X452395Y200342D01*
X451895Y200642D01*
X451881Y200641D01*
X451877Y200649D01*
X451200Y200745D01*
X450919Y201214D01*
X450919Y202492D01*
X451103Y203045D01*
X451662Y202951D01*
X451672Y202957D01*
X451677Y202951D01*
X452377Y203051D01*
X452389Y203064D01*
X452400Y203061D01*
X452800Y203361D01*
X452807Y203388D01*
X452819Y203395D01*
X452919Y204295D01*
X452912Y204306D01*
X452917Y204314D01*
X452717Y205014D01*
X452697Y205029D01*
X452695Y205042D01*
X452195Y205342D01*
X452180Y205341D01*
X452176Y205346D01*
X452173Y205346D01*
X452170Y205349D01*
X451570Y205349D01*
X451566Y205346D01*
X451563Y205349D01*
X450919Y205257D01*
X450919Y206600D01*
X450916Y206605D01*
X450919Y206608D01*
X450819Y207208D01*
X450803Y207223D01*
X450805Y207235D01*
X450405Y207635D01*
X450382Y207638D01*
X450376Y207649D01*
X449576Y207749D01*
X449564Y207742D01*
X449556Y207747D01*
X448856Y207547D01*
X448837Y207522D01*
X448824Y207518D01*
X448624Y207018D01*
X448628Y207005D01*
X448621Y207000D01*
X448621Y205620D01*
X448343Y205343D01*
X447754Y205147D01*
X447741Y205127D01*
X447728Y205125D01*
X447428Y204625D01*
X447428Y204621D01*
X447427Y204620D01*
X447429Y204618D01*
X447430Y204607D01*
X447421Y204600D01*
X447421Y203800D01*
X447424Y203795D01*
X447421Y203792D01*
X447521Y203192D01*
X447550Y203165D01*
X447553Y203154D01*
X448621Y202766D01*
X448621Y200700D01*
X448624Y200696D01*
X448621Y200693D01*
X448721Y199993D01*
X448729Y199985D01*
X448726Y199978D01*
X449026Y199378D01*
X449032Y199375D01*
X449031Y199370D01*
X449331Y198970D01*
X449344Y198967D01*
X449345Y198958D01*
X449845Y198658D01*
X449854Y198659D01*
X449856Y198653D01*
X450556Y198453D01*
X450566Y198456D01*
X450570Y198451D01*
X451970Y198451D01*
X451991Y198467D01*
G37*
G36*
X446516Y209981D02*
X446516Y209981D01*
X446532Y209997D01*
X446545Y209995D01*
X446945Y210395D01*
X446946Y210407D01*
X446950Y210409D01*
X446947Y210413D01*
X446949Y210422D01*
X446959Y210430D01*
X446959Y218530D01*
X446956Y218535D01*
X446959Y218538D01*
X446859Y219138D01*
X446837Y219159D01*
X446835Y219172D01*
X446335Y219472D01*
X446317Y219470D01*
X446310Y219479D01*
X445610Y219479D01*
X445597Y219470D01*
X445588Y219474D01*
X444988Y219174D01*
X444985Y219167D01*
X444979Y219168D01*
X444479Y218768D01*
X444479Y218766D01*
X444476Y218766D01*
X442976Y217366D01*
X442976Y217361D01*
X442972Y217362D01*
X442472Y216762D01*
X442472Y216747D01*
X442462Y216740D01*
X442362Y216240D01*
X442372Y216219D01*
X442366Y216208D01*
X442666Y215608D01*
X442679Y215602D01*
X442678Y215592D01*
X443278Y215092D01*
X443302Y215091D01*
X443310Y215081D01*
X443810Y215081D01*
X443824Y215092D01*
X443834Y215087D01*
X444482Y215457D01*
X444561Y215222D01*
X444561Y211130D01*
X444564Y211125D01*
X444561Y211122D01*
X444661Y210522D01*
X444671Y210513D01*
X444668Y210505D01*
X444968Y210005D01*
X444996Y209993D01*
X445003Y209981D01*
X445703Y209881D01*
X445711Y209886D01*
X445716Y209881D01*
X446516Y209981D01*
G37*
G36*
X399686Y249351D02*
X399686Y249351D01*
X399702Y249367D01*
X399715Y249365D01*
X400115Y249765D01*
X400116Y249777D01*
X400120Y249779D01*
X400117Y249783D01*
X400119Y249792D01*
X400129Y249800D01*
X400129Y257900D01*
X400126Y257905D01*
X400129Y257908D01*
X400029Y258508D01*
X400007Y258529D01*
X400005Y258542D01*
X399505Y258842D01*
X399487Y258840D01*
X399480Y258849D01*
X398780Y258849D01*
X398767Y258840D01*
X398758Y258844D01*
X398158Y258544D01*
X398155Y258537D01*
X398149Y258538D01*
X397649Y258138D01*
X397649Y258136D01*
X397646Y258136D01*
X396146Y256736D01*
X396146Y256731D01*
X396142Y256732D01*
X395642Y256132D01*
X395642Y256117D01*
X395632Y256110D01*
X395532Y255610D01*
X395542Y255589D01*
X395536Y255578D01*
X395836Y254978D01*
X395849Y254972D01*
X395848Y254962D01*
X396448Y254462D01*
X396472Y254461D01*
X396480Y254451D01*
X396980Y254451D01*
X396994Y254462D01*
X397004Y254457D01*
X397652Y254827D01*
X397731Y254592D01*
X397731Y250500D01*
X397734Y250495D01*
X397731Y250492D01*
X397831Y249892D01*
X397841Y249883D01*
X397838Y249875D01*
X398138Y249375D01*
X398166Y249363D01*
X398173Y249351D01*
X398873Y249251D01*
X398881Y249256D01*
X398886Y249251D01*
X399686Y249351D01*
G37*
G36*
X374867Y263226D02*
X374867Y263226D01*
X374872Y263222D01*
X375272Y263322D01*
X375294Y263349D01*
X375295Y263351D01*
X375307Y263354D01*
X375507Y263954D01*
X375503Y263965D01*
X375509Y263970D01*
X375509Y264870D01*
X375496Y264888D01*
X375499Y264900D01*
X375199Y265300D01*
X375179Y265305D01*
X375176Y265317D01*
X374587Y265513D01*
X374209Y265890D01*
X374209Y272670D01*
X374198Y272685D01*
X374202Y272695D01*
X373902Y273195D01*
X373878Y273205D01*
X373874Y273217D01*
X373174Y273417D01*
X373169Y273416D01*
X373157Y273416D01*
X373154Y273419D01*
X372354Y273319D01*
X372338Y273303D01*
X372325Y273305D01*
X371925Y272905D01*
X371924Y272892D01*
X371916Y272887D01*
X371922Y272880D01*
X371922Y272878D01*
X371911Y272870D01*
X371911Y265270D01*
X371914Y265266D01*
X371911Y265263D01*
X372011Y264563D01*
X372017Y264557D01*
X372014Y264552D01*
X372214Y264052D01*
X372222Y264047D01*
X372221Y264040D01*
X372521Y263640D01*
X372536Y263636D01*
X372538Y263626D01*
X373138Y263326D01*
X373150Y263328D01*
X373155Y263321D01*
X374055Y263221D01*
X374058Y263223D01*
X374060Y263221D01*
X374860Y263221D01*
X374867Y263226D01*
G37*
G36*
X343557Y263226D02*
X343557Y263226D01*
X343562Y263222D01*
X343962Y263322D01*
X343981Y263345D01*
X343994Y263348D01*
X344294Y263948D01*
X344291Y263964D01*
X344299Y263970D01*
X344299Y264870D01*
X344286Y264888D01*
X344289Y264900D01*
X343989Y265300D01*
X343968Y265306D01*
X343964Y265317D01*
X343280Y265513D01*
X342999Y265886D01*
X342999Y272670D01*
X342988Y272685D01*
X342992Y272695D01*
X342692Y273195D01*
X342668Y273205D01*
X342664Y273217D01*
X341964Y273417D01*
X341959Y273416D01*
X341947Y273416D01*
X341944Y273419D01*
X341144Y273319D01*
X341128Y273303D01*
X341115Y273305D01*
X340715Y272905D01*
X340714Y272892D01*
X340706Y272887D01*
X340712Y272880D01*
X340712Y272878D01*
X340701Y272870D01*
X340701Y265270D01*
X340704Y265266D01*
X340701Y265263D01*
X340801Y264563D01*
X340807Y264557D01*
X340804Y264552D01*
X341004Y264052D01*
X341012Y264047D01*
X341011Y264040D01*
X341311Y263640D01*
X341326Y263636D01*
X341328Y263626D01*
X341928Y263326D01*
X341940Y263328D01*
X341945Y263321D01*
X342845Y263221D01*
X342848Y263223D01*
X342850Y263221D01*
X343550Y263221D01*
X343557Y263226D01*
G37*
G36*
X322056Y263321D02*
X322056Y263321D01*
X322069Y263334D01*
X322080Y263331D01*
X322480Y263631D01*
X322484Y263647D01*
X322489Y263651D01*
X322486Y263655D01*
X322489Y263662D01*
X322499Y263670D01*
X322499Y267058D01*
X322787Y267633D01*
X323358Y267919D01*
X324039Y267822D01*
X324634Y267623D01*
X324668Y267635D01*
X324681Y267632D01*
X325181Y268032D01*
X325185Y268048D01*
X325195Y268051D01*
X325495Y268751D01*
X325492Y268764D01*
X325499Y268770D01*
X325499Y269370D01*
X325490Y269383D01*
X325494Y269392D01*
X325194Y269992D01*
X325163Y270007D01*
X325157Y270019D01*
X324458Y270119D01*
X323858Y270219D01*
X323850Y270214D01*
X323838Y270214D01*
X323836Y270212D01*
X323831Y270215D01*
X323131Y269915D01*
X323126Y269907D01*
X323119Y269908D01*
X322654Y269536D01*
X322385Y269805D01*
X322380Y269806D01*
X322380Y269809D01*
X321980Y270109D01*
X321960Y270109D01*
X321955Y270116D01*
X321953Y270116D01*
X321950Y270119D01*
X321050Y270119D01*
X321045Y270116D01*
X321040Y270116D01*
X321038Y270114D01*
X321034Y270117D01*
X320434Y269917D01*
X320421Y269897D01*
X320408Y269887D01*
X320403Y269886D01*
X320203Y269286D01*
X320207Y269275D01*
X320201Y269270D01*
X320201Y263870D01*
X320212Y263855D01*
X320208Y263845D01*
X320508Y263345D01*
X320536Y263333D01*
X320543Y263321D01*
X321243Y263221D01*
X321251Y263226D01*
X321256Y263221D01*
X322056Y263321D01*
G37*
G36*
X416366Y263321D02*
X416366Y263321D01*
X416377Y263331D01*
X416385Y263328D01*
X416885Y263628D01*
X416893Y263648D01*
X416897Y263651D01*
X416896Y263653D01*
X416899Y263662D01*
X416909Y263670D01*
X416909Y267062D01*
X417100Y267635D01*
X417668Y267919D01*
X418349Y267822D01*
X418944Y267623D01*
X418975Y267633D01*
X418987Y267629D01*
X419587Y268029D01*
X419595Y268052D01*
X419607Y268056D01*
X419807Y268756D01*
X419806Y268760D01*
X419809Y268762D01*
X419909Y269362D01*
X419897Y269385D01*
X419901Y269397D01*
X419501Y269997D01*
X419474Y270007D01*
X419468Y270019D01*
X418868Y270119D01*
X418867Y270118D01*
X418867Y270119D01*
X418167Y270219D01*
X418159Y270214D01*
X418150Y270214D01*
X418145Y270211D01*
X418138Y270214D01*
X417538Y269914D01*
X417536Y269910D01*
X417533Y269911D01*
X416974Y269538D01*
X416801Y269797D01*
X416786Y269802D01*
X416785Y269812D01*
X416285Y270112D01*
X416270Y270111D01*
X416266Y270116D01*
X416263Y270116D01*
X416260Y270119D01*
X415460Y270119D01*
X415455Y270116D01*
X415450Y270116D01*
X415448Y270114D01*
X415444Y270117D01*
X414844Y269917D01*
X414831Y269897D01*
X414818Y269887D01*
X414813Y269886D01*
X414613Y269286D01*
X414617Y269275D01*
X414611Y269270D01*
X414611Y263870D01*
X414622Y263855D01*
X414618Y263845D01*
X414918Y263345D01*
X414946Y263334D01*
X414952Y263321D01*
X415552Y263221D01*
X415561Y263226D01*
X415566Y263221D01*
X416366Y263321D01*
G37*
G36*
X61839Y41408D02*
X61839Y41408D01*
X61846Y41403D01*
X62446Y41603D01*
X62464Y41630D01*
X62477Y41634D01*
X62677Y42234D01*
X62673Y42245D01*
X62679Y42250D01*
X62679Y42945D01*
X62770Y43401D01*
X64130Y43401D01*
X64155Y43420D01*
X64168Y43419D01*
X64568Y43919D01*
X64569Y43937D01*
X64579Y43942D01*
X64679Y44542D01*
X64673Y44552D01*
X64679Y44557D01*
X64579Y45257D01*
X64557Y45279D01*
X64555Y45292D01*
X64055Y45592D01*
X64037Y45590D01*
X64030Y45599D01*
X62679Y45599D01*
X62679Y46250D01*
X62676Y46254D01*
X62679Y46257D01*
X62579Y46957D01*
X62573Y46963D01*
X62576Y46968D01*
X62376Y47468D01*
X62343Y47488D01*
X62337Y47499D01*
X61637Y47599D01*
X61628Y47594D01*
X61623Y47599D01*
X60923Y47499D01*
X60904Y47480D01*
X60891Y47480D01*
X60591Y47080D01*
X60591Y47062D01*
X60581Y47057D01*
X60481Y46357D01*
X60484Y46352D01*
X60481Y46350D01*
X60481Y45690D01*
X60025Y45599D01*
X59330Y45599D01*
X59321Y45592D01*
X59314Y45597D01*
X58714Y45397D01*
X58696Y45370D01*
X58683Y45366D01*
X58483Y44766D01*
X58484Y44764D01*
X58483Y44763D01*
X58485Y44759D01*
X58487Y44755D01*
X58481Y44750D01*
X58481Y44050D01*
X58492Y44035D01*
X58488Y44025D01*
X58788Y43525D01*
X58816Y43513D01*
X58823Y43501D01*
X59523Y43401D01*
X59528Y43404D01*
X59530Y43401D01*
X60210Y43401D01*
X60481Y43130D01*
X60481Y42450D01*
X60484Y42446D01*
X60481Y42443D01*
X60581Y41743D01*
X60603Y41721D01*
X60605Y41708D01*
X61105Y41408D01*
X61123Y41410D01*
X61130Y41401D01*
X61830Y41401D01*
X61839Y41408D01*
G37*
G36*
X440768Y104677D02*
X440768Y104677D01*
X440774Y104675D01*
X441290Y104754D01*
X441293Y104757D01*
X441299Y104756D01*
X441788Y104912D01*
X441792Y104917D01*
X441799Y104917D01*
X442255Y105171D01*
X442259Y105178D01*
X442269Y105181D01*
X442629Y105544D01*
X442630Y105548D01*
X442635Y105551D01*
X442947Y105968D01*
X442948Y105979D01*
X442958Y105993D01*
X443063Y106504D01*
X443062Y106506D01*
X443064Y106510D01*
X443119Y107020D01*
X443115Y107028D01*
X443118Y107040D01*
X443013Y107550D01*
X443009Y107554D01*
X443009Y107562D01*
X442808Y108030D01*
X442802Y108034D01*
X442800Y108043D01*
X442488Y108460D01*
X442480Y108463D01*
X442473Y108474D01*
X442049Y108764D01*
X442047Y108764D01*
X442044Y108767D01*
X441589Y109021D01*
X441580Y109021D01*
X441568Y109029D01*
X440538Y109187D01*
X440530Y109184D01*
X440519Y109187D01*
X439488Y109032D01*
X439482Y109026D01*
X439468Y109025D01*
X439010Y108779D01*
X439009Y108777D01*
X439005Y108776D01*
X438575Y108494D01*
X438571Y108485D01*
X438559Y108479D01*
X438247Y108061D01*
X438246Y108055D01*
X438240Y108050D01*
X438030Y107586D01*
X438031Y107580D01*
X438025Y107573D01*
X437920Y107062D01*
X437923Y107055D01*
X437919Y107044D01*
X437965Y106534D01*
X437967Y106531D01*
X437966Y106527D01*
X438072Y106016D01*
X438080Y106009D01*
X438083Y105992D01*
X438388Y105572D01*
X438392Y105570D01*
X438393Y105565D01*
X438747Y105195D01*
X438755Y105193D01*
X438762Y105184D01*
X439218Y104931D01*
X439223Y104931D01*
X439228Y104926D01*
X439714Y104760D01*
X439719Y104762D01*
X439725Y104758D01*
X440240Y104679D01*
X440244Y104680D01*
X440249Y104678D01*
X440764Y104675D01*
X440768Y104677D01*
G37*
G36*
X340278Y249257D02*
X340278Y249257D01*
X340284Y249253D01*
X340984Y249453D01*
X341003Y249478D01*
X341016Y249482D01*
X341216Y249982D01*
X341212Y249995D01*
X341219Y250000D01*
X341219Y255500D01*
X341208Y255515D01*
X341212Y255525D01*
X340912Y256025D01*
X340884Y256037D01*
X340877Y256049D01*
X340177Y256149D01*
X340172Y256146D01*
X340167Y256146D01*
X340164Y256149D01*
X339364Y256049D01*
X339348Y256033D01*
X339335Y256035D01*
X338935Y255635D01*
X338934Y255623D01*
X338927Y255617D01*
X338932Y255610D01*
X338932Y255608D01*
X338921Y255600D01*
X338921Y249700D01*
X338937Y249679D01*
X338935Y249665D01*
X339335Y249265D01*
X339362Y249262D01*
X339370Y249251D01*
X340270Y249251D01*
X340278Y249257D01*
G37*
G36*
X328859Y263228D02*
X328859Y263228D01*
X328866Y263223D01*
X329466Y263423D01*
X329479Y263443D01*
X329492Y263445D01*
X329792Y263945D01*
X329790Y263963D01*
X329799Y263970D01*
X329799Y269470D01*
X329788Y269485D01*
X329792Y269495D01*
X329492Y269995D01*
X329464Y270007D01*
X329457Y270019D01*
X328757Y270119D01*
X328752Y270116D01*
X328747Y270116D01*
X328744Y270119D01*
X327944Y270019D01*
X327928Y270003D01*
X327915Y270005D01*
X327515Y269605D01*
X327514Y269593D01*
X327507Y269587D01*
X327512Y269580D01*
X327512Y269578D01*
X327501Y269570D01*
X327501Y263670D01*
X327517Y263649D01*
X327515Y263635D01*
X327915Y263235D01*
X327942Y263232D01*
X327950Y263221D01*
X328850Y263221D01*
X328859Y263228D01*
G37*
%LPC*%
G36*
X416913Y12435D02*
X416913Y12435D01*
X416366Y12625D01*
X415958Y12982D01*
X415763Y13491D01*
X415765Y14101D01*
X415763Y14109D01*
X415765Y14118D01*
X415749Y14191D01*
X415697Y14326D01*
X415702Y14327D01*
X415754Y14351D01*
X415808Y14369D01*
X415822Y14382D01*
X415829Y14385D01*
X415834Y14394D01*
X415862Y14420D01*
X416236Y14901D01*
X416742Y15191D01*
X417336Y15372D01*
X417971Y15489D01*
X419280Y15685D01*
X419286Y15687D01*
X419300Y15689D01*
X419946Y15842D01*
X419955Y15847D01*
X419996Y15860D01*
X420290Y16001D01*
X420313Y15853D01*
X420313Y15216D01*
X420280Y14559D01*
X420283Y14549D01*
X420280Y14540D01*
X420299Y14482D01*
X420313Y14423D01*
X420320Y14416D01*
X420323Y14407D01*
X420359Y14377D01*
X420300Y14321D01*
X420287Y14299D01*
X420267Y14283D01*
X420234Y14216D01*
X420043Y13621D01*
X419727Y13126D01*
X419283Y12749D01*
X418741Y12509D01*
X418142Y12391D01*
X417522Y12370D01*
X416913Y12435D01*
G37*
%LPD*%
G36*
X62960Y104823D02*
X62960Y104823D01*
X62972Y104825D01*
X63272Y105325D01*
X63272Y105328D01*
X63273Y105329D01*
X63272Y105331D01*
X63270Y105343D01*
X63279Y105350D01*
X63279Y109450D01*
X63254Y109483D01*
X63252Y109494D01*
X62652Y109794D01*
X62636Y109791D01*
X62630Y109799D01*
X61930Y109799D01*
X61917Y109790D01*
X61908Y109794D01*
X61308Y109494D01*
X61293Y109463D01*
X61281Y109457D01*
X61181Y108757D01*
X61183Y108754D01*
X61184Y108753D01*
X61184Y108752D01*
X61181Y108750D01*
X61181Y105450D01*
X61190Y105437D01*
X61186Y105428D01*
X61486Y104828D01*
X61523Y104810D01*
X61530Y104801D01*
X62930Y104801D01*
X62960Y104823D01*
G37*
%LPC*%
G36*
X376429Y254349D02*
X376429Y254349D01*
X376429Y256275D01*
X376796Y256551D01*
X378168Y256551D01*
X378743Y256263D01*
X379031Y255688D01*
X379031Y255014D01*
X378748Y254542D01*
X378073Y254349D01*
X376429Y254349D01*
G37*
%LPD*%
%LPC*%
G36*
X172249Y9239D02*
X172249Y9239D01*
X172249Y11165D01*
X172616Y11441D01*
X173988Y11441D01*
X174563Y11153D01*
X174851Y10578D01*
X174851Y9904D01*
X174568Y9432D01*
X173893Y9239D01*
X172249Y9239D01*
G37*
%LPD*%
%LPC*%
G36*
X314019Y254349D02*
X314019Y254349D01*
X314019Y256275D01*
X314386Y256551D01*
X315758Y256551D01*
X316333Y256263D01*
X316621Y255688D01*
X316621Y255017D01*
X316241Y254542D01*
X315662Y254349D01*
X314019Y254349D01*
G37*
%LPD*%
%LPC*%
G36*
X59955Y56569D02*
X59955Y56569D01*
X59679Y56936D01*
X59679Y58308D01*
X59967Y58883D01*
X60542Y59171D01*
X61213Y59171D01*
X61688Y58791D01*
X61881Y58212D01*
X61881Y56569D01*
X59955Y56569D01*
G37*
%LPD*%
%LPC*%
G36*
X59955Y93399D02*
X59955Y93399D01*
X59679Y93766D01*
X59679Y95138D01*
X59967Y95713D01*
X60542Y96001D01*
X61213Y96001D01*
X61688Y95621D01*
X61881Y95042D01*
X61881Y93399D01*
X59955Y93399D01*
G37*
%LPD*%
%LPC*%
G36*
X73925Y17949D02*
X73925Y17949D01*
X73649Y18316D01*
X73649Y19688D01*
X73937Y20263D01*
X74512Y20551D01*
X75183Y20551D01*
X75658Y20171D01*
X75851Y19592D01*
X75851Y17949D01*
X73925Y17949D01*
G37*
%LPD*%
G36*
X329357Y271021D02*
X329357Y271021D01*
X329365Y271029D01*
X329372Y271026D01*
X329572Y271126D01*
X329582Y271147D01*
X329589Y271152D01*
X329597Y271154D01*
X329797Y271754D01*
X329793Y271765D01*
X329799Y271770D01*
X329799Y272470D01*
X329792Y272479D01*
X329797Y272486D01*
X329597Y273086D01*
X329570Y273104D01*
X329566Y273117D01*
X328966Y273317D01*
X328951Y273312D01*
X328945Y273319D01*
X328045Y273219D01*
X328034Y273209D01*
X328025Y273212D01*
X327525Y272912D01*
X327511Y272878D01*
X327501Y272870D01*
X327501Y271570D01*
X327515Y271552D01*
X327512Y271539D01*
X327912Y271039D01*
X327937Y271033D01*
X327943Y271021D01*
X328643Y270921D01*
X328652Y270926D01*
X328657Y270921D01*
X329357Y271021D01*
G37*
G36*
X340173Y256957D02*
X340173Y256957D01*
X340178Y256951D01*
X340778Y257051D01*
X340785Y257059D01*
X340792Y257056D01*
X340992Y257156D01*
X341002Y257177D01*
X341009Y257182D01*
X341017Y257184D01*
X341217Y257784D01*
X341213Y257795D01*
X341219Y257800D01*
X341219Y258500D01*
X341212Y258509D01*
X341217Y258516D01*
X341017Y259116D01*
X340990Y259134D01*
X340986Y259147D01*
X340386Y259347D01*
X340371Y259342D01*
X340365Y259349D01*
X339465Y259249D01*
X339451Y259236D01*
X339440Y259239D01*
X339040Y258939D01*
X339033Y258914D01*
X339021Y258908D01*
X338921Y258308D01*
X338924Y258303D01*
X338921Y258300D01*
X338921Y257600D01*
X338937Y257579D01*
X338935Y257565D01*
X339435Y257065D01*
X339457Y257062D01*
X339463Y257051D01*
X340163Y256951D01*
X340173Y256957D01*
G37*
%LPC*%
G36*
X367897Y251649D02*
X367897Y251649D01*
X367419Y252032D01*
X367129Y252612D01*
X367129Y253283D01*
X367512Y253761D01*
X368092Y254051D01*
X368763Y254051D01*
X369241Y253668D01*
X369529Y253091D01*
X369433Y252320D01*
X369051Y251842D01*
X368472Y251649D01*
X367897Y251649D01*
G37*
%LPD*%
%LPC*%
G36*
X346185Y251649D02*
X346185Y251649D01*
X345611Y252032D01*
X345419Y252608D01*
X345419Y253283D01*
X345802Y253761D01*
X346382Y254051D01*
X347053Y254051D01*
X347528Y253671D01*
X347721Y253092D01*
X347721Y252317D01*
X347341Y251843D01*
X346663Y251649D01*
X346185Y251649D01*
G37*
%LPD*%
%LPC*%
G36*
X334762Y265619D02*
X334762Y265619D01*
X334179Y265911D01*
X333899Y266190D01*
X333899Y266858D01*
X334187Y267433D01*
X334762Y267721D01*
X335350Y267721D01*
X335383Y267746D01*
X335394Y267748D01*
X335408Y267776D01*
X335419Y267732D01*
X335907Y267341D01*
X336098Y266671D01*
X335907Y266097D01*
X335430Y265619D01*
X334762Y265619D01*
G37*
%LPD*%
%LPC*%
G36*
X386592Y251649D02*
X386592Y251649D01*
X386006Y251942D01*
X385629Y252225D01*
X385629Y252885D01*
X386015Y253463D01*
X386494Y253751D01*
X387163Y253751D01*
X387637Y253371D01*
X387830Y252697D01*
X387734Y252124D01*
X387260Y251649D01*
X386592Y251649D01*
G37*
%LPD*%
%LPC*%
G36*
X484782Y200849D02*
X484782Y200849D01*
X484196Y201142D01*
X483823Y201422D01*
X483918Y202085D01*
X484208Y202665D01*
X484684Y202951D01*
X485353Y202951D01*
X485827Y202571D01*
X486020Y201897D01*
X485924Y201324D01*
X485450Y200849D01*
X484782Y200849D01*
G37*
%LPD*%
%LPC*%
G36*
X324182Y251649D02*
X324182Y251649D01*
X323596Y251942D01*
X323219Y252225D01*
X323219Y252885D01*
X323605Y253463D01*
X324084Y253751D01*
X324753Y253751D01*
X325227Y253371D01*
X325418Y252701D01*
X325227Y252127D01*
X324750Y251649D01*
X324182Y251649D01*
G37*
%LPD*%
%LPC*%
G36*
X332890Y251649D02*
X332890Y251649D01*
X332413Y252127D01*
X332222Y252700D01*
X332412Y253271D01*
X332890Y253653D01*
X333562Y253749D01*
X334133Y253463D01*
X334419Y252892D01*
X334323Y252220D01*
X333944Y251746D01*
X333267Y251649D01*
X332890Y251649D01*
G37*
%LPD*%
%LPC*%
G36*
X436630Y215879D02*
X436630Y215879D01*
X436256Y216253D01*
X436162Y216913D01*
X436534Y217284D01*
X437111Y217380D01*
X437777Y217285D01*
X438059Y216722D01*
X437966Y216163D01*
X437398Y215879D01*
X436630Y215879D01*
G37*
%LPD*%
%LPC*%
G36*
X343630Y24749D02*
X343630Y24749D01*
X343455Y25100D01*
X344044Y26278D01*
X344043Y26283D01*
X344047Y26284D01*
X344107Y26466D01*
X344654Y25282D01*
X344832Y24749D01*
X343630Y24749D01*
G37*
%LPD*%
%LPC*%
G36*
X365686Y267319D02*
X365686Y267319D01*
X365523Y267564D01*
X365987Y268027D01*
X366565Y268220D01*
X367223Y268126D01*
X367402Y267588D01*
X367044Y267319D01*
X365686Y267319D01*
G37*
%LPD*%
%LPC*%
G36*
X181926Y8239D02*
X181926Y8239D01*
X181763Y8484D01*
X182227Y8947D01*
X182805Y9140D01*
X183463Y9046D01*
X183642Y8508D01*
X183284Y8239D01*
X181926Y8239D01*
G37*
%LPD*%
%LPC*%
G36*
X380008Y267282D02*
X380008Y267282D01*
X380006Y267284D01*
X380007Y267286D01*
X379916Y267557D01*
X380387Y268027D01*
X380965Y268220D01*
X381623Y268126D01*
X381801Y267592D01*
X381346Y267319D01*
X380060Y267319D01*
X380013Y267283D01*
X380018Y267276D01*
X380014Y267273D01*
X380018Y267268D01*
X380013Y267263D01*
X380008Y267282D01*
G37*
%LPD*%
%LPC*%
G36*
X313976Y267319D02*
X313976Y267319D01*
X313813Y267564D01*
X314276Y268026D01*
X314953Y268220D01*
X315513Y268126D01*
X315692Y267588D01*
X315334Y267319D01*
X313976Y267319D01*
G37*
%LPD*%
%LPC*%
G36*
X457718Y202512D02*
X457718Y202512D01*
X457716Y202514D01*
X457717Y202516D01*
X457626Y202787D01*
X458097Y203257D01*
X458674Y203449D01*
X459237Y203356D01*
X459506Y202819D01*
X459056Y202549D01*
X457770Y202549D01*
X457723Y202513D01*
X457728Y202506D01*
X457724Y202503D01*
X457728Y202498D01*
X457723Y202493D01*
X457718Y202512D01*
G37*
%LPD*%
%LPC*%
G36*
X400886Y267319D02*
X400886Y267319D01*
X400726Y267560D01*
X401284Y268026D01*
X401864Y268219D01*
X402423Y268126D01*
X402602Y267588D01*
X402244Y267319D01*
X400886Y267319D01*
G37*
%LPD*%
%LPC*%
G36*
X198426Y8239D02*
X198426Y8239D01*
X198266Y8480D01*
X198824Y8946D01*
X199404Y9139D01*
X199963Y9046D01*
X200142Y8508D01*
X199784Y8239D01*
X198426Y8239D01*
G37*
%LPD*%
%LPC*%
G36*
X431208Y202549D02*
X431208Y202549D01*
X431122Y202896D01*
X431615Y204081D01*
X431615Y204084D01*
X431617Y204084D01*
X431677Y204266D01*
X432225Y203079D01*
X432226Y203079D01*
X432226Y203078D01*
X432490Y202549D01*
X431208Y202549D01*
G37*
%LPD*%
%LPC*%
G36*
X365907Y266076D02*
X365907Y266076D01*
X365908Y266077D01*
X365908Y266076D01*
X365907Y266076D01*
G37*
%LPD*%
%LPC*%
G36*
X182147Y6996D02*
X182147Y6996D01*
X182148Y6997D01*
X182148Y6996D01*
X182147Y6996D01*
G37*
%LPD*%
D10*
X193802Y226060D03*
D11*
X165100Y220194D02*
X165100Y211606D01*
X190500Y211606D02*
X190500Y220194D01*
X180484Y208812D02*
X175116Y208812D01*
X140970Y246380D02*
X140970Y261620D01*
X144780Y219710D02*
X134620Y219710D01*
X134620Y237490D02*
X144780Y237490D01*
X152560Y204210D02*
X126590Y204210D01*
X80963Y66675D02*
X71438Y66675D01*
X71438Y85725D02*
X80963Y85725D01*
D12*
X54200Y233700D02*
X36200Y233700D01*
X36200Y147300D02*
X54200Y147300D01*
X40640Y245364D02*
X40640Y262636D01*
X58420Y242824D02*
X58520Y242826D01*
X58619Y242832D01*
X58719Y242842D01*
X58817Y242855D01*
X58916Y242873D01*
X59013Y242894D01*
X59109Y242919D01*
X59205Y242948D01*
X59299Y242981D01*
X59392Y243017D01*
X59483Y243057D01*
X59573Y243101D01*
X59661Y243148D01*
X59747Y243198D01*
X59831Y243252D01*
X59913Y243309D01*
X59992Y243369D01*
X60070Y243433D01*
X60144Y243499D01*
X60216Y243568D01*
X60285Y243640D01*
X60351Y243714D01*
X60415Y243792D01*
X60475Y243871D01*
X60532Y243953D01*
X60586Y244037D01*
X60636Y244123D01*
X60683Y244211D01*
X60727Y244301D01*
X60767Y244392D01*
X60803Y244485D01*
X60836Y244579D01*
X60865Y244675D01*
X60890Y244771D01*
X60911Y244868D01*
X60929Y244967D01*
X60942Y245065D01*
X60952Y245165D01*
X60958Y245264D01*
X60960Y245364D01*
X60960Y262636D02*
X60958Y262736D01*
X60952Y262835D01*
X60942Y262935D01*
X60929Y263033D01*
X60911Y263132D01*
X60890Y263229D01*
X60865Y263325D01*
X60836Y263421D01*
X60803Y263515D01*
X60767Y263608D01*
X60727Y263699D01*
X60683Y263789D01*
X60636Y263877D01*
X60586Y263963D01*
X60532Y264047D01*
X60475Y264129D01*
X60415Y264208D01*
X60351Y264286D01*
X60285Y264360D01*
X60216Y264432D01*
X60144Y264501D01*
X60070Y264567D01*
X59992Y264631D01*
X59913Y264691D01*
X59831Y264748D01*
X59747Y264802D01*
X59661Y264852D01*
X59573Y264899D01*
X59483Y264943D01*
X59392Y264983D01*
X59299Y265019D01*
X59205Y265052D01*
X59109Y265081D01*
X59013Y265106D01*
X58916Y265127D01*
X58817Y265145D01*
X58719Y265158D01*
X58619Y265168D01*
X58520Y265174D01*
X58420Y265176D01*
X43180Y265176D02*
X43080Y265174D01*
X42981Y265168D01*
X42881Y265158D01*
X42783Y265145D01*
X42684Y265127D01*
X42587Y265106D01*
X42491Y265081D01*
X42395Y265052D01*
X42301Y265019D01*
X42208Y264983D01*
X42117Y264943D01*
X42027Y264899D01*
X41939Y264852D01*
X41853Y264802D01*
X41769Y264748D01*
X41687Y264691D01*
X41608Y264631D01*
X41530Y264567D01*
X41456Y264501D01*
X41384Y264432D01*
X41315Y264360D01*
X41249Y264286D01*
X41185Y264208D01*
X41125Y264129D01*
X41068Y264047D01*
X41014Y263963D01*
X40964Y263877D01*
X40917Y263789D01*
X40873Y263699D01*
X40833Y263608D01*
X40797Y263515D01*
X40764Y263421D01*
X40735Y263325D01*
X40710Y263229D01*
X40689Y263132D01*
X40671Y263033D01*
X40658Y262935D01*
X40648Y262835D01*
X40642Y262736D01*
X40640Y262636D01*
X40640Y245364D02*
X40642Y245264D01*
X40648Y245165D01*
X40658Y245065D01*
X40671Y244967D01*
X40689Y244868D01*
X40710Y244771D01*
X40735Y244675D01*
X40764Y244579D01*
X40797Y244485D01*
X40833Y244392D01*
X40873Y244301D01*
X40917Y244211D01*
X40964Y244123D01*
X41014Y244037D01*
X41068Y243953D01*
X41125Y243871D01*
X41185Y243792D01*
X41249Y243714D01*
X41315Y243640D01*
X41384Y243568D01*
X41456Y243499D01*
X41530Y243433D01*
X41608Y243369D01*
X41687Y243309D01*
X41769Y243252D01*
X41853Y243198D01*
X41939Y243148D01*
X42027Y243101D01*
X42117Y243057D01*
X42208Y243017D01*
X42301Y242981D01*
X42395Y242948D01*
X42491Y242919D01*
X42587Y242894D01*
X42684Y242873D01*
X42783Y242855D01*
X42881Y242842D01*
X42981Y242832D01*
X43080Y242826D01*
X43180Y242824D01*
X58420Y242824D01*
X58420Y265176D02*
X43180Y265176D01*
X60960Y262636D02*
X60960Y245364D01*
D11*
X3400Y118700D02*
X3400Y33700D01*
X32700Y129200D02*
X42200Y129200D01*
X42200Y118700D01*
X42200Y33700D02*
X42200Y23200D01*
X32700Y23200D01*
X300038Y34925D02*
X309563Y34925D01*
X350838Y34925D02*
X360363Y34925D01*
X337700Y122000D02*
X337700Y132000D01*
X322700Y132000D02*
X322700Y122000D01*
X290270Y108430D02*
X285270Y103430D01*
X222730Y103430D02*
X217730Y103430D01*
X217730Y108430D01*
X290270Y170970D02*
X290270Y175970D01*
X285270Y175970D01*
X217730Y175970D02*
X217730Y170970D01*
X217730Y175970D02*
X222730Y175970D01*
D13*
X290730Y102970D03*
D11*
X202900Y25400D02*
X177800Y25400D01*
X165100Y35400D02*
X165100Y66200D01*
X178100Y76200D02*
X202900Y76200D01*
X215900Y66200D02*
X215900Y35400D01*
X177800Y50800D02*
X177804Y51112D01*
X177815Y51423D01*
X177834Y51734D01*
X177861Y52045D01*
X177896Y52355D01*
X177937Y52663D01*
X177987Y52971D01*
X178044Y53278D01*
X178109Y53583D01*
X178181Y53886D01*
X178260Y54187D01*
X178347Y54487D01*
X178441Y54784D01*
X178542Y55079D01*
X178651Y55371D01*
X178767Y55660D01*
X178890Y55947D01*
X179019Y56230D01*
X179156Y56510D01*
X179300Y56787D01*
X179450Y57060D01*
X179607Y57329D01*
X179770Y57594D01*
X179940Y57856D01*
X180117Y58113D01*
X180299Y58365D01*
X180488Y58613D01*
X180683Y58857D01*
X180883Y59095D01*
X181090Y59329D01*
X181302Y59557D01*
X181520Y59780D01*
X181743Y59998D01*
X181971Y60210D01*
X182205Y60417D01*
X182443Y60617D01*
X182687Y60812D01*
X182935Y61001D01*
X183187Y61183D01*
X183444Y61360D01*
X183706Y61530D01*
X183971Y61693D01*
X184240Y61850D01*
X184513Y62000D01*
X184790Y62144D01*
X185070Y62281D01*
X185353Y62410D01*
X185640Y62533D01*
X185929Y62649D01*
X186221Y62758D01*
X186516Y62859D01*
X186813Y62953D01*
X187113Y63040D01*
X187414Y63119D01*
X187717Y63191D01*
X188022Y63256D01*
X188329Y63313D01*
X188637Y63363D01*
X188945Y63404D01*
X189255Y63439D01*
X189566Y63466D01*
X189877Y63485D01*
X190188Y63496D01*
X190500Y63500D01*
X190812Y63496D01*
X191123Y63485D01*
X191434Y63466D01*
X191745Y63439D01*
X192055Y63404D01*
X192363Y63363D01*
X192671Y63313D01*
X192978Y63256D01*
X193283Y63191D01*
X193586Y63119D01*
X193887Y63040D01*
X194187Y62953D01*
X194484Y62859D01*
X194779Y62758D01*
X195071Y62649D01*
X195360Y62533D01*
X195647Y62410D01*
X195930Y62281D01*
X196210Y62144D01*
X196487Y62000D01*
X196760Y61850D01*
X197029Y61693D01*
X197294Y61530D01*
X197556Y61360D01*
X197813Y61183D01*
X198065Y61001D01*
X198313Y60812D01*
X198557Y60617D01*
X198795Y60417D01*
X199029Y60210D01*
X199257Y59998D01*
X199480Y59780D01*
X199698Y59557D01*
X199910Y59329D01*
X200117Y59095D01*
X200317Y58857D01*
X200512Y58613D01*
X200701Y58365D01*
X200883Y58113D01*
X201060Y57856D01*
X201230Y57594D01*
X201393Y57329D01*
X201550Y57060D01*
X201700Y56787D01*
X201844Y56510D01*
X201981Y56230D01*
X202110Y55947D01*
X202233Y55660D01*
X202349Y55371D01*
X202458Y55079D01*
X202559Y54784D01*
X202653Y54487D01*
X202740Y54187D01*
X202819Y53886D01*
X202891Y53583D01*
X202956Y53278D01*
X203013Y52971D01*
X203063Y52663D01*
X203104Y52355D01*
X203139Y52045D01*
X203166Y51734D01*
X203185Y51423D01*
X203196Y51112D01*
X203200Y50800D01*
X203196Y50488D01*
X203185Y50177D01*
X203166Y49866D01*
X203139Y49555D01*
X203104Y49245D01*
X203063Y48937D01*
X203013Y48629D01*
X202956Y48322D01*
X202891Y48017D01*
X202819Y47714D01*
X202740Y47413D01*
X202653Y47113D01*
X202559Y46816D01*
X202458Y46521D01*
X202349Y46229D01*
X202233Y45940D01*
X202110Y45653D01*
X201981Y45370D01*
X201844Y45090D01*
X201700Y44813D01*
X201550Y44540D01*
X201393Y44271D01*
X201230Y44006D01*
X201060Y43744D01*
X200883Y43487D01*
X200701Y43235D01*
X200512Y42987D01*
X200317Y42743D01*
X200117Y42505D01*
X199910Y42271D01*
X199698Y42043D01*
X199480Y41820D01*
X199257Y41602D01*
X199029Y41390D01*
X198795Y41183D01*
X198557Y40983D01*
X198313Y40788D01*
X198065Y40599D01*
X197813Y40417D01*
X197556Y40240D01*
X197294Y40070D01*
X197029Y39907D01*
X196760Y39750D01*
X196487Y39600D01*
X196210Y39456D01*
X195930Y39319D01*
X195647Y39190D01*
X195360Y39067D01*
X195071Y38951D01*
X194779Y38842D01*
X194484Y38741D01*
X194187Y38647D01*
X193887Y38560D01*
X193586Y38481D01*
X193283Y38409D01*
X192978Y38344D01*
X192671Y38287D01*
X192363Y38237D01*
X192055Y38196D01*
X191745Y38161D01*
X191434Y38134D01*
X191123Y38115D01*
X190812Y38104D01*
X190500Y38100D01*
X190188Y38104D01*
X189877Y38115D01*
X189566Y38134D01*
X189255Y38161D01*
X188945Y38196D01*
X188637Y38237D01*
X188329Y38287D01*
X188022Y38344D01*
X187717Y38409D01*
X187414Y38481D01*
X187113Y38560D01*
X186813Y38647D01*
X186516Y38741D01*
X186221Y38842D01*
X185929Y38951D01*
X185640Y39067D01*
X185353Y39190D01*
X185070Y39319D01*
X184790Y39456D01*
X184513Y39600D01*
X184240Y39750D01*
X183971Y39907D01*
X183706Y40070D01*
X183444Y40240D01*
X183187Y40417D01*
X182935Y40599D01*
X182687Y40788D01*
X182443Y40983D01*
X182205Y41183D01*
X181971Y41390D01*
X181743Y41602D01*
X181520Y41820D01*
X181302Y42043D01*
X181090Y42271D01*
X180883Y42505D01*
X180683Y42743D01*
X180488Y42987D01*
X180299Y43235D01*
X180117Y43487D01*
X179940Y43744D01*
X179770Y44006D01*
X179607Y44271D01*
X179450Y44540D01*
X179300Y44813D01*
X179156Y45090D01*
X179019Y45370D01*
X178890Y45653D01*
X178767Y45940D01*
X178651Y46229D01*
X178542Y46521D01*
X178441Y46816D01*
X178347Y47113D01*
X178260Y47413D01*
X178181Y47714D01*
X178109Y48017D01*
X178044Y48322D01*
X177987Y48629D01*
X177937Y48937D01*
X177896Y49245D01*
X177861Y49555D01*
X177834Y49866D01*
X177815Y50177D01*
X177804Y50488D01*
X177800Y50800D01*
X505740Y73900D02*
X505740Y103900D01*
X479740Y58900D02*
X463240Y58900D01*
X463240Y111400D02*
X463240Y118900D01*
X479740Y118900D01*
X463240Y66400D02*
X463240Y58900D01*
X455724Y63900D02*
X455726Y63963D01*
X455732Y64026D01*
X455742Y64089D01*
X455755Y64150D01*
X455773Y64211D01*
X455794Y64270D01*
X455819Y64329D01*
X455847Y64385D01*
X455879Y64440D01*
X455914Y64492D01*
X455953Y64542D01*
X455994Y64590D01*
X456039Y64635D01*
X456086Y64677D01*
X456135Y64716D01*
X456187Y64752D01*
X456241Y64785D01*
X456297Y64814D01*
X456355Y64840D01*
X456414Y64862D01*
X456474Y64881D01*
X456536Y64895D01*
X456598Y64906D01*
X456661Y64913D01*
X456724Y64916D01*
X456787Y64915D01*
X456850Y64910D01*
X456913Y64901D01*
X456975Y64888D01*
X457036Y64872D01*
X457096Y64852D01*
X457154Y64828D01*
X457211Y64800D01*
X457266Y64769D01*
X457319Y64735D01*
X457370Y64697D01*
X457418Y64656D01*
X457464Y64613D01*
X457507Y64566D01*
X457547Y64517D01*
X457584Y64466D01*
X457617Y64413D01*
X457647Y64357D01*
X457674Y64300D01*
X457697Y64241D01*
X457716Y64181D01*
X457732Y64119D01*
X457744Y64057D01*
X457752Y63995D01*
X457756Y63932D01*
X457756Y63868D01*
X457752Y63805D01*
X457744Y63743D01*
X457732Y63681D01*
X457716Y63619D01*
X457697Y63559D01*
X457674Y63500D01*
X457647Y63443D01*
X457617Y63387D01*
X457584Y63334D01*
X457547Y63283D01*
X457507Y63234D01*
X457464Y63187D01*
X457418Y63144D01*
X457370Y63103D01*
X457319Y63065D01*
X457266Y63031D01*
X457211Y63000D01*
X457154Y62972D01*
X457096Y62948D01*
X457036Y62928D01*
X456975Y62912D01*
X456913Y62899D01*
X456850Y62890D01*
X456787Y62885D01*
X456724Y62884D01*
X456661Y62887D01*
X456598Y62894D01*
X456536Y62905D01*
X456474Y62919D01*
X456414Y62938D01*
X456355Y62960D01*
X456297Y62986D01*
X456241Y63015D01*
X456187Y63048D01*
X456135Y63084D01*
X456086Y63123D01*
X456039Y63165D01*
X455994Y63210D01*
X455953Y63258D01*
X455914Y63308D01*
X455879Y63360D01*
X455847Y63415D01*
X455819Y63471D01*
X455794Y63530D01*
X455773Y63589D01*
X455755Y63650D01*
X455742Y63711D01*
X455732Y63774D01*
X455726Y63837D01*
X455724Y63900D01*
X288030Y61010D02*
X288030Y53390D01*
X383540Y76200D02*
X383540Y101600D01*
X403860Y76200D02*
X403858Y76067D01*
X403852Y75934D01*
X403843Y75802D01*
X403829Y75669D01*
X403812Y75537D01*
X403791Y75406D01*
X403766Y75275D01*
X403737Y75146D01*
X403704Y75017D01*
X403668Y74889D01*
X403628Y74762D01*
X403584Y74636D01*
X403537Y74512D01*
X403486Y74389D01*
X403432Y74268D01*
X403374Y74148D01*
X403312Y74030D01*
X403247Y73914D01*
X403179Y73800D01*
X403108Y73688D01*
X403033Y73578D01*
X402955Y73470D01*
X402874Y73364D01*
X402790Y73261D01*
X402703Y73161D01*
X402614Y73063D01*
X402521Y72967D01*
X402425Y72874D01*
X402327Y72785D01*
X402227Y72698D01*
X402124Y72614D01*
X402018Y72533D01*
X401910Y72455D01*
X401800Y72380D01*
X401688Y72309D01*
X401574Y72241D01*
X401458Y72176D01*
X401340Y72114D01*
X401220Y72056D01*
X401099Y72002D01*
X400976Y71951D01*
X400852Y71904D01*
X400726Y71860D01*
X400599Y71820D01*
X400471Y71784D01*
X400342Y71751D01*
X400213Y71722D01*
X400082Y71697D01*
X399951Y71676D01*
X399819Y71659D01*
X399686Y71645D01*
X399554Y71636D01*
X399421Y71630D01*
X399288Y71628D01*
X403860Y101600D02*
X403858Y101733D01*
X403852Y101866D01*
X403843Y101998D01*
X403829Y102131D01*
X403812Y102263D01*
X403791Y102394D01*
X403766Y102525D01*
X403737Y102654D01*
X403704Y102783D01*
X403668Y102911D01*
X403628Y103038D01*
X403584Y103164D01*
X403537Y103288D01*
X403486Y103411D01*
X403432Y103532D01*
X403374Y103652D01*
X403312Y103770D01*
X403247Y103886D01*
X403179Y104000D01*
X403108Y104112D01*
X403033Y104222D01*
X402955Y104330D01*
X402874Y104436D01*
X402790Y104539D01*
X402703Y104639D01*
X402614Y104737D01*
X402521Y104833D01*
X402425Y104926D01*
X402327Y105015D01*
X402227Y105102D01*
X402124Y105186D01*
X402018Y105267D01*
X401910Y105345D01*
X401800Y105420D01*
X401688Y105491D01*
X401574Y105559D01*
X401458Y105624D01*
X401340Y105686D01*
X401220Y105744D01*
X401099Y105798D01*
X400976Y105849D01*
X400852Y105896D01*
X400726Y105940D01*
X400599Y105980D01*
X400471Y106016D01*
X400342Y106049D01*
X400213Y106078D01*
X400082Y106103D01*
X399951Y106124D01*
X399819Y106141D01*
X399686Y106155D01*
X399554Y106164D01*
X399421Y106170D01*
X399288Y106172D01*
X388112Y106172D02*
X387979Y106170D01*
X387846Y106164D01*
X387714Y106155D01*
X387581Y106141D01*
X387449Y106124D01*
X387318Y106103D01*
X387187Y106078D01*
X387058Y106049D01*
X386929Y106016D01*
X386801Y105980D01*
X386674Y105940D01*
X386548Y105896D01*
X386424Y105849D01*
X386301Y105798D01*
X386180Y105744D01*
X386060Y105686D01*
X385942Y105624D01*
X385826Y105559D01*
X385712Y105491D01*
X385600Y105420D01*
X385490Y105345D01*
X385382Y105267D01*
X385276Y105186D01*
X385173Y105102D01*
X385073Y105015D01*
X384975Y104926D01*
X384879Y104833D01*
X384786Y104737D01*
X384697Y104639D01*
X384610Y104539D01*
X384526Y104436D01*
X384445Y104330D01*
X384367Y104222D01*
X384292Y104112D01*
X384221Y104000D01*
X384153Y103886D01*
X384088Y103770D01*
X384026Y103652D01*
X383968Y103532D01*
X383914Y103411D01*
X383863Y103288D01*
X383816Y103164D01*
X383772Y103038D01*
X383732Y102911D01*
X383696Y102783D01*
X383663Y102654D01*
X383634Y102525D01*
X383609Y102394D01*
X383588Y102263D01*
X383571Y102131D01*
X383557Y101998D01*
X383548Y101866D01*
X383542Y101733D01*
X383540Y101600D01*
X383540Y76200D02*
X383542Y76067D01*
X383548Y75934D01*
X383557Y75802D01*
X383571Y75669D01*
X383588Y75537D01*
X383609Y75406D01*
X383634Y75275D01*
X383663Y75146D01*
X383696Y75017D01*
X383732Y74889D01*
X383772Y74762D01*
X383816Y74636D01*
X383863Y74512D01*
X383914Y74389D01*
X383968Y74268D01*
X384026Y74148D01*
X384088Y74030D01*
X384153Y73914D01*
X384221Y73800D01*
X384292Y73688D01*
X384367Y73578D01*
X384445Y73470D01*
X384526Y73364D01*
X384610Y73261D01*
X384697Y73161D01*
X384786Y73063D01*
X384879Y72967D01*
X384975Y72874D01*
X385073Y72785D01*
X385173Y72698D01*
X385276Y72614D01*
X385382Y72533D01*
X385490Y72455D01*
X385600Y72380D01*
X385712Y72309D01*
X385826Y72241D01*
X385942Y72176D01*
X386060Y72114D01*
X386180Y72056D01*
X386301Y72002D01*
X386424Y71951D01*
X386548Y71904D01*
X386674Y71860D01*
X386801Y71820D01*
X386929Y71784D01*
X387058Y71751D01*
X387187Y71722D01*
X387318Y71697D01*
X387449Y71676D01*
X387581Y71659D01*
X387714Y71645D01*
X387846Y71636D01*
X387979Y71630D01*
X388112Y71628D01*
X399288Y71628D01*
X399288Y106172D02*
X388112Y106172D01*
X403860Y101600D02*
X403860Y76200D01*
M02*
