G04 EAGLE Gerber RS-274X export*
G75*
%MOMM*%
%FSLAX34Y34*%
%LPD*%
%INSoldermask Bottom*%
%IPPOS*%
%AMOC8*
5,1,8,0,0,1.08239X$1,22.5*%
G01*
%ADD10C,1.152400*%
%ADD11C,0.264381*%
%ADD12C,2.032000*%
%ADD13C,0.802400*%
%ADD14C,0.255816*%


D10*
X25400Y12700D03*
X482600Y266700D03*
D11*
X70540Y30640D02*
X70540Y6760D01*
X56660Y6760D01*
X56660Y30640D01*
X70540Y30640D01*
X70540Y9272D02*
X56660Y9272D01*
X56660Y11784D02*
X70540Y11784D01*
X70540Y14296D02*
X56660Y14296D01*
X56660Y16808D02*
X70540Y16808D01*
X70540Y19320D02*
X56660Y19320D01*
X56660Y21832D02*
X70540Y21832D01*
X70540Y24344D02*
X56660Y24344D01*
X56660Y26856D02*
X70540Y26856D01*
X70540Y29368D02*
X56660Y29368D01*
X95940Y30640D02*
X95940Y6760D01*
X82060Y6760D01*
X82060Y30640D01*
X95940Y30640D01*
X95940Y9272D02*
X82060Y9272D01*
X82060Y11784D02*
X95940Y11784D01*
X95940Y14296D02*
X82060Y14296D01*
X82060Y16808D02*
X95940Y16808D01*
X95940Y19320D02*
X82060Y19320D01*
X82060Y21832D02*
X95940Y21832D01*
X95940Y24344D02*
X82060Y24344D01*
X82060Y26856D02*
X95940Y26856D01*
X95940Y29368D02*
X82060Y29368D01*
X121340Y30640D02*
X121340Y6760D01*
X107460Y6760D01*
X107460Y30640D01*
X121340Y30640D01*
X121340Y9272D02*
X107460Y9272D01*
X107460Y11784D02*
X121340Y11784D01*
X121340Y14296D02*
X107460Y14296D01*
X107460Y16808D02*
X121340Y16808D01*
X121340Y19320D02*
X107460Y19320D01*
X107460Y21832D02*
X121340Y21832D01*
X121340Y24344D02*
X107460Y24344D01*
X107460Y26856D02*
X121340Y26856D01*
X121340Y29368D02*
X107460Y29368D01*
X146740Y30640D02*
X146740Y6760D01*
X132860Y6760D01*
X132860Y30640D01*
X146740Y30640D01*
X146740Y9272D02*
X132860Y9272D01*
X132860Y11784D02*
X146740Y11784D01*
X146740Y14296D02*
X132860Y14296D01*
X132860Y16808D02*
X146740Y16808D01*
X146740Y19320D02*
X132860Y19320D01*
X132860Y21832D02*
X146740Y21832D01*
X146740Y24344D02*
X132860Y24344D01*
X132860Y26856D02*
X146740Y26856D01*
X146740Y29368D02*
X132860Y29368D01*
X172140Y30640D02*
X172140Y6760D01*
X158260Y6760D01*
X158260Y30640D01*
X172140Y30640D01*
X172140Y9272D02*
X158260Y9272D01*
X158260Y11784D02*
X172140Y11784D01*
X172140Y14296D02*
X158260Y14296D01*
X158260Y16808D02*
X172140Y16808D01*
X172140Y19320D02*
X158260Y19320D01*
X158260Y21832D02*
X172140Y21832D01*
X172140Y24344D02*
X158260Y24344D01*
X158260Y26856D02*
X172140Y26856D01*
X172140Y29368D02*
X158260Y29368D01*
X197540Y30640D02*
X197540Y6760D01*
X183660Y6760D01*
X183660Y30640D01*
X197540Y30640D01*
X197540Y9272D02*
X183660Y9272D01*
X183660Y11784D02*
X197540Y11784D01*
X197540Y14296D02*
X183660Y14296D01*
X183660Y16808D02*
X197540Y16808D01*
X197540Y19320D02*
X183660Y19320D01*
X183660Y21832D02*
X197540Y21832D01*
X197540Y24344D02*
X183660Y24344D01*
X183660Y26856D02*
X197540Y26856D01*
X197540Y29368D02*
X183660Y29368D01*
X222940Y30640D02*
X222940Y6760D01*
X209060Y6760D01*
X209060Y30640D01*
X222940Y30640D01*
X222940Y9272D02*
X209060Y9272D01*
X209060Y11784D02*
X222940Y11784D01*
X222940Y14296D02*
X209060Y14296D01*
X209060Y16808D02*
X222940Y16808D01*
X222940Y19320D02*
X209060Y19320D01*
X209060Y21832D02*
X222940Y21832D01*
X222940Y24344D02*
X209060Y24344D01*
X209060Y26856D02*
X222940Y26856D01*
X222940Y29368D02*
X209060Y29368D01*
X248340Y30640D02*
X248340Y6760D01*
X234460Y6760D01*
X234460Y30640D01*
X248340Y30640D01*
X248340Y9272D02*
X234460Y9272D01*
X234460Y11784D02*
X248340Y11784D01*
X248340Y14296D02*
X234460Y14296D01*
X234460Y16808D02*
X248340Y16808D01*
X248340Y19320D02*
X234460Y19320D01*
X234460Y21832D02*
X248340Y21832D01*
X248340Y24344D02*
X234460Y24344D01*
X234460Y26856D02*
X248340Y26856D01*
X248340Y29368D02*
X234460Y29368D01*
X273740Y30640D02*
X273740Y6760D01*
X259860Y6760D01*
X259860Y30640D01*
X273740Y30640D01*
X273740Y9272D02*
X259860Y9272D01*
X259860Y11784D02*
X273740Y11784D01*
X273740Y14296D02*
X259860Y14296D01*
X259860Y16808D02*
X273740Y16808D01*
X273740Y19320D02*
X259860Y19320D01*
X259860Y21832D02*
X273740Y21832D01*
X273740Y24344D02*
X259860Y24344D01*
X259860Y26856D02*
X273740Y26856D01*
X273740Y29368D02*
X259860Y29368D01*
X56660Y248760D02*
X56660Y272640D01*
X70540Y272640D01*
X70540Y248760D01*
X56660Y248760D01*
X56660Y251272D02*
X70540Y251272D01*
X70540Y253784D02*
X56660Y253784D01*
X56660Y256296D02*
X70540Y256296D01*
X70540Y258808D02*
X56660Y258808D01*
X56660Y261320D02*
X70540Y261320D01*
X70540Y263832D02*
X56660Y263832D01*
X56660Y266344D02*
X70540Y266344D01*
X70540Y268856D02*
X56660Y268856D01*
X56660Y271368D02*
X70540Y271368D01*
X82060Y272640D02*
X82060Y248760D01*
X82060Y272640D02*
X95940Y272640D01*
X95940Y248760D01*
X82060Y248760D01*
X82060Y251272D02*
X95940Y251272D01*
X95940Y253784D02*
X82060Y253784D01*
X82060Y256296D02*
X95940Y256296D01*
X95940Y258808D02*
X82060Y258808D01*
X82060Y261320D02*
X95940Y261320D01*
X95940Y263832D02*
X82060Y263832D01*
X82060Y266344D02*
X95940Y266344D01*
X95940Y268856D02*
X82060Y268856D01*
X82060Y271368D02*
X95940Y271368D01*
X107460Y272640D02*
X107460Y248760D01*
X107460Y272640D02*
X121340Y272640D01*
X121340Y248760D01*
X107460Y248760D01*
X107460Y251272D02*
X121340Y251272D01*
X121340Y253784D02*
X107460Y253784D01*
X107460Y256296D02*
X121340Y256296D01*
X121340Y258808D02*
X107460Y258808D01*
X107460Y261320D02*
X121340Y261320D01*
X121340Y263832D02*
X107460Y263832D01*
X107460Y266344D02*
X121340Y266344D01*
X121340Y268856D02*
X107460Y268856D01*
X107460Y271368D02*
X121340Y271368D01*
X132860Y272640D02*
X132860Y248760D01*
X132860Y272640D02*
X146740Y272640D01*
X146740Y248760D01*
X132860Y248760D01*
X132860Y251272D02*
X146740Y251272D01*
X146740Y253784D02*
X132860Y253784D01*
X132860Y256296D02*
X146740Y256296D01*
X146740Y258808D02*
X132860Y258808D01*
X132860Y261320D02*
X146740Y261320D01*
X146740Y263832D02*
X132860Y263832D01*
X132860Y266344D02*
X146740Y266344D01*
X146740Y268856D02*
X132860Y268856D01*
X132860Y271368D02*
X146740Y271368D01*
X158260Y272640D02*
X158260Y248760D01*
X158260Y272640D02*
X172140Y272640D01*
X172140Y248760D01*
X158260Y248760D01*
X158260Y251272D02*
X172140Y251272D01*
X172140Y253784D02*
X158260Y253784D01*
X158260Y256296D02*
X172140Y256296D01*
X172140Y258808D02*
X158260Y258808D01*
X158260Y261320D02*
X172140Y261320D01*
X172140Y263832D02*
X158260Y263832D01*
X158260Y266344D02*
X172140Y266344D01*
X172140Y268856D02*
X158260Y268856D01*
X158260Y271368D02*
X172140Y271368D01*
X183660Y272640D02*
X183660Y248760D01*
X183660Y272640D02*
X197540Y272640D01*
X197540Y248760D01*
X183660Y248760D01*
X183660Y251272D02*
X197540Y251272D01*
X197540Y253784D02*
X183660Y253784D01*
X183660Y256296D02*
X197540Y256296D01*
X197540Y258808D02*
X183660Y258808D01*
X183660Y261320D02*
X197540Y261320D01*
X197540Y263832D02*
X183660Y263832D01*
X183660Y266344D02*
X197540Y266344D01*
X197540Y268856D02*
X183660Y268856D01*
X183660Y271368D02*
X197540Y271368D01*
X209060Y272640D02*
X209060Y248760D01*
X209060Y272640D02*
X222940Y272640D01*
X222940Y248760D01*
X209060Y248760D01*
X209060Y251272D02*
X222940Y251272D01*
X222940Y253784D02*
X209060Y253784D01*
X209060Y256296D02*
X222940Y256296D01*
X222940Y258808D02*
X209060Y258808D01*
X209060Y261320D02*
X222940Y261320D01*
X222940Y263832D02*
X209060Y263832D01*
X209060Y266344D02*
X222940Y266344D01*
X222940Y268856D02*
X209060Y268856D01*
X209060Y271368D02*
X222940Y271368D01*
X234460Y272640D02*
X234460Y248760D01*
X234460Y272640D02*
X248340Y272640D01*
X248340Y248760D01*
X234460Y248760D01*
X234460Y251272D02*
X248340Y251272D01*
X248340Y253784D02*
X234460Y253784D01*
X234460Y256296D02*
X248340Y256296D01*
X248340Y258808D02*
X234460Y258808D01*
X234460Y261320D02*
X248340Y261320D01*
X248340Y263832D02*
X234460Y263832D01*
X234460Y266344D02*
X248340Y266344D01*
X248340Y268856D02*
X234460Y268856D01*
X234460Y271368D02*
X248340Y271368D01*
X259860Y272640D02*
X259860Y248760D01*
X259860Y272640D02*
X273740Y272640D01*
X273740Y248760D01*
X259860Y248760D01*
X259860Y251272D02*
X273740Y251272D01*
X273740Y253784D02*
X259860Y253784D01*
X259860Y256296D02*
X273740Y256296D01*
X273740Y258808D02*
X259860Y258808D01*
X259860Y261320D02*
X273740Y261320D01*
X273740Y263832D02*
X259860Y263832D01*
X259860Y266344D02*
X273740Y266344D01*
X273740Y268856D02*
X259860Y268856D01*
X259860Y271368D02*
X273740Y271368D01*
X412660Y216640D02*
X436540Y216640D01*
X436540Y202760D01*
X412660Y202760D01*
X412660Y216640D01*
X412660Y205272D02*
X436540Y205272D01*
X436540Y207784D02*
X412660Y207784D01*
X412660Y210296D02*
X436540Y210296D01*
X436540Y212808D02*
X412660Y212808D01*
X412660Y215320D02*
X436540Y215320D01*
X436540Y191240D02*
X412660Y191240D01*
X436540Y191240D02*
X436540Y177360D01*
X412660Y177360D01*
X412660Y191240D01*
X412660Y179872D02*
X436540Y179872D01*
X436540Y182384D02*
X412660Y182384D01*
X412660Y184896D02*
X436540Y184896D01*
X436540Y187408D02*
X412660Y187408D01*
X412660Y189920D02*
X436540Y189920D01*
X436540Y102040D02*
X412660Y102040D01*
X436540Y102040D02*
X436540Y88160D01*
X412660Y88160D01*
X412660Y102040D01*
X412660Y90672D02*
X436540Y90672D01*
X436540Y93184D02*
X412660Y93184D01*
X412660Y95696D02*
X436540Y95696D01*
X436540Y98208D02*
X412660Y98208D01*
X412660Y100720D02*
X436540Y100720D01*
X436540Y76640D02*
X412660Y76640D01*
X436540Y76640D02*
X436540Y62760D01*
X412660Y62760D01*
X412660Y76640D01*
X412660Y65272D02*
X436540Y65272D01*
X436540Y67784D02*
X412660Y67784D01*
X412660Y70296D02*
X436540Y70296D01*
X436540Y72808D02*
X412660Y72808D01*
X412660Y75320D02*
X436540Y75320D01*
D12*
X127000Y228600D03*
X152400Y228600D03*
D13*
X61750Y219400D03*
X61750Y161600D03*
D11*
X490610Y177210D02*
X490610Y191090D01*
X490610Y177210D02*
X451730Y177210D01*
X451730Y191090D01*
X490610Y191090D01*
X490610Y179722D02*
X451730Y179722D01*
X451730Y182234D02*
X490610Y182234D01*
X490610Y184746D02*
X451730Y184746D01*
X451730Y187258D02*
X490610Y187258D01*
X490610Y189770D02*
X451730Y189770D01*
X490610Y202610D02*
X490610Y216490D01*
X490610Y202610D02*
X451730Y202610D01*
X451730Y216490D01*
X490610Y216490D01*
X490610Y205122D02*
X451730Y205122D01*
X451730Y207634D02*
X490610Y207634D01*
X490610Y210146D02*
X451730Y210146D01*
X451730Y212658D02*
X490610Y212658D01*
X490610Y215170D02*
X451730Y215170D01*
X490610Y228010D02*
X490610Y241890D01*
X490610Y228010D02*
X451730Y228010D01*
X451730Y241890D01*
X490610Y241890D01*
X490610Y230522D02*
X451730Y230522D01*
X451730Y233034D02*
X490610Y233034D01*
X490610Y235546D02*
X451730Y235546D01*
X451730Y238058D02*
X490610Y238058D01*
X490610Y240570D02*
X451730Y240570D01*
D14*
X442017Y222113D02*
X442017Y217147D01*
X442017Y222113D02*
X446983Y222113D01*
X446983Y217147D01*
X442017Y217147D01*
X442017Y219577D02*
X446983Y219577D01*
X446983Y222007D02*
X442017Y222007D01*
X442017Y212113D02*
X442017Y207147D01*
X442017Y212113D02*
X446983Y212113D01*
X446983Y207147D01*
X442017Y207147D01*
X442017Y209577D02*
X446983Y209577D01*
X446983Y212007D02*
X442017Y212007D01*
D10*
X241300Y44450D03*
X254000Y44450D03*
X266700Y44450D03*
X279400Y44450D03*
X228600Y44450D03*
X241300Y57150D03*
X254000Y57150D03*
X266700Y57150D03*
X279400Y57150D03*
X228600Y57150D03*
M02*
