G04 EAGLE Gerber RS-274X export*
G75*
%MOMM*%
%FSLAX34Y34*%
%LPD*%
%INSolderpaste Bottom*%
%IPPOS*%
%AMOC8*
5,1,8,0,0,1.08239X$1,22.5*%
G01*
%ADD10R,2.200000X3.400000*%
%ADD11R,3.254000X2.254000*%
%ADD12C,0.102000*%


D10*
X63600Y260700D03*
D11*
X424600Y209700D03*
X424600Y184300D03*
X424600Y95100D03*
X424600Y69700D03*
D10*
X89000Y260700D03*
X114400Y260700D03*
X139800Y260700D03*
X165200Y260700D03*
X190600Y260700D03*
X216000Y260700D03*
X241400Y260700D03*
X266800Y260700D03*
X63600Y19400D03*
X89000Y19400D03*
X114400Y19400D03*
X139800Y19400D03*
X165200Y19400D03*
X190600Y19400D03*
X216000Y19400D03*
X241400Y19400D03*
X266800Y19400D03*
D12*
X442010Y217140D02*
X442010Y222120D01*
X446990Y222120D01*
X446990Y217140D01*
X442010Y217140D01*
X442010Y218109D02*
X446990Y218109D01*
X446990Y219078D02*
X442010Y219078D01*
X442010Y220047D02*
X446990Y220047D01*
X446990Y221016D02*
X442010Y221016D01*
X442010Y221985D02*
X446990Y221985D01*
X442010Y212120D02*
X442010Y207140D01*
X442010Y212120D02*
X446990Y212120D01*
X446990Y207140D01*
X442010Y207140D01*
X442010Y208109D02*
X446990Y208109D01*
X446990Y209078D02*
X442010Y209078D01*
X442010Y210047D02*
X446990Y210047D01*
X446990Y211016D02*
X442010Y211016D01*
X442010Y211985D02*
X446990Y211985D01*
M02*
