G04 EAGLE Gerber RS-274X export*
G75*
%MOMM*%
%FSLAX34Y34*%
%LPD*%
%INSolderpaste Top*%
%IPPOS*%
%AMOC8*
5,1,8,0,0,1.08239X$1,22.5*%
G01*
%ADD10C,0.100000*%
%ADD11C,0.099000*%
%ADD12C,0.098000*%
%ADD13C,0.096000*%
%ADD14C,0.300000*%
%ADD15C,0.102000*%
%ADD16C,0.104000*%
%ADD17C,0.100800*%
%ADD18C,0.099059*%

G36*
X73004Y227654D02*
X73004Y227654D01*
X73007Y227651D01*
X74129Y227806D01*
X74134Y227811D01*
X74138Y227808D01*
X75209Y228179D01*
X75213Y228185D01*
X75218Y228183D01*
X76195Y228756D01*
X76198Y228762D01*
X76203Y228761D01*
X77050Y229514D01*
X77052Y229521D01*
X77057Y229521D01*
X77741Y230424D01*
X77741Y230431D01*
X77746Y230432D01*
X78241Y231451D01*
X78239Y231458D01*
X78244Y231460D01*
X78531Y232557D01*
X78529Y232561D01*
X78531Y232562D01*
X78529Y232564D01*
X78532Y232566D01*
X78599Y233697D01*
X78597Y233701D01*
X78599Y233703D01*
X78532Y234834D01*
X78527Y234839D01*
X78531Y234843D01*
X78244Y235940D01*
X78238Y235944D01*
X78241Y235949D01*
X77746Y236968D01*
X77740Y236971D01*
X77741Y236976D01*
X77057Y237879D01*
X77050Y237881D01*
X77050Y237886D01*
X76203Y238639D01*
X76196Y238639D01*
X76195Y238644D01*
X75218Y239217D01*
X75211Y239216D01*
X75209Y239221D01*
X74138Y239592D01*
X74132Y239589D01*
X74129Y239594D01*
X73007Y239749D01*
X73002Y239746D01*
X73000Y239749D01*
X61000Y239749D01*
X60995Y239746D01*
X60992Y239749D01*
X59725Y239544D01*
X59719Y239538D01*
X59715Y239541D01*
X58525Y239059D01*
X58521Y239052D01*
X58515Y239054D01*
X57462Y238320D01*
X57460Y238312D01*
X57454Y238313D01*
X56591Y237363D01*
X56590Y237354D01*
X56585Y237354D01*
X55955Y236235D01*
X55956Y236227D01*
X55950Y236225D01*
X55585Y234995D01*
X55588Y234987D01*
X55583Y234984D01*
X55501Y233703D01*
X55504Y233699D01*
X55501Y233697D01*
X55583Y232416D01*
X55589Y232410D01*
X55585Y232405D01*
X55950Y231175D01*
X55957Y231170D01*
X55955Y231165D01*
X56585Y230046D01*
X56592Y230043D01*
X56591Y230037D01*
X57454Y229087D01*
X57462Y229086D01*
X57462Y229080D01*
X58515Y228346D01*
X58523Y228346D01*
X58525Y228341D01*
X59715Y227859D01*
X59722Y227861D01*
X59725Y227856D01*
X60992Y227651D01*
X60997Y227654D01*
X61000Y227651D01*
X73000Y227651D01*
X73004Y227654D01*
G37*
G36*
X73004Y141254D02*
X73004Y141254D01*
X73007Y141251D01*
X74129Y141406D01*
X74134Y141411D01*
X74138Y141408D01*
X75209Y141779D01*
X75213Y141785D01*
X75218Y141783D01*
X76195Y142356D01*
X76198Y142362D01*
X76203Y142361D01*
X77050Y143114D01*
X77052Y143121D01*
X77057Y143121D01*
X77741Y144024D01*
X77741Y144031D01*
X77746Y144032D01*
X78241Y145051D01*
X78239Y145058D01*
X78244Y145060D01*
X78531Y146157D01*
X78529Y146161D01*
X78531Y146162D01*
X78529Y146164D01*
X78532Y146166D01*
X78599Y147297D01*
X78597Y147301D01*
X78599Y147303D01*
X78532Y148434D01*
X78527Y148439D01*
X78531Y148443D01*
X78244Y149540D01*
X78238Y149544D01*
X78241Y149549D01*
X77746Y150568D01*
X77740Y150571D01*
X77741Y150576D01*
X77057Y151479D01*
X77050Y151481D01*
X77050Y151486D01*
X76203Y152239D01*
X76196Y152239D01*
X76195Y152244D01*
X75218Y152817D01*
X75211Y152816D01*
X75209Y152821D01*
X74138Y153192D01*
X74132Y153189D01*
X74129Y153194D01*
X73007Y153349D01*
X73002Y153346D01*
X73000Y153349D01*
X61000Y153349D01*
X60995Y153346D01*
X60992Y153349D01*
X59725Y153144D01*
X59719Y153138D01*
X59715Y153141D01*
X58525Y152659D01*
X58521Y152652D01*
X58515Y152654D01*
X57462Y151920D01*
X57460Y151912D01*
X57454Y151913D01*
X56591Y150963D01*
X56590Y150954D01*
X56585Y150954D01*
X55955Y149835D01*
X55956Y149827D01*
X55950Y149825D01*
X55585Y148595D01*
X55588Y148587D01*
X55583Y148584D01*
X55501Y147303D01*
X55504Y147299D01*
X55501Y147297D01*
X55583Y146016D01*
X55589Y146010D01*
X55585Y146005D01*
X55950Y144775D01*
X55957Y144770D01*
X55955Y144765D01*
X56585Y143646D01*
X56592Y143643D01*
X56591Y143637D01*
X57454Y142687D01*
X57462Y142686D01*
X57462Y142680D01*
X58515Y141946D01*
X58523Y141946D01*
X58525Y141941D01*
X59715Y141459D01*
X59722Y141461D01*
X59725Y141456D01*
X60992Y141251D01*
X60997Y141254D01*
X61000Y141251D01*
X73000Y141251D01*
X73004Y141254D01*
G37*
G36*
X28203Y227653D02*
X28203Y227653D01*
X28205Y227651D01*
X29381Y227762D01*
X29386Y227767D01*
X29390Y227764D01*
X30522Y228102D01*
X30526Y228108D01*
X30531Y228106D01*
X31575Y228658D01*
X31578Y228665D01*
X31583Y228663D01*
X32499Y229409D01*
X32500Y229416D01*
X32506Y229416D01*
X33259Y230326D01*
X33259Y230333D01*
X33264Y230334D01*
X33825Y231373D01*
X33824Y231378D01*
X33828Y231380D01*
X33827Y231381D01*
X33829Y231382D01*
X34176Y232511D01*
X34176Y232512D01*
X34177Y232513D01*
X34174Y232517D01*
X34178Y232520D01*
X34299Y233695D01*
X34295Y233702D01*
X34299Y233706D01*
X34142Y235046D01*
X34137Y235052D01*
X34140Y235057D01*
X33689Y236328D01*
X33682Y236333D01*
X33684Y236338D01*
X32962Y237477D01*
X32954Y237480D01*
X32955Y237486D01*
X31997Y238436D01*
X31989Y238437D01*
X31988Y238443D01*
X30843Y239156D01*
X30835Y239155D01*
X30833Y239161D01*
X29557Y239601D01*
X29550Y239599D01*
X29547Y239603D01*
X28205Y239749D01*
X28202Y239747D01*
X28200Y239749D01*
X22200Y239749D01*
X22197Y239747D01*
X22194Y239749D01*
X20865Y239594D01*
X20859Y239588D01*
X20855Y239591D01*
X19594Y239144D01*
X19589Y239137D01*
X19584Y239139D01*
X18454Y238422D01*
X18451Y238415D01*
X18445Y238416D01*
X17503Y237466D01*
X17502Y237457D01*
X17496Y237457D01*
X16789Y236321D01*
X16790Y236313D01*
X16784Y236311D01*
X16348Y235046D01*
X16350Y235038D01*
X16345Y235036D01*
X16201Y233705D01*
X16205Y233699D01*
X16201Y233695D01*
X16311Y232529D01*
X16316Y232524D01*
X16313Y232520D01*
X16648Y231397D01*
X16654Y231393D01*
X16652Y231389D01*
X17200Y230353D01*
X17206Y230350D01*
X17205Y230345D01*
X17944Y229437D01*
X17951Y229435D01*
X17951Y229430D01*
X18853Y228683D01*
X18861Y228683D01*
X18861Y228678D01*
X19892Y228121D01*
X19899Y228122D01*
X19901Y228117D01*
X21020Y227773D01*
X21027Y227775D01*
X21030Y227771D01*
X22195Y227651D01*
X22198Y227653D01*
X22200Y227651D01*
X28200Y227651D01*
X28203Y227653D01*
G37*
G36*
X28203Y141253D02*
X28203Y141253D01*
X28205Y141251D01*
X29381Y141362D01*
X29386Y141367D01*
X29390Y141364D01*
X30522Y141702D01*
X30526Y141708D01*
X30531Y141706D01*
X31575Y142258D01*
X31578Y142265D01*
X31583Y142263D01*
X32499Y143009D01*
X32500Y143016D01*
X32506Y143016D01*
X33259Y143926D01*
X33259Y143933D01*
X33264Y143934D01*
X33825Y144973D01*
X33824Y144978D01*
X33828Y144980D01*
X33827Y144981D01*
X33829Y144982D01*
X34176Y146111D01*
X34176Y146112D01*
X34177Y146113D01*
X34174Y146117D01*
X34178Y146120D01*
X34299Y147295D01*
X34295Y147302D01*
X34299Y147306D01*
X34142Y148646D01*
X34137Y148652D01*
X34140Y148657D01*
X33689Y149928D01*
X33682Y149933D01*
X33684Y149938D01*
X32962Y151077D01*
X32954Y151080D01*
X32955Y151086D01*
X31997Y152036D01*
X31989Y152037D01*
X31988Y152043D01*
X30843Y152756D01*
X30835Y152755D01*
X30833Y152761D01*
X29557Y153201D01*
X29550Y153199D01*
X29547Y153203D01*
X28205Y153349D01*
X28202Y153347D01*
X28200Y153349D01*
X22200Y153349D01*
X22197Y153347D01*
X22194Y153349D01*
X20865Y153194D01*
X20859Y153188D01*
X20855Y153191D01*
X19594Y152744D01*
X19589Y152737D01*
X19584Y152739D01*
X18454Y152022D01*
X18451Y152015D01*
X18445Y152016D01*
X17503Y151066D01*
X17502Y151057D01*
X17496Y151057D01*
X16789Y149921D01*
X16790Y149913D01*
X16784Y149911D01*
X16348Y148646D01*
X16350Y148638D01*
X16345Y148636D01*
X16201Y147305D01*
X16205Y147299D01*
X16201Y147295D01*
X16311Y146129D01*
X16316Y146124D01*
X16313Y146120D01*
X16648Y144997D01*
X16654Y144993D01*
X16652Y144989D01*
X17200Y143953D01*
X17206Y143950D01*
X17205Y143945D01*
X17944Y143037D01*
X17951Y143035D01*
X17951Y143030D01*
X18853Y142283D01*
X18861Y142283D01*
X18861Y142278D01*
X19892Y141721D01*
X19899Y141722D01*
X19901Y141717D01*
X21020Y141373D01*
X21027Y141375D01*
X21030Y141371D01*
X22195Y141251D01*
X22198Y141253D01*
X22200Y141251D01*
X28200Y141251D01*
X28203Y141253D01*
G37*
D10*
X181300Y182300D02*
X191300Y182300D01*
X191300Y173300D01*
X181300Y173300D01*
X181300Y182300D01*
X181300Y174250D02*
X191300Y174250D01*
X191300Y175200D02*
X181300Y175200D01*
X181300Y176150D02*
X191300Y176150D01*
X191300Y177100D02*
X181300Y177100D01*
X181300Y178050D02*
X191300Y178050D01*
X191300Y179000D02*
X181300Y179000D01*
X181300Y179950D02*
X191300Y179950D01*
X191300Y180900D02*
X181300Y180900D01*
X181300Y181850D02*
X191300Y181850D01*
X174300Y182300D02*
X164300Y182300D01*
X174300Y182300D02*
X174300Y173300D01*
X164300Y173300D01*
X164300Y182300D01*
X164300Y174250D02*
X174300Y174250D01*
X174300Y175200D02*
X164300Y175200D01*
X164300Y176150D02*
X174300Y176150D01*
X174300Y177100D02*
X164300Y177100D01*
X164300Y178050D02*
X174300Y178050D01*
X174300Y179000D02*
X164300Y179000D01*
X164300Y179950D02*
X174300Y179950D01*
X174300Y180900D02*
X164300Y180900D01*
X164300Y181850D02*
X174300Y181850D01*
X174300Y147900D02*
X164300Y147900D01*
X164300Y156900D01*
X174300Y156900D01*
X174300Y147900D01*
X174300Y148850D02*
X164300Y148850D01*
X164300Y149800D02*
X174300Y149800D01*
X174300Y150750D02*
X164300Y150750D01*
X164300Y151700D02*
X174300Y151700D01*
X174300Y152650D02*
X164300Y152650D01*
X164300Y153600D02*
X174300Y153600D01*
X174300Y154550D02*
X164300Y154550D01*
X164300Y155500D02*
X174300Y155500D01*
X174300Y156450D02*
X164300Y156450D01*
X181300Y147900D02*
X191300Y147900D01*
X181300Y147900D02*
X181300Y156900D01*
X191300Y156900D01*
X191300Y147900D01*
X191300Y148850D02*
X181300Y148850D01*
X181300Y149800D02*
X191300Y149800D01*
X191300Y150750D02*
X181300Y150750D01*
X181300Y151700D02*
X191300Y151700D01*
X191300Y152650D02*
X181300Y152650D01*
X181300Y153600D02*
X191300Y153600D01*
X191300Y154550D02*
X181300Y154550D01*
X181300Y155500D02*
X191300Y155500D01*
X191300Y156450D02*
X181300Y156450D01*
D11*
X185045Y234406D02*
X189555Y234406D01*
X189555Y223396D01*
X185045Y223396D01*
X185045Y234406D01*
X185045Y224336D02*
X189555Y224336D01*
X189555Y225276D02*
X185045Y225276D01*
X185045Y226216D02*
X189555Y226216D01*
X189555Y227156D02*
X185045Y227156D01*
X185045Y228096D02*
X189555Y228096D01*
X189555Y229036D02*
X185045Y229036D01*
X185045Y229976D02*
X189555Y229976D01*
X189555Y230916D02*
X185045Y230916D01*
X185045Y231856D02*
X189555Y231856D01*
X189555Y232796D02*
X185045Y232796D01*
X185045Y233736D02*
X189555Y233736D01*
X180055Y234406D02*
X175545Y234406D01*
X180055Y234406D02*
X180055Y223396D01*
X175545Y223396D01*
X175545Y234406D01*
X175545Y224336D02*
X180055Y224336D01*
X180055Y225276D02*
X175545Y225276D01*
X175545Y226216D02*
X180055Y226216D01*
X180055Y227156D02*
X175545Y227156D01*
X175545Y228096D02*
X180055Y228096D01*
X180055Y229036D02*
X175545Y229036D01*
X175545Y229976D02*
X180055Y229976D01*
X180055Y230916D02*
X175545Y230916D01*
X175545Y231856D02*
X180055Y231856D01*
X180055Y232796D02*
X175545Y232796D01*
X175545Y233736D02*
X180055Y233736D01*
X170555Y234406D02*
X166045Y234406D01*
X170555Y234406D02*
X170555Y223396D01*
X166045Y223396D01*
X166045Y234406D01*
X166045Y224336D02*
X170555Y224336D01*
X170555Y225276D02*
X166045Y225276D01*
X166045Y226216D02*
X170555Y226216D01*
X170555Y227156D02*
X166045Y227156D01*
X166045Y228096D02*
X170555Y228096D01*
X170555Y229036D02*
X166045Y229036D01*
X166045Y229976D02*
X170555Y229976D01*
X170555Y230916D02*
X166045Y230916D01*
X166045Y231856D02*
X170555Y231856D01*
X170555Y232796D02*
X166045Y232796D01*
X166045Y233736D02*
X170555Y233736D01*
X170555Y208404D02*
X166045Y208404D01*
X170555Y208404D02*
X170555Y197394D01*
X166045Y197394D01*
X166045Y208404D01*
X166045Y198334D02*
X170555Y198334D01*
X170555Y199274D02*
X166045Y199274D01*
X166045Y200214D02*
X170555Y200214D01*
X170555Y201154D02*
X166045Y201154D01*
X166045Y202094D02*
X170555Y202094D01*
X170555Y203034D02*
X166045Y203034D01*
X166045Y203974D02*
X170555Y203974D01*
X170555Y204914D02*
X166045Y204914D01*
X166045Y205854D02*
X170555Y205854D01*
X170555Y206794D02*
X166045Y206794D01*
X166045Y207734D02*
X170555Y207734D01*
X185045Y208404D02*
X189555Y208404D01*
X189555Y197394D01*
X185045Y197394D01*
X185045Y208404D01*
X185045Y198334D02*
X189555Y198334D01*
X189555Y199274D02*
X185045Y199274D01*
X185045Y200214D02*
X189555Y200214D01*
X189555Y201154D02*
X185045Y201154D01*
X185045Y202094D02*
X189555Y202094D01*
X189555Y203034D02*
X185045Y203034D01*
X185045Y203974D02*
X189555Y203974D01*
X189555Y204914D02*
X185045Y204914D01*
X185045Y205854D02*
X189555Y205854D01*
X189555Y206794D02*
X185045Y206794D01*
X185045Y207734D02*
X189555Y207734D01*
D10*
X131500Y47300D02*
X131500Y37300D01*
X122500Y37300D01*
X122500Y47300D01*
X131500Y47300D01*
X131500Y38250D02*
X122500Y38250D01*
X122500Y39200D02*
X131500Y39200D01*
X131500Y40150D02*
X122500Y40150D01*
X122500Y41100D02*
X131500Y41100D01*
X131500Y42050D02*
X122500Y42050D01*
X122500Y43000D02*
X131500Y43000D01*
X131500Y43950D02*
X122500Y43950D01*
X122500Y44900D02*
X131500Y44900D01*
X131500Y45850D02*
X122500Y45850D01*
X122500Y46800D02*
X131500Y46800D01*
X131500Y54300D02*
X131500Y64300D01*
X131500Y54300D02*
X122500Y54300D01*
X122500Y64300D01*
X131500Y64300D01*
X131500Y55250D02*
X122500Y55250D01*
X122500Y56200D02*
X131500Y56200D01*
X131500Y57150D02*
X122500Y57150D01*
X122500Y58100D02*
X131500Y58100D01*
X131500Y59050D02*
X122500Y59050D01*
X122500Y60000D02*
X131500Y60000D01*
X131500Y60950D02*
X122500Y60950D01*
X122500Y61900D02*
X131500Y61900D01*
X131500Y62850D02*
X122500Y62850D01*
X122500Y63800D02*
X131500Y63800D01*
X211400Y219400D02*
X211400Y229400D01*
X220400Y229400D01*
X220400Y219400D01*
X211400Y219400D01*
X211400Y220350D02*
X220400Y220350D01*
X220400Y221300D02*
X211400Y221300D01*
X211400Y222250D02*
X220400Y222250D01*
X220400Y223200D02*
X211400Y223200D01*
X211400Y224150D02*
X220400Y224150D01*
X220400Y225100D02*
X211400Y225100D01*
X211400Y226050D02*
X220400Y226050D01*
X220400Y227000D02*
X211400Y227000D01*
X211400Y227950D02*
X220400Y227950D01*
X220400Y228900D02*
X211400Y228900D01*
X211400Y212400D02*
X211400Y202400D01*
X211400Y212400D02*
X220400Y212400D01*
X220400Y202400D01*
X211400Y202400D01*
X211400Y203350D02*
X220400Y203350D01*
X220400Y204300D02*
X211400Y204300D01*
X211400Y205250D02*
X220400Y205250D01*
X220400Y206200D02*
X211400Y206200D01*
X211400Y207150D02*
X220400Y207150D01*
X220400Y208100D02*
X211400Y208100D01*
X211400Y209050D02*
X220400Y209050D01*
X220400Y210000D02*
X211400Y210000D01*
X211400Y210950D02*
X220400Y210950D01*
X220400Y211900D02*
X211400Y211900D01*
X296600Y212400D02*
X296600Y202400D01*
X287600Y202400D01*
X287600Y212400D01*
X296600Y212400D01*
X296600Y203350D02*
X287600Y203350D01*
X287600Y204300D02*
X296600Y204300D01*
X296600Y205250D02*
X287600Y205250D01*
X287600Y206200D02*
X296600Y206200D01*
X296600Y207150D02*
X287600Y207150D01*
X287600Y208100D02*
X296600Y208100D01*
X296600Y209050D02*
X287600Y209050D01*
X287600Y210000D02*
X296600Y210000D01*
X296600Y210950D02*
X287600Y210950D01*
X287600Y211900D02*
X296600Y211900D01*
X296600Y219400D02*
X296600Y229400D01*
X296600Y219400D02*
X287600Y219400D01*
X287600Y229400D01*
X296600Y229400D01*
X296600Y220350D02*
X287600Y220350D01*
X287600Y221300D02*
X296600Y221300D01*
X296600Y222250D02*
X287600Y222250D01*
X287600Y223200D02*
X296600Y223200D01*
X296600Y224150D02*
X287600Y224150D01*
X287600Y225100D02*
X296600Y225100D01*
X296600Y226050D02*
X287600Y226050D01*
X287600Y227000D02*
X296600Y227000D01*
X296600Y227950D02*
X287600Y227950D01*
X287600Y228900D02*
X296600Y228900D01*
X245800Y212400D02*
X245800Y202400D01*
X236800Y202400D01*
X236800Y212400D01*
X245800Y212400D01*
X245800Y203350D02*
X236800Y203350D01*
X236800Y204300D02*
X245800Y204300D01*
X245800Y205250D02*
X236800Y205250D01*
X236800Y206200D02*
X245800Y206200D01*
X245800Y207150D02*
X236800Y207150D01*
X236800Y208100D02*
X245800Y208100D01*
X245800Y209050D02*
X236800Y209050D01*
X236800Y210000D02*
X245800Y210000D01*
X245800Y210950D02*
X236800Y210950D01*
X236800Y211900D02*
X245800Y211900D01*
X245800Y219400D02*
X245800Y229400D01*
X245800Y219400D02*
X236800Y219400D01*
X236800Y229400D01*
X245800Y229400D01*
X245800Y220350D02*
X236800Y220350D01*
X236800Y221300D02*
X245800Y221300D01*
X245800Y222250D02*
X236800Y222250D01*
X236800Y223200D02*
X245800Y223200D01*
X245800Y224150D02*
X236800Y224150D01*
X236800Y225100D02*
X245800Y225100D01*
X245800Y226050D02*
X236800Y226050D01*
X236800Y227000D02*
X245800Y227000D01*
X245800Y227950D02*
X236800Y227950D01*
X236800Y228900D02*
X245800Y228900D01*
X131500Y240500D02*
X131500Y250500D01*
X131500Y240500D02*
X122500Y240500D01*
X122500Y250500D01*
X131500Y250500D01*
X131500Y241450D02*
X122500Y241450D01*
X122500Y242400D02*
X131500Y242400D01*
X131500Y243350D02*
X122500Y243350D01*
X122500Y244300D02*
X131500Y244300D01*
X131500Y245250D02*
X122500Y245250D01*
X122500Y246200D02*
X131500Y246200D01*
X131500Y247150D02*
X122500Y247150D01*
X122500Y248100D02*
X131500Y248100D01*
X131500Y249050D02*
X122500Y249050D01*
X122500Y250000D02*
X131500Y250000D01*
X131500Y257500D02*
X131500Y267500D01*
X131500Y257500D02*
X122500Y257500D01*
X122500Y267500D01*
X131500Y267500D01*
X131500Y258450D02*
X122500Y258450D01*
X122500Y259400D02*
X131500Y259400D01*
X131500Y260350D02*
X122500Y260350D01*
X122500Y261300D02*
X131500Y261300D01*
X131500Y262250D02*
X122500Y262250D01*
X122500Y263200D02*
X131500Y263200D01*
X131500Y264150D02*
X122500Y264150D01*
X122500Y265100D02*
X131500Y265100D01*
X131500Y266050D02*
X122500Y266050D01*
X122500Y267000D02*
X131500Y267000D01*
X106100Y250500D02*
X106100Y240500D01*
X97100Y240500D01*
X97100Y250500D01*
X106100Y250500D01*
X106100Y241450D02*
X97100Y241450D01*
X97100Y242400D02*
X106100Y242400D01*
X106100Y243350D02*
X97100Y243350D01*
X97100Y244300D02*
X106100Y244300D01*
X106100Y245250D02*
X97100Y245250D01*
X97100Y246200D02*
X106100Y246200D01*
X106100Y247150D02*
X97100Y247150D01*
X97100Y248100D02*
X106100Y248100D01*
X106100Y249050D02*
X97100Y249050D01*
X97100Y250000D02*
X106100Y250000D01*
X106100Y257500D02*
X106100Y267500D01*
X106100Y257500D02*
X97100Y257500D01*
X97100Y267500D01*
X106100Y267500D01*
X106100Y258450D02*
X97100Y258450D01*
X97100Y259400D02*
X106100Y259400D01*
X106100Y260350D02*
X97100Y260350D01*
X97100Y261300D02*
X106100Y261300D01*
X106100Y262250D02*
X97100Y262250D01*
X97100Y263200D02*
X106100Y263200D01*
X106100Y264150D02*
X97100Y264150D01*
X97100Y265100D02*
X106100Y265100D01*
X106100Y266050D02*
X97100Y266050D01*
X97100Y267000D02*
X106100Y267000D01*
D12*
X172590Y261510D02*
X172590Y246490D01*
X172590Y261510D02*
X185610Y261510D01*
X185610Y246490D01*
X172590Y246490D01*
X172590Y247421D02*
X185610Y247421D01*
X185610Y248352D02*
X172590Y248352D01*
X172590Y249283D02*
X185610Y249283D01*
X185610Y250214D02*
X172590Y250214D01*
X172590Y251145D02*
X185610Y251145D01*
X185610Y252076D02*
X172590Y252076D01*
X172590Y253007D02*
X185610Y253007D01*
X185610Y253938D02*
X172590Y253938D01*
X172590Y254869D02*
X185610Y254869D01*
X185610Y255800D02*
X172590Y255800D01*
X172590Y256731D02*
X185610Y256731D01*
X185610Y257662D02*
X172590Y257662D01*
X172590Y258593D02*
X185610Y258593D01*
X185610Y259524D02*
X172590Y259524D01*
X172590Y260455D02*
X185610Y260455D01*
X185610Y261386D02*
X172590Y261386D01*
X144590Y261510D02*
X144590Y246490D01*
X144590Y261510D02*
X157610Y261510D01*
X157610Y246490D01*
X144590Y246490D01*
X144590Y247421D02*
X157610Y247421D01*
X157610Y248352D02*
X144590Y248352D01*
X144590Y249283D02*
X157610Y249283D01*
X157610Y250214D02*
X144590Y250214D01*
X144590Y251145D02*
X157610Y251145D01*
X157610Y252076D02*
X144590Y252076D01*
X144590Y253007D02*
X157610Y253007D01*
X157610Y253938D02*
X144590Y253938D01*
X144590Y254869D02*
X157610Y254869D01*
X157610Y255800D02*
X144590Y255800D01*
X144590Y256731D02*
X157610Y256731D01*
X157610Y257662D02*
X144590Y257662D01*
X144590Y258593D02*
X157610Y258593D01*
X157610Y259524D02*
X144590Y259524D01*
X144590Y260455D02*
X157610Y260455D01*
X157610Y261386D02*
X144590Y261386D01*
D13*
X151720Y166820D02*
X127680Y166820D01*
X151720Y166820D02*
X151720Y155780D01*
X127680Y155780D01*
X127680Y166820D01*
X127680Y156692D02*
X151720Y156692D01*
X151720Y157604D02*
X127680Y157604D01*
X127680Y158516D02*
X151720Y158516D01*
X151720Y159428D02*
X127680Y159428D01*
X127680Y160340D02*
X151720Y160340D01*
X151720Y161252D02*
X127680Y161252D01*
X127680Y162164D02*
X151720Y162164D01*
X151720Y163076D02*
X127680Y163076D01*
X127680Y163988D02*
X151720Y163988D01*
X151720Y164900D02*
X127680Y164900D01*
X127680Y165812D02*
X151720Y165812D01*
X151720Y166724D02*
X127680Y166724D01*
X127680Y199820D02*
X151720Y199820D01*
X151720Y188780D01*
X127680Y188780D01*
X127680Y199820D01*
X127680Y189692D02*
X151720Y189692D01*
X151720Y190604D02*
X127680Y190604D01*
X127680Y191516D02*
X151720Y191516D01*
X151720Y192428D02*
X127680Y192428D01*
X127680Y193340D02*
X151720Y193340D01*
X151720Y194252D02*
X127680Y194252D01*
X127680Y195164D02*
X151720Y195164D01*
X151720Y196076D02*
X127680Y196076D01*
X127680Y196988D02*
X151720Y196988D01*
X151720Y197900D02*
X127680Y197900D01*
X127680Y198812D02*
X151720Y198812D01*
X151720Y199724D02*
X127680Y199724D01*
D10*
X316700Y198700D02*
X326700Y198700D01*
X316700Y198700D02*
X316700Y207700D01*
X326700Y207700D01*
X326700Y198700D01*
X326700Y199650D02*
X316700Y199650D01*
X316700Y200600D02*
X326700Y200600D01*
X326700Y201550D02*
X316700Y201550D01*
X316700Y202500D02*
X326700Y202500D01*
X326700Y203450D02*
X316700Y203450D01*
X316700Y204400D02*
X326700Y204400D01*
X326700Y205350D02*
X316700Y205350D01*
X316700Y206300D02*
X326700Y206300D01*
X326700Y207250D02*
X316700Y207250D01*
X333700Y198700D02*
X343700Y198700D01*
X333700Y198700D02*
X333700Y207700D01*
X343700Y207700D01*
X343700Y198700D01*
X343700Y199650D02*
X333700Y199650D01*
X333700Y200600D02*
X343700Y200600D01*
X343700Y201550D02*
X333700Y201550D01*
X333700Y202500D02*
X343700Y202500D01*
X343700Y203450D02*
X333700Y203450D01*
X333700Y204400D02*
X343700Y204400D01*
X343700Y205350D02*
X333700Y205350D01*
X333700Y206300D02*
X343700Y206300D01*
X343700Y207250D02*
X333700Y207250D01*
X333700Y233100D02*
X343700Y233100D01*
X343700Y224100D01*
X333700Y224100D01*
X333700Y233100D01*
X333700Y225050D02*
X343700Y225050D01*
X343700Y226000D02*
X333700Y226000D01*
X333700Y226950D02*
X343700Y226950D01*
X343700Y227900D02*
X333700Y227900D01*
X333700Y228850D02*
X343700Y228850D01*
X343700Y229800D02*
X333700Y229800D01*
X333700Y230750D02*
X343700Y230750D01*
X343700Y231700D02*
X333700Y231700D01*
X333700Y232650D02*
X343700Y232650D01*
X326700Y233100D02*
X316700Y233100D01*
X326700Y233100D02*
X326700Y224100D01*
X316700Y224100D01*
X316700Y233100D01*
X316700Y225050D02*
X326700Y225050D01*
X326700Y226000D02*
X316700Y226000D01*
X316700Y226950D02*
X326700Y226950D01*
X326700Y227900D02*
X316700Y227900D01*
X316700Y228850D02*
X326700Y228850D01*
X326700Y229800D02*
X316700Y229800D01*
X316700Y230750D02*
X326700Y230750D01*
X326700Y231700D02*
X316700Y231700D01*
X316700Y232650D02*
X326700Y232650D01*
D14*
X79700Y56070D02*
X72700Y56070D01*
X72700Y63070D01*
X79700Y63070D01*
X79700Y56070D01*
X79700Y58920D02*
X72700Y58920D01*
X72700Y61770D02*
X79700Y61770D01*
X79700Y38530D02*
X72700Y38530D01*
X72700Y45530D01*
X79700Y45530D01*
X79700Y38530D01*
X79700Y41380D02*
X72700Y41380D01*
X72700Y44230D02*
X79700Y44230D01*
D10*
X106100Y47300D02*
X106100Y37300D01*
X97100Y37300D01*
X97100Y47300D01*
X106100Y47300D01*
X106100Y38250D02*
X97100Y38250D01*
X97100Y39200D02*
X106100Y39200D01*
X106100Y40150D02*
X97100Y40150D01*
X97100Y41100D02*
X106100Y41100D01*
X106100Y42050D02*
X97100Y42050D01*
X97100Y43000D02*
X106100Y43000D01*
X106100Y43950D02*
X97100Y43950D01*
X97100Y44900D02*
X106100Y44900D01*
X106100Y45850D02*
X97100Y45850D01*
X97100Y46800D02*
X106100Y46800D01*
X106100Y54300D02*
X106100Y64300D01*
X106100Y54300D02*
X97100Y54300D01*
X97100Y64300D01*
X106100Y64300D01*
X106100Y55250D02*
X97100Y55250D01*
X97100Y56200D02*
X106100Y56200D01*
X106100Y57150D02*
X97100Y57150D01*
X97100Y58100D02*
X106100Y58100D01*
X106100Y59050D02*
X97100Y59050D01*
X97100Y60000D02*
X106100Y60000D01*
X106100Y60950D02*
X97100Y60950D01*
X97100Y61900D02*
X106100Y61900D01*
X106100Y62850D02*
X97100Y62850D01*
X97100Y63800D02*
X106100Y63800D01*
X97100Y105100D02*
X97100Y115100D01*
X106100Y115100D01*
X106100Y105100D01*
X97100Y105100D01*
X97100Y106050D02*
X106100Y106050D01*
X106100Y107000D02*
X97100Y107000D01*
X97100Y107950D02*
X106100Y107950D01*
X106100Y108900D02*
X97100Y108900D01*
X97100Y109850D02*
X106100Y109850D01*
X106100Y110800D02*
X97100Y110800D01*
X97100Y111750D02*
X106100Y111750D01*
X106100Y112700D02*
X97100Y112700D01*
X97100Y113650D02*
X106100Y113650D01*
X106100Y114600D02*
X97100Y114600D01*
X97100Y98100D02*
X97100Y88100D01*
X97100Y98100D02*
X106100Y98100D01*
X106100Y88100D01*
X97100Y88100D01*
X97100Y89050D02*
X106100Y89050D01*
X106100Y90000D02*
X97100Y90000D01*
X97100Y90950D02*
X106100Y90950D01*
X106100Y91900D02*
X97100Y91900D01*
X97100Y92850D02*
X106100Y92850D01*
X106100Y93800D02*
X97100Y93800D01*
X97100Y94750D02*
X106100Y94750D01*
X106100Y95700D02*
X97100Y95700D01*
X97100Y96650D02*
X106100Y96650D01*
X106100Y97600D02*
X97100Y97600D01*
D14*
X79700Y96330D02*
X72700Y96330D01*
X79700Y96330D02*
X79700Y89330D01*
X72700Y89330D01*
X72700Y96330D01*
X72700Y92180D02*
X79700Y92180D01*
X79700Y95030D02*
X72700Y95030D01*
X72700Y113870D02*
X79700Y113870D01*
X79700Y106870D01*
X72700Y106870D01*
X72700Y113870D01*
X72700Y109720D02*
X79700Y109720D01*
X79700Y112570D02*
X72700Y112570D01*
D15*
X69460Y182010D02*
X69460Y183990D01*
X82940Y183990D01*
X82940Y182010D01*
X69460Y182010D01*
X69460Y182979D02*
X82940Y182979D01*
X82940Y183948D02*
X69460Y183948D01*
X69460Y187010D02*
X69460Y188990D01*
X82940Y188990D01*
X82940Y187010D01*
X69460Y187010D01*
X69460Y187979D02*
X82940Y187979D01*
X82940Y188948D02*
X69460Y188948D01*
X69460Y160740D02*
X69460Y155760D01*
X69460Y160740D02*
X82940Y160740D01*
X82940Y155760D01*
X69460Y155760D01*
X69460Y156729D02*
X82940Y156729D01*
X82940Y157698D02*
X69460Y157698D01*
X69460Y158667D02*
X82940Y158667D01*
X82940Y159636D02*
X69460Y159636D01*
X69460Y160605D02*
X82940Y160605D01*
D11*
X69445Y163745D02*
X69445Y168255D01*
X82955Y168255D01*
X82955Y163745D01*
X69445Y163745D01*
X69445Y164685D02*
X82955Y164685D01*
X82955Y165625D02*
X69445Y165625D01*
X69445Y166565D02*
X82955Y166565D01*
X82955Y167505D02*
X69445Y167505D01*
D15*
X69460Y172010D02*
X69460Y173990D01*
X82940Y173990D01*
X82940Y172010D01*
X69460Y172010D01*
X69460Y172979D02*
X82940Y172979D01*
X82940Y173948D02*
X69460Y173948D01*
X69460Y177010D02*
X69460Y178990D01*
X82940Y178990D01*
X82940Y177010D01*
X69460Y177010D01*
X69460Y177979D02*
X82940Y177979D01*
X82940Y178948D02*
X69460Y178948D01*
X82940Y197010D02*
X82940Y198990D01*
X82940Y197010D02*
X69460Y197010D01*
X69460Y198990D01*
X82940Y198990D01*
X82940Y197979D02*
X69460Y197979D01*
X69460Y198948D02*
X82940Y198948D01*
X82940Y193990D02*
X82940Y192010D01*
X69460Y192010D01*
X69460Y193990D01*
X82940Y193990D01*
X82940Y192979D02*
X69460Y192979D01*
X69460Y193948D02*
X82940Y193948D01*
X82940Y220260D02*
X82940Y225240D01*
X82940Y220260D02*
X69460Y220260D01*
X69460Y225240D01*
X82940Y225240D01*
X82940Y221229D02*
X69460Y221229D01*
X69460Y222198D02*
X82940Y222198D01*
X82940Y223167D02*
X69460Y223167D01*
X69460Y224136D02*
X82940Y224136D01*
X82940Y225105D02*
X69460Y225105D01*
D11*
X82955Y217255D02*
X82955Y212745D01*
X69445Y212745D01*
X69445Y217255D01*
X82955Y217255D01*
X82955Y213685D02*
X69445Y213685D01*
X69445Y214625D02*
X82955Y214625D01*
X82955Y215565D02*
X69445Y215565D01*
X69445Y216505D02*
X82955Y216505D01*
D15*
X82940Y208990D02*
X82940Y207010D01*
X69460Y207010D01*
X69460Y208990D01*
X82940Y208990D01*
X82940Y207979D02*
X69460Y207979D01*
X69460Y208948D02*
X82940Y208948D01*
X82940Y203990D02*
X82940Y202010D01*
X69460Y202010D01*
X69460Y203990D01*
X82940Y203990D01*
X82940Y202979D02*
X69460Y202979D01*
X69460Y203948D02*
X82940Y203948D01*
D10*
X106100Y161600D02*
X106100Y151600D01*
X97100Y151600D01*
X97100Y161600D01*
X106100Y161600D01*
X106100Y152550D02*
X97100Y152550D01*
X97100Y153500D02*
X106100Y153500D01*
X106100Y154450D02*
X97100Y154450D01*
X97100Y155400D02*
X106100Y155400D01*
X106100Y156350D02*
X97100Y156350D01*
X97100Y157300D02*
X106100Y157300D01*
X106100Y158250D02*
X97100Y158250D01*
X97100Y159200D02*
X106100Y159200D01*
X106100Y160150D02*
X97100Y160150D01*
X97100Y161100D02*
X106100Y161100D01*
X106100Y168600D02*
X106100Y178600D01*
X106100Y168600D02*
X97100Y168600D01*
X97100Y178600D01*
X106100Y178600D01*
X106100Y169550D02*
X97100Y169550D01*
X97100Y170500D02*
X106100Y170500D01*
X106100Y171450D02*
X97100Y171450D01*
X97100Y172400D02*
X106100Y172400D01*
X106100Y173350D02*
X97100Y173350D01*
X97100Y174300D02*
X106100Y174300D01*
X106100Y175250D02*
X97100Y175250D01*
X97100Y176200D02*
X106100Y176200D01*
X106100Y177150D02*
X97100Y177150D01*
X97100Y178100D02*
X106100Y178100D01*
X97100Y219400D02*
X97100Y229400D01*
X106100Y229400D01*
X106100Y219400D01*
X97100Y219400D01*
X97100Y220350D02*
X106100Y220350D01*
X106100Y221300D02*
X97100Y221300D01*
X97100Y222250D02*
X106100Y222250D01*
X106100Y223200D02*
X97100Y223200D01*
X97100Y224150D02*
X106100Y224150D01*
X106100Y225100D02*
X97100Y225100D01*
X97100Y226050D02*
X106100Y226050D01*
X106100Y227000D02*
X97100Y227000D01*
X97100Y227950D02*
X106100Y227950D01*
X106100Y228900D02*
X97100Y228900D01*
X97100Y212400D02*
X97100Y202400D01*
X97100Y212400D02*
X106100Y212400D01*
X106100Y202400D01*
X97100Y202400D01*
X97100Y203350D02*
X106100Y203350D01*
X106100Y204300D02*
X97100Y204300D01*
X97100Y205250D02*
X106100Y205250D01*
X106100Y206200D02*
X97100Y206200D01*
X97100Y207150D02*
X106100Y207150D01*
X106100Y208100D02*
X97100Y208100D01*
X97100Y209050D02*
X106100Y209050D01*
X106100Y210000D02*
X97100Y210000D01*
X97100Y210950D02*
X106100Y210950D01*
X106100Y211900D02*
X97100Y211900D01*
D15*
X53690Y109940D02*
X53690Y104960D01*
X37710Y104960D01*
X37710Y109940D01*
X53690Y109940D01*
X53690Y105929D02*
X37710Y105929D01*
X37710Y106898D02*
X53690Y106898D01*
X53690Y107867D02*
X37710Y107867D01*
X37710Y108836D02*
X53690Y108836D01*
X53690Y109805D02*
X37710Y109805D01*
D10*
X26700Y30950D02*
X700Y30950D01*
X26700Y30950D02*
X26700Y21950D01*
X700Y21950D01*
X700Y30950D01*
X700Y22900D02*
X26700Y22900D01*
X26700Y23850D02*
X700Y23850D01*
X700Y24800D02*
X26700Y24800D01*
X26700Y25750D02*
X700Y25750D01*
X700Y26700D02*
X26700Y26700D01*
X26700Y27650D02*
X700Y27650D01*
X700Y28600D02*
X26700Y28600D01*
X26700Y29550D02*
X700Y29550D01*
X700Y30500D02*
X26700Y30500D01*
X26700Y130450D02*
X700Y130450D01*
X26700Y130450D02*
X26700Y121450D01*
X700Y121450D01*
X700Y130450D01*
X700Y122400D02*
X26700Y122400D01*
X26700Y123350D02*
X700Y123350D01*
X700Y124300D02*
X26700Y124300D01*
X26700Y125250D02*
X700Y125250D01*
X700Y126200D02*
X26700Y126200D01*
X26700Y127150D02*
X700Y127150D01*
X700Y128100D02*
X26700Y128100D01*
X26700Y129050D02*
X700Y129050D01*
X700Y130000D02*
X26700Y130000D01*
D15*
X53690Y97440D02*
X53690Y92460D01*
X37710Y92460D01*
X37710Y97440D01*
X53690Y97440D01*
X53690Y93429D02*
X37710Y93429D01*
X37710Y94398D02*
X53690Y94398D01*
X53690Y95367D02*
X37710Y95367D01*
X37710Y96336D02*
X53690Y96336D01*
X53690Y97305D02*
X37710Y97305D01*
X53690Y84940D02*
X53690Y79960D01*
X37710Y79960D01*
X37710Y84940D01*
X53690Y84940D01*
X53690Y80929D02*
X37710Y80929D01*
X37710Y81898D02*
X53690Y81898D01*
X53690Y82867D02*
X37710Y82867D01*
X37710Y83836D02*
X53690Y83836D01*
X53690Y84805D02*
X37710Y84805D01*
X53690Y72440D02*
X53690Y67460D01*
X37710Y67460D01*
X37710Y72440D01*
X53690Y72440D01*
X53690Y68429D02*
X37710Y68429D01*
X37710Y69398D02*
X53690Y69398D01*
X53690Y70367D02*
X37710Y70367D01*
X37710Y71336D02*
X53690Y71336D01*
X53690Y72305D02*
X37710Y72305D01*
X53690Y59940D02*
X53690Y54960D01*
X37710Y54960D01*
X37710Y59940D01*
X53690Y59940D01*
X53690Y55929D02*
X37710Y55929D01*
X37710Y56898D02*
X53690Y56898D01*
X53690Y57867D02*
X37710Y57867D01*
X37710Y58836D02*
X53690Y58836D01*
X53690Y59805D02*
X37710Y59805D01*
X53690Y47440D02*
X53690Y42460D01*
X37710Y42460D01*
X37710Y47440D01*
X53690Y47440D01*
X53690Y43429D02*
X37710Y43429D01*
X37710Y44398D02*
X53690Y44398D01*
X53690Y45367D02*
X37710Y45367D01*
X37710Y46336D02*
X53690Y46336D01*
X53690Y47305D02*
X37710Y47305D01*
D16*
X70720Y259520D02*
X70720Y266480D01*
X81680Y266480D01*
X81680Y259520D01*
X70720Y259520D01*
X70720Y260508D02*
X81680Y260508D01*
X81680Y261496D02*
X70720Y261496D01*
X70720Y262484D02*
X81680Y262484D01*
X81680Y263472D02*
X70720Y263472D01*
X70720Y264460D02*
X81680Y264460D01*
X81680Y265448D02*
X70720Y265448D01*
X70720Y266436D02*
X81680Y266436D01*
X70720Y248480D02*
X70720Y241520D01*
X70720Y248480D02*
X81680Y248480D01*
X81680Y241520D01*
X70720Y241520D01*
X70720Y242508D02*
X81680Y242508D01*
X81680Y243496D02*
X70720Y243496D01*
X70720Y244484D02*
X81680Y244484D01*
X81680Y245472D02*
X70720Y245472D01*
X70720Y246460D02*
X81680Y246460D01*
X81680Y247448D02*
X70720Y247448D01*
X70720Y248436D02*
X81680Y248436D01*
D14*
X301300Y45530D02*
X308300Y45530D01*
X308300Y38530D01*
X301300Y38530D01*
X301300Y45530D01*
X301300Y41380D02*
X308300Y41380D01*
X308300Y44230D02*
X301300Y44230D01*
X301300Y63070D02*
X308300Y63070D01*
X308300Y56070D01*
X301300Y56070D01*
X301300Y63070D01*
X301300Y58920D02*
X308300Y58920D01*
X308300Y61770D02*
X301300Y61770D01*
X352100Y45530D02*
X359100Y45530D01*
X359100Y38530D01*
X352100Y38530D01*
X352100Y45530D01*
X352100Y41380D02*
X359100Y41380D01*
X359100Y44230D02*
X352100Y44230D01*
X352100Y63070D02*
X359100Y63070D01*
X359100Y56070D01*
X352100Y56070D01*
X352100Y63070D01*
X352100Y58920D02*
X359100Y58920D01*
X359100Y61770D02*
X352100Y61770D01*
D10*
X376500Y64300D02*
X376500Y54300D01*
X376500Y64300D02*
X385500Y64300D01*
X385500Y54300D01*
X376500Y54300D01*
X376500Y55250D02*
X385500Y55250D01*
X385500Y56200D02*
X376500Y56200D01*
X376500Y57150D02*
X385500Y57150D01*
X385500Y58100D02*
X376500Y58100D01*
X376500Y59050D02*
X385500Y59050D01*
X385500Y60000D02*
X376500Y60000D01*
X376500Y60950D02*
X385500Y60950D01*
X385500Y61900D02*
X376500Y61900D01*
X376500Y62850D02*
X385500Y62850D01*
X385500Y63800D02*
X376500Y63800D01*
X376500Y47300D02*
X376500Y37300D01*
X376500Y47300D02*
X385500Y47300D01*
X385500Y37300D01*
X376500Y37300D01*
X376500Y38250D02*
X385500Y38250D01*
X385500Y39200D02*
X376500Y39200D01*
X376500Y40150D02*
X385500Y40150D01*
X385500Y41100D02*
X376500Y41100D01*
X376500Y42050D02*
X385500Y42050D01*
X385500Y43000D02*
X376500Y43000D01*
X376500Y43950D02*
X385500Y43950D01*
X385500Y44900D02*
X376500Y44900D01*
X376500Y45850D02*
X385500Y45850D01*
X385500Y46800D02*
X376500Y46800D01*
X325700Y54300D02*
X325700Y64300D01*
X334700Y64300D01*
X334700Y54300D01*
X325700Y54300D01*
X325700Y55250D02*
X334700Y55250D01*
X334700Y56200D02*
X325700Y56200D01*
X325700Y57150D02*
X334700Y57150D01*
X334700Y58100D02*
X325700Y58100D01*
X325700Y59050D02*
X334700Y59050D01*
X334700Y60000D02*
X325700Y60000D01*
X325700Y60950D02*
X334700Y60950D01*
X334700Y61900D02*
X325700Y61900D01*
X325700Y62850D02*
X334700Y62850D01*
X334700Y63800D02*
X325700Y63800D01*
X325700Y47300D02*
X325700Y37300D01*
X325700Y47300D02*
X334700Y47300D01*
X334700Y37300D01*
X325700Y37300D01*
X325700Y38250D02*
X334700Y38250D01*
X334700Y39200D02*
X325700Y39200D01*
X325700Y40150D02*
X334700Y40150D01*
X334700Y41100D02*
X325700Y41100D01*
X325700Y42050D02*
X334700Y42050D01*
X334700Y43000D02*
X325700Y43000D01*
X325700Y43950D02*
X334700Y43950D01*
X334700Y44900D02*
X325700Y44900D01*
X325700Y45850D02*
X334700Y45850D01*
X334700Y46800D02*
X325700Y46800D01*
X321700Y135000D02*
X321700Y144000D01*
X338700Y144000D01*
X338700Y135000D01*
X321700Y135000D01*
X321700Y135950D02*
X338700Y135950D01*
X338700Y136900D02*
X321700Y136900D01*
X321700Y137850D02*
X338700Y137850D01*
X338700Y138800D02*
X321700Y138800D01*
X321700Y139750D02*
X338700Y139750D01*
X338700Y140700D02*
X321700Y140700D01*
X321700Y141650D02*
X338700Y141650D01*
X338700Y142600D02*
X321700Y142600D01*
X321700Y143550D02*
X338700Y143550D01*
X321700Y119000D02*
X321700Y110000D01*
X321700Y119000D02*
X338700Y119000D01*
X338700Y110000D01*
X321700Y110000D01*
X321700Y110950D02*
X338700Y110950D01*
X338700Y111900D02*
X321700Y111900D01*
X321700Y112850D02*
X338700Y112850D01*
X338700Y113800D02*
X321700Y113800D01*
X321700Y114750D02*
X338700Y114750D01*
X338700Y115700D02*
X321700Y115700D01*
X321700Y116650D02*
X338700Y116650D01*
X338700Y117600D02*
X321700Y117600D01*
X321700Y118550D02*
X338700Y118550D01*
D17*
X303496Y111304D02*
X289504Y111304D01*
X289504Y113096D01*
X303496Y113096D01*
X303496Y111304D01*
X303496Y112262D02*
X289504Y112262D01*
X289504Y116304D02*
X303496Y116304D01*
X289504Y116304D02*
X289504Y118096D01*
X303496Y118096D01*
X303496Y116304D01*
X303496Y117262D02*
X289504Y117262D01*
X289504Y121304D02*
X303496Y121304D01*
X289504Y121304D02*
X289504Y123096D01*
X303496Y123096D01*
X303496Y121304D01*
X303496Y122262D02*
X289504Y122262D01*
X289504Y126304D02*
X303496Y126304D01*
X289504Y126304D02*
X289504Y128096D01*
X303496Y128096D01*
X303496Y126304D01*
X303496Y127262D02*
X289504Y127262D01*
X289504Y131304D02*
X303496Y131304D01*
X289504Y131304D02*
X289504Y133096D01*
X303496Y133096D01*
X303496Y131304D01*
X303496Y132262D02*
X289504Y132262D01*
X289504Y136304D02*
X303496Y136304D01*
X289504Y136304D02*
X289504Y138096D01*
X303496Y138096D01*
X303496Y136304D01*
X303496Y137262D02*
X289504Y137262D01*
X289504Y141304D02*
X303496Y141304D01*
X289504Y141304D02*
X289504Y143096D01*
X303496Y143096D01*
X303496Y141304D01*
X303496Y142262D02*
X289504Y142262D01*
X289504Y146304D02*
X303496Y146304D01*
X289504Y146304D02*
X289504Y148096D01*
X303496Y148096D01*
X303496Y146304D01*
X303496Y147262D02*
X289504Y147262D01*
X289504Y151304D02*
X303496Y151304D01*
X289504Y151304D02*
X289504Y153096D01*
X303496Y153096D01*
X303496Y151304D01*
X303496Y152262D02*
X289504Y152262D01*
X289504Y156304D02*
X303496Y156304D01*
X289504Y156304D02*
X289504Y158096D01*
X303496Y158096D01*
X303496Y156304D01*
X303496Y157262D02*
X289504Y157262D01*
X289504Y161304D02*
X303496Y161304D01*
X289504Y161304D02*
X289504Y163096D01*
X303496Y163096D01*
X303496Y161304D01*
X303496Y162262D02*
X289504Y162262D01*
X289504Y166304D02*
X303496Y166304D01*
X289504Y166304D02*
X289504Y168096D01*
X303496Y168096D01*
X303496Y166304D01*
X303496Y167262D02*
X289504Y167262D01*
X282396Y175204D02*
X282396Y189196D01*
X282396Y175204D02*
X280604Y175204D01*
X280604Y189196D01*
X282396Y189196D01*
X282396Y176162D02*
X280604Y176162D01*
X280604Y177120D02*
X282396Y177120D01*
X282396Y178078D02*
X280604Y178078D01*
X280604Y179036D02*
X282396Y179036D01*
X282396Y179994D02*
X280604Y179994D01*
X280604Y180952D02*
X282396Y180952D01*
X282396Y181910D02*
X280604Y181910D01*
X280604Y182868D02*
X282396Y182868D01*
X282396Y183826D02*
X280604Y183826D01*
X280604Y184784D02*
X282396Y184784D01*
X282396Y185742D02*
X280604Y185742D01*
X280604Y186700D02*
X282396Y186700D01*
X282396Y187658D02*
X280604Y187658D01*
X280604Y188616D02*
X282396Y188616D01*
X277396Y189196D02*
X277396Y175204D01*
X275604Y175204D01*
X275604Y189196D01*
X277396Y189196D01*
X277396Y176162D02*
X275604Y176162D01*
X275604Y177120D02*
X277396Y177120D01*
X277396Y178078D02*
X275604Y178078D01*
X275604Y179036D02*
X277396Y179036D01*
X277396Y179994D02*
X275604Y179994D01*
X275604Y180952D02*
X277396Y180952D01*
X277396Y181910D02*
X275604Y181910D01*
X275604Y182868D02*
X277396Y182868D01*
X277396Y183826D02*
X275604Y183826D01*
X275604Y184784D02*
X277396Y184784D01*
X277396Y185742D02*
X275604Y185742D01*
X275604Y186700D02*
X277396Y186700D01*
X277396Y187658D02*
X275604Y187658D01*
X275604Y188616D02*
X277396Y188616D01*
X272396Y189196D02*
X272396Y175204D01*
X270604Y175204D01*
X270604Y189196D01*
X272396Y189196D01*
X272396Y176162D02*
X270604Y176162D01*
X270604Y177120D02*
X272396Y177120D01*
X272396Y178078D02*
X270604Y178078D01*
X270604Y179036D02*
X272396Y179036D01*
X272396Y179994D02*
X270604Y179994D01*
X270604Y180952D02*
X272396Y180952D01*
X272396Y181910D02*
X270604Y181910D01*
X270604Y182868D02*
X272396Y182868D01*
X272396Y183826D02*
X270604Y183826D01*
X270604Y184784D02*
X272396Y184784D01*
X272396Y185742D02*
X270604Y185742D01*
X270604Y186700D02*
X272396Y186700D01*
X272396Y187658D02*
X270604Y187658D01*
X270604Y188616D02*
X272396Y188616D01*
X267396Y189196D02*
X267396Y175204D01*
X265604Y175204D01*
X265604Y189196D01*
X267396Y189196D01*
X267396Y176162D02*
X265604Y176162D01*
X265604Y177120D02*
X267396Y177120D01*
X267396Y178078D02*
X265604Y178078D01*
X265604Y179036D02*
X267396Y179036D01*
X267396Y179994D02*
X265604Y179994D01*
X265604Y180952D02*
X267396Y180952D01*
X267396Y181910D02*
X265604Y181910D01*
X265604Y182868D02*
X267396Y182868D01*
X267396Y183826D02*
X265604Y183826D01*
X265604Y184784D02*
X267396Y184784D01*
X267396Y185742D02*
X265604Y185742D01*
X265604Y186700D02*
X267396Y186700D01*
X267396Y187658D02*
X265604Y187658D01*
X265604Y188616D02*
X267396Y188616D01*
X262396Y189196D02*
X262396Y175204D01*
X260604Y175204D01*
X260604Y189196D01*
X262396Y189196D01*
X262396Y176162D02*
X260604Y176162D01*
X260604Y177120D02*
X262396Y177120D01*
X262396Y178078D02*
X260604Y178078D01*
X260604Y179036D02*
X262396Y179036D01*
X262396Y179994D02*
X260604Y179994D01*
X260604Y180952D02*
X262396Y180952D01*
X262396Y181910D02*
X260604Y181910D01*
X260604Y182868D02*
X262396Y182868D01*
X262396Y183826D02*
X260604Y183826D01*
X260604Y184784D02*
X262396Y184784D01*
X262396Y185742D02*
X260604Y185742D01*
X260604Y186700D02*
X262396Y186700D01*
X262396Y187658D02*
X260604Y187658D01*
X260604Y188616D02*
X262396Y188616D01*
X257396Y189196D02*
X257396Y175204D01*
X255604Y175204D01*
X255604Y189196D01*
X257396Y189196D01*
X257396Y176162D02*
X255604Y176162D01*
X255604Y177120D02*
X257396Y177120D01*
X257396Y178078D02*
X255604Y178078D01*
X255604Y179036D02*
X257396Y179036D01*
X257396Y179994D02*
X255604Y179994D01*
X255604Y180952D02*
X257396Y180952D01*
X257396Y181910D02*
X255604Y181910D01*
X255604Y182868D02*
X257396Y182868D01*
X257396Y183826D02*
X255604Y183826D01*
X255604Y184784D02*
X257396Y184784D01*
X257396Y185742D02*
X255604Y185742D01*
X255604Y186700D02*
X257396Y186700D01*
X257396Y187658D02*
X255604Y187658D01*
X255604Y188616D02*
X257396Y188616D01*
X252396Y189196D02*
X252396Y175204D01*
X250604Y175204D01*
X250604Y189196D01*
X252396Y189196D01*
X252396Y176162D02*
X250604Y176162D01*
X250604Y177120D02*
X252396Y177120D01*
X252396Y178078D02*
X250604Y178078D01*
X250604Y179036D02*
X252396Y179036D01*
X252396Y179994D02*
X250604Y179994D01*
X250604Y180952D02*
X252396Y180952D01*
X252396Y181910D02*
X250604Y181910D01*
X250604Y182868D02*
X252396Y182868D01*
X252396Y183826D02*
X250604Y183826D01*
X250604Y184784D02*
X252396Y184784D01*
X252396Y185742D02*
X250604Y185742D01*
X250604Y186700D02*
X252396Y186700D01*
X252396Y187658D02*
X250604Y187658D01*
X250604Y188616D02*
X252396Y188616D01*
X247396Y189196D02*
X247396Y175204D01*
X245604Y175204D01*
X245604Y189196D01*
X247396Y189196D01*
X247396Y176162D02*
X245604Y176162D01*
X245604Y177120D02*
X247396Y177120D01*
X247396Y178078D02*
X245604Y178078D01*
X245604Y179036D02*
X247396Y179036D01*
X247396Y179994D02*
X245604Y179994D01*
X245604Y180952D02*
X247396Y180952D01*
X247396Y181910D02*
X245604Y181910D01*
X245604Y182868D02*
X247396Y182868D01*
X247396Y183826D02*
X245604Y183826D01*
X245604Y184784D02*
X247396Y184784D01*
X247396Y185742D02*
X245604Y185742D01*
X245604Y186700D02*
X247396Y186700D01*
X247396Y187658D02*
X245604Y187658D01*
X245604Y188616D02*
X247396Y188616D01*
X242396Y189196D02*
X242396Y175204D01*
X240604Y175204D01*
X240604Y189196D01*
X242396Y189196D01*
X242396Y176162D02*
X240604Y176162D01*
X240604Y177120D02*
X242396Y177120D01*
X242396Y178078D02*
X240604Y178078D01*
X240604Y179036D02*
X242396Y179036D01*
X242396Y179994D02*
X240604Y179994D01*
X240604Y180952D02*
X242396Y180952D01*
X242396Y181910D02*
X240604Y181910D01*
X240604Y182868D02*
X242396Y182868D01*
X242396Y183826D02*
X240604Y183826D01*
X240604Y184784D02*
X242396Y184784D01*
X242396Y185742D02*
X240604Y185742D01*
X240604Y186700D02*
X242396Y186700D01*
X242396Y187658D02*
X240604Y187658D01*
X240604Y188616D02*
X242396Y188616D01*
X237396Y189196D02*
X237396Y175204D01*
X235604Y175204D01*
X235604Y189196D01*
X237396Y189196D01*
X237396Y176162D02*
X235604Y176162D01*
X235604Y177120D02*
X237396Y177120D01*
X237396Y178078D02*
X235604Y178078D01*
X235604Y179036D02*
X237396Y179036D01*
X237396Y179994D02*
X235604Y179994D01*
X235604Y180952D02*
X237396Y180952D01*
X237396Y181910D02*
X235604Y181910D01*
X235604Y182868D02*
X237396Y182868D01*
X237396Y183826D02*
X235604Y183826D01*
X235604Y184784D02*
X237396Y184784D01*
X237396Y185742D02*
X235604Y185742D01*
X235604Y186700D02*
X237396Y186700D01*
X237396Y187658D02*
X235604Y187658D01*
X235604Y188616D02*
X237396Y188616D01*
X232396Y189196D02*
X232396Y175204D01*
X230604Y175204D01*
X230604Y189196D01*
X232396Y189196D01*
X232396Y176162D02*
X230604Y176162D01*
X230604Y177120D02*
X232396Y177120D01*
X232396Y178078D02*
X230604Y178078D01*
X230604Y179036D02*
X232396Y179036D01*
X232396Y179994D02*
X230604Y179994D01*
X230604Y180952D02*
X232396Y180952D01*
X232396Y181910D02*
X230604Y181910D01*
X230604Y182868D02*
X232396Y182868D01*
X232396Y183826D02*
X230604Y183826D01*
X230604Y184784D02*
X232396Y184784D01*
X232396Y185742D02*
X230604Y185742D01*
X230604Y186700D02*
X232396Y186700D01*
X232396Y187658D02*
X230604Y187658D01*
X230604Y188616D02*
X232396Y188616D01*
X227396Y189196D02*
X227396Y175204D01*
X225604Y175204D01*
X225604Y189196D01*
X227396Y189196D01*
X227396Y176162D02*
X225604Y176162D01*
X225604Y177120D02*
X227396Y177120D01*
X227396Y178078D02*
X225604Y178078D01*
X225604Y179036D02*
X227396Y179036D01*
X227396Y179994D02*
X225604Y179994D01*
X225604Y180952D02*
X227396Y180952D01*
X227396Y181910D02*
X225604Y181910D01*
X225604Y182868D02*
X227396Y182868D01*
X227396Y183826D02*
X225604Y183826D01*
X225604Y184784D02*
X227396Y184784D01*
X227396Y185742D02*
X225604Y185742D01*
X225604Y186700D02*
X227396Y186700D01*
X227396Y187658D02*
X225604Y187658D01*
X225604Y188616D02*
X227396Y188616D01*
X218496Y168096D02*
X204504Y168096D01*
X218496Y168096D02*
X218496Y166304D01*
X204504Y166304D01*
X204504Y168096D01*
X204504Y167262D02*
X218496Y167262D01*
X218496Y163096D02*
X204504Y163096D01*
X218496Y163096D02*
X218496Y161304D01*
X204504Y161304D01*
X204504Y163096D01*
X204504Y162262D02*
X218496Y162262D01*
X218496Y158096D02*
X204504Y158096D01*
X218496Y158096D02*
X218496Y156304D01*
X204504Y156304D01*
X204504Y158096D01*
X204504Y157262D02*
X218496Y157262D01*
X218496Y153096D02*
X204504Y153096D01*
X218496Y153096D02*
X218496Y151304D01*
X204504Y151304D01*
X204504Y153096D01*
X204504Y152262D02*
X218496Y152262D01*
X218496Y148096D02*
X204504Y148096D01*
X218496Y148096D02*
X218496Y146304D01*
X204504Y146304D01*
X204504Y148096D01*
X204504Y147262D02*
X218496Y147262D01*
X218496Y143096D02*
X204504Y143096D01*
X218496Y143096D02*
X218496Y141304D01*
X204504Y141304D01*
X204504Y143096D01*
X204504Y142262D02*
X218496Y142262D01*
X218496Y138096D02*
X204504Y138096D01*
X218496Y138096D02*
X218496Y136304D01*
X204504Y136304D01*
X204504Y138096D01*
X204504Y137262D02*
X218496Y137262D01*
X218496Y133096D02*
X204504Y133096D01*
X218496Y133096D02*
X218496Y131304D01*
X204504Y131304D01*
X204504Y133096D01*
X204504Y132262D02*
X218496Y132262D01*
X218496Y128096D02*
X204504Y128096D01*
X218496Y128096D02*
X218496Y126304D01*
X204504Y126304D01*
X204504Y128096D01*
X204504Y127262D02*
X218496Y127262D01*
X218496Y123096D02*
X204504Y123096D01*
X218496Y123096D02*
X218496Y121304D01*
X204504Y121304D01*
X204504Y123096D01*
X204504Y122262D02*
X218496Y122262D01*
X218496Y118096D02*
X204504Y118096D01*
X218496Y118096D02*
X218496Y116304D01*
X204504Y116304D01*
X204504Y118096D01*
X204504Y117262D02*
X218496Y117262D01*
X218496Y113096D02*
X204504Y113096D01*
X218496Y113096D02*
X218496Y111304D01*
X204504Y111304D01*
X204504Y113096D01*
X204504Y112262D02*
X218496Y112262D01*
X225604Y104196D02*
X225604Y90204D01*
X225604Y104196D02*
X227396Y104196D01*
X227396Y90204D01*
X225604Y90204D01*
X225604Y91162D02*
X227396Y91162D01*
X227396Y92120D02*
X225604Y92120D01*
X225604Y93078D02*
X227396Y93078D01*
X227396Y94036D02*
X225604Y94036D01*
X225604Y94994D02*
X227396Y94994D01*
X227396Y95952D02*
X225604Y95952D01*
X225604Y96910D02*
X227396Y96910D01*
X227396Y97868D02*
X225604Y97868D01*
X225604Y98826D02*
X227396Y98826D01*
X227396Y99784D02*
X225604Y99784D01*
X225604Y100742D02*
X227396Y100742D01*
X227396Y101700D02*
X225604Y101700D01*
X225604Y102658D02*
X227396Y102658D01*
X227396Y103616D02*
X225604Y103616D01*
X230604Y104196D02*
X230604Y90204D01*
X230604Y104196D02*
X232396Y104196D01*
X232396Y90204D01*
X230604Y90204D01*
X230604Y91162D02*
X232396Y91162D01*
X232396Y92120D02*
X230604Y92120D01*
X230604Y93078D02*
X232396Y93078D01*
X232396Y94036D02*
X230604Y94036D01*
X230604Y94994D02*
X232396Y94994D01*
X232396Y95952D02*
X230604Y95952D01*
X230604Y96910D02*
X232396Y96910D01*
X232396Y97868D02*
X230604Y97868D01*
X230604Y98826D02*
X232396Y98826D01*
X232396Y99784D02*
X230604Y99784D01*
X230604Y100742D02*
X232396Y100742D01*
X232396Y101700D02*
X230604Y101700D01*
X230604Y102658D02*
X232396Y102658D01*
X232396Y103616D02*
X230604Y103616D01*
X235604Y104196D02*
X235604Y90204D01*
X235604Y104196D02*
X237396Y104196D01*
X237396Y90204D01*
X235604Y90204D01*
X235604Y91162D02*
X237396Y91162D01*
X237396Y92120D02*
X235604Y92120D01*
X235604Y93078D02*
X237396Y93078D01*
X237396Y94036D02*
X235604Y94036D01*
X235604Y94994D02*
X237396Y94994D01*
X237396Y95952D02*
X235604Y95952D01*
X235604Y96910D02*
X237396Y96910D01*
X237396Y97868D02*
X235604Y97868D01*
X235604Y98826D02*
X237396Y98826D01*
X237396Y99784D02*
X235604Y99784D01*
X235604Y100742D02*
X237396Y100742D01*
X237396Y101700D02*
X235604Y101700D01*
X235604Y102658D02*
X237396Y102658D01*
X237396Y103616D02*
X235604Y103616D01*
X240604Y104196D02*
X240604Y90204D01*
X240604Y104196D02*
X242396Y104196D01*
X242396Y90204D01*
X240604Y90204D01*
X240604Y91162D02*
X242396Y91162D01*
X242396Y92120D02*
X240604Y92120D01*
X240604Y93078D02*
X242396Y93078D01*
X242396Y94036D02*
X240604Y94036D01*
X240604Y94994D02*
X242396Y94994D01*
X242396Y95952D02*
X240604Y95952D01*
X240604Y96910D02*
X242396Y96910D01*
X242396Y97868D02*
X240604Y97868D01*
X240604Y98826D02*
X242396Y98826D01*
X242396Y99784D02*
X240604Y99784D01*
X240604Y100742D02*
X242396Y100742D01*
X242396Y101700D02*
X240604Y101700D01*
X240604Y102658D02*
X242396Y102658D01*
X242396Y103616D02*
X240604Y103616D01*
X245604Y104196D02*
X245604Y90204D01*
X245604Y104196D02*
X247396Y104196D01*
X247396Y90204D01*
X245604Y90204D01*
X245604Y91162D02*
X247396Y91162D01*
X247396Y92120D02*
X245604Y92120D01*
X245604Y93078D02*
X247396Y93078D01*
X247396Y94036D02*
X245604Y94036D01*
X245604Y94994D02*
X247396Y94994D01*
X247396Y95952D02*
X245604Y95952D01*
X245604Y96910D02*
X247396Y96910D01*
X247396Y97868D02*
X245604Y97868D01*
X245604Y98826D02*
X247396Y98826D01*
X247396Y99784D02*
X245604Y99784D01*
X245604Y100742D02*
X247396Y100742D01*
X247396Y101700D02*
X245604Y101700D01*
X245604Y102658D02*
X247396Y102658D01*
X247396Y103616D02*
X245604Y103616D01*
X250604Y104196D02*
X250604Y90204D01*
X250604Y104196D02*
X252396Y104196D01*
X252396Y90204D01*
X250604Y90204D01*
X250604Y91162D02*
X252396Y91162D01*
X252396Y92120D02*
X250604Y92120D01*
X250604Y93078D02*
X252396Y93078D01*
X252396Y94036D02*
X250604Y94036D01*
X250604Y94994D02*
X252396Y94994D01*
X252396Y95952D02*
X250604Y95952D01*
X250604Y96910D02*
X252396Y96910D01*
X252396Y97868D02*
X250604Y97868D01*
X250604Y98826D02*
X252396Y98826D01*
X252396Y99784D02*
X250604Y99784D01*
X250604Y100742D02*
X252396Y100742D01*
X252396Y101700D02*
X250604Y101700D01*
X250604Y102658D02*
X252396Y102658D01*
X252396Y103616D02*
X250604Y103616D01*
X255604Y104196D02*
X255604Y90204D01*
X255604Y104196D02*
X257396Y104196D01*
X257396Y90204D01*
X255604Y90204D01*
X255604Y91162D02*
X257396Y91162D01*
X257396Y92120D02*
X255604Y92120D01*
X255604Y93078D02*
X257396Y93078D01*
X257396Y94036D02*
X255604Y94036D01*
X255604Y94994D02*
X257396Y94994D01*
X257396Y95952D02*
X255604Y95952D01*
X255604Y96910D02*
X257396Y96910D01*
X257396Y97868D02*
X255604Y97868D01*
X255604Y98826D02*
X257396Y98826D01*
X257396Y99784D02*
X255604Y99784D01*
X255604Y100742D02*
X257396Y100742D01*
X257396Y101700D02*
X255604Y101700D01*
X255604Y102658D02*
X257396Y102658D01*
X257396Y103616D02*
X255604Y103616D01*
X260604Y104196D02*
X260604Y90204D01*
X260604Y104196D02*
X262396Y104196D01*
X262396Y90204D01*
X260604Y90204D01*
X260604Y91162D02*
X262396Y91162D01*
X262396Y92120D02*
X260604Y92120D01*
X260604Y93078D02*
X262396Y93078D01*
X262396Y94036D02*
X260604Y94036D01*
X260604Y94994D02*
X262396Y94994D01*
X262396Y95952D02*
X260604Y95952D01*
X260604Y96910D02*
X262396Y96910D01*
X262396Y97868D02*
X260604Y97868D01*
X260604Y98826D02*
X262396Y98826D01*
X262396Y99784D02*
X260604Y99784D01*
X260604Y100742D02*
X262396Y100742D01*
X262396Y101700D02*
X260604Y101700D01*
X260604Y102658D02*
X262396Y102658D01*
X262396Y103616D02*
X260604Y103616D01*
X265604Y104196D02*
X265604Y90204D01*
X265604Y104196D02*
X267396Y104196D01*
X267396Y90204D01*
X265604Y90204D01*
X265604Y91162D02*
X267396Y91162D01*
X267396Y92120D02*
X265604Y92120D01*
X265604Y93078D02*
X267396Y93078D01*
X267396Y94036D02*
X265604Y94036D01*
X265604Y94994D02*
X267396Y94994D01*
X267396Y95952D02*
X265604Y95952D01*
X265604Y96910D02*
X267396Y96910D01*
X267396Y97868D02*
X265604Y97868D01*
X265604Y98826D02*
X267396Y98826D01*
X267396Y99784D02*
X265604Y99784D01*
X265604Y100742D02*
X267396Y100742D01*
X267396Y101700D02*
X265604Y101700D01*
X265604Y102658D02*
X267396Y102658D01*
X267396Y103616D02*
X265604Y103616D01*
X270604Y104196D02*
X270604Y90204D01*
X270604Y104196D02*
X272396Y104196D01*
X272396Y90204D01*
X270604Y90204D01*
X270604Y91162D02*
X272396Y91162D01*
X272396Y92120D02*
X270604Y92120D01*
X270604Y93078D02*
X272396Y93078D01*
X272396Y94036D02*
X270604Y94036D01*
X270604Y94994D02*
X272396Y94994D01*
X272396Y95952D02*
X270604Y95952D01*
X270604Y96910D02*
X272396Y96910D01*
X272396Y97868D02*
X270604Y97868D01*
X270604Y98826D02*
X272396Y98826D01*
X272396Y99784D02*
X270604Y99784D01*
X270604Y100742D02*
X272396Y100742D01*
X272396Y101700D02*
X270604Y101700D01*
X270604Y102658D02*
X272396Y102658D01*
X272396Y103616D02*
X270604Y103616D01*
X275604Y104196D02*
X275604Y90204D01*
X275604Y104196D02*
X277396Y104196D01*
X277396Y90204D01*
X275604Y90204D01*
X275604Y91162D02*
X277396Y91162D01*
X277396Y92120D02*
X275604Y92120D01*
X275604Y93078D02*
X277396Y93078D01*
X277396Y94036D02*
X275604Y94036D01*
X275604Y94994D02*
X277396Y94994D01*
X277396Y95952D02*
X275604Y95952D01*
X275604Y96910D02*
X277396Y96910D01*
X277396Y97868D02*
X275604Y97868D01*
X275604Y98826D02*
X277396Y98826D01*
X277396Y99784D02*
X275604Y99784D01*
X275604Y100742D02*
X277396Y100742D01*
X277396Y101700D02*
X275604Y101700D01*
X275604Y102658D02*
X277396Y102658D01*
X277396Y103616D02*
X275604Y103616D01*
X280604Y104196D02*
X280604Y90204D01*
X280604Y104196D02*
X282396Y104196D01*
X282396Y90204D01*
X280604Y90204D01*
X280604Y91162D02*
X282396Y91162D01*
X282396Y92120D02*
X280604Y92120D01*
X280604Y93078D02*
X282396Y93078D01*
X282396Y94036D02*
X280604Y94036D01*
X280604Y94994D02*
X282396Y94994D01*
X282396Y95952D02*
X280604Y95952D01*
X280604Y96910D02*
X282396Y96910D01*
X282396Y97868D02*
X280604Y97868D01*
X280604Y98826D02*
X282396Y98826D01*
X282396Y99784D02*
X280604Y99784D01*
X280604Y100742D02*
X282396Y100742D01*
X282396Y101700D02*
X280604Y101700D01*
X280604Y102658D02*
X282396Y102658D01*
X282396Y103616D02*
X280604Y103616D01*
D10*
X191300Y106100D02*
X181300Y106100D01*
X191300Y106100D02*
X191300Y97100D01*
X181300Y97100D01*
X181300Y106100D01*
X181300Y98050D02*
X191300Y98050D01*
X191300Y99000D02*
X181300Y99000D01*
X181300Y99950D02*
X191300Y99950D01*
X191300Y100900D02*
X181300Y100900D01*
X181300Y101850D02*
X191300Y101850D01*
X191300Y102800D02*
X181300Y102800D01*
X181300Y103750D02*
X191300Y103750D01*
X191300Y104700D02*
X181300Y104700D01*
X181300Y105650D02*
X191300Y105650D01*
X174300Y106100D02*
X164300Y106100D01*
X174300Y106100D02*
X174300Y97100D01*
X164300Y97100D01*
X164300Y106100D01*
X164300Y98050D02*
X174300Y98050D01*
X174300Y99000D02*
X164300Y99000D01*
X164300Y99950D02*
X174300Y99950D01*
X174300Y100900D02*
X164300Y100900D01*
X164300Y101850D02*
X174300Y101850D01*
X174300Y102800D02*
X164300Y102800D01*
X164300Y103750D02*
X174300Y103750D01*
X174300Y104700D02*
X164300Y104700D01*
X164300Y105650D02*
X174300Y105650D01*
X257500Y80700D02*
X267500Y80700D01*
X267500Y71700D01*
X257500Y71700D01*
X257500Y80700D01*
X257500Y72650D02*
X267500Y72650D01*
X267500Y73600D02*
X257500Y73600D01*
X257500Y74550D02*
X267500Y74550D01*
X267500Y75500D02*
X257500Y75500D01*
X257500Y76450D02*
X267500Y76450D01*
X267500Y77400D02*
X257500Y77400D01*
X257500Y78350D02*
X267500Y78350D01*
X267500Y79300D02*
X257500Y79300D01*
X257500Y80250D02*
X267500Y80250D01*
X250500Y80700D02*
X240500Y80700D01*
X250500Y80700D02*
X250500Y71700D01*
X240500Y71700D01*
X240500Y80700D01*
X240500Y72650D02*
X250500Y72650D01*
X250500Y73600D02*
X240500Y73600D01*
X240500Y74550D02*
X250500Y74550D01*
X250500Y75500D02*
X240500Y75500D01*
X240500Y76450D02*
X250500Y76450D01*
X250500Y77400D02*
X240500Y77400D01*
X240500Y78350D02*
X250500Y78350D01*
X250500Y79300D02*
X240500Y79300D01*
X240500Y80250D02*
X250500Y80250D01*
X271200Y202400D02*
X271200Y212400D01*
X271200Y202400D02*
X262200Y202400D01*
X262200Y212400D01*
X271200Y212400D01*
X271200Y203350D02*
X262200Y203350D01*
X262200Y204300D02*
X271200Y204300D01*
X271200Y205250D02*
X262200Y205250D01*
X262200Y206200D02*
X271200Y206200D01*
X271200Y207150D02*
X262200Y207150D01*
X262200Y208100D02*
X271200Y208100D01*
X271200Y209050D02*
X262200Y209050D01*
X262200Y210000D02*
X271200Y210000D01*
X271200Y210950D02*
X262200Y210950D01*
X262200Y211900D02*
X271200Y211900D01*
X271200Y219400D02*
X271200Y229400D01*
X271200Y219400D02*
X262200Y219400D01*
X262200Y229400D01*
X271200Y229400D01*
X271200Y220350D02*
X262200Y220350D01*
X262200Y221300D02*
X271200Y221300D01*
X271200Y222250D02*
X262200Y222250D01*
X262200Y223200D02*
X271200Y223200D01*
X271200Y224150D02*
X262200Y224150D01*
X262200Y225100D02*
X271200Y225100D01*
X271200Y226050D02*
X262200Y226050D01*
X262200Y227000D02*
X271200Y227000D01*
X271200Y227950D02*
X262200Y227950D01*
X262200Y228900D02*
X271200Y228900D01*
X316700Y173300D02*
X326700Y173300D01*
X316700Y173300D02*
X316700Y182300D01*
X326700Y182300D01*
X326700Y173300D01*
X326700Y174250D02*
X316700Y174250D01*
X316700Y175200D02*
X326700Y175200D01*
X326700Y176150D02*
X316700Y176150D01*
X316700Y177100D02*
X326700Y177100D01*
X326700Y178050D02*
X316700Y178050D01*
X316700Y179000D02*
X326700Y179000D01*
X326700Y179950D02*
X316700Y179950D01*
X316700Y180900D02*
X326700Y180900D01*
X326700Y181850D02*
X316700Y181850D01*
X333700Y173300D02*
X343700Y173300D01*
X333700Y173300D02*
X333700Y182300D01*
X343700Y182300D01*
X343700Y173300D01*
X343700Y174250D02*
X333700Y174250D01*
X333700Y175200D02*
X343700Y175200D01*
X343700Y176150D02*
X333700Y176150D01*
X333700Y177100D02*
X343700Y177100D01*
X343700Y178050D02*
X333700Y178050D01*
X333700Y179000D02*
X343700Y179000D01*
X343700Y179950D02*
X333700Y179950D01*
X333700Y180900D02*
X343700Y180900D01*
X343700Y181850D02*
X333700Y181850D01*
X156900Y47300D02*
X156900Y37300D01*
X147900Y37300D01*
X147900Y47300D01*
X156900Y47300D01*
X156900Y38250D02*
X147900Y38250D01*
X147900Y39200D02*
X156900Y39200D01*
X156900Y40150D02*
X147900Y40150D01*
X147900Y41100D02*
X156900Y41100D01*
X156900Y42050D02*
X147900Y42050D01*
X147900Y43000D02*
X156900Y43000D01*
X156900Y43950D02*
X147900Y43950D01*
X147900Y44900D02*
X156900Y44900D01*
X156900Y45850D02*
X147900Y45850D01*
X147900Y46800D02*
X156900Y46800D01*
X156900Y54300D02*
X156900Y64300D01*
X156900Y54300D02*
X147900Y54300D01*
X147900Y64300D01*
X156900Y64300D01*
X156900Y55250D02*
X147900Y55250D01*
X147900Y56200D02*
X156900Y56200D01*
X156900Y57150D02*
X147900Y57150D01*
X147900Y58100D02*
X156900Y58100D01*
X156900Y59050D02*
X147900Y59050D01*
X147900Y60000D02*
X156900Y60000D01*
X156900Y60950D02*
X147900Y60950D01*
X147900Y61900D02*
X156900Y61900D01*
X156900Y62850D02*
X147900Y62850D01*
X147900Y63800D02*
X156900Y63800D01*
X333700Y106100D02*
X343700Y106100D01*
X343700Y97100D01*
X333700Y97100D01*
X333700Y106100D01*
X333700Y98050D02*
X343700Y98050D01*
X343700Y99000D02*
X333700Y99000D01*
X333700Y99950D02*
X343700Y99950D01*
X343700Y100900D02*
X333700Y100900D01*
X333700Y101850D02*
X343700Y101850D01*
X343700Y102800D02*
X333700Y102800D01*
X333700Y103750D02*
X343700Y103750D01*
X343700Y104700D02*
X333700Y104700D01*
X333700Y105650D02*
X343700Y105650D01*
X326700Y106100D02*
X316700Y106100D01*
X326700Y106100D02*
X326700Y97100D01*
X316700Y97100D01*
X316700Y106100D01*
X316700Y98050D02*
X326700Y98050D01*
X326700Y99000D02*
X316700Y99000D01*
X316700Y99950D02*
X326700Y99950D01*
X326700Y100900D02*
X316700Y100900D01*
X316700Y101850D02*
X326700Y101850D01*
X326700Y102800D02*
X316700Y102800D01*
X316700Y103750D02*
X326700Y103750D01*
X326700Y104700D02*
X316700Y104700D01*
X316700Y105650D02*
X326700Y105650D01*
X326700Y147900D02*
X316700Y147900D01*
X316700Y156900D01*
X326700Y156900D01*
X326700Y147900D01*
X326700Y148850D02*
X316700Y148850D01*
X316700Y149800D02*
X326700Y149800D01*
X326700Y150750D02*
X316700Y150750D01*
X316700Y151700D02*
X326700Y151700D01*
X326700Y152650D02*
X316700Y152650D01*
X316700Y153600D02*
X326700Y153600D01*
X326700Y154550D02*
X316700Y154550D01*
X316700Y155500D02*
X326700Y155500D01*
X326700Y156450D02*
X316700Y156450D01*
X333700Y147900D02*
X343700Y147900D01*
X333700Y147900D02*
X333700Y156900D01*
X343700Y156900D01*
X343700Y147900D01*
X343700Y148850D02*
X333700Y148850D01*
X333700Y149800D02*
X343700Y149800D01*
X343700Y150750D02*
X333700Y150750D01*
X333700Y151700D02*
X343700Y151700D01*
X343700Y152650D02*
X333700Y152650D01*
X333700Y153600D02*
X343700Y153600D01*
X343700Y154550D02*
X333700Y154550D01*
X333700Y155500D02*
X343700Y155500D01*
X343700Y156450D02*
X333700Y156450D01*
D18*
X174765Y29985D02*
X168135Y29985D01*
X174765Y29985D02*
X174765Y15735D01*
X168135Y15735D01*
X168135Y29985D01*
X168135Y16676D02*
X174765Y16676D01*
X174765Y17617D02*
X168135Y17617D01*
X168135Y18558D02*
X174765Y18558D01*
X174765Y19499D02*
X168135Y19499D01*
X168135Y20440D02*
X174765Y20440D01*
X174765Y21381D02*
X168135Y21381D01*
X168135Y22322D02*
X174765Y22322D01*
X174765Y23263D02*
X168135Y23263D01*
X168135Y24204D02*
X174765Y24204D01*
X174765Y25145D02*
X168135Y25145D01*
X168135Y26086D02*
X174765Y26086D01*
X174765Y27027D02*
X168135Y27027D01*
X168135Y27968D02*
X174765Y27968D01*
X174765Y28909D02*
X168135Y28909D01*
X168135Y29850D02*
X174765Y29850D01*
X174765Y85865D02*
X168135Y85865D01*
X174765Y85865D02*
X174765Y71615D01*
X168135Y71615D01*
X168135Y85865D01*
X168135Y72556D02*
X174765Y72556D01*
X174765Y73497D02*
X168135Y73497D01*
X168135Y74438D02*
X174765Y74438D01*
X174765Y75379D02*
X168135Y75379D01*
X168135Y76320D02*
X174765Y76320D01*
X174765Y77261D02*
X168135Y77261D01*
X168135Y78202D02*
X174765Y78202D01*
X174765Y79143D02*
X168135Y79143D01*
X168135Y80084D02*
X174765Y80084D01*
X174765Y81025D02*
X168135Y81025D01*
X168135Y81966D02*
X174765Y81966D01*
X174765Y82907D02*
X168135Y82907D01*
X168135Y83848D02*
X174765Y83848D01*
X174765Y84789D02*
X168135Y84789D01*
X168135Y85730D02*
X174765Y85730D01*
X206235Y29985D02*
X212865Y29985D01*
X212865Y15735D01*
X206235Y15735D01*
X206235Y29985D01*
X206235Y16676D02*
X212865Y16676D01*
X212865Y17617D02*
X206235Y17617D01*
X206235Y18558D02*
X212865Y18558D01*
X212865Y19499D02*
X206235Y19499D01*
X206235Y20440D02*
X212865Y20440D01*
X212865Y21381D02*
X206235Y21381D01*
X206235Y22322D02*
X212865Y22322D01*
X212865Y23263D02*
X206235Y23263D01*
X206235Y24204D02*
X212865Y24204D01*
X212865Y25145D02*
X206235Y25145D01*
X206235Y26086D02*
X212865Y26086D01*
X212865Y27027D02*
X206235Y27027D01*
X206235Y27968D02*
X212865Y27968D01*
X212865Y28909D02*
X206235Y28909D01*
X206235Y29850D02*
X212865Y29850D01*
X212865Y85865D02*
X206235Y85865D01*
X212865Y85865D02*
X212865Y71615D01*
X206235Y71615D01*
X206235Y85865D01*
X206235Y72556D02*
X212865Y72556D01*
X212865Y73497D02*
X206235Y73497D01*
X206235Y74438D02*
X212865Y74438D01*
X212865Y75379D02*
X206235Y75379D01*
X206235Y76320D02*
X212865Y76320D01*
X212865Y77261D02*
X206235Y77261D01*
X206235Y78202D02*
X212865Y78202D01*
X212865Y79143D02*
X206235Y79143D01*
X206235Y80084D02*
X212865Y80084D01*
X212865Y81025D02*
X206235Y81025D01*
X206235Y81966D02*
X212865Y81966D01*
X212865Y82907D02*
X206235Y82907D01*
X206235Y83848D02*
X212865Y83848D01*
X212865Y84789D02*
X206235Y84789D01*
X206235Y85730D02*
X212865Y85730D01*
D13*
X506010Y66420D02*
X506010Y55380D01*
X486970Y55380D01*
X486970Y66420D01*
X506010Y66420D01*
X506010Y56292D02*
X486970Y56292D01*
X486970Y57204D02*
X506010Y57204D01*
X506010Y58116D02*
X486970Y58116D01*
X486970Y59028D02*
X506010Y59028D01*
X506010Y59940D02*
X486970Y59940D01*
X486970Y60852D02*
X506010Y60852D01*
X506010Y61764D02*
X486970Y61764D01*
X486970Y62676D02*
X506010Y62676D01*
X506010Y63588D02*
X486970Y63588D01*
X486970Y64500D02*
X506010Y64500D01*
X506010Y65412D02*
X486970Y65412D01*
X486970Y66324D02*
X506010Y66324D01*
X506010Y111380D02*
X506010Y122420D01*
X506010Y111380D02*
X486970Y111380D01*
X486970Y122420D01*
X506010Y122420D01*
X506010Y112292D02*
X486970Y112292D01*
X486970Y113204D02*
X506010Y113204D01*
X506010Y114116D02*
X486970Y114116D01*
X486970Y115028D02*
X506010Y115028D01*
X506010Y115940D02*
X486970Y115940D01*
X486970Y116852D02*
X506010Y116852D01*
X506010Y117764D02*
X486970Y117764D01*
X486970Y118676D02*
X506010Y118676D01*
X506010Y119588D02*
X486970Y119588D01*
X486970Y120500D02*
X506010Y120500D01*
X506010Y121412D02*
X486970Y121412D01*
X486970Y122324D02*
X506010Y122324D01*
D15*
X465980Y76390D02*
X465980Y71410D01*
X453500Y71410D01*
X453500Y76390D01*
X465980Y76390D01*
X465980Y72379D02*
X453500Y72379D01*
X453500Y73348D02*
X465980Y73348D01*
X465980Y74317D02*
X453500Y74317D01*
X453500Y75286D02*
X465980Y75286D01*
X465980Y76255D02*
X453500Y76255D01*
X465980Y81410D02*
X465980Y86390D01*
X465980Y81410D02*
X453500Y81410D01*
X453500Y86390D01*
X465980Y86390D01*
X465980Y82379D02*
X453500Y82379D01*
X453500Y83348D02*
X465980Y83348D01*
X465980Y84317D02*
X453500Y84317D01*
X453500Y85286D02*
X465980Y85286D01*
X465980Y86255D02*
X453500Y86255D01*
X465980Y91410D02*
X465980Y96390D01*
X465980Y91410D02*
X453500Y91410D01*
X453500Y96390D01*
X465980Y96390D01*
X465980Y92379D02*
X453500Y92379D01*
X453500Y93348D02*
X465980Y93348D01*
X465980Y94317D02*
X453500Y94317D01*
X453500Y95286D02*
X465980Y95286D01*
X465980Y96255D02*
X453500Y96255D01*
X465980Y101410D02*
X465980Y106390D01*
X465980Y101410D02*
X453500Y101410D01*
X453500Y106390D01*
X465980Y106390D01*
X465980Y102379D02*
X453500Y102379D01*
X453500Y103348D02*
X465980Y103348D01*
X465980Y104317D02*
X453500Y104317D01*
X453500Y105286D02*
X465980Y105286D01*
X465980Y106255D02*
X453500Y106255D01*
D10*
X414600Y117800D02*
X414600Y127800D01*
X423600Y127800D01*
X423600Y117800D01*
X414600Y117800D01*
X414600Y118750D02*
X423600Y118750D01*
X423600Y119700D02*
X414600Y119700D01*
X414600Y120650D02*
X423600Y120650D01*
X423600Y121600D02*
X414600Y121600D01*
X414600Y122550D02*
X423600Y122550D01*
X423600Y123500D02*
X414600Y123500D01*
X414600Y124450D02*
X423600Y124450D01*
X423600Y125400D02*
X414600Y125400D01*
X414600Y126350D02*
X423600Y126350D01*
X423600Y127300D02*
X414600Y127300D01*
X414600Y110800D02*
X414600Y100800D01*
X414600Y110800D02*
X423600Y110800D01*
X423600Y100800D01*
X414600Y100800D01*
X414600Y101750D02*
X423600Y101750D01*
X423600Y102700D02*
X414600Y102700D01*
X414600Y103650D02*
X423600Y103650D01*
X423600Y104600D02*
X414600Y104600D01*
X414600Y105550D02*
X423600Y105550D01*
X423600Y106500D02*
X414600Y106500D01*
X414600Y107450D02*
X423600Y107450D01*
X423600Y108400D02*
X414600Y108400D01*
X414600Y109350D02*
X423600Y109350D01*
X423600Y110300D02*
X414600Y110300D01*
X423600Y60000D02*
X423600Y50000D01*
X414600Y50000D01*
X414600Y60000D01*
X423600Y60000D01*
X423600Y50950D02*
X414600Y50950D01*
X414600Y51900D02*
X423600Y51900D01*
X423600Y52850D02*
X414600Y52850D01*
X414600Y53800D02*
X423600Y53800D01*
X423600Y54750D02*
X414600Y54750D01*
X414600Y55700D02*
X423600Y55700D01*
X423600Y56650D02*
X414600Y56650D01*
X414600Y57600D02*
X423600Y57600D01*
X423600Y58550D02*
X414600Y58550D01*
X414600Y59500D02*
X423600Y59500D01*
X423600Y67000D02*
X423600Y77000D01*
X423600Y67000D02*
X414600Y67000D01*
X414600Y77000D01*
X423600Y77000D01*
X423600Y67950D02*
X414600Y67950D01*
X414600Y68900D02*
X423600Y68900D01*
X423600Y69850D02*
X414600Y69850D01*
X414600Y70800D02*
X423600Y70800D01*
X423600Y71750D02*
X414600Y71750D01*
X414600Y72700D02*
X423600Y72700D01*
X423600Y73650D02*
X414600Y73650D01*
X414600Y74600D02*
X423600Y74600D01*
X423600Y75550D02*
X414600Y75550D01*
X414600Y76500D02*
X423600Y76500D01*
M02*
