M48
;GenerationSoftware,Autodesk,EAGLE,9.6.2*%
;CreationDate,2022-01-01T19:45:57Z*%
FMAT,2
ICI,OFF
METRIC,TZ,000.000
T4C0.305
T3C0.508
T2C0.650
T1C1.016
%
G90
M71
T1
X15240Y22860
X12700Y22860
T2
X6175Y21940
X6175Y16160
T3
X22860Y5715
X24130Y4445
X25400Y4445
X26670Y4445
X27940Y4445
X22860Y4445
X24130Y5715
X25400Y5715
X26670Y5715
X27940Y5715
T4
X35179Y15240
X35179Y17780
X35179Y10160
X12700Y10160
X15748Y10160
X5080Y12065
X6350Y3937
X4699Y1905
X31750Y6985
X36830Y6985
X28575Y1778
X45085Y6350
X42291Y4191
X42926Y13335
X42926Y11049
X47117Y16764
X44450Y18288
X42545Y16891
X40132Y18415
X44450Y19685
X44450Y23495
X47117Y25273
X42291Y22606
X40513Y20955
X28448Y26162
X28321Y24511
X4953Y27178
X5080Y23876
X21590Y19558
X25400Y19685
X20320Y18415
X21209Y18161
X19685Y19304
X8890Y24282
X2540Y4572
X20955Y23749
X22860Y24130
X26670Y24130
X22733Y14097
X23622Y13335
X22606Y14935
X8900Y5080
X6604Y5080
X26797Y15291
X5969Y7620
X27305Y16002
X28379Y16967
X35560Y7620
X30480Y7620
X28321Y16129
X26670Y11049
X24257Y14097
X13970Y17780
X25019Y13335
X40132Y12065
X14986Y11623
X27349Y11556
X15900Y9144
X14577Y9144
X15748Y17780
X17780Y21336
X11430Y21590
X25400Y20828
X8890Y15240
X9017Y21590
X20320Y24384
X20320Y22860
X25400Y22860
X29210Y19050
X25273Y16764
X25146Y12319
X31496Y13208
X39370Y5461
M30