G04 EAGLE Gerber RS-274X export*
G75*
%MOMM*%
%FSLAX34Y34*%
%LPD*%
%INSolderpaste Bottom*%
%IPPOS*%
%AMOC8*
5,1,8,0,0,1.08239X$1,22.5*%
G01*
%ADD10R,2.200000X3.400000*%
%ADD11R,3.254000X2.254000*%
%ADD12C,0.102000*%


D10*
X63600Y260700D03*
D11*
X424600Y209700D03*
X424600Y184300D03*
X424600Y95100D03*
X424600Y69700D03*
D10*
X89000Y260700D03*
X114400Y260700D03*
X139800Y260700D03*
X165200Y260700D03*
X190600Y260700D03*
X216000Y260700D03*
X241400Y260700D03*
X266800Y260700D03*
X63600Y19400D03*
X89000Y19400D03*
X114400Y19400D03*
X139800Y19400D03*
X165200Y19400D03*
X190600Y19400D03*
X216000Y19400D03*
X241400Y19400D03*
X266800Y19400D03*
D12*
X442010Y217140D02*
X442010Y222120D01*
X446990Y222120D01*
X446990Y217140D01*
X442010Y217140D01*
X442010Y218109D02*
X446990Y218109D01*
X446990Y219078D02*
X442010Y219078D01*
X442010Y220047D02*
X446990Y220047D01*
X446990Y221016D02*
X442010Y221016D01*
X442010Y221985D02*
X446990Y221985D01*
X442010Y212120D02*
X442010Y207140D01*
X442010Y212120D02*
X446990Y212120D01*
X446990Y207140D01*
X442010Y207140D01*
X442010Y208109D02*
X446990Y208109D01*
X446990Y209078D02*
X442010Y209078D01*
X442010Y210047D02*
X446990Y210047D01*
X446990Y211016D02*
X442010Y211016D01*
X442010Y211985D02*
X446990Y211985D01*
D10*
X576680Y260700D03*
D11*
X937680Y209700D03*
X937680Y184300D03*
X937680Y95100D03*
X937680Y69700D03*
D10*
X602080Y260700D03*
X627480Y260700D03*
X652880Y260700D03*
X678280Y260700D03*
X703680Y260700D03*
X729080Y260700D03*
X754480Y260700D03*
X779880Y260700D03*
X576680Y19400D03*
X602080Y19400D03*
X627480Y19400D03*
X652880Y19400D03*
X678280Y19400D03*
X703680Y19400D03*
X729080Y19400D03*
X754480Y19400D03*
X779880Y19400D03*
D12*
X955090Y217140D02*
X955090Y222120D01*
X960070Y222120D01*
X960070Y217140D01*
X955090Y217140D01*
X955090Y218109D02*
X960070Y218109D01*
X960070Y219078D02*
X955090Y219078D01*
X955090Y220047D02*
X960070Y220047D01*
X960070Y221016D02*
X955090Y221016D01*
X955090Y221985D02*
X960070Y221985D01*
X955090Y212120D02*
X955090Y207140D01*
X955090Y212120D02*
X960070Y212120D01*
X960070Y207140D01*
X955090Y207140D01*
X955090Y208109D02*
X960070Y208109D01*
X960070Y209078D02*
X955090Y209078D01*
X955090Y210047D02*
X960070Y210047D01*
X960070Y211016D02*
X955090Y211016D01*
X955090Y211985D02*
X960070Y211985D01*
D10*
X1089760Y260700D03*
D11*
X1450760Y209700D03*
X1450760Y184300D03*
X1450760Y95100D03*
X1450760Y69700D03*
D10*
X1115160Y260700D03*
X1140560Y260700D03*
X1165960Y260700D03*
X1191360Y260700D03*
X1216760Y260700D03*
X1242160Y260700D03*
X1267560Y260700D03*
X1292960Y260700D03*
X1089760Y19400D03*
X1115160Y19400D03*
X1140560Y19400D03*
X1165960Y19400D03*
X1191360Y19400D03*
X1216760Y19400D03*
X1242160Y19400D03*
X1267560Y19400D03*
X1292960Y19400D03*
D12*
X1468170Y217140D02*
X1468170Y222120D01*
X1473150Y222120D01*
X1473150Y217140D01*
X1468170Y217140D01*
X1468170Y218109D02*
X1473150Y218109D01*
X1473150Y219078D02*
X1468170Y219078D01*
X1468170Y220047D02*
X1473150Y220047D01*
X1473150Y221016D02*
X1468170Y221016D01*
X1468170Y221985D02*
X1473150Y221985D01*
X1468170Y212120D02*
X1468170Y207140D01*
X1468170Y212120D02*
X1473150Y212120D01*
X1473150Y207140D01*
X1468170Y207140D01*
X1468170Y208109D02*
X1473150Y208109D01*
X1473150Y209078D02*
X1468170Y209078D01*
X1468170Y210047D02*
X1473150Y210047D01*
X1473150Y211016D02*
X1468170Y211016D01*
X1468170Y211985D02*
X1473150Y211985D01*
D10*
X63600Y545180D03*
D11*
X424600Y494180D03*
X424600Y468780D03*
X424600Y379580D03*
X424600Y354180D03*
D10*
X89000Y545180D03*
X114400Y545180D03*
X139800Y545180D03*
X165200Y545180D03*
X190600Y545180D03*
X216000Y545180D03*
X241400Y545180D03*
X266800Y545180D03*
X63600Y303880D03*
X89000Y303880D03*
X114400Y303880D03*
X139800Y303880D03*
X165200Y303880D03*
X190600Y303880D03*
X216000Y303880D03*
X241400Y303880D03*
X266800Y303880D03*
D12*
X442010Y501620D02*
X442010Y506600D01*
X446990Y506600D01*
X446990Y501620D01*
X442010Y501620D01*
X442010Y502589D02*
X446990Y502589D01*
X446990Y503558D02*
X442010Y503558D01*
X442010Y504527D02*
X446990Y504527D01*
X446990Y505496D02*
X442010Y505496D01*
X442010Y506465D02*
X446990Y506465D01*
X442010Y496600D02*
X442010Y491620D01*
X442010Y496600D02*
X446990Y496600D01*
X446990Y491620D01*
X442010Y491620D01*
X442010Y492589D02*
X446990Y492589D01*
X446990Y493558D02*
X442010Y493558D01*
X442010Y494527D02*
X446990Y494527D01*
X446990Y495496D02*
X442010Y495496D01*
X442010Y496465D02*
X446990Y496465D01*
D10*
X576680Y545180D03*
D11*
X937680Y494180D03*
X937680Y468780D03*
X937680Y379580D03*
X937680Y354180D03*
D10*
X602080Y545180D03*
X627480Y545180D03*
X652880Y545180D03*
X678280Y545180D03*
X703680Y545180D03*
X729080Y545180D03*
X754480Y545180D03*
X779880Y545180D03*
X576680Y303880D03*
X602080Y303880D03*
X627480Y303880D03*
X652880Y303880D03*
X678280Y303880D03*
X703680Y303880D03*
X729080Y303880D03*
X754480Y303880D03*
X779880Y303880D03*
D12*
X955090Y501620D02*
X955090Y506600D01*
X960070Y506600D01*
X960070Y501620D01*
X955090Y501620D01*
X955090Y502589D02*
X960070Y502589D01*
X960070Y503558D02*
X955090Y503558D01*
X955090Y504527D02*
X960070Y504527D01*
X960070Y505496D02*
X955090Y505496D01*
X955090Y506465D02*
X960070Y506465D01*
X955090Y496600D02*
X955090Y491620D01*
X955090Y496600D02*
X960070Y496600D01*
X960070Y491620D01*
X955090Y491620D01*
X955090Y492589D02*
X960070Y492589D01*
X960070Y493558D02*
X955090Y493558D01*
X955090Y494527D02*
X960070Y494527D01*
X960070Y495496D02*
X955090Y495496D01*
X955090Y496465D02*
X960070Y496465D01*
D10*
X1089760Y545180D03*
D11*
X1450760Y494180D03*
X1450760Y468780D03*
X1450760Y379580D03*
X1450760Y354180D03*
D10*
X1115160Y545180D03*
X1140560Y545180D03*
X1165960Y545180D03*
X1191360Y545180D03*
X1216760Y545180D03*
X1242160Y545180D03*
X1267560Y545180D03*
X1292960Y545180D03*
X1089760Y303880D03*
X1115160Y303880D03*
X1140560Y303880D03*
X1165960Y303880D03*
X1191360Y303880D03*
X1216760Y303880D03*
X1242160Y303880D03*
X1267560Y303880D03*
X1292960Y303880D03*
D12*
X1468170Y501620D02*
X1468170Y506600D01*
X1473150Y506600D01*
X1473150Y501620D01*
X1468170Y501620D01*
X1468170Y502589D02*
X1473150Y502589D01*
X1473150Y503558D02*
X1468170Y503558D01*
X1468170Y504527D02*
X1473150Y504527D01*
X1473150Y505496D02*
X1468170Y505496D01*
X1468170Y506465D02*
X1473150Y506465D01*
X1468170Y496600D02*
X1468170Y491620D01*
X1468170Y496600D02*
X1473150Y496600D01*
X1473150Y491620D01*
X1468170Y491620D01*
X1468170Y492589D02*
X1473150Y492589D01*
X1473150Y493558D02*
X1468170Y493558D01*
X1468170Y494527D02*
X1473150Y494527D01*
X1473150Y495496D02*
X1468170Y495496D01*
X1468170Y496465D02*
X1473150Y496465D01*
D10*
X63600Y829660D03*
D11*
X424600Y778660D03*
X424600Y753260D03*
X424600Y664060D03*
X424600Y638660D03*
D10*
X89000Y829660D03*
X114400Y829660D03*
X139800Y829660D03*
X165200Y829660D03*
X190600Y829660D03*
X216000Y829660D03*
X241400Y829660D03*
X266800Y829660D03*
X63600Y588360D03*
X89000Y588360D03*
X114400Y588360D03*
X139800Y588360D03*
X165200Y588360D03*
X190600Y588360D03*
X216000Y588360D03*
X241400Y588360D03*
X266800Y588360D03*
D12*
X442010Y786100D02*
X442010Y791080D01*
X446990Y791080D01*
X446990Y786100D01*
X442010Y786100D01*
X442010Y787069D02*
X446990Y787069D01*
X446990Y788038D02*
X442010Y788038D01*
X442010Y789007D02*
X446990Y789007D01*
X446990Y789976D02*
X442010Y789976D01*
X442010Y790945D02*
X446990Y790945D01*
X442010Y781080D02*
X442010Y776100D01*
X442010Y781080D02*
X446990Y781080D01*
X446990Y776100D01*
X442010Y776100D01*
X442010Y777069D02*
X446990Y777069D01*
X446990Y778038D02*
X442010Y778038D01*
X442010Y779007D02*
X446990Y779007D01*
X446990Y779976D02*
X442010Y779976D01*
X442010Y780945D02*
X446990Y780945D01*
D10*
X576680Y829660D03*
D11*
X937680Y778660D03*
X937680Y753260D03*
X937680Y664060D03*
X937680Y638660D03*
D10*
X602080Y829660D03*
X627480Y829660D03*
X652880Y829660D03*
X678280Y829660D03*
X703680Y829660D03*
X729080Y829660D03*
X754480Y829660D03*
X779880Y829660D03*
X576680Y588360D03*
X602080Y588360D03*
X627480Y588360D03*
X652880Y588360D03*
X678280Y588360D03*
X703680Y588360D03*
X729080Y588360D03*
X754480Y588360D03*
X779880Y588360D03*
D12*
X955090Y786100D02*
X955090Y791080D01*
X960070Y791080D01*
X960070Y786100D01*
X955090Y786100D01*
X955090Y787069D02*
X960070Y787069D01*
X960070Y788038D02*
X955090Y788038D01*
X955090Y789007D02*
X960070Y789007D01*
X960070Y789976D02*
X955090Y789976D01*
X955090Y790945D02*
X960070Y790945D01*
X955090Y781080D02*
X955090Y776100D01*
X955090Y781080D02*
X960070Y781080D01*
X960070Y776100D01*
X955090Y776100D01*
X955090Y777069D02*
X960070Y777069D01*
X960070Y778038D02*
X955090Y778038D01*
X955090Y779007D02*
X960070Y779007D01*
X960070Y779976D02*
X955090Y779976D01*
X955090Y780945D02*
X960070Y780945D01*
D10*
X1089760Y829660D03*
D11*
X1450760Y778660D03*
X1450760Y753260D03*
X1450760Y664060D03*
X1450760Y638660D03*
D10*
X1115160Y829660D03*
X1140560Y829660D03*
X1165960Y829660D03*
X1191360Y829660D03*
X1216760Y829660D03*
X1242160Y829660D03*
X1267560Y829660D03*
X1292960Y829660D03*
X1089760Y588360D03*
X1115160Y588360D03*
X1140560Y588360D03*
X1165960Y588360D03*
X1191360Y588360D03*
X1216760Y588360D03*
X1242160Y588360D03*
X1267560Y588360D03*
X1292960Y588360D03*
D12*
X1468170Y786100D02*
X1468170Y791080D01*
X1473150Y791080D01*
X1473150Y786100D01*
X1468170Y786100D01*
X1468170Y787069D02*
X1473150Y787069D01*
X1473150Y788038D02*
X1468170Y788038D01*
X1468170Y789007D02*
X1473150Y789007D01*
X1473150Y789976D02*
X1468170Y789976D01*
X1468170Y790945D02*
X1473150Y790945D01*
X1468170Y781080D02*
X1468170Y776100D01*
X1468170Y781080D02*
X1473150Y781080D01*
X1473150Y776100D01*
X1468170Y776100D01*
X1468170Y777069D02*
X1473150Y777069D01*
X1473150Y778038D02*
X1468170Y778038D01*
X1468170Y779007D02*
X1473150Y779007D01*
X1473150Y779976D02*
X1468170Y779976D01*
X1468170Y780945D02*
X1473150Y780945D01*
D10*
X63600Y1114140D03*
D11*
X424600Y1063140D03*
X424600Y1037740D03*
X424600Y948540D03*
X424600Y923140D03*
D10*
X89000Y1114140D03*
X114400Y1114140D03*
X139800Y1114140D03*
X165200Y1114140D03*
X190600Y1114140D03*
X216000Y1114140D03*
X241400Y1114140D03*
X266800Y1114140D03*
X63600Y872840D03*
X89000Y872840D03*
X114400Y872840D03*
X139800Y872840D03*
X165200Y872840D03*
X190600Y872840D03*
X216000Y872840D03*
X241400Y872840D03*
X266800Y872840D03*
D12*
X442010Y1070580D02*
X442010Y1075560D01*
X446990Y1075560D01*
X446990Y1070580D01*
X442010Y1070580D01*
X442010Y1071549D02*
X446990Y1071549D01*
X446990Y1072518D02*
X442010Y1072518D01*
X442010Y1073487D02*
X446990Y1073487D01*
X446990Y1074456D02*
X442010Y1074456D01*
X442010Y1075425D02*
X446990Y1075425D01*
X442010Y1065560D02*
X442010Y1060580D01*
X442010Y1065560D02*
X446990Y1065560D01*
X446990Y1060580D01*
X442010Y1060580D01*
X442010Y1061549D02*
X446990Y1061549D01*
X446990Y1062518D02*
X442010Y1062518D01*
X442010Y1063487D02*
X446990Y1063487D01*
X446990Y1064456D02*
X442010Y1064456D01*
X442010Y1065425D02*
X446990Y1065425D01*
D10*
X576680Y1114140D03*
D11*
X937680Y1063140D03*
X937680Y1037740D03*
X937680Y948540D03*
X937680Y923140D03*
D10*
X602080Y1114140D03*
X627480Y1114140D03*
X652880Y1114140D03*
X678280Y1114140D03*
X703680Y1114140D03*
X729080Y1114140D03*
X754480Y1114140D03*
X779880Y1114140D03*
X576680Y872840D03*
X602080Y872840D03*
X627480Y872840D03*
X652880Y872840D03*
X678280Y872840D03*
X703680Y872840D03*
X729080Y872840D03*
X754480Y872840D03*
X779880Y872840D03*
D12*
X955090Y1070580D02*
X955090Y1075560D01*
X960070Y1075560D01*
X960070Y1070580D01*
X955090Y1070580D01*
X955090Y1071549D02*
X960070Y1071549D01*
X960070Y1072518D02*
X955090Y1072518D01*
X955090Y1073487D02*
X960070Y1073487D01*
X960070Y1074456D02*
X955090Y1074456D01*
X955090Y1075425D02*
X960070Y1075425D01*
X955090Y1065560D02*
X955090Y1060580D01*
X955090Y1065560D02*
X960070Y1065560D01*
X960070Y1060580D01*
X955090Y1060580D01*
X955090Y1061549D02*
X960070Y1061549D01*
X960070Y1062518D02*
X955090Y1062518D01*
X955090Y1063487D02*
X960070Y1063487D01*
X960070Y1064456D02*
X955090Y1064456D01*
X955090Y1065425D02*
X960070Y1065425D01*
D10*
X1089760Y1114140D03*
D11*
X1450760Y1063140D03*
X1450760Y1037740D03*
X1450760Y948540D03*
X1450760Y923140D03*
D10*
X1115160Y1114140D03*
X1140560Y1114140D03*
X1165960Y1114140D03*
X1191360Y1114140D03*
X1216760Y1114140D03*
X1242160Y1114140D03*
X1267560Y1114140D03*
X1292960Y1114140D03*
X1089760Y872840D03*
X1115160Y872840D03*
X1140560Y872840D03*
X1165960Y872840D03*
X1191360Y872840D03*
X1216760Y872840D03*
X1242160Y872840D03*
X1267560Y872840D03*
X1292960Y872840D03*
D12*
X1468170Y1070580D02*
X1468170Y1075560D01*
X1473150Y1075560D01*
X1473150Y1070580D01*
X1468170Y1070580D01*
X1468170Y1071549D02*
X1473150Y1071549D01*
X1473150Y1072518D02*
X1468170Y1072518D01*
X1468170Y1073487D02*
X1473150Y1073487D01*
X1473150Y1074456D02*
X1468170Y1074456D01*
X1468170Y1075425D02*
X1473150Y1075425D01*
X1468170Y1065560D02*
X1468170Y1060580D01*
X1468170Y1065560D02*
X1473150Y1065560D01*
X1473150Y1060580D01*
X1468170Y1060580D01*
X1468170Y1061549D02*
X1473150Y1061549D01*
X1473150Y1062518D02*
X1468170Y1062518D01*
X1468170Y1063487D02*
X1473150Y1063487D01*
X1473150Y1064456D02*
X1468170Y1064456D01*
X1468170Y1065425D02*
X1473150Y1065425D01*
M02*
