M48
;GenerationSoftware,Autodesk,EAGLE,9.6.2*%
;CreationDate,2022-01-24T20:47:41Z*%
FMAT,2
ICI,OFF
METRIC,TZ,000.000
T5C0.305
T4C0.508
T3C0.650
T2C0.700
T1C1.016
%
G90
M71
T1
X141986Y98044
X39370Y12700
X88138Y98044
X66548Y108204
X141986Y41148
X139446Y41148
X64008Y108204
X88138Y12700
X117856Y51308
X15240Y108204
X90678Y12700
X115316Y22860
X115316Y51308
X90678Y41148
X117856Y22860
X36830Y98044
X36830Y41148
X39370Y41148
X64008Y22860
X12700Y108204
X66548Y22860
X64008Y51308
X141986Y69596
X139446Y69596
X66548Y51308
X88138Y41148
X117856Y79756
X39370Y98044
X139446Y98044
X117856Y108204
X115316Y79756
X90678Y69596
X115316Y108204
X90678Y98044
X88138Y69596
X66548Y79756
X36830Y12700
X139446Y12700
X141986Y12700
X12700Y51308
X15240Y51308
X64008Y79756
X39370Y69596
X12700Y22860
X15240Y22860
X36830Y69596
X15240Y79756
X12700Y79756
T2
X47360Y12700
X49160Y12700
X98668Y12700
X149976Y12700
X151776Y12700
X47360Y41148
X49160Y41148
X100468Y12700
X98668Y41148
X100468Y41148
X149976Y41148
X151776Y41148
X47360Y69596
X49160Y69596
X98668Y69596
X100468Y69596
X151776Y98044
X47360Y98044
X98668Y98044
X100468Y98044
X49160Y98044
X151776Y69596
X149976Y69596
X149976Y98044
T3
X6175Y21940
X6175Y16160
X57483Y21940
X57483Y16160
X108791Y21940
X108791Y16160
X6175Y50388
X6175Y44608
X57483Y50388
X57483Y44608
X108791Y50388
X108791Y44608
X6175Y78836
X57483Y78836
X57483Y73056
X108791Y78836
X108791Y73056
X6175Y107284
X6175Y101504
X57483Y107284
X57483Y101504
X108791Y107284
X108791Y101504
X6175Y73056
T4
X24130Y4445
X25400Y4445
X26670Y4445
X27940Y4445
X22860Y4445
X24130Y5715
X25400Y5715
X26670Y5715
X27940Y5715
X22860Y5715
X75438Y4445
X76708Y4445
X77978Y4445
X77978Y32893
X79248Y32893
X74168Y32893
X75438Y34163
X76708Y34163
X77978Y34163
X79248Y34163
X74168Y34163
X75438Y32893
X22860Y34163
X27940Y34163
X26670Y34163
X126746Y32893
X128016Y32893
X129286Y32893
X130556Y32893
X125476Y32893
X126746Y34163
X128016Y34163
X129286Y34163
X130556Y34163
X125476Y34163
X25400Y34163
X24130Y34163
X22860Y32893
X27940Y32893
X24130Y61341
X25400Y61341
X26670Y61341
X27940Y61341
X22860Y61341
X24130Y62611
X25400Y62611
X26670Y62611
X27940Y62611
X22860Y62611
X26670Y32893
X25400Y32893
X24130Y32893
X125476Y5715
X75438Y61341
X76708Y61341
X77978Y61341
X79248Y61341
X74168Y61341
X75438Y62611
X76708Y62611
X77978Y62611
X79248Y62611
X74168Y62611
X130556Y5715
X129286Y5715
X128016Y5715
X126746Y5715
X126746Y61341
X128016Y61341
X129286Y61341
X130556Y61341
X125476Y61341
X126746Y62611
X128016Y62611
X129286Y62611
X130556Y62611
X125476Y62611
X125476Y4445
X130556Y4445
X129286Y4445
X128016Y4445
X24130Y89789
X25400Y89789
X26670Y89789
X27940Y89789
X22860Y89789
X24130Y91059
X25400Y91059
X26670Y91059
X27940Y91059
X22860Y91059
X126746Y4445
X76708Y32893
X74168Y5715
X79248Y5715
X75438Y89789
X76708Y89789
X77978Y89789
X79248Y89789
X74168Y89789
X75438Y91059
X76708Y91059
X77978Y91059
X79248Y91059
X74168Y91059
X77978Y5715
X76708Y5715
X75438Y5715
X74168Y4445
X126746Y89789
X128016Y89789
X129286Y89789
X130556Y89789
X125476Y89789
X126746Y91059
X128016Y91059
X129286Y91059
X130556Y91059
X125476Y91059
X79248Y4445
T5
X124206Y19558
X128016Y20828
X122936Y18415
X123825Y18161
X122301Y19304
X111506Y24282
X105156Y4572
X123571Y23749
X125476Y24130
X129286Y24130
X125603Y14097
X126238Y13335
X125222Y14935
X111516Y5080
X109220Y5080
X129413Y15291
X108585Y7620
X129921Y16510
X132646Y17475
X138176Y8509
X134747Y8001
X131699Y17526
X130937Y15621
X136271Y16248
X130048Y14380
X130810Y12954
X129286Y11049
X127889Y14224
X141986Y5461
X127635Y13335
X141859Y11049
X130302Y11176
X117196Y8001
X123952Y9144
X117221Y9779
X125476Y8382
X117196Y8839
X117475Y11557
X127000Y14732
X13970Y46228
X15748Y46228
X17780Y49784
X11430Y50038
X8890Y43688
X9017Y50038
X20320Y52832
X20320Y51308
X25400Y51308
X29210Y48006
X25400Y48133
X25273Y45212
X25146Y40767
X30988Y41275
X35179Y43688
X35179Y46228
X35179Y38608
X12700Y37592
X20066Y38608
X5080Y40513
X6350Y32385
X4699Y30353
X34290Y34671
X36830Y34798
X28575Y30226
X45085Y36068
X42418Y40259
X42418Y32639
X47117Y45212
X44450Y46736
X42545Y45339
X40132Y46863
X44450Y48133
X44450Y51943
X47117Y53721
X42291Y51054
X40513Y49403
X28448Y54610
X28321Y52959
X4953Y55626
X5080Y52324
X10160Y35687
X47244Y32004
X12700Y39116
X22479Y40640
X31242Y36449
X21590Y48006
X25400Y49276
X20320Y46863
X21209Y46609
X19685Y47752
X8890Y52730
X2540Y33020
X20955Y52197
X22860Y52578
X26670Y52578
X22987Y42545
X23622Y41783
X22606Y43383
X8900Y33528
X6604Y33528
X26797Y43739
X5969Y36068
X27305Y44958
X30030Y45923
X35560Y36957
X32131Y36449
X29083Y45974
X28321Y44069
X33655Y44696
X27432Y42828
X28194Y41402
X26670Y39497
X25273Y42672
X39370Y33909
X25019Y41783
X39243Y39497
X27686Y39624
X14580Y36449
X21336Y37592
X14605Y38227
X22860Y36830
X14580Y37287
X14859Y40005
X24384Y43180
X65278Y46228
X67056Y46228
X69088Y49784
X62738Y50038
X60198Y43688
X60325Y50038
X71628Y52832
X71628Y51308
X76708Y51308
X80518Y48006
X76708Y48133
X76581Y45212
X76454Y40767
X82296Y41275
X86487Y43688
X86487Y46228
X86487Y38608
X64008Y37592
X71374Y38608
X56388Y40513
X57658Y32385
X56007Y30353
X85598Y34671
X88138Y34798
X79883Y30226
X96393Y36068
X93726Y40259
X93726Y32639
X98425Y45212
X95758Y46736
X93853Y45339
X91440Y46863
X95758Y48133
X95758Y51943
X98425Y53721
X93599Y51054
X91821Y49403
X79756Y54610
X79629Y52959
X56261Y55626
X56388Y52324
X61468Y35687
X98552Y32004
X64008Y39116
X73787Y40640
X82550Y36449
X72898Y48006
X76708Y49276
X71628Y46863
X72517Y46609
X70993Y47752
X60198Y52730
X53848Y33020
X72263Y52197
X74168Y52578
X77978Y52578
X74295Y42545
X74930Y41783
X73914Y43383
X60208Y33528
X57912Y33528
X78105Y43739
X57277Y36068
X78613Y44958
X81338Y45923
X86868Y36957
X83439Y36449
X80391Y45974
X79629Y44069
X84963Y44696
X78740Y42828
X79502Y41402
X77978Y39497
X76581Y42672
X90678Y33909
X76327Y41783
X90551Y39497
X78994Y39624
X65888Y36449
X72644Y37592
X65913Y38227
X74168Y36830
X65888Y37287
X66167Y40005
X75692Y43180
X116586Y46228
X118364Y46228
X120396Y49784
X114046Y50038
X111506Y43688
X111633Y50038
X122936Y52832
X122936Y51308
X128016Y51308
X131826Y48006
X128016Y48133
X127889Y45212
X127762Y40767
X133604Y41275
X137795Y43688
X137795Y46228
X137795Y38608
X115316Y37592
X122682Y38608
X107696Y40513
X108966Y32385
X107315Y30353
X136906Y34671
X139446Y34798
X131191Y30226
X147701Y36068
X145034Y40259
X145034Y32639
X149733Y45212
X147066Y46736
X145161Y45339
X142748Y46863
X147066Y48133
X147066Y51943
X149733Y53721
X144907Y51054
X143129Y49403
X131064Y54610
X130937Y52959
X107569Y55626
X107696Y52324
X112776Y35687
X149860Y32004
X115316Y39116
X125095Y40640
X133858Y36449
X124206Y48006
X128016Y49276
X122936Y46863
X123825Y46609
X122301Y47752
X111506Y52730
X105156Y33020
X123571Y52197
X125476Y52578
X129286Y52578
X125603Y42545
X126238Y41783
X125222Y43383
X111516Y33528
X109220Y33528
X129413Y43739
X108585Y36068
X129921Y44958
X132646Y45923
X138176Y36957
X134747Y36449
X131699Y45974
X130937Y44069
X136271Y44696
X130048Y42828
X130810Y41402
X129286Y39497
X127889Y42672
X141986Y33909
X127635Y41783
X141859Y39497
X130302Y39624
X117196Y36449
X123952Y37592
X117221Y38227
X125476Y36830
X117196Y37287
X117475Y40005
X127000Y43180
X13970Y74676
X15748Y74676
X17780Y78232
X11430Y78486
X8890Y72136
X9017Y78486
X20320Y81280
X20320Y79756
X25400Y79756
X29210Y76454
X25400Y76581
X25273Y73660
X25146Y69215
X30988Y69723
X35179Y72136
X35179Y74676
X35179Y67056
X12700Y66040
X20066Y67056
X5080Y68961
X6350Y60833
X4699Y58801
X34290Y63119
X36830Y63246
X28575Y58674
X45085Y64516
X42418Y68707
X42418Y61087
X47117Y73660
X44450Y75184
X42545Y73787
X40132Y75311
X44450Y76581
X44450Y80391
X47117Y82169
X42291Y79502
X40513Y77851
X28448Y83058
X28321Y81407
X4953Y84074
X5080Y80772
X10160Y64135
X47244Y60452
X12700Y67564
X22479Y69088
X31242Y64897
X21590Y76454
X25400Y77724
X20320Y75311
X21209Y75057
X19685Y76200
X8890Y81178
X2540Y61468
X20955Y80645
X22860Y81026
X26670Y81026
X22987Y70993
X23622Y70231
X22606Y71831
X8900Y61976
X6604Y61976
X26797Y72187
X5969Y64516
X27305Y73406
X30030Y74371
X35560Y65405
X32131Y64897
X29083Y74422
X28321Y72517
X33655Y73144
X27432Y71276
X28194Y69850
X26670Y67945
X25273Y71120
X39370Y62357
X25019Y70231
X39243Y67945
X27686Y68072
X14580Y64897
X21336Y66040
X14605Y66675
X22860Y65278
X14580Y65735
X14859Y68453
X24384Y71628
X65278Y74676
X67056Y74676
X69088Y78232
X62738Y78486
X60198Y72136
X60325Y78486
X71628Y81280
X71628Y79756
X76708Y79756
X80518Y76454
X76708Y76581
X76581Y73660
X76454Y69215
X82296Y69723
X86487Y72136
X86487Y74676
X86487Y67056
X64008Y66040
X71374Y67056
X56388Y68961
X57658Y60833
X56007Y58801
X85598Y63119
X84963Y16248
X79883Y58674
X96393Y64516
X93726Y68707
X93726Y61087
X98425Y73660
X95758Y75184
X93853Y73787
X91440Y75311
X95758Y76581
X95758Y80391
X98425Y82169
X93599Y79502
X91821Y77851
X79756Y83058
X79629Y81407
X56261Y84074
X56388Y80772
X61468Y64135
X98552Y60452
X64008Y67564
X73787Y69088
X82550Y64897
X72898Y76454
X76708Y77724
X71628Y75311
X72517Y75057
X70993Y76200
X60198Y81178
X53848Y61468
X72263Y80645
X74168Y81026
X77978Y81026
X74295Y70993
X74930Y70231
X73914Y71831
X60208Y61976
X57912Y61976
X78105Y72187
X57277Y64516
X78613Y73406
X81338Y74371
X86868Y65405
X83439Y64897
X80391Y74422
X79629Y72517
X84963Y73144
X78740Y71276
X79502Y69850
X77978Y67945
X76581Y71120
X90678Y62357
X76327Y70231
X90551Y67945
X78994Y68072
X65888Y64897
X72644Y66040
X65913Y66675
X74168Y65278
X65888Y65735
X66167Y68453
X75692Y71628
X116586Y74676
X118364Y74676
X120396Y78232
X114046Y78486
X111506Y72136
X111633Y78486
X122936Y81280
X122936Y79756
X128016Y79756
X131826Y76454
X128016Y76581
X127889Y73660
X127762Y69215
X133604Y69723
X137795Y72136
X137795Y74676
X137795Y67056
X115316Y66040
X122682Y67056
X107696Y68961
X108966Y60833
X107315Y58801
X136906Y63119
X139446Y63246
X131191Y58674
X147701Y64516
X145034Y68707
X145034Y61087
X149733Y73660
X147066Y75184
X145161Y73787
X142748Y75311
X147066Y76581
X147066Y80391
X149733Y82169
X144907Y79502
X143129Y77851
X131064Y83058
X130937Y81407
X107569Y84074
X107696Y80772
X112776Y64135
X149860Y60452
X115316Y67564
X125095Y69088
X133858Y64897
X124206Y76454
X128016Y77724
X122936Y75311
X123825Y75057
X122301Y76200
X111506Y81178
X105156Y61468
X123571Y80645
X125476Y81026
X129286Y81026
X125603Y70993
X126238Y70231
X125222Y71831
X111516Y61976
X109220Y61976
X129413Y72187
X108585Y64516
X129921Y73406
X132646Y74371
X138176Y65405
X134747Y64897
X131699Y74422
X130937Y72517
X136271Y73144
X130048Y71276
X130810Y69850
X129286Y67945
X127889Y71120
X141986Y62357
X127635Y70231
X141859Y67945
X130302Y68072
X117196Y64897
X123952Y66040
X117221Y66675
X125476Y65278
X117196Y65735
X117475Y68453
X127000Y71628
X13970Y103124
X15748Y103124
X17780Y106680
X11430Y106934
X8890Y100584
X9017Y106934
X20320Y109728
X20320Y108204
X25400Y108204
X29210Y104902
X25400Y105029
X25273Y102108
X25146Y97663
X30988Y98171
X35179Y100584
X35179Y103124
X35179Y95504
X12700Y94488
X20066Y95504
X5080Y97409
X6350Y89281
X4699Y87249
X34290Y91567
X36830Y91694
X28575Y87122
X45085Y92964
X42418Y97155
X42418Y89535
X47117Y102108
X44450Y103632
X42545Y102235
X40132Y103759
X44450Y105029
X44450Y108839
X47117Y110617
X42291Y107950
X40513Y106299
X28448Y111506
X28321Y109855
X4953Y112522
X5080Y109220
X10160Y92583
X47244Y88900
X12700Y96012
X22479Y97536
X31242Y93345
X21590Y104902
X25400Y106172
X20320Y103759
X21209Y103505
X19685Y104648
X8890Y109626
X2540Y89916
X20955Y109093
X22860Y109474
X26670Y109474
X22987Y99441
X23622Y98679
X22606Y100279
X8900Y90424
X6604Y90424
X26797Y100635
X5969Y92964
X27305Y101854
X30030Y102819
X35560Y93853
X32131Y93345
X29083Y102870
X28321Y100965
X33655Y101592
X27432Y99724
X28194Y98298
X26670Y96393
X25273Y99568
X39370Y90805
X25019Y98679
X39243Y96393
X27686Y96520
X14580Y93345
X21336Y94488
X14605Y95123
X22860Y93726
X14580Y94183
X14859Y96901
X24384Y100076
X65278Y103124
X67056Y103124
X69088Y106680
X62738Y106934
X60198Y100584
X60325Y106934
X71628Y109728
X71628Y108204
X76708Y108204
X80518Y104902
X76708Y105029
X76581Y102108
X76454Y97663
X82296Y98171
X86487Y100584
X86487Y103124
X86487Y95504
X64008Y94488
X71374Y95504
X56388Y97409
X57658Y89281
X56007Y87249
X85598Y91567
X88138Y91694
X79883Y87122
X96393Y92964
X93726Y97155
X93726Y89535
X98425Y102108
X95758Y103632
X93853Y102235
X91440Y103759
X95758Y105029
X95758Y108839
X98425Y110617
X93599Y107950
X91821Y106299
X79756Y111506
X79629Y109855
X56261Y112522
X56388Y109220
X61468Y92583
X98552Y88900
X64008Y96012
X73787Y97536
X82550Y93345
X72898Y104902
X76708Y106172
X71628Y103759
X72517Y103505
X70993Y104648
X60198Y109626
X53848Y89916
X72263Y109093
X74168Y109474
X77978Y109474
X74295Y99441
X74930Y98679
X73914Y100279
X60208Y90424
X57912Y90424
X78105Y100635
X57277Y92964
X78613Y101854
X81338Y102819
X86868Y93853
X83439Y93345
X80391Y102870
X79629Y100965
X84963Y101592
X78740Y99724
X79502Y98298
X77978Y96393
X76581Y99568
X90678Y90805
X76327Y98679
X90551Y96393
X13970Y17780
X65888Y93345
X72644Y94488
X65913Y95123
X74168Y93726
X65888Y94183
X66167Y96901
X75692Y100076
X116586Y103124
X118364Y103124
X120396Y106680
X114046Y106934
X111506Y100584
X111633Y106934
X122936Y109728
X122936Y108204
X128016Y108204
X131826Y104902
X128016Y105029
X127889Y102108
X127762Y97663
X133604Y98171
X137795Y100584
X137795Y103124
X137795Y95504
X115316Y94488
X122682Y95504
X107696Y97409
X108966Y89281
X107315Y87249
X136906Y91567
X139446Y91694
X131191Y87122
X147701Y92964
X145034Y97155
X145034Y89535
X149733Y102108
X147066Y103632
X145161Y102235
X142748Y103759
X147066Y105029
X147066Y108839
X149733Y110617
X144907Y107950
X143129Y106299
X131064Y111506
X130937Y109855
X107569Y112522
X107696Y109220
X112776Y92583
X149860Y88900
X115316Y96012
X125095Y97536
X133858Y93345
X124206Y104902
X128016Y106172
X122936Y103759
X123825Y103505
X122301Y104648
X111506Y109626
X105156Y89916
X123571Y109093
X125476Y109474
X129286Y109474
X125603Y99441
X126238Y98679
X125222Y100279
X111516Y90424
X109220Y90424
X129413Y100635
X108585Y92964
X129921Y101854
X132646Y102819
X138176Y93853
X134747Y93345
X131699Y102870
X130937Y100965
X136271Y101592
X130048Y99724
X130810Y98298
X129286Y96393
X127889Y99568
X141986Y90805
X127635Y98679
X141859Y96393
X130302Y96520
X117196Y93345
X123952Y94488
X117221Y95123
X125476Y93726
X117196Y94183
X117475Y96901
X127000Y100076
X15748Y17780
X17780Y21336
X11430Y21590
X8890Y15240
X9017Y21590
X20320Y24384
X20320Y22860
X25400Y22860
X29210Y19558
X25400Y19685
X25273Y16764
X25146Y12319
X30988Y12827
X35179Y15240
X35179Y17780
X35179Y10160
X12700Y9144
X20066Y10160
X5080Y12065
X6350Y3937
X4699Y1905
X34290Y6223
X36830Y6350
X28575Y1778
X45085Y7620
X42418Y11811
X42418Y4191
X47117Y16764
X44450Y18288
X42545Y16891
X40132Y18415
X44450Y19685
X44450Y23495
X47117Y25273
X42291Y22606
X40513Y20955
X28448Y26162
X28321Y24511
X4953Y27178
X5080Y23876
X10160Y7239
X47244Y3556
X12700Y10668
X22479Y12192
X31242Y8001
X21590Y19558
X25400Y20828
X20320Y18415
X21209Y18161
X19685Y19304
X8890Y24282
X2540Y4572
X20955Y23749
X22860Y24130
X26670Y24130
X22987Y14097
X23622Y13335
X22606Y14935
X8900Y5080
X6604Y5080
X26797Y15291
X88138Y63246
X5969Y7620
X27305Y16510
X30030Y17475
X35560Y8509
X32131Y8001
X29083Y17526
X28321Y15621
X33655Y16248
X27432Y14380
X28194Y12954
X26670Y11049
X25273Y14224
X39370Y5461
X25019Y13335
X39243Y11049
X27686Y11176
X14580Y8001
X21336Y9144
X14605Y9779
X22860Y8382
X14580Y8839
X14859Y11557
X24384Y14732
X65278Y17780
X67056Y17780
X69088Y21336
X62738Y21590
X60198Y15240
X60325Y21590
X71628Y24384
X71628Y22860
X76708Y22860
X80518Y19558
X76708Y19685
X76581Y16764
X76454Y12319
X82296Y12827
X86487Y15240
X86487Y17780
X86487Y10160
X64008Y9144
X71374Y10160
X56388Y12065
X57658Y3937
X56007Y1905
X85598Y6223
X88138Y6350
X79883Y1778
X96393Y7620
X93726Y11811
X93726Y4191
X98425Y16764
X95758Y18288
X93853Y16891
X91440Y18415
X95758Y19685
X95758Y23495
X98425Y25273
X93599Y22606
X91821Y20955
X79756Y26162
X79629Y24511
X56261Y27178
X56388Y23876
X61468Y7239
X98552Y3556
X64008Y10668
X73787Y12192
X82550Y8001
X72898Y19558
X76708Y20828
X71628Y18415
X72517Y18161
X70993Y19304
X60198Y24282
X53848Y4572
X72263Y23749
X74168Y24130
X77978Y24130
X74295Y14097
X74930Y13335
X73914Y14935
X60208Y5080
X57912Y5080
X78105Y15291
X57277Y7620
X78613Y16510
X81338Y17475
X86868Y8509
X83439Y8001
X80391Y17526
X79629Y15621
X78740Y14380
X79502Y12954
X77978Y11049
X76581Y14224
X90678Y5461
X76327Y13335
X90551Y11049
X78994Y11176
X65888Y8001
X72644Y9144
X65913Y9779
X74168Y8382
X65888Y8839
X66167Y11557
X75692Y14732
X116586Y17780
X118364Y17780
X120396Y21336
X114046Y21590
X111506Y15240
X111633Y21590
X122936Y24384
X122936Y22860
X128016Y22860
X131826Y19558
X128016Y19685
X127889Y16764
X127762Y12319
X133604Y12827
X137795Y15240
X137795Y17780
X137795Y10160
X115316Y9144
X122682Y10160
X107696Y12065
X108966Y3937
X107315Y1905
X136906Y6223
X139446Y6350
X131191Y1778
X147701Y7620
X145034Y11811
X145034Y4191
X149733Y16764
X147066Y18288
X145161Y16891
X142748Y18415
X147066Y19685
X147066Y23495
X149733Y25273
X144907Y22606
X143129Y20955
X131064Y26162
X130937Y24511
X107569Y27178
X107696Y23876
X112776Y7239
X149860Y3556
X115316Y10668
X125095Y12192
X133858Y8001
X78994Y96520
M30