G04 EAGLE Gerber RS-274X export*
G75*
%MOMM*%
%FSLAX34Y34*%
%LPD*%
%INSolderpaste Bottom*%
%IPPOS*%
%AMOC8*
5,1,8,0,0,1.08239X$1,22.5*%
G01*
%ADD10R,2.200000X3.400000*%
%ADD11R,3.254000X2.254000*%
%ADD12C,0.102000*%


D10*
X78600Y258211D03*
D11*
X409600Y227211D03*
X409600Y201811D03*
X409600Y72611D03*
X409600Y47211D03*
D10*
X104000Y258211D03*
X129400Y258211D03*
X154800Y258211D03*
X180200Y258211D03*
X205600Y258211D03*
X231000Y258211D03*
X256400Y258211D03*
X281800Y258211D03*
X78600Y16911D03*
X104000Y16911D03*
X129400Y16911D03*
X154800Y16911D03*
X180200Y16911D03*
X205600Y16911D03*
X231000Y16911D03*
X256400Y16911D03*
X281800Y16911D03*
D12*
X442010Y214651D02*
X442010Y219631D01*
X446990Y219631D01*
X446990Y214651D01*
X442010Y214651D01*
X442010Y215620D02*
X446990Y215620D01*
X446990Y216589D02*
X442010Y216589D01*
X442010Y217558D02*
X446990Y217558D01*
X446990Y218527D02*
X442010Y218527D01*
X442010Y219496D02*
X446990Y219496D01*
X442010Y209631D02*
X442010Y204651D01*
X442010Y209631D02*
X446990Y209631D01*
X446990Y204651D01*
X442010Y204651D01*
X442010Y205620D02*
X446990Y205620D01*
X446990Y206589D02*
X442010Y206589D01*
X442010Y207558D02*
X446990Y207558D01*
X446990Y208527D02*
X442010Y208527D01*
X442010Y209496D02*
X446990Y209496D01*
D10*
X591680Y258211D03*
D11*
X922680Y227211D03*
X922680Y201811D03*
X922680Y72611D03*
X922680Y47211D03*
D10*
X617080Y258211D03*
X642480Y258211D03*
X667880Y258211D03*
X693280Y258211D03*
X718680Y258211D03*
X744080Y258211D03*
X769480Y258211D03*
X794880Y258211D03*
X591680Y16911D03*
X617080Y16911D03*
X642480Y16911D03*
X667880Y16911D03*
X693280Y16911D03*
X718680Y16911D03*
X744080Y16911D03*
X769480Y16911D03*
X794880Y16911D03*
D12*
X955090Y214651D02*
X955090Y219631D01*
X960070Y219631D01*
X960070Y214651D01*
X955090Y214651D01*
X955090Y215620D02*
X960070Y215620D01*
X960070Y216589D02*
X955090Y216589D01*
X955090Y217558D02*
X960070Y217558D01*
X960070Y218527D02*
X955090Y218527D01*
X955090Y219496D02*
X960070Y219496D01*
X955090Y209631D02*
X955090Y204651D01*
X955090Y209631D02*
X960070Y209631D01*
X960070Y204651D01*
X955090Y204651D01*
X955090Y205620D02*
X960070Y205620D01*
X960070Y206589D02*
X955090Y206589D01*
X955090Y207558D02*
X960070Y207558D01*
X960070Y208527D02*
X955090Y208527D01*
X955090Y209496D02*
X960070Y209496D01*
D10*
X78600Y537687D03*
D11*
X409600Y506687D03*
X409600Y481287D03*
X409600Y352087D03*
X409600Y326687D03*
D10*
X104000Y537687D03*
X129400Y537687D03*
X154800Y537687D03*
X180200Y537687D03*
X205600Y537687D03*
X231000Y537687D03*
X256400Y537687D03*
X281800Y537687D03*
X78600Y296387D03*
X104000Y296387D03*
X129400Y296387D03*
X154800Y296387D03*
X180200Y296387D03*
X205600Y296387D03*
X231000Y296387D03*
X256400Y296387D03*
X281800Y296387D03*
D12*
X442010Y494127D02*
X442010Y499107D01*
X446990Y499107D01*
X446990Y494127D01*
X442010Y494127D01*
X442010Y495096D02*
X446990Y495096D01*
X446990Y496065D02*
X442010Y496065D01*
X442010Y497034D02*
X446990Y497034D01*
X446990Y498003D02*
X442010Y498003D01*
X442010Y498972D02*
X446990Y498972D01*
X442010Y489107D02*
X442010Y484127D01*
X442010Y489107D02*
X446990Y489107D01*
X446990Y484127D01*
X442010Y484127D01*
X442010Y485096D02*
X446990Y485096D01*
X446990Y486065D02*
X442010Y486065D01*
X442010Y487034D02*
X446990Y487034D01*
X446990Y488003D02*
X442010Y488003D01*
X442010Y488972D02*
X446990Y488972D01*
D10*
X591680Y537687D03*
D11*
X922680Y506687D03*
X922680Y481287D03*
X922680Y352087D03*
X922680Y326687D03*
D10*
X617080Y537687D03*
X642480Y537687D03*
X667880Y537687D03*
X693280Y537687D03*
X718680Y537687D03*
X744080Y537687D03*
X769480Y537687D03*
X794880Y537687D03*
X591680Y296387D03*
X617080Y296387D03*
X642480Y296387D03*
X667880Y296387D03*
X693280Y296387D03*
X718680Y296387D03*
X744080Y296387D03*
X769480Y296387D03*
X794880Y296387D03*
D12*
X955090Y494127D02*
X955090Y499107D01*
X960070Y499107D01*
X960070Y494127D01*
X955090Y494127D01*
X955090Y495096D02*
X960070Y495096D01*
X960070Y496065D02*
X955090Y496065D01*
X955090Y497034D02*
X960070Y497034D01*
X960070Y498003D02*
X955090Y498003D01*
X955090Y498972D02*
X960070Y498972D01*
X955090Y489107D02*
X955090Y484127D01*
X955090Y489107D02*
X960070Y489107D01*
X960070Y484127D01*
X955090Y484127D01*
X955090Y485096D02*
X960070Y485096D01*
X960070Y486065D02*
X955090Y486065D01*
X955090Y487034D02*
X960070Y487034D01*
X960070Y488003D02*
X955090Y488003D01*
X955090Y488972D02*
X960070Y488972D01*
D10*
X78600Y817163D03*
D11*
X409600Y786163D03*
X409600Y760763D03*
X409600Y631563D03*
X409600Y606163D03*
D10*
X104000Y817163D03*
X129400Y817163D03*
X154800Y817163D03*
X180200Y817163D03*
X205600Y817163D03*
X231000Y817163D03*
X256400Y817163D03*
X281800Y817163D03*
X78600Y575863D03*
X104000Y575863D03*
X129400Y575863D03*
X154800Y575863D03*
X180200Y575863D03*
X205600Y575863D03*
X231000Y575863D03*
X256400Y575863D03*
X281800Y575863D03*
D12*
X442010Y773603D02*
X442010Y778583D01*
X446990Y778583D01*
X446990Y773603D01*
X442010Y773603D01*
X442010Y774572D02*
X446990Y774572D01*
X446990Y775541D02*
X442010Y775541D01*
X442010Y776510D02*
X446990Y776510D01*
X446990Y777479D02*
X442010Y777479D01*
X442010Y778448D02*
X446990Y778448D01*
X442010Y768583D02*
X442010Y763603D01*
X442010Y768583D02*
X446990Y768583D01*
X446990Y763603D01*
X442010Y763603D01*
X442010Y764572D02*
X446990Y764572D01*
X446990Y765541D02*
X442010Y765541D01*
X442010Y766510D02*
X446990Y766510D01*
X446990Y767479D02*
X442010Y767479D01*
X442010Y768448D02*
X446990Y768448D01*
D10*
X591680Y817163D03*
D11*
X922680Y786163D03*
X922680Y760763D03*
X922680Y631563D03*
X922680Y606163D03*
D10*
X617080Y817163D03*
X642480Y817163D03*
X667880Y817163D03*
X693280Y817163D03*
X718680Y817163D03*
X744080Y817163D03*
X769480Y817163D03*
X794880Y817163D03*
X591680Y575863D03*
X617080Y575863D03*
X642480Y575863D03*
X667880Y575863D03*
X693280Y575863D03*
X718680Y575863D03*
X744080Y575863D03*
X769480Y575863D03*
X794880Y575863D03*
D12*
X955090Y773603D02*
X955090Y778583D01*
X960070Y778583D01*
X960070Y773603D01*
X955090Y773603D01*
X955090Y774572D02*
X960070Y774572D01*
X960070Y775541D02*
X955090Y775541D01*
X955090Y776510D02*
X960070Y776510D01*
X960070Y777479D02*
X955090Y777479D01*
X955090Y778448D02*
X960070Y778448D01*
X955090Y768583D02*
X955090Y763603D01*
X955090Y768583D02*
X960070Y768583D01*
X960070Y763603D01*
X955090Y763603D01*
X955090Y764572D02*
X960070Y764572D01*
X960070Y765541D02*
X955090Y765541D01*
X955090Y766510D02*
X960070Y766510D01*
X960070Y767479D02*
X955090Y767479D01*
X955090Y768448D02*
X960070Y768448D01*
D10*
X78600Y1096639D03*
D11*
X409600Y1065639D03*
X409600Y1040239D03*
X409600Y911039D03*
X409600Y885639D03*
D10*
X104000Y1096639D03*
X129400Y1096639D03*
X154800Y1096639D03*
X180200Y1096639D03*
X205600Y1096639D03*
X231000Y1096639D03*
X256400Y1096639D03*
X281800Y1096639D03*
X78600Y855339D03*
X104000Y855339D03*
X129400Y855339D03*
X154800Y855339D03*
X180200Y855339D03*
X205600Y855339D03*
X231000Y855339D03*
X256400Y855339D03*
X281800Y855339D03*
D12*
X442010Y1053079D02*
X442010Y1058059D01*
X446990Y1058059D01*
X446990Y1053079D01*
X442010Y1053079D01*
X442010Y1054048D02*
X446990Y1054048D01*
X446990Y1055017D02*
X442010Y1055017D01*
X442010Y1055986D02*
X446990Y1055986D01*
X446990Y1056955D02*
X442010Y1056955D01*
X442010Y1057924D02*
X446990Y1057924D01*
X442010Y1048059D02*
X442010Y1043079D01*
X442010Y1048059D02*
X446990Y1048059D01*
X446990Y1043079D01*
X442010Y1043079D01*
X442010Y1044048D02*
X446990Y1044048D01*
X446990Y1045017D02*
X442010Y1045017D01*
X442010Y1045986D02*
X446990Y1045986D01*
X446990Y1046955D02*
X442010Y1046955D01*
X442010Y1047924D02*
X446990Y1047924D01*
D10*
X591680Y1096639D03*
D11*
X922680Y1065639D03*
X922680Y1040239D03*
X922680Y911039D03*
X922680Y885639D03*
D10*
X617080Y1096639D03*
X642480Y1096639D03*
X667880Y1096639D03*
X693280Y1096639D03*
X718680Y1096639D03*
X744080Y1096639D03*
X769480Y1096639D03*
X794880Y1096639D03*
X591680Y855339D03*
X617080Y855339D03*
X642480Y855339D03*
X667880Y855339D03*
X693280Y855339D03*
X718680Y855339D03*
X744080Y855339D03*
X769480Y855339D03*
X794880Y855339D03*
D12*
X955090Y1053079D02*
X955090Y1058059D01*
X960070Y1058059D01*
X960070Y1053079D01*
X955090Y1053079D01*
X955090Y1054048D02*
X960070Y1054048D01*
X960070Y1055017D02*
X955090Y1055017D01*
X955090Y1055986D02*
X960070Y1055986D01*
X960070Y1056955D02*
X955090Y1056955D01*
X955090Y1057924D02*
X960070Y1057924D01*
X955090Y1048059D02*
X955090Y1043079D01*
X955090Y1048059D02*
X960070Y1048059D01*
X960070Y1043079D01*
X955090Y1043079D01*
X955090Y1044048D02*
X960070Y1044048D01*
X960070Y1045017D02*
X955090Y1045017D01*
X955090Y1045986D02*
X960070Y1045986D01*
X960070Y1046955D02*
X955090Y1046955D01*
X955090Y1047924D02*
X960070Y1047924D01*
D10*
X78600Y1376141D03*
D11*
X409600Y1345141D03*
X409600Y1319741D03*
X409600Y1190541D03*
X409600Y1165141D03*
D10*
X104000Y1376141D03*
X129400Y1376141D03*
X154800Y1376141D03*
X180200Y1376141D03*
X205600Y1376141D03*
X231000Y1376141D03*
X256400Y1376141D03*
X281800Y1376141D03*
X78600Y1134841D03*
X104000Y1134841D03*
X129400Y1134841D03*
X154800Y1134841D03*
X180200Y1134841D03*
X205600Y1134841D03*
X231000Y1134841D03*
X256400Y1134841D03*
X281800Y1134841D03*
D12*
X442010Y1332581D02*
X442010Y1337561D01*
X446990Y1337561D01*
X446990Y1332581D01*
X442010Y1332581D01*
X442010Y1333550D02*
X446990Y1333550D01*
X446990Y1334519D02*
X442010Y1334519D01*
X442010Y1335488D02*
X446990Y1335488D01*
X446990Y1336457D02*
X442010Y1336457D01*
X442010Y1337426D02*
X446990Y1337426D01*
X442010Y1327561D02*
X442010Y1322581D01*
X442010Y1327561D02*
X446990Y1327561D01*
X446990Y1322581D01*
X442010Y1322581D01*
X442010Y1323550D02*
X446990Y1323550D01*
X446990Y1324519D02*
X442010Y1324519D01*
X442010Y1325488D02*
X446990Y1325488D01*
X446990Y1326457D02*
X442010Y1326457D01*
X442010Y1327426D02*
X446990Y1327426D01*
D10*
X591680Y1376141D03*
D11*
X922680Y1345141D03*
X922680Y1319741D03*
X922680Y1190541D03*
X922680Y1165141D03*
D10*
X617080Y1376141D03*
X642480Y1376141D03*
X667880Y1376141D03*
X693280Y1376141D03*
X718680Y1376141D03*
X744080Y1376141D03*
X769480Y1376141D03*
X794880Y1376141D03*
X591680Y1134841D03*
X617080Y1134841D03*
X642480Y1134841D03*
X667880Y1134841D03*
X693280Y1134841D03*
X718680Y1134841D03*
X744080Y1134841D03*
X769480Y1134841D03*
X794880Y1134841D03*
D12*
X955090Y1332581D02*
X955090Y1337561D01*
X960070Y1337561D01*
X960070Y1332581D01*
X955090Y1332581D01*
X955090Y1333550D02*
X960070Y1333550D01*
X960070Y1334519D02*
X955090Y1334519D01*
X955090Y1335488D02*
X960070Y1335488D01*
X960070Y1336457D02*
X955090Y1336457D01*
X955090Y1337426D02*
X960070Y1337426D01*
X955090Y1327561D02*
X955090Y1322581D01*
X955090Y1327561D02*
X960070Y1327561D01*
X960070Y1322581D01*
X955090Y1322581D01*
X955090Y1323550D02*
X960070Y1323550D01*
X960070Y1324519D02*
X955090Y1324519D01*
X955090Y1325488D02*
X960070Y1325488D01*
X960070Y1326457D02*
X955090Y1326457D01*
X955090Y1327426D02*
X960070Y1327426D01*
M02*
