M48
;GenerationSoftware,Autodesk,EAGLE,9.6.2*%
;CreationDate,2022-08-30T17:15:40Z*%
FMAT,2
ICI,OFF
METRIC,TZ,000.000
T5C0.305
T4C0.508
T3C0.650
T2C0.700
T1C1.016
%
G90
M71
T1
X81788Y115354
X84328Y87404
X30480Y87404
X81788Y3561
X84328Y3561
X33020Y87404
X84328Y115354
X81788Y59456
X30480Y59456
X84328Y59456
X33020Y59456
X30480Y31509
X30480Y3561
X81788Y31509
X84328Y31509
X33020Y3561
X33020Y31509
X81788Y87404
X33020Y115354
X30480Y115354
T2
X47360Y40399
X49160Y40399
X98668Y40399
X100468Y40399
X47360Y68346
X49160Y68346
X98668Y68346
X100468Y68346
X47360Y96294
X49160Y96294
X98668Y12451
X98668Y96294
X100468Y96294
X47360Y124244
X49160Y124244
X98668Y124244
X100468Y124244
X47360Y12451
X49160Y12451
X100468Y12451
T3
X6175Y127704
X57483Y105534
X6175Y99754
X6175Y105534
X57483Y71806
X57483Y77586
X6175Y71806
X6175Y77586
X57483Y43859
X57483Y49639
X6175Y43859
X6175Y49639
X57483Y99754
X57483Y15911
X57483Y21691
X6175Y15911
X6175Y21691
X57483Y133484
X57483Y127704
X6175Y133484
T4
X77978Y4196
X79248Y4196
X74168Y4196
X75438Y5466
X76708Y5466
X79248Y5466
X74168Y5466
X24130Y32144
X25400Y32144
X26670Y32144
X27940Y32144
X22860Y32144
X24130Y33414
X25400Y33414
X26670Y33414
X27940Y33414
X22860Y33414
X75438Y32144
X76708Y32144
X77978Y32144
X77978Y5466
X74168Y32144
X75438Y33414
X76708Y33414
X77978Y33414
X79248Y33414
X74168Y33414
X24130Y4196
X25400Y4196
X24130Y60091
X25400Y60091
X26670Y60091
X27940Y60091
X22860Y60091
X24130Y61361
X25400Y61361
X26670Y61361
X27940Y61361
X22860Y61361
X26670Y4196
X79248Y32144
X75438Y60091
X76708Y60091
X77978Y60091
X79248Y60091
X74168Y60091
X75438Y61361
X76708Y61361
X77978Y61361
X79248Y61361
X74168Y61361
X27940Y4196
X22860Y4196
X24130Y88039
X25400Y88039
X26670Y88039
X27940Y88039
X22860Y88039
X24130Y89309
X24130Y5466
X26670Y89309
X27940Y89309
X22860Y89309
X25400Y5466
X26670Y5466
X75438Y88039
X76708Y88039
X77978Y88039
X79248Y88039
X74168Y88039
X75438Y89309
X76708Y89309
X77978Y89309
X79248Y89309
X74168Y89309
X27940Y5466
X22860Y5466
X24130Y115989
X25400Y115989
X25400Y89309
X27940Y115989
X22860Y115989
X24130Y117259
X25400Y117259
X26670Y117259
X27940Y117259
X22860Y117259
X75438Y4196
X76708Y4196
X75438Y115989
X76708Y115989
X77978Y115989
X79248Y115989
X74168Y115989
X75438Y117259
X76708Y117259
X77978Y117259
X79248Y117259
X74168Y117259
X26670Y115989
T5
X90424Y21595
X81153Y25659
X79502Y23881
X55118Y26802
X56261Y23119
X98552Y3307
X73914Y11689
X89662Y7371
X70358Y7371
X92710Y8641
X69088Y11689
X66421Y3434
X88138Y16261
X88138Y21341
X84328Y9022
X71628Y3561
X95758Y24897
X97028Y24897
X99568Y24897
X95758Y16515
X97028Y16515
X99568Y16515
X92202Y24008
X90424Y24008
X70358Y11689
X63627Y16388
X67183Y8895
X66421Y16515
X61595Y19309
X57531Y4831
X85217Y17531
X78232Y12705
X77978Y14229
X55118Y21341
X55118Y18801
X81788Y17531
X85598Y23881
X72898Y19309
X76708Y20579
X85217Y21341
X94361Y2291
X71628Y18166
X62560Y22357
X72517Y17912
X70993Y19055
X61722Y23779
X54864Y11816
X57531Y11181
X59817Y14629
X67310Y11689
X65278Y20071
X72263Y23500
X74168Y23881
X77978Y23881
X74295Y14102
X61722Y3593
X75057Y13086
X66929Y4959
X73787Y14813
X60198Y3561
X64008Y8641
X60198Y6990
X78613Y16261
X57785Y7752
X54483Y8006
X68453Y4323
X78867Y14131
X82818Y6990
X95758Y12451
X79502Y12705
X81915Y7244
X97028Y14991
X77978Y10800
X99568Y8641
X81145Y4966
X98298Y9276
X75819Y13594
X98933Y5339
X76602Y13996
X99060Y6355
X78994Y10800
X67691Y3434
X64008Y3815
X64008Y6863
X66548Y10800
X73152Y8133
X74930Y16236
X54356Y5593
X63754Y9784
X78232Y15118
X54483Y9403
X54483Y6736
X79070Y14991
X95885Y10546
X17780Y47257
X13970Y40145
X17780Y49035
X15240Y48019
X9652Y34303
X8890Y50559
X19304Y52083
X20320Y50559
X25400Y50559
X29210Y47257
X25400Y47384
X25273Y44463
X25273Y39637
X31496Y41415
X33909Y40399
X38608Y48146
X36830Y39129
X20066Y37859
X12192Y48781
X4699Y31128
X4445Y29350
X29972Y29731
X39370Y36716
X42926Y39637
X43053Y35319
X46990Y44463
X44450Y45987
X43307Y44463
X42799Y48146
X44450Y47384
X43942Y51067
X46990Y52845
X42672Y51956
X39116Y49543
X29845Y53607
X28194Y51829
X3810Y54750
X4953Y51067
X47244Y31255
X22606Y39637
X38354Y35319
X19050Y35319
X41402Y36589
X17780Y39637
X15113Y31382
X36830Y44209
X36830Y49289
X33020Y36970
X20320Y31509
X44450Y52845
X45720Y52845
X48260Y52845
X44450Y44463
X45720Y44463
X48260Y44463
X40894Y51956
X39116Y51956
X19050Y39637
X12319Y44336
X15875Y36843
X15113Y44463
X10287Y47257
X6223Y32779
X33909Y45479
X26924Y40653
X26670Y42177
X3810Y49289
X3810Y46749
X30480Y45479
X34290Y51829
X21590Y47257
X25400Y48527
X33909Y49289
X43053Y30239
X20320Y46114
X11252Y50305
X21209Y45860
X19685Y47003
X10414Y51727
X3556Y39764
X6223Y39129
X8509Y42577
X16002Y39637
X13970Y48019
X20955Y51448
X22860Y51829
X26670Y51829
X22987Y42050
X10414Y31541
X23749Y41034
X15621Y32907
X22479Y42761
X8890Y31509
X12700Y36589
X8890Y34938
X27305Y44209
X6477Y35700
X3175Y35954
X17145Y32271
X27559Y42079
X31510Y34938
X44450Y40399
X28194Y40653
X30607Y35192
X45720Y42939
X26670Y38748
X48260Y36589
X29837Y32913
X46990Y37224
X24511Y41542
X47625Y33287
X25294Y41944
X47752Y34303
X27686Y38748
X16383Y31382
X12700Y31763
X12700Y34811
X15240Y38748
X21844Y36081
X23622Y44183
X3048Y33541
X12446Y37732
X26924Y43066
X3175Y37351
X3175Y34684
X27762Y42939
X44577Y38494
X69088Y47257
X65278Y40145
X69088Y49035
X66548Y48019
X60960Y34303
X60198Y50559
X70612Y52083
X71628Y50559
X76708Y50559
X80518Y47257
X76708Y47384
X76581Y44463
X76581Y39637
X82804Y41415
X85217Y40399
X89916Y48146
X88138Y39129
X71374Y37859
X63500Y48781
X56007Y31128
X55753Y29350
X81280Y29731
X90678Y36716
X94234Y39637
X94361Y35319
X98298Y44463
X95758Y45987
X94615Y44463
X94107Y48146
X95758Y47384
X95250Y51067
X98298Y52845
X93980Y51956
X90424Y49543
X81153Y53607
X79502Y51829
X55118Y54750
X56261Y51067
X98552Y31255
X73914Y39637
X89662Y35319
X70358Y35319
X92710Y36589
X69088Y39637
X66421Y31382
X88138Y44209
X88138Y49289
X84328Y36970
X71628Y31509
X95758Y52845
X97028Y52845
X99568Y52845
X95758Y44463
X97028Y44463
X99568Y44463
X92202Y51956
X90424Y51956
X70358Y39637
X63627Y44336
X67183Y36843
X66421Y44463
X61595Y47257
X57531Y32779
X85217Y45479
X78232Y40653
X77978Y42177
X55118Y49289
X55118Y46749
X81788Y45479
X85598Y51829
X72898Y47257
X76708Y48527
X85217Y49289
X94361Y30239
X71628Y46114
X62560Y50305
X72517Y45860
X70993Y47003
X61722Y51727
X54864Y39764
X57531Y39129
X59817Y42577
X67310Y39637
X65278Y48019
X72263Y51448
X74168Y51829
X77978Y51829
X74295Y42050
X61722Y31541
X75057Y41034
X66929Y32907
X73787Y42761
X60198Y31509
X64008Y36589
X60198Y34938
X78613Y44209
X57785Y35700
X54483Y35954
X68453Y32271
X78867Y42079
X82818Y34938
X95758Y40399
X79502Y40653
X81915Y35192
X97028Y42939
X77978Y38748
X99568Y36589
X81145Y32913
X98298Y37224
X75819Y41542
X98933Y33287
X76602Y41944
X99060Y34303
X78994Y38748
X67691Y31382
X64008Y31763
X64008Y34811
X66548Y38748
X73152Y36081
X74930Y44183
X54356Y33541
X63754Y37732
X78232Y43066
X54483Y37351
X54483Y34684
X79070Y42939
X95885Y38494
X17780Y75204
X13970Y68092
X17780Y76982
X15240Y75966
X9652Y62250
X8890Y78506
X19304Y80030
X20320Y78506
X25400Y78506
X29210Y75204
X25400Y75331
X25273Y72410
X25273Y67584
X31496Y69362
X33909Y68346
X38608Y76093
X36830Y67076
X20066Y65806
X12192Y76728
X4699Y59075
X4445Y57297
X29972Y57678
X39370Y64663
X42926Y67584
X43053Y63266
X46990Y72410
X44450Y73934
X43307Y72410
X42799Y76093
X44450Y75331
X43942Y79014
X46990Y80792
X42672Y79903
X39116Y77490
X29845Y81554
X28194Y79776
X3810Y82697
X4953Y79014
X47244Y59202
X22606Y67584
X38354Y63266
X19050Y63266
X41402Y64536
X17780Y67584
X15113Y59329
X36830Y72156
X36830Y77236
X33020Y64917
X20320Y59456
X44450Y80792
X45720Y80792
X48260Y80792
X44450Y72410
X45720Y72410
X48260Y72410
X40894Y79903
X39116Y79903
X19050Y67584
X12319Y72283
X15875Y64790
X15113Y72410
X10287Y75204
X6223Y60726
X33909Y73426
X26924Y68600
X26670Y70124
X3810Y77236
X3810Y74696
X30480Y73426
X34290Y79776
X21590Y75204
X25400Y76474
X33909Y77236
X43053Y58186
X20320Y74061
X11252Y78252
X21209Y73807
X19685Y74950
X10414Y79675
X3556Y67711
X6223Y67076
X8509Y70524
X16002Y67584
X13970Y75966
X20955Y79395
X22860Y79776
X26670Y79776
X22987Y69997
X10414Y59488
X23749Y68981
X15621Y60854
X22479Y70709
X8890Y59456
X12700Y64536
X8890Y62885
X27305Y72156
X6477Y63647
X3175Y63901
X17145Y60218
X27559Y70027
X31510Y62885
X44450Y68346
X28194Y68600
X30607Y63139
X45720Y70886
X26670Y66695
X48260Y64536
X29837Y60861
X46990Y65171
X24511Y69489
X47625Y61234
X25294Y69892
X47752Y62250
X27686Y66695
X16383Y59329
X12700Y59710
X12700Y62758
X15240Y66695
X21844Y64028
X23622Y72131
X3048Y61488
X12446Y65679
X26924Y71013
X3175Y65298
X3175Y62631
X27762Y70886
X44577Y66441
X69088Y75204
X65278Y68092
X69088Y76982
X66548Y75966
X60960Y62250
X60198Y78506
X70612Y80030
X71628Y78506
X76708Y78506
X80518Y75204
X76708Y75331
X76581Y72410
X76581Y67584
X82804Y69362
X85217Y68346
X89916Y76093
X88138Y67076
X71374Y65806
X63500Y76728
X56007Y59075
X55753Y57297
X81280Y57678
X90678Y64663
X94234Y67584
X94361Y63266
X98298Y72410
X95758Y73934
X94615Y72410
X94107Y76093
X95758Y75331
X95250Y79014
X98298Y80792
X93980Y79903
X90424Y77490
X81153Y81554
X79502Y79776
X55118Y82697
X56261Y79014
X98552Y59202
X73914Y67584
X89662Y63266
X70358Y63266
X92710Y64536
X69088Y67584
X66421Y59329
X88138Y72156
X88138Y77236
X84328Y64917
X71628Y59456
X95758Y80792
X97028Y80792
X99568Y80792
X95758Y72410
X97028Y72410
X99568Y72410
X92202Y79903
X90424Y79903
X70358Y67584
X63627Y72283
X67183Y64790
X66421Y72410
X61595Y75204
X57531Y60726
X85217Y73426
X78232Y68600
X77978Y70124
X55118Y77236
X55118Y74696
X81788Y73426
X85598Y79776
X72898Y75204
X76708Y76474
X85217Y77236
X94361Y58186
X71628Y74061
X62560Y78252
X72517Y73807
X70993Y74950
X61722Y79675
X54864Y67711
X57531Y67076
X59817Y70524
X67310Y67584
X65278Y75966
X72263Y79395
X74168Y79776
X77978Y79776
X74295Y69997
X61722Y59488
X75057Y68981
X66929Y60854
X73787Y70709
X60198Y59456
X64008Y64536
X60198Y62885
X78613Y72156
X57785Y63647
X54483Y63901
X68453Y60218
X78867Y70027
X82818Y62885
X95758Y68346
X79502Y68600
X81915Y63139
X97028Y70886
X77978Y66695
X99568Y64536
X81145Y60861
X98298Y65171
X75819Y69489
X98933Y61234
X76602Y69892
X99060Y62250
X78994Y66695
X67691Y59329
X64008Y59710
X64008Y62758
X66548Y66695
X73152Y64028
X74930Y72131
X54356Y61488
X63754Y65679
X78232Y71013
X54483Y65298
X54483Y62631
X79070Y70886
X95885Y66441
X17780Y103152
X13970Y96040
X17780Y104930
X15240Y103914
X9652Y90198
X8890Y106454
X19304Y107978
X20320Y106454
X25400Y106454
X29210Y103152
X25400Y103279
X25273Y100358
X25273Y95532
X31496Y97310
X33909Y96294
X38608Y104041
X36830Y95024
X20066Y93754
X12192Y104676
X4699Y87023
X4445Y85245
X29972Y85626
X39370Y92611
X42926Y95532
X43053Y91214
X46990Y100358
X44450Y101882
X43307Y100358
X42799Y104041
X44450Y103279
X43942Y106962
X46990Y108740
X42672Y107851
X39116Y105438
X29845Y109502
X28194Y107724
X3810Y110645
X4953Y106962
X47244Y87150
X22606Y95532
X38354Y91214
X19050Y91214
X41402Y92484
X17780Y95532
X15113Y87277
X36830Y100104
X36830Y105184
X33020Y92865
X20320Y87404
X44450Y108740
X45720Y108740
X48260Y108740
X44450Y100358
X45720Y100358
X48260Y100358
X40894Y107851
X39116Y107851
X19050Y95532
X12319Y100231
X15875Y92738
X15113Y100358
X10287Y103152
X6223Y88674
X33909Y101374
X26924Y96548
X26670Y98072
X3810Y105184
X3810Y102644
X30480Y101374
X34290Y107724
X21590Y103152
X25400Y104422
X33909Y105184
X43053Y86134
X20320Y102009
X11252Y106200
X21209Y101755
X19685Y102898
X10414Y107622
X3556Y95659
X6223Y95024
X8509Y98472
X16002Y95532
X13970Y103914
X20955Y107343
X22860Y107724
X26670Y107724
X22987Y97945
X10414Y87436
X23749Y96929
X15621Y88802
X22479Y98656
X8890Y87404
X12700Y92484
X8890Y90833
X27305Y100104
X6477Y91595
X3175Y91849
X17145Y88166
X27559Y97974
X31510Y90833
X44450Y96294
X28194Y96548
X30607Y91087
X45720Y98834
X26670Y94643
X48260Y92484
X29837Y88809
X46990Y93119
X24511Y97437
X47625Y89182
X25294Y97839
X47752Y90198
X27686Y94643
X16383Y87277
X12700Y87658
X12700Y90706
X15240Y94643
X21844Y91976
X23622Y100079
X3048Y89436
X12446Y93627
X26924Y98961
X3175Y93246
X3175Y90579
X27762Y98834
X44577Y94389
X69088Y103152
X65278Y96040
X69088Y104930
X66548Y103914
X60960Y90198
X60198Y106454
X70612Y107978
X71628Y106454
X76708Y106454
X80518Y103152
X76708Y103279
X76581Y100358
X76581Y95532
X82804Y97310
X85217Y96294
X89916Y104041
X88138Y95024
X71374Y93754
X63500Y104676
X56007Y87023
X55753Y85245
X81280Y85626
X90678Y92611
X94234Y95532
X94361Y91214
X98298Y100358
X95758Y101882
X94615Y100358
X94107Y104041
X95758Y103279
X95250Y106962
X98298Y108740
X93980Y107851
X90424Y105438
X81153Y109502
X79502Y107724
X55118Y110645
X56261Y106962
X98552Y87150
X73914Y95532
X89662Y91214
X70358Y91214
X92710Y92484
X69088Y95532
X66421Y87277
X88138Y100104
X88138Y105184
X84328Y92865
X71628Y87404
X95758Y108740
X97028Y108740
X99568Y108740
X95758Y100358
X97028Y100358
X99568Y100358
X92202Y107851
X90424Y107851
X70358Y95532
X63627Y100231
X67183Y92738
X66421Y100358
X61595Y103152
X57531Y88674
X85217Y101374
X78232Y96548
X77978Y98072
X55118Y105184
X55118Y102644
X81788Y101374
X85598Y107724
X72898Y103152
X76708Y104422
X85217Y105184
X94361Y86134
X71628Y102009
X62560Y106200
X72517Y101755
X70993Y102898
X61722Y107622
X54864Y95659
X57531Y95024
X59817Y98472
X67310Y95532
X65278Y103914
X72263Y107343
X74168Y107724
X77978Y107724
X74295Y97945
X61722Y87436
X75057Y96929
X66929Y88802
X73787Y98656
X60198Y87404
X64008Y92484
X60198Y90833
X78613Y100104
X57785Y91595
X54483Y91849
X68453Y88166
X78867Y97974
X82818Y90833
X95758Y96294
X79502Y96548
X81915Y91087
X97028Y98834
X77978Y94643
X99568Y92484
X81145Y88809
X98298Y93119
X75819Y97437
X98933Y89182
X76602Y97839
X99060Y90198
X78994Y94643
X67691Y87277
X64008Y87658
X64008Y90706
X66548Y94643
X73152Y91976
X74930Y100079
X54356Y89436
X63754Y93627
X78232Y98961
X54483Y93246
X54483Y90579
X79070Y98834
X95885Y94389
X17780Y131102
X13970Y123990
X17780Y132880
X15240Y131864
X9652Y118148
X8890Y134404
X19304Y135928
X20320Y134404
X25400Y134404
X29210Y131102
X25400Y131229
X25273Y128308
X25273Y123482
X31496Y125260
X33909Y124244
X38608Y131991
X36830Y122974
X20066Y121704
X12192Y132626
X4699Y114973
X4445Y113195
X29972Y113576
X39370Y120561
X42926Y123482
X43053Y119164
X46990Y128308
X44450Y129832
X43307Y128308
X42799Y131991
X44450Y131229
X43942Y134912
X46990Y136690
X42672Y135801
X39116Y133388
X29845Y137452
X28194Y135674
X3810Y138595
X4953Y134912
X47244Y115100
X22606Y123482
X38354Y119164
X19050Y119164
X41402Y120434
X17780Y123482
X15113Y115227
X36830Y128054
X36830Y133134
X33020Y120815
X20320Y115354
X44450Y136690
X45720Y136690
X48260Y136690
X44450Y128308
X45720Y128308
X48260Y128308
X40894Y135801
X39116Y135801
X17780Y19309
X12319Y128181
X15875Y120688
X15113Y128308
X10287Y131102
X6223Y116624
X33909Y129324
X26924Y124498
X26670Y126022
X3810Y133134
X3810Y130594
X30480Y129324
X34290Y135674
X21590Y131102
X25400Y132372
X33909Y133134
X43053Y114084
X20320Y129959
X11252Y134150
X21209Y129705
X19685Y130848
X10414Y135573
X3556Y123609
X6223Y122974
X8509Y126422
X16002Y123482
X13970Y131864
X20955Y135293
X22860Y135674
X26670Y135674
X22987Y125895
X10414Y115386
X23749Y124879
X15621Y116752
X22479Y126606
X8890Y115354
X12700Y120434
X8890Y118783
X27305Y128054
X6477Y119545
X3175Y119799
X17145Y116116
X27559Y125924
X31510Y118783
X44450Y124244
X28194Y124498
X30607Y119037
X45720Y126784
X26670Y122593
X48260Y120434
X29837Y116759
X46990Y121069
X24511Y125387
X47625Y117132
X25294Y125789
X47752Y118148
X27686Y122593
X16383Y115227
X12700Y115608
X12700Y118656
X15240Y122593
X21844Y119926
X23622Y128029
X3048Y117386
X12446Y121577
X26924Y126911
X3175Y121196
X3175Y118529
X27762Y126784
X44577Y122339
X69088Y131102
X65278Y123990
X69088Y132880
X66548Y131864
X60960Y118148
X60198Y134404
X70612Y135928
X71628Y134404
X76708Y134404
X80518Y131102
X76708Y131229
X76581Y128308
X76581Y123482
X82804Y125260
X85217Y124244
X89916Y131991
X88138Y122974
X71374Y121704
X63500Y132626
X56007Y114973
X55753Y113195
X81280Y113576
X90678Y120561
X94234Y123482
X94361Y119164
X98298Y128308
X95758Y129832
X94615Y128308
X94107Y131991
X95758Y131229
X95250Y134912
X98298Y136690
X93980Y135801
X90424Y133388
X81153Y137452
X79502Y135674
X55118Y138595
X56261Y134912
X98552Y115100
X73914Y123482
X89662Y119164
X70358Y119164
X92710Y120434
X69088Y123482
X66421Y115227
X88138Y128054
X88138Y133134
X84328Y120815
X71628Y115354
X95758Y136690
X97028Y136690
X99568Y136690
X95758Y128308
X97028Y128308
X99568Y128308
X92202Y135801
X90424Y135801
X70358Y123482
X63627Y128181
X67183Y120688
X66421Y128308
X61595Y131102
X57531Y116624
X85217Y129324
X78232Y124498
X77978Y126022
X55118Y133134
X55118Y130594
X81788Y129324
X85598Y135674
X72898Y131102
X76708Y132372
X85217Y133134
X94361Y114084
X71628Y129959
X62560Y134150
X72517Y129705
X70993Y130848
X61722Y135573
X54864Y123609
X57531Y122974
X59817Y126422
X67310Y123482
X65278Y131864
X72263Y135293
X74168Y135674
X77978Y135674
X74295Y125895
X61722Y115386
X75057Y124879
X66929Y116752
X73787Y126606
X60198Y115354
X64008Y120434
X60198Y118783
X78613Y128054
X57785Y119545
X54483Y119799
X68453Y116116
X78867Y125924
X82818Y118783
X95758Y124244
X79502Y124498
X81915Y119037
X97028Y126784
X77978Y122593
X99568Y120434
X81145Y116759
X19050Y123482
X75819Y125387
X98933Y117132
X76602Y125789
X99060Y118148
X78994Y122593
X67691Y115227
X64008Y115608
X64008Y118656
X66548Y122593
X73152Y119926
X74930Y128029
X54356Y117386
X63754Y121577
X78232Y126911
X54483Y121196
X54483Y118529
X79070Y126784
X95885Y122339
X13970Y12197
X17780Y21087
X15240Y20071
X9652Y6355
X8890Y22611
X19304Y24135
X20320Y22611
X25400Y22611
X29210Y19309
X25400Y19436
X25273Y16515
X25273Y11689
X31496Y13467
X33909Y12451
X38608Y20198
X36830Y11181
X20066Y9911
X12192Y20833
X4699Y3180
X4445Y1402
X29972Y1783
X39370Y8768
X42926Y11689
X43053Y7371
X46990Y16515
X44450Y18039
X43307Y16515
X42799Y20198
X44450Y19436
X43942Y23119
X46990Y24897
X42672Y24008
X39116Y21595
X29845Y25659
X28194Y23881
X3810Y26802
X4953Y23119
X47244Y3307
X22606Y11689
X38354Y7371
X19050Y7371
X41402Y8641
X17780Y11689
X15113Y3434
X36830Y16261
X36830Y21341
X33020Y9022
X20320Y3561
X44450Y24897
X45720Y24897
X48260Y24897
X44450Y16515
X45720Y16515
X48260Y16515
X40894Y24008
X39116Y24008
X19050Y11689
X12319Y16388
X15875Y8895
X15113Y16515
X10287Y19309
X6223Y4831
X33909Y17531
X26924Y12705
X26670Y14229
X3810Y21341
X3810Y18801
X30480Y17531
X34290Y23881
X21590Y19309
X25400Y20579
X33909Y21341
X43053Y2291
X20320Y18166
X11252Y22357
X21209Y17912
X19685Y19055
X10414Y23779
X3556Y11816
X6223Y11181
X8509Y14629
X16002Y11689
X13970Y20071
X20955Y23500
X22860Y23881
X26670Y23881
X22987Y14102
X10414Y3593
X23749Y13086
X15621Y4959
X22479Y14813
X8890Y3561
X12700Y8641
X8890Y6990
X27305Y16261
X6477Y7752
X3175Y8006
X17145Y4323
X27559Y14131
X31510Y6990
X44450Y12451
X28194Y12705
X30607Y7244
X45720Y14991
X26670Y10800
X48260Y8641
X29837Y4966
X46990Y9276
X24511Y13594
X47625Y5339
X25294Y13996
X47752Y6355
X27686Y10800
X16383Y3434
X12700Y3815
X12700Y6863
X15240Y10800
X21844Y8133
X23622Y16236
X3048Y5593
X12446Y9784
X26924Y15118
X3175Y9403
X3175Y6736
X27762Y14991
X44577Y10546
X69088Y19309
X65278Y12197
X69088Y21087
X66548Y20071
X60960Y6355
X60198Y22611
X70612Y24135
X71628Y22611
X76708Y22611
X80518Y19309
X76708Y19436
X76581Y16515
X76581Y11689
X82804Y13467
X85217Y12451
X89916Y20198
X88138Y11181
X71374Y9911
X63500Y20833
X56007Y3180
X55753Y1402
X81280Y1783
X90678Y8768
X94234Y11689
X94361Y7371
X98298Y16515
X95758Y18039
X94615Y16515
X94107Y20198
X95758Y19436
X95250Y23119
X98298Y24897
X93980Y24008
X98298Y121069
M30